<svg version="1.1" id="Layer_1" xmlns="http://www.w3.org/2000/svg" xmlns:xlink="http://www.w3.org/1999/xlink" x="0px" y="0px"
	 width="100%" viewBox="0 0 1002 601" enable-background="new 0 0 1002 601" xml:space="preserve">
<path fill="#FFFFFF" opacity="1.000000" stroke="none" 
	d="
M680.000000,602.000000 
	C453.333344,602.000000 227.166672,602.000000 1.000000,602.000000 
	C1.000000,401.666656 1.000000,201.333328 1.000000,1.000000 
	C335.000000,1.000000 669.000000,1.000000 1003.000000,1.000000 
	C1003.000000,201.333328 1003.000000,401.666656 1003.000000,602.000000 
	C895.500000,602.000000 788.000000,602.000000 680.000000,602.000000 
M497.271301,516.394714 
	C504.420013,522.340027 511.245239,528.734985 518.774841,534.150696 
	C547.346680,554.701416 578.349976,570.189087 612.480896,579.514954 
	C636.377625,586.044434 660.603333,589.602051 685.252686,589.643616 
	C699.499207,589.667664 713.763184,588.128845 727.993591,586.976501 
	C751.304626,585.088867 773.476685,578.322571 795.113770,569.954163 
	C819.784424,560.412415 842.895569,547.717712 863.511597,531.112122 
	C875.866394,521.160828 887.822449,510.468750 898.560791,498.821625 
	C910.626038,485.735382 922.287231,471.965149 932.023865,457.115326 
	C947.170715,434.013733 958.369202,408.838196 965.995239,382.086914 
	C971.492737,362.802155 975.353577,343.242798 976.589600,323.337372 
	C979.013245,284.308502 974.839661,246.006897 961.883911,208.837067 
	C952.359009,181.510284 939.394165,156.016846 922.328735,132.678207 
	C901.806702,104.612122 877.145386,80.865807 848.003845,61.721275 
	C822.743347,45.126438 795.679810,32.643559 766.611511,24.534531 
	C747.382629,19.170330 727.810059,15.822004 707.821594,14.668900 
	C682.262207,13.194421 656.902710,14.639818 631.876953,19.777880 
	C608.432373,24.591291 585.910767,32.192394 564.240967,42.711834 
	C539.191467,54.871967 516.514709,70.203712 495.302368,88.744301 
	C493.715271,87.275948 492.193695,85.728508 490.531219,84.351151 
	C466.388733,64.349396 440.314514,47.573364 411.157562,35.655701 
	C379.666199,22.783871 346.996185,15.392539 313.061340,14.371799 
	C298.493591,13.933608 283.837921,15.014004 269.276031,16.115839 
	C248.041443,17.722567 227.373474,22.709970 207.375198,29.738287 
	C173.505081,41.641808 142.673065,59.114929 115.266022,82.516144 
	C93.297600,101.273659 74.303467,122.652176 58.864410,146.993622 
	C41.716534,174.029205 29.240168,203.114655 21.715002,234.394180 
	C13.134066,270.062225 11.570948,306.053009 16.420370,342.179626 
	C19.656851,366.290375 26.180552,389.708435 35.654610,412.326660 
	C48.287251,442.485626 65.281029,469.813660 87.028786,494.077423 
	C104.252075,513.293274 123.790764,529.934570 145.555359,543.999207 
	C184.766388,569.338074 227.688858,583.965027 273.938843,588.743103 
	C294.284149,590.844910 314.733734,590.390930 335.122955,588.008850 
	C360.290802,585.068481 384.685181,579.033020 408.150177,569.612244 
	C437.900543,557.667969 465.174957,541.499634 489.305023,520.209106 
	C491.459137,518.308472 494.346375,517.238892 497.271301,516.394714 
z"/>
<path fill="#FE72A6" opacity="1.000000" stroke="none" 
	d="
M496.893127,515.783325 
	C494.346375,517.238892 491.459137,518.308472 489.305023,520.209106 
	C465.174957,541.499634 437.900543,557.667969 408.150177,569.612244 
	C384.685181,579.033020 360.290802,585.068481 335.122955,588.008850 
	C314.733734,590.390930 294.284149,590.844910 273.938843,588.743103 
	C227.688858,583.965027 184.766388,569.338074 145.555359,543.999207 
	C123.790764,529.934570 104.252075,513.293274 87.028786,494.077423 
	C65.281029,469.813660 48.287251,442.485626 35.654610,412.326660 
	C26.180552,389.708435 19.656851,366.290375 16.420370,342.179626 
	C11.570948,306.053009 13.134066,270.062225 21.715002,234.394180 
	C29.240168,203.114655 41.716534,174.029205 58.864410,146.993622 
	C74.303467,122.652176 93.297600,101.273659 115.266022,82.516144 
	C142.673065,59.114929 173.505081,41.641808 207.375198,29.738287 
	C227.373474,22.709970 248.041443,17.722567 269.276031,16.115839 
	C283.837921,15.014004 298.493591,13.933608 313.061340,14.371799 
	C346.996185,15.392539 379.666199,22.783871 411.157562,35.655701 
	C440.314514,47.573364 466.388733,64.349396 490.531219,84.351151 
	C492.193695,85.728508 493.715271,87.275948 495.709808,89.173531 
	C497.614075,90.384247 499.500732,90.822784 500.541229,92.005676 
	C505.464691,97.602844 510.156921,103.403366 515.112793,109.433914 
	C518.190491,113.751251 521.017212,117.819977 524.044678,121.733452 
	C524.618225,122.474838 525.988220,122.600098 527.278870,123.202682 
	C531.374634,128.601028 535.182190,133.806335 538.993347,139.402252 
	C541.531128,144.706635 544.020630,149.644867 546.672668,154.494247 
	C546.922546,154.951248 548.194885,154.849136 549.256714,155.240662 
	C550.159119,156.769760 550.754578,158.087982 551.442444,159.356049 
	C555.901611,167.576111 560.925964,175.543045 564.711548,184.061142 
	C569.144958,194.037079 572.707520,204.420593 576.252991,214.762695 
	C578.254272,220.600296 579.349609,226.742432 581.066528,232.685699 
	C582.159729,236.469910 583.644226,240.141083 584.728882,244.113800 
	C564.896301,260.672058 570.026611,288.447266 585.701233,298.176361 
	C585.908569,295.608154 586.572937,293.626953 586.103760,291.965881 
	C584.909668,287.737854 585.301575,284.141541 588.801392,281.672791 
	C588.923218,287.333099 588.759094,292.482574 589.094604,297.599365 
	C589.281067,300.443542 590.300781,303.233093 590.735962,306.275757 
	C589.594849,307.299469 588.662598,308.094757 587.416626,308.987549 
	C578.332092,315.719177 573.985229,325.072144 571.328735,336.241364 
	C568.921692,334.696594 566.925659,333.831482 565.473633,332.410431 
	C559.729065,326.788635 559.026550,319.551392 559.562622,312.077606 
	C560.311646,301.634827 562.122437,291.178040 561.833313,280.772949 
	C561.438232,266.553162 555.117188,254.706116 542.843567,246.909317 
	C526.232788,236.357330 508.345337,235.596359 490.125519,241.785522 
	C482.133392,244.500397 474.669922,248.737106 466.754578,251.720840 
	C455.175446,256.085693 450.279480,252.869141 448.896240,240.664246 
	C448.862885,240.370010 448.609314,240.100739 448.398468,239.708160 
	C446.849884,239.708160 445.252075,239.708160 442.339966,239.708160 
	C442.930206,249.884583 442.677979,259.894806 444.296143,269.592987 
	C446.089508,280.341125 453.486267,285.687866 464.337067,286.292694 
	C475.290009,286.903229 482.308014,282.439697 486.131500,271.928345 
	C488.113037,266.480865 489.297760,260.745575 491.230011,255.277298 
	C492.253418,252.380981 493.530731,249.156250 495.690430,247.156708 
	C502.634338,240.727783 511.938080,243.990128 514.217163,253.631348 
	C516.979919,265.318695 515.469177,277.033295 513.871033,288.937195 
	C512.076782,288.937195 510.607758,288.898224 509.141296,288.943329 
	C497.188995,289.311035 485.183868,289.125824 473.300964,290.240692 
	C462.449829,291.258759 452.111450,294.574799 443.883148,302.454834 
	C431.801056,314.025574 430.832672,343.073456 457.887756,352.163513 
	C471.018219,356.575165 484.597778,357.683258 498.307678,356.613617 
	C506.556824,355.969940 513.934448,353.339722 516.656799,343.800964 
	C532.635620,363.023743 551.113586,357.565460 569.872314,349.466858 
	C570.004517,351.949188 570.099854,353.740601 570.207336,355.759033 
	C572.042847,355.759033 573.609131,355.759033 575.519348,355.759033 
	C575.762146,348.031677 576.822021,340.861877 586.100220,339.002502 
	C585.032837,354.198822 582.899353,368.991638 578.062195,383.264282 
	C577.265503,385.614868 576.020264,387.811371 575.185791,390.151611 
	C572.221558,398.464111 569.610474,406.913239 566.356628,415.108521 
	C563.468811,422.381775 560.085205,429.477142 556.572327,436.476318 
	C554.389954,440.824432 551.559204,444.847168 548.647949,449.019531 
	C543.883789,450.955109 543.437256,454.974731 542.648132,459.079407 
	C538.997070,464.319550 536.237305,469.942413 532.289612,474.546722 
	C522.632141,485.810486 512.364258,496.548798 502.488098,507.628784 
	C500.312225,510.069855 498.742157,513.050903 496.893127,515.783325 
M385.314545,322.695068 
	C382.876770,322.794739 380.439026,322.894409 377.203857,322.867798 
	C376.137695,322.987854 375.071533,323.107941 373.218872,323.152344 
	C364.105072,325.751373 354.991241,328.350403 345.110870,330.887329 
	C344.369171,331.064392 343.627472,331.241425 342.382721,331.328979 
	C341.944519,331.554932 341.506317,331.780884 341.020569,331.984558 
	C341.020569,331.984558 340.996948,332.031647 340.095734,331.981720 
	C339.597565,332.019684 339.099091,332.093811 338.601288,332.089783 
	C335.442291,332.064148 331.614624,333.634674 329.984100,329.383728 
	C328.700897,326.038239 331.323730,322.650726 336.463684,320.746674 
	C338.617340,319.948883 340.904907,319.266327 343.176514,319.080292 
	C349.470245,318.565002 355.784119,318.238220 362.096344,318.017212 
	C378.109772,317.456482 394.054901,316.494293 408.563080,308.658112 
	C418.716309,303.174194 425.585175,295.263000 427.385834,283.321564 
	C428.948547,272.958221 426.632721,263.967712 420.087128,255.831573 
	C414.670471,249.098755 416.845154,243.745697 425.371887,242.739822 
	C428.771484,242.338776 432.257874,242.673920 435.704712,242.669342 
	C436.484741,236.407043 427.914886,228.878738 418.925690,227.929581 
	C407.760376,226.750671 402.690582,231.313553 401.589417,243.604660 
	C401.106201,243.546143 400.603729,243.559235 400.148071,243.419571 
	C375.933899,235.996841 351.633942,236.112259 327.399872,243.056061 
	C316.578339,246.156754 307.081909,251.690094 301.869690,262.241425 
	C293.060455,280.074249 299.270111,299.110382 316.993927,308.539551 
	C322.542816,311.491669 328.628937,313.433899 334.490570,315.847198 
	C323.121857,322.978607 320.808411,333.600006 329.774323,342.560913 
	C334.887787,347.671509 341.858276,350.924103 347.996307,354.999237 
	C347.996307,354.999237 347.982941,355.010712 348.515350,355.481201 
	C361.505829,360.714569 375.052521,362.909576 389.772064,363.099304 
	C390.826660,363.074707 391.881256,363.050079 393.697815,363.330322 
	C400.466309,363.816345 407.234833,364.302399 414.662354,365.002747 
	C415.120789,364.997620 415.579193,364.992493 416.666229,365.345703 
	C426.743500,367.591675 428.424042,369.640686 427.935516,378.958282 
	C427.935516,378.958282 427.901550,378.867859 427.312012,379.246277 
	C424.771271,384.298096 420.783356,386.816589 415.191620,385.447662 
	C408.666595,383.850281 402.385529,381.256195 395.673767,378.855804 
	C395.673767,378.855804 395.272705,378.897675 394.844025,378.359009 
	C393.578766,377.862793 392.313538,377.366547 390.665771,376.362488 
	C389.502930,375.886292 388.340088,375.410095 386.735077,374.392731 
	C384.156677,373.308289 381.578308,372.223816 378.683533,370.874207 
	C378.683533,370.874207 378.271515,370.899750 377.811584,370.344421 
	C370.872833,367.965363 363.934082,365.586304 356.242676,362.952820 
	C350.020111,361.995483 343.822693,360.481659 337.569641,360.198914 
	C325.266693,359.642670 315.290314,364.232086 308.498169,374.994446 
	C301.284424,386.424835 300.273376,398.990448 301.250183,411.980316 
	C301.271759,412.267120 301.578461,412.532471 301.937286,413.101379 
	C303.190887,413.017548 304.604828,412.922974 306.017731,412.828461 
	C306.232300,411.660004 306.397400,410.847290 306.529266,410.029175 
	C308.045044,400.623810 311.522949,397.392090 320.885376,398.133148 
	C327.805267,398.680847 334.776550,399.763794 341.485382,401.522217 
	C352.060059,404.293915 362.433563,407.833191 373.373779,411.624420 
	C375.899963,412.109070 378.426117,412.593750 380.987427,413.000671 
	C380.987427,413.000671 380.923492,413.057220 381.453033,413.646820 
	C383.899323,413.995239 386.335938,414.535400 388.793549,414.659912 
	C401.452393,415.301270 412.882446,412.267822 422.082794,403.069672 
	C422.082794,403.069672 422.133850,403.187164 422.772034,402.978943 
	C434.456299,391.786469 437.140991,378.294373 433.008820,363.022369 
	C433.008820,363.022369 432.964325,363.015228 433.012085,362.245819 
	C432.056610,359.683563 431.101135,357.121307 430.237122,354.049988 
	C429.958771,353.652954 429.680420,353.255951 429.255646,352.131500 
	C426.533386,348.028961 423.811096,343.926392 421.068481,339.387512 
	C420.961517,339.080902 420.747833,338.901184 420.075470,338.247253 
	C414.717041,334.511932 409.358582,330.776611 403.706482,326.798340 
	C403.706482,326.798340 403.328430,326.846130 402.800751,326.314117 
	C397.200012,325.212006 391.599304,324.109894 385.995819,322.997681 
	C385.995819,322.997681 385.984070,323.005859 385.314545,322.695068 
M170.501312,356.059418 
	C185.586975,356.059418 200.672653,356.059418 216.592072,356.059418 
	C207.012711,343.918915 199.769180,331.533020 195.659958,316.803284 
	C205.399734,316.803284 214.211288,317.000122 223.006653,316.708679 
	C226.641953,316.588165 227.914169,317.995850 229.323593,321.183350 
	C238.078339,340.982574 250.992966,356.079712 274.479004,357.332581 
	C288.410828,358.075714 300.017639,352.910736 308.713531,341.593414 
	C307.963043,340.667328 307.498566,339.968170 306.907440,339.401062 
	C306.346741,338.863190 305.653412,338.463562 305.113953,338.072418 
	C294.908417,344.903687 286.516388,342.389648 281.800293,331.220062 
	C280.058014,327.093628 278.414581,322.894012 277.149506,318.602936 
	C271.654297,299.963593 266.385132,281.257629 260.901154,262.614899 
	C254.719360,241.599945 242.356628,225.606674 222.191696,216.322861 
	C210.759277,211.059433 198.675049,208.713776 185.841049,209.073471 
	C185.972321,211.268097 186.069351,212.890167 186.171600,214.599274 
	C192.043762,215.017639 195.592422,218.318451 197.776474,223.108734 
	C199.907974,227.783737 201.578247,232.667130 203.633438,237.379486 
	C204.971313,240.447067 204.482651,242.674545 202.301254,245.395279 
	C183.196335,269.223907 168.439545,295.496613 158.788010,324.534760 
	C155.439331,334.609863 153.214706,344.910461 153.143402,356.059387 
	C158.913162,356.059387 164.207565,356.059387 170.501312,356.059418 
z"/>
<path fill="#FE844C" opacity="1.000000" stroke="none" 
	d="
M584.953247,243.862946 
	C583.644226,240.141083 582.159729,236.469910 581.066528,232.685699 
	C579.349609,226.742432 578.254272,220.600296 576.252991,214.762695 
	C572.707520,204.420593 569.144958,194.037079 564.711548,184.061142 
	C560.925964,175.543045 555.901611,167.576111 551.442444,159.356049 
	C550.754578,158.087982 550.159119,156.769760 549.255249,154.847870 
	C545.656250,149.151215 542.322998,144.081421 538.989807,139.011642 
	C535.182190,133.806335 531.374634,128.601028 527.241455,122.840729 
	C524.591431,116.379189 521.531616,111.142647 514.931519,109.131454 
	C510.156921,103.403366 505.464691,97.602844 500.541229,92.005676 
	C499.500732,90.822784 497.614075,90.384247 496.037201,89.222900 
	C516.514709,70.203712 539.191467,54.871967 564.240967,42.711834 
	C585.910767,32.192394 608.432373,24.591291 631.876953,19.777880 
	C656.902710,14.639818 682.262207,13.194421 707.821594,14.668900 
	C727.810059,15.822004 747.382629,19.170330 766.611511,24.534531 
	C795.679810,32.643559 822.743347,45.126438 848.003845,61.721275 
	C877.145386,80.865807 901.806702,104.612122 922.328735,132.678207 
	C939.394165,156.016846 952.359009,181.510284 961.883911,208.837067 
	C974.839661,246.006897 979.013245,284.308502 976.589600,323.337372 
	C975.353577,343.242798 971.492737,362.802155 965.995239,382.086914 
	C958.369202,408.838196 947.170715,434.013733 932.023865,457.115326 
	C922.287231,471.965149 910.626038,485.735382 898.560791,498.821625 
	C887.822449,510.468750 875.866394,521.160828 863.511597,531.112122 
	C842.895569,547.717712 819.784424,560.412415 795.113770,569.954163 
	C773.476685,578.322571 751.304626,585.088867 727.993591,586.976501 
	C713.763184,588.128845 699.499207,589.667664 685.252686,589.643616 
	C660.603333,589.602051 636.377625,586.044434 612.480896,579.514954 
	C578.349976,570.189087 547.346680,554.701416 518.774841,534.150696 
	C511.245239,528.734985 504.420013,522.340027 497.082214,516.088989 
	C498.742157,513.050903 500.312225,510.069855 502.488098,507.628784 
	C512.364258,496.548798 522.632141,485.810486 532.289612,474.546722 
	C536.237305,469.942413 538.997070,464.319550 543.027832,459.074341 
	C545.512085,455.664398 547.265808,452.340179 549.019531,449.015961 
	C551.559204,444.847168 554.389954,440.824432 556.572327,436.476318 
	C560.085205,429.477142 563.468811,422.381775 566.356628,415.108521 
	C569.610474,406.913239 572.221558,398.464111 575.185791,390.151611 
	C576.020264,387.811371 577.265503,385.614868 578.062195,383.264282 
	C582.899353,368.991638 585.032837,354.198822 586.419556,338.737274 
	C593.583130,336.812775 599.868408,338.611267 605.817505,342.667633 
	C611.708435,346.684387 617.554260,351.038055 624.018127,353.886261 
	C636.630493,359.443695 649.626770,359.711365 660.727966,350.546844 
	C671.799927,341.406494 675.278198,329.098389 671.741577,314.655914 
	C669.583435,307.727600 666.281250,301.962677 660.531189,297.600464 
	C659.274353,298.800201 658.218323,299.808289 657.907898,300.104553 
	C658.362854,303.955627 658.719360,306.973785 658.970703,310.167969 
	C658.865601,310.344025 658.879150,310.753906 658.617126,310.986267 
	C655.146667,316.997681 650.701660,319.290955 644.878845,317.827484 
	C642.504211,317.230621 640.280823,316.032501 637.711304,314.906433 
	C629.982666,309.755005 622.393982,305.156036 612.678833,304.941284 
	C612.997742,304.148407 613.557495,303.224091 614.309692,303.024261 
	C624.547302,300.304840 634.811584,297.685699 645.422363,295.018341 
	C667.999817,285.007446 673.860535,261.689545 672.497986,239.429596 
	C670.948608,239.544800 669.405762,239.659515 667.755981,239.782181 
	C667.559875,241.691696 667.409790,243.159561 667.258118,244.627274 
	C666.388794,253.039444 662.314453,257.760529 653.916931,257.679016 
	C648.893494,257.630310 643.684265,255.588165 638.952637,253.534058 
	C635.384644,251.985077 632.495911,248.917068 629.211792,246.660522 
	C615.030090,236.916092 600.346558,234.656891 584.953247,243.862946 
M692.777649,413.466827 
	C695.228394,418.826813 699.024658,415.028656 702.463928,415.842987 
	C695.959839,408.448090 700.615845,400.173248 698.697693,393.396149 
	C695.611572,393.396149 692.671082,393.396149 688.990173,393.396149 
	C694.010925,397.074158 694.941101,404.332123 691.256226,411.106567 
	C684.683472,414.282898 682.083435,412.694550 681.948181,405.332977 
	C681.872681,401.220490 681.934631,397.105499 681.934631,392.662109 
	C678.544495,392.894348 675.623352,393.094482 673.666565,393.228516 
	C674.655334,396.285675 675.659058,398.589233 676.100708,400.996002 
	C676.486023,403.095825 676.132996,405.319672 676.292358,407.474915 
	C676.577209,411.326202 677.739502,414.790100 681.860596,416.084229 
	C685.848877,417.336639 689.393372,416.494232 692.777649,413.466827 
M716.181824,415.756683 
	C720.453979,415.387726 724.726074,415.018738 729.180725,415.511383 
	C732.176514,415.703674 735.172302,415.895966 737.245422,416.029053 
	C736.385010,412.778748 735.138367,410.118225 735.066406,407.426300 
	C734.814819,398.019043 734.968933,388.600952 734.968933,378.750488 
	C731.446594,378.937653 728.360901,379.101624 723.816589,379.343109 
	C731.885132,383.526276 728.281860,389.428864 729.338623,394.618073 
	C718.868042,390.076233 711.235229,393.160187 710.023804,401.860199 
	C709.238953,407.496765 711.517822,411.727600 716.181824,415.756683 
M774.333191,302.841675 
	C774.613586,302.692474 774.908813,302.564331 775.165955,302.382263 
	C775.252991,302.320648 775.293274,302.012970 775.270630,302.002686 
	C774.291443,301.556519 772.818237,301.393707 772.415100,300.649323 
	C771.547974,299.048340 770.567261,298.114044 769.267517,299.642303 
	C768.642090,300.377777 768.975342,302.058533 769.114319,303.284027 
	C769.330322,305.188568 769.751038,307.069916 769.893860,309.399933 
	C769.893860,309.399933 769.917175,309.877960 769.442444,310.328674 
	C768.634521,311.890747 767.826660,313.452850 766.530884,315.163727 
	C766.338501,315.431946 766.146179,315.700165 765.236816,316.216003 
	C759.573425,319.884888 754.291626,317.609528 748.456970,314.766235 
	C740.448120,310.886749 732.439270,307.007263 724.455505,303.139923 
	C730.156372,301.946991 736.285828,300.705231 742.396851,299.378357 
	C766.480225,294.149078 778.514282,281.710663 782.643005,257.293976 
	C783.621826,251.505447 783.608521,245.549179 784.084106,239.237747 
	C781.583374,239.523132 780.012207,239.702438 778.417297,239.884460 
	C778.254028,241.850525 778.142517,243.339935 778.004883,244.826935 
	C777.277100,252.689819 773.279785,256.751678 765.405273,257.827118 
	C758.051941,258.831360 752.205688,255.577866 746.511658,251.556198 
	C741.768860,248.206451 737.076294,244.676819 731.964539,241.979004 
	C717.399048,234.291855 699.607300,237.801987 689.812195,249.899490 
	C678.084045,264.384399 680.632996,287.778229 694.979065,297.283112 
	C697.648499,295.971588 698.318542,294.329834 696.930664,291.361511 
	C696.122131,289.632233 696.208923,287.077484 696.796753,285.173157 
	C699.217407,277.331970 707.792419,274.758179 716.046204,280.241882 
	C726.533875,287.209747 737.307678,292.354340 750.408203,291.289948 
	C749.233643,292.185974 748.088989,292.740631 746.880859,293.008026 
	C737.808105,295.016235 728.667908,296.746033 719.651794,298.978668 
	C692.574646,305.683655 678.994080,323.971313 681.456604,355.698212 
	C683.008667,355.698212 684.564575,355.698212 686.321960,355.698212 
	C686.477112,354.112701 686.607117,352.799103 686.733948,351.485199 
	C687.645508,342.039764 691.651123,338.380402 701.126526,337.754761 
	C708.341980,337.278351 713.695435,341.068604 719.421021,344.557220 
	C726.325562,348.764191 733.240540,353.593048 740.835388,355.886078 
	C753.912476,359.834351 766.535950,357.603973 775.705261,346.407166 
	C784.794617,335.307800 786.525085,322.652374 780.440796,309.508759 
	C779.219849,306.871216 776.019531,305.149902 774.333191,302.841675 
M815.500000,356.036865 
	C823.444275,356.036865 831.388550,356.036865 839.885071,356.036865 
	C839.885071,353.699280 839.885559,351.915497 839.884949,350.131714 
	C839.877686,328.651428 839.885010,307.171112 839.857605,285.690857 
	C839.840515,272.357208 836.201477,268.104919 823.145752,266.058105 
	C812.695496,264.419830 802.006409,263.545319 792.938110,255.713120 
	C792.938110,289.603851 792.938110,322.597778 792.938110,356.036896 
	C800.244385,356.036896 807.372253,356.036896 815.500000,356.036865 
M815.632690,259.817200 
	C823.709717,259.701508 831.262634,257.852936 836.932129,251.751556 
	C844.165283,243.967422 845.558838,234.731979 842.127991,224.837128 
	C838.868042,215.434845 831.740662,210.549240 822.211731,208.917313 
	C797.542480,204.692444 784.893616,224.178238 790.065063,242.247971 
	C793.506775,254.273788 803.095215,258.748291 815.632690,259.817200 
M638.640259,405.303650 
	C639.760681,408.011322 640.060425,410.694611 636.890747,412.094055 
	C630.533447,414.900848 626.703735,411.484436 624.051514,405.934479 
	C620.762268,409.968231 620.598450,413.910370 623.675232,414.525024 
	C628.433716,415.475647 633.452515,416.104034 638.236572,415.625610 
	C641.855225,415.263763 644.757080,412.507446 645.241394,408.251495 
	C645.728760,403.968201 644.170471,400.752350 640.297485,398.837860 
	C637.627747,397.518066 634.867188,396.376526 632.118958,395.222534 
	C629.364319,394.065857 626.254517,392.362732 628.050781,389.219299 
	C629.052185,387.466797 632.678040,386.754395 635.205688,386.531464 
	C636.432312,386.423309 637.736694,388.736481 639.229858,389.534088 
	C640.126343,390.012970 642.395752,389.900696 642.445923,389.683777 
	C643.061829,387.019135 644.145935,383.887054 639.897583,383.190948 
	C637.292725,382.764160 634.612122,382.335114 632.002319,382.497711 
	C626.085571,382.866180 623.023926,385.356110 622.192383,389.905487 
	C621.357117,394.475281 623.854797,398.429810 629.011902,400.718719 
	C632.025330,402.056213 635.033508,403.405426 638.640259,405.303650 
M772.585510,392.688995 
	C771.450012,393.368195 770.229614,393.938477 769.194031,394.745850 
	C765.116760,397.924530 763.694336,404.149841 765.817383,409.154449 
	C768.034485,414.380646 772.821838,417.159149 778.587158,416.565796 
	C784.210144,415.987091 788.249451,412.427612 789.286499,407.137573 
	C791.221558,397.266296 784.483704,391.037354 772.585510,392.688995 
M655.410645,386.964417 
	C654.885498,389.493164 654.360352,392.021942 653.878601,394.341949 
	C654.458252,396.668671 655.335327,398.934601 655.522888,401.256195 
	C655.763123,404.228485 654.999634,407.326599 655.521301,410.216614 
	C655.903503,412.334198 657.193970,415.065430 658.906921,415.989197 
	C661.715210,417.503693 664.817261,416.641174 666.575500,414.326935 
	C664.543518,412.863007 661.501892,411.787628 661.298462,410.319031 
	C660.650513,405.642212 661.058472,400.819122 661.058472,397.351990 
	C663.647644,395.772369 665.265503,394.785309 666.883362,393.798279 
	C665.039978,392.885162 663.196655,391.972046 661.165771,390.966064 
	C661.165771,389.328583 661.165771,387.372101 661.165771,384.572906 
	C659.084778,385.168671 657.336548,385.669128 655.410645,386.964417 
M748.179993,409.151245 
	C747.252869,411.269012 746.325806,413.386780 745.407532,415.484436 
	C748.972351,415.484436 753.232117,415.484436 757.372253,415.484436 
	C750.514099,408.592285 755.842651,400.067505 753.387085,392.698730 
	C750.496643,392.870087 747.549866,393.044800 745.685303,393.155365 
	C746.637146,396.244629 747.674316,398.715668 748.108215,401.288483 
	C748.488464,403.544006 748.191772,405.913635 748.179993,409.151245 
M674.847412,23.023726 
	C669.559814,22.368349 664.284729,21.559477 658.978882,21.129513 
	C656.703430,20.945122 653.423096,19.922153 653.220032,24.933088 
	C660.676575,24.933088 667.902649,24.946629 675.127441,24.857744 
	C675.314758,24.855440 675.488342,23.733337 674.847412,23.023726 
M753.191101,386.810150 
	C752.876892,385.252899 752.852783,383.525055 752.091553,382.230804 
	C751.824280,381.776611 749.203552,381.934937 748.630371,382.623444 
	C747.873962,383.532074 748.075439,385.238037 747.865112,386.601196 
	C749.458984,386.846100 751.052795,387.091003 753.191101,386.810150 
z"/>
<path fill="#060203" opacity="1.000000" stroke="none" 
	d="
M613.009216,305.146698 
	C622.393982,305.156036 629.982666,309.755005 637.760437,315.275696 
	C639.597229,316.896637 640.994446,318.552216 642.643494,318.860260 
	C645.362976,319.368256 648.245361,319.033142 651.058594,319.003571 
	C656.432922,318.947021 658.758789,316.476959 658.879150,310.753906 
	C658.879150,310.753906 658.865601,310.344025 659.382568,310.171051 
	C664.438721,310.288910 668.734619,311.154388 671.761353,315.018524 
	C675.278198,329.098389 671.799927,341.406494 660.727966,350.546844 
	C649.626770,359.711365 636.630493,359.443695 624.018127,353.886261 
	C617.554260,351.038055 611.708435,346.684387 605.817505,342.667633 
	C599.868408,338.611267 593.583130,336.812775 586.148560,338.479675 
	C576.822021,340.861877 575.762146,348.031677 575.519348,355.759033 
	C573.609131,355.759033 572.042847,355.759033 570.207336,355.759033 
	C570.099854,353.740601 570.004517,351.949188 569.872314,349.466858 
	C551.113586,357.565460 532.635620,363.023743 516.656799,343.800964 
	C513.934448,353.339722 506.556824,355.969940 498.307678,356.613617 
	C484.597778,357.683258 471.018219,356.575165 457.887756,352.163513 
	C430.832672,343.073456 431.801056,314.025574 443.883148,302.454834 
	C452.111450,294.574799 462.449829,291.258759 473.300964,290.240692 
	C485.183868,289.125824 497.188995,289.311035 509.141296,288.943329 
	C510.607758,288.898224 512.076782,288.937195 513.871033,288.937195 
	C515.469177,277.033295 516.979919,265.318695 514.217163,253.631348 
	C511.938080,243.990128 502.634338,240.727783 495.690430,247.156708 
	C493.530731,249.156250 492.253418,252.380981 491.230011,255.277298 
	C489.297760,260.745575 488.113037,266.480865 486.131500,271.928345 
	C482.308014,282.439697 475.290009,286.903229 464.337067,286.292694 
	C453.486267,285.687866 446.089508,280.341125 444.296143,269.592987 
	C442.677979,259.894806 442.930206,249.884583 442.339966,239.708160 
	C445.252075,239.708160 446.849884,239.708160 448.398468,239.708160 
	C448.609314,240.100739 448.862885,240.370010 448.896240,240.664246 
	C450.279480,252.869141 455.175446,256.085693 466.754578,251.720840 
	C474.669922,248.737106 482.133392,244.500397 490.125519,241.785522 
	C508.345337,235.596359 526.232788,236.357330 542.843567,246.909317 
	C555.117188,254.706116 561.438232,266.553162 561.833313,280.772949 
	C562.122437,291.178040 560.311646,301.634827 559.562622,312.077606 
	C559.026550,319.551392 559.729065,326.788635 565.473633,332.410431 
	C566.925659,333.831482 568.921692,334.696594 571.328735,336.241364 
	C573.985229,325.072144 578.332092,315.719177 587.823975,309.021118 
	C590.581055,308.090698 592.612610,307.214111 594.653503,306.359772 
	C599.673462,304.258362 604.636902,299.986603 609.887756,306.108521 
	C610.170349,306.437988 611.934631,305.496521 613.009216,305.146698 
M496.131287,293.503784 
	C481.072144,294.474762 477.694397,301.842499 478.463654,311.778748 
	C479.393921,323.795319 484.168152,334.567139 491.816498,343.907776 
	C495.329163,348.197601 499.732422,351.272491 505.686432,349.347565 
	C511.775360,347.379028 510.853180,341.855743 511.056610,337.225616 
	C511.537415,326.283569 511.653656,315.325897 512.061890,304.379974 
	C512.187439,301.013458 512.781189,297.664429 513.266113,293.373566 
	C507.256134,293.373566 502.134705,293.373566 496.131287,293.503784 
z"/>
<path fill="#060203" opacity="1.000000" stroke="none" 
	d="
M170.001648,356.059387 
	C164.207565,356.059387 158.913162,356.059387 153.143402,356.059387 
	C153.214706,344.910461 155.439331,334.609863 158.788010,324.534760 
	C168.439545,295.496613 183.196335,269.223907 202.301254,245.395279 
	C204.482651,242.674545 204.971313,240.447067 203.633438,237.379486 
	C201.578247,232.667130 199.907974,227.783737 197.776474,223.108734 
	C195.592422,218.318451 192.043762,215.017639 186.171600,214.599274 
	C186.069351,212.890167 185.972321,211.268097 185.841049,209.073471 
	C198.675049,208.713776 210.759277,211.059433 222.191696,216.322861 
	C242.356628,225.606674 254.719360,241.599945 260.901154,262.614899 
	C266.385132,281.257629 271.654297,299.963593 277.149506,318.602936 
	C278.414581,322.894012 280.058014,327.093628 281.800293,331.220062 
	C286.516388,342.389648 294.908417,344.903687 305.113953,338.072418 
	C305.653412,338.463562 306.346741,338.863190 306.907440,339.401062 
	C307.498566,339.968170 307.963043,340.667328 308.713531,341.593414 
	C300.017639,352.910736 288.410828,358.075714 274.479004,357.332581 
	C250.992966,356.079712 238.078339,340.982574 229.323593,321.183350 
	C227.914169,317.995850 226.641953,316.588165 223.006653,316.708679 
	C214.211288,317.000122 205.399734,316.803284 195.659958,316.803284 
	C199.769180,331.533020 207.012711,343.918915 216.592072,356.059418 
	C200.672653,356.059418 185.586975,356.059418 170.001648,356.059387 
M193.569305,271.233307 
	C189.919693,283.340393 190.488159,295.513824 193.188828,307.669189 
	C193.489090,309.020721 194.851120,311.167969 195.767212,311.192261 
	C205.488022,311.449768 215.218231,311.351959 225.455368,311.351959 
	C219.249603,290.030914 213.276917,269.510590 207.304214,248.990280 
	C206.648224,248.878815 205.992233,248.767365 205.336258,248.655899 
	C201.507233,255.932297 197.678207,263.208679 193.569305,271.233307 
z"/>
<path fill="#080303" opacity="1.000000" stroke="none" 
	d="
M347.992554,355.013336 
	C341.858276,350.924103 334.887787,347.671509 329.774323,342.560913 
	C320.808411,333.600006 323.121857,322.978607 334.490570,315.847198 
	C328.628937,313.433899 322.542816,311.491669 316.993927,308.539551 
	C299.270111,299.110382 293.060455,280.074249 301.869690,262.241425 
	C307.081909,251.690094 316.578339,246.156754 327.399872,243.056061 
	C351.633942,236.112259 375.933899,235.996841 400.148071,243.419571 
	C400.603729,243.559235 401.106201,243.546143 401.589417,243.604660 
	C402.690582,231.313553 407.760376,226.750671 418.925690,227.929581 
	C427.914886,228.878738 436.484741,236.407043 435.704742,242.671631 
	C432.257874,242.673920 428.771484,242.338776 425.371887,242.739822 
	C416.845154,243.745697 414.670471,249.098755 420.087128,255.831573 
	C426.632721,263.967712 428.948547,272.958221 427.385834,283.321564 
	C425.585175,295.263000 418.716309,303.174194 408.563080,308.658112 
	C394.054901,316.494293 378.109772,317.456482 362.096344,318.017212 
	C355.784119,318.238220 349.470245,318.565002 343.176514,319.080292 
	C340.904907,319.266327 338.617340,319.948883 336.463684,320.746674 
	C331.323730,322.650726 328.700897,326.038239 329.984100,329.383728 
	C331.614624,333.634674 335.442291,332.064148 338.601288,332.089783 
	C339.099091,332.093811 339.597565,332.019684 340.549225,332.443787 
	C341.002716,338.154694 341.002716,343.403595 341.002716,348.952148 
	C346.448334,348.361877 348.808167,350.166962 347.992554,355.013336 
M380.837708,276.685455 
	C374.438721,265.403290 368.193756,253.965347 357.348083,246.150269 
	C352.520599,242.671707 347.117249,241.960068 341.922394,245.265045 
	C337.021729,248.382874 336.639130,253.355621 337.611176,258.547852 
	C340.637573,274.713562 349.275116,288.084686 359.209198,300.654083 
	C362.332458,304.605896 366.446655,308.009064 370.684204,310.781616 
	C375.182648,313.724884 380.213867,313.132172 384.701965,309.949524 
	C388.993835,306.906036 389.634064,302.326569 388.392456,297.921295 
	C386.424988,290.940582 383.620026,284.195923 380.837708,276.685455 
z"/>
<path fill="#040102" opacity="1.000000" stroke="none" 
	d="
M378.271515,370.899750 
	C378.271515,370.899750 378.683533,370.874207 378.912109,371.354187 
	C381.819519,372.867401 384.498413,373.900665 387.177277,374.933899 
	C388.340088,375.410095 389.502930,375.886292 390.907532,377.000580 
	C392.523773,378.058350 393.898224,378.477997 395.272705,378.897675 
	C395.272705,378.897675 395.673767,378.855804 395.877991,379.332062 
	C396.732697,383.449646 399.618958,384.510498 402.608917,384.954681 
	C408.400635,385.815094 414.228333,386.680145 420.066681,386.919098 
	C428.077942,387.246979 428.129883,386.954926 427.901550,378.867859 
	C427.901550,378.867859 427.935516,378.958282 428.222076,378.707214 
	C428.339081,373.304108 428.169525,368.152039 428.413727,363.000061 
	C430.206421,363.005188 431.585388,363.010223 432.964325,363.015228 
	C432.964325,363.015228 433.008820,363.022369 432.994507,363.494995 
	C433.856140,374.301117 431.383301,384.063721 427.896027,393.648163 
	C427.678925,394.244751 427.278076,395.244141 426.935883,395.255585 
	C421.202362,395.447540 423.427307,400.378662 422.133850,403.187164 
	C422.133850,403.187164 422.082794,403.069672 421.717285,403.061768 
	C418.773193,403.927032 415.442322,404.069336 413.753632,405.807251 
	C408.162109,411.562012 401.000458,412.204651 393.849548,412.922852 
	C389.579437,413.351746 385.234680,413.037445 380.923492,413.057220 
	C380.923492,413.057220 380.987427,413.000671 380.907776,412.644775 
	C378.182800,411.875092 375.537506,411.461304 372.892212,411.047485 
	C362.433563,407.833191 352.060059,404.293915 341.485382,401.522217 
	C334.776550,399.763794 327.805267,398.680847 320.885376,398.133148 
	C311.522949,397.392090 308.045044,400.623810 306.529266,410.029175 
	C306.397400,410.847290 306.232300,411.660004 306.017731,412.828461 
	C304.604828,412.922974 303.190887,413.017548 301.937286,413.101379 
	C301.578461,412.532471 301.271759,412.267120 301.250183,411.980316 
	C300.273376,398.990448 301.284424,386.424835 308.498169,374.994446 
	C315.290314,364.232086 325.266693,359.642670 337.569641,360.198914 
	C343.822693,360.481659 350.020111,361.995483 356.619690,363.469849 
	C357.161591,365.201355 357.326447,366.415863 357.422546,367.123627 
	C359.923401,367.363251 361.856995,367.388062 363.721924,367.758453 
	C368.587830,368.724792 373.423676,369.842438 378.271515,370.899750 
M373.677277,374.448395 
	C373.795044,375.214325 373.912811,375.980286 374.030548,376.746216 
	C374.470093,376.662567 374.909668,376.578949 375.349213,376.495300 
	C375.007385,375.780457 374.665527,375.065582 373.677277,374.448395 
z"/>
<path fill="#070203" opacity="1.000000" stroke="none" 
	d="
M584.728882,244.113800 
	C600.346558,234.656891 615.030090,236.916092 629.211792,246.660522 
	C632.495911,248.917068 635.384644,251.985077 638.952637,253.534058 
	C643.684265,255.588165 648.893494,257.630310 653.916931,257.679016 
	C662.314453,257.760529 666.388794,253.039444 667.258118,244.627274 
	C667.409790,243.159561 667.559875,241.691696 667.755981,239.782181 
	C669.405762,239.659515 670.948608,239.544800 672.497986,239.429596 
	C673.860535,261.689545 667.999817,285.007446 644.987793,294.988953 
	C642.103760,294.251434 640.007385,293.519836 638.135254,292.582611 
	C638.667480,292.250671 638.993225,292.154816 639.277771,291.988495 
	C639.512329,291.851410 639.698181,291.630981 640.596924,290.835693 
	C627.996399,292.048615 617.406311,288.552979 607.741211,281.664520 
	C605.231079,279.875549 602.188599,278.655457 599.216858,277.735199 
	C595.096680,276.459259 591.451355,277.639587 588.724182,281.148315 
	C585.301575,284.141541 584.909668,287.737854 586.103760,291.965881 
	C586.572937,293.626953 585.908569,295.608154 585.701233,298.176361 
	C570.026611,288.447266 564.896301,260.672058 584.728882,244.113800 
z"/>
<path fill="#000000" opacity="1.000000" stroke="none" 
	d="
M347.994446,355.006287 
	C348.808167,350.166962 346.448334,348.361877 341.002716,348.952148 
	C341.002716,343.403595 341.002716,338.154694 340.999817,332.468750 
	C340.996948,332.031647 341.020569,331.984558 341.294647,331.998993 
	C342.007751,331.815125 342.446777,331.616821 342.885773,331.418488 
	C343.627472,331.241425 344.369171,331.064392 345.966919,330.942780 
	C351.927399,329.976471 358.138245,333.851288 361.479675,328.080872 
	C367.421753,329.213257 372.879425,330.253357 378.337067,331.293457 
	C378.513794,330.693512 378.690521,330.093597 378.867218,329.493652 
	C377.899719,328.716064 376.970276,327.334747 375.957703,327.270874 
	C372.543549,327.055450 373.436035,325.147949 374.005371,323.227997 
	C375.071533,323.107941 376.137695,322.987854 378.045288,322.947754 
	C381.252533,323.020447 383.618286,323.013153 385.984070,323.005859 
	C385.984070,323.005859 385.995819,322.997681 385.944611,323.342438 
	C385.422699,324.598541 384.951996,325.509888 384.625244,326.142578 
	C389.288086,327.138763 393.644043,328.069397 398.079956,329.379272 
	C402.667877,331.049683 407.175812,332.340881 411.683746,333.632050 
	C411.654602,334.041351 411.625488,334.450684 411.596344,334.859985 
	C409.533386,335.135284 407.470428,335.410583 405.177490,335.716553 
	C404.769562,340.712372 408.443695,338.158447 410.733032,338.516632 
	C410.661224,339.966034 410.594727,341.307922 410.486359,343.495148 
	C412.376404,342.752258 413.647766,342.340240 414.839661,341.763885 
	C416.730164,340.849762 418.567596,339.825836 420.427460,338.848328 
	C420.747833,338.901184 420.961517,339.080902 420.941284,339.924194 
	C420.231995,342.452911 419.649933,344.445007 419.065002,346.446838 
	C419.863953,347.414093 420.931976,348.707062 422.000031,350.418518 
	C422.333374,353.558441 422.666687,356.279816 422.631653,359.071838 
	C420.305756,361.216125 421.221466,366.350189 416.037628,364.987366 
	C415.579193,364.992493 415.120789,364.997620 414.221436,364.516296 
	C412.427307,363.685852 411.079193,363.070709 409.720062,363.045380 
	C404.127136,362.941193 398.530884,363.016327 392.935852,363.025452 
	C391.881256,363.050079 390.826660,363.074707 389.320953,362.645538 
	C386.435699,361.127869 384.053711,359.913666 381.551544,359.045898 
	C379.409485,358.303070 376.553833,358.624176 375.024933,357.303833 
	C371.276123,354.066467 368.688721,354.855103 365.648224,360.160400 
	C364.670074,357.000702 364.111847,355.197357 363.334625,352.686707 
	C360.938568,352.850586 357.897980,352.897095 354.909210,353.314606 
	C352.567169,353.641754 350.289307,354.428253 347.982941,355.010681 
	C347.982941,355.010712 347.996307,354.999237 347.994446,355.006287 
M384.852722,353.821503 
	C386.192078,353.052124 387.531433,352.282745 388.870758,351.513367 
	C388.183868,350.722351 387.462891,349.246460 386.816895,349.278564 
	C385.332458,349.352417 383.884583,350.160583 382.421844,350.670715 
	C382.996033,351.626038 383.570221,352.581360 384.852722,353.821503 
M360.003326,348.995087 
	C360.813843,348.784851 361.624359,348.574585 362.434875,348.364319 
	C362.386505,348.101898 362.338135,347.839508 362.289764,347.577087 
	C358.424164,347.577087 354.558594,347.577087 350.692993,347.577087 
	C350.684753,348.051147 350.676483,348.525177 350.668243,348.999237 
	C353.491150,348.999237 356.314056,348.999237 360.003326,348.995087 
M371.124084,351.038544 
	C369.923004,351.210815 368.721893,351.383087 367.520813,351.555359 
	C367.799561,352.174774 368.078308,352.794220 368.357056,353.413635 
	C369.521820,352.668701 370.686554,351.923767 371.124084,351.038544 
M407.527069,346.314697 
	C406.978729,345.975220 406.430420,345.635742 405.882050,345.296265 
	C405.746887,345.571136 405.611725,345.846039 405.476593,346.120911 
	C406.013580,346.326385 406.550537,346.531860 407.527069,346.314697 
z"/>
<path fill="#F3824E" opacity="1.000000" stroke="none" 
	d="
M588.801392,281.672791 
	C591.451355,277.639587 595.096680,276.459259 599.216858,277.735199 
	C602.188599,278.655457 605.231079,279.875549 607.741211,281.664520 
	C617.406311,288.552979 627.996399,292.048615 640.596924,290.835693 
	C639.698181,291.630981 639.512329,291.851410 639.277771,291.988495 
	C638.993225,292.154816 638.667480,292.250671 637.733948,292.603241 
	C633.715393,293.593750 630.343689,294.473907 626.925659,295.101532 
	C614.510986,297.381226 602.140564,299.773285 590.944885,306.047272 
	C590.300781,303.233093 589.281067,300.443542 589.094604,297.599365 
	C588.759094,292.482574 588.923218,287.333099 588.801392,281.672791 
z"/>
<path fill="#1B0705" opacity="1.000000" stroke="none" 
	d="
M590.735962,306.275757 
	C602.140564,299.773285 614.510986,297.381226 626.925659,295.101532 
	C630.343689,294.473907 633.715393,293.593750 637.509644,292.808868 
	C640.007385,293.519836 642.103760,294.251434 644.634705,295.012451 
	C634.811584,297.685699 624.547302,300.304840 614.309692,303.024261 
	C613.557495,303.224091 612.997742,304.148407 612.678833,304.941284 
	C611.934631,305.496521 610.170349,306.437988 609.887756,306.108521 
	C604.636902,299.986603 599.673462,304.258362 594.653503,306.359772 
	C592.612610,307.214111 590.581055,308.090698 588.137817,308.923584 
	C588.662598,308.094757 589.594849,307.299469 590.735962,306.275757 
z"/>
<path fill="#080303" opacity="1.000000" stroke="none" 
	d="
M348.249146,355.245941 
	C350.289307,354.428253 352.567169,353.641754 354.909210,353.314606 
	C357.897980,352.897095 360.938568,352.850586 363.334625,352.686707 
	C364.111847,355.197357 364.670074,357.000702 365.648224,360.160400 
	C368.688721,354.855103 371.276123,354.066467 375.024933,357.303833 
	C376.553833,358.624176 379.409485,358.303070 381.551544,359.045898 
	C384.053711,359.913666 386.435699,361.127869 388.936920,362.542633 
	C375.052521,362.909576 361.505829,360.714569 348.249146,355.245941 
z"/>
<path fill="#080303" opacity="1.000000" stroke="none" 
	d="
M420.251465,338.547791 
	C418.567596,339.825836 416.730164,340.849762 414.839661,341.763885 
	C413.647766,342.340240 412.376404,342.752258 410.486359,343.495148 
	C410.594727,341.307922 410.661224,339.966034 410.733032,338.516632 
	C408.443695,338.158447 404.769562,340.712372 405.177490,335.716553 
	C407.470428,335.410583 409.533386,335.135284 411.596344,334.859985 
	C411.625488,334.450684 411.654602,334.041351 411.683746,333.632050 
	C407.175812,332.340881 402.667877,331.049683 398.488647,329.379333 
	C400.544952,328.347198 402.272522,327.694244 404.000122,327.041321 
	C409.358582,330.776611 414.717041,334.511932 420.251465,338.547791 
z"/>
<path fill="#080303" opacity="1.000000" stroke="none" 
	d="
M373.612122,323.190186 
	C373.436035,325.147949 372.543549,327.055450 375.957703,327.270874 
	C376.970276,327.334747 377.899719,328.716064 378.867218,329.493652 
	C378.690521,330.093597 378.513794,330.693512 378.337067,331.293457 
	C372.879425,330.253357 367.421753,329.213257 361.479675,328.080872 
	C358.138245,333.851288 351.927399,329.976471 346.350189,330.973816 
	C354.991241,328.350403 364.105072,325.751373 373.612122,323.190186 
z"/>
<path fill="#080303" opacity="1.000000" stroke="none" 
	d="
M422.452942,403.083069 
	C423.427307,400.378662 421.202362,395.447540 426.935883,395.255585 
	C427.278076,395.244141 427.678925,394.244751 427.896027,393.648163 
	C431.383301,384.063721 433.856140,374.301117 432.977356,363.509644 
	C437.140991,378.294373 434.456299,391.786469 422.452942,403.083069 
z"/>
<path fill="#080303" opacity="1.000000" stroke="none" 
	d="
M381.188263,413.352020 
	C385.234680,413.037445 389.579437,413.351746 393.849548,412.922852 
	C401.000458,412.204651 408.162109,411.562012 413.753632,405.807251 
	C415.442322,404.069336 418.773193,403.927032 421.770813,403.096985 
	C412.882446,412.267822 401.452393,415.301270 388.793549,414.659912 
	C386.335938,414.535400 383.899323,413.995239 381.188263,413.352020 
z"/>
<path fill="#080303" opacity="1.000000" stroke="none" 
	d="
M427.606781,379.057068 
	C428.129883,386.954926 428.077942,387.246979 420.066681,386.919098 
	C414.228333,386.680145 408.400635,385.815094 402.608917,384.954681 
	C399.618958,384.510498 396.732697,383.449646 396.040436,379.451477 
	C402.385529,381.256195 408.666595,383.850281 415.191620,385.447662 
	C420.783356,386.816589 424.771271,384.298096 427.606781,379.057068 
z"/>
<path fill="#040102" opacity="1.000000" stroke="none" 
	d="
M423.000000,359.001221 
	C422.666687,356.279816 422.333374,353.558441 422.153198,350.108551 
	C423.199554,348.639069 424.092834,347.898071 425.048615,347.105225 
	C426.842621,349.204041 424.551331,353.790283 429.402069,352.858948 
	C429.680420,353.255951 429.958771,353.652954 430.152527,354.724243 
	C429.378632,357.932312 428.689331,360.466156 427.586670,363.000061 
	C424.100494,363.422180 422.514099,362.293030 423.000000,359.001221 
z"/>
<path fill="#080303" opacity="1.000000" stroke="none" 
	d="
M422.631653,359.071838 
	C422.514099,362.293030 424.100494,363.422180 427.586609,363.000061 
	C428.169525,368.152039 428.339081,373.304108 428.174072,378.712463 
	C428.424042,369.640686 426.743500,367.591675 416.351929,365.166534 
	C421.221466,366.350189 420.305756,361.216125 422.631653,359.071838 
z"/>
<path fill="#080303" opacity="1.000000" stroke="none" 
	d="
M398.000000,329.000000 
	C393.644043,328.069397 389.288086,327.138763 384.625244,326.142578 
	C384.951996,325.509888 385.422699,324.598541 385.945984,323.347473 
	C391.599304,324.109894 397.200012,325.212006 402.647644,326.628021 
	C400.996368,327.627960 399.498169,328.313965 398.000000,329.000000 
z"/>
<path fill="#080303" opacity="1.000000" stroke="none" 
	d="
M378.041565,370.622070 
	C373.423676,369.842438 368.587830,368.724792 363.721924,367.758453 
	C361.856995,367.388062 359.923401,367.363251 357.422546,367.123627 
	C357.326447,366.415863 357.161591,365.201355 356.996033,363.597046 
	C363.934082,365.586304 370.872833,367.965363 378.041565,370.622070 
z"/>
<path fill="#FF7A7E" opacity="1.000000" stroke="none" 
	d="
M538.993347,139.402252 
	C542.322998,144.081421 545.656250,149.151215 548.990967,154.613800 
	C548.194885,154.849136 546.922546,154.951248 546.672668,154.494247 
	C544.020630,149.644867 541.531128,144.706635 538.993347,139.402252 
z"/>
<path fill="#080303" opacity="1.000000" stroke="none" 
	d="
M429.328857,352.495239 
	C424.551331,353.790283 426.842621,349.204041 425.048615,347.105225 
	C424.092834,347.898071 423.199554,348.639069 422.153137,349.690033 
	C420.931976,348.707062 419.863953,347.414093 419.065002,346.446838 
	C419.649933,344.445007 420.231995,342.452911 420.951477,340.142334 
	C423.811096,343.926392 426.533386,348.028961 429.328857,352.495239 
z"/>
<path fill="#FF7B79" opacity="1.000000" stroke="none" 
	d="
M515.112793,109.433914 
	C521.531616,111.142647 524.591431,116.379189 526.953308,122.647705 
	C525.988220,122.600098 524.618225,122.474838 524.044678,121.733452 
	C521.017212,117.819977 518.190491,113.751251 515.112793,109.433914 
z"/>
<path fill="#FF7A80" opacity="1.000000" stroke="none" 
	d="
M548.647949,449.019531 
	C547.265808,452.340179 545.512085,455.664398 543.378723,458.993713 
	C543.437256,454.974731 543.883789,450.955109 548.647949,449.019531 
z"/>
<path fill="#080303" opacity="1.000000" stroke="none" 
	d="
M393.316833,363.177917 
	C398.530884,363.016327 404.127136,362.941193 409.720062,363.045380 
	C411.079193,363.070709 412.427307,363.685852 413.891907,364.409119 
	C407.234833,364.302399 400.466309,363.816345 393.316833,363.177917 
z"/>
<path fill="#080303" opacity="1.000000" stroke="none" 
	d="
M428.413757,363.000061 
	C428.689331,360.466156 429.378632,357.932312 430.106812,354.978760 
	C431.101135,357.121307 432.056610,359.683563 432.988220,362.630524 
	C431.585388,363.010223 430.206421,363.005188 428.413757,363.000061 
z"/>
<path fill="#080303" opacity="1.000000" stroke="none" 
	d="
M386.956177,374.663330 
	C384.498413,373.900665 381.819519,372.867401 379.070312,371.486755 
	C381.578308,372.223816 384.156677,373.308289 386.956177,374.663330 
z"/>
<path fill="#080303" opacity="1.000000" stroke="none" 
	d="
M373.132996,411.335938 
	C375.537506,411.461304 378.182800,411.875092 380.890198,412.683655 
	C378.426117,412.593750 375.899963,412.109070 373.132996,411.335938 
z"/>
<path fill="#000000" opacity="1.000000" stroke="none" 
	d="
M398.408691,329.000061 
	C399.498169,328.313965 400.996368,327.627960 402.911499,326.894043 
	C403.328430,326.846130 403.706482,326.798340 403.853302,326.919830 
	C402.272522,327.694244 400.544952,328.347198 398.408691,329.000061 
z"/>
<path fill="#080303" opacity="1.000000" stroke="none" 
	d="
M385.649292,322.850464 
	C383.618286,323.013153 381.252533,323.020447 378.444000,323.010925 
	C380.439026,322.894409 382.876770,322.794739 385.649292,322.850464 
z"/>
<path fill="#080303" opacity="1.000000" stroke="none" 
	d="
M395.058350,378.628357 
	C393.898224,378.477997 392.523773,378.058350 391.098785,377.254517 
	C392.313538,377.366547 393.578766,377.862793 395.058350,378.628357 
z"/>
<path fill="#080303" opacity="1.000000" stroke="none" 
	d="
M342.634247,331.373749 
	C342.446777,331.616821 342.007751,331.815125 341.318420,332.010132 
	C341.506317,331.780884 341.944519,331.554932 342.634247,331.373749 
z"/>
<path fill="#070303" opacity="1.000000" stroke="none" 
	d="
M769.917175,309.877960 
	C769.917175,309.877960 769.893860,309.399933 770.241272,308.974670 
	C771.636353,306.701630 772.684082,304.853882 773.731812,303.006104 
	C776.019531,305.149902 779.219849,306.871216 780.440796,309.508759 
	C786.525085,322.652374 784.794617,335.307800 775.705261,346.407166 
	C766.535950,357.603973 753.912476,359.834351 740.835388,355.886078 
	C733.240540,353.593048 726.325562,348.764191 719.421021,344.557220 
	C713.695435,341.068604 708.341980,337.278351 701.126526,337.754761 
	C691.651123,338.380402 687.645508,342.039764 686.733948,351.485199 
	C686.607117,352.799103 686.477112,354.112701 686.321960,355.698212 
	C684.564575,355.698212 683.008667,355.698212 681.456604,355.698212 
	C678.994080,323.971313 692.574646,305.683655 719.651794,298.978668 
	C728.667908,296.746033 737.808105,295.016235 746.880859,293.008026 
	C748.088989,292.740631 749.233643,292.185974 750.408203,291.289948 
	C737.307678,292.354340 726.533875,287.209747 716.046204,280.241882 
	C707.792419,274.758179 699.217407,277.331970 696.796753,285.173157 
	C696.208923,287.077484 696.122131,289.632233 696.930664,291.361511 
	C698.318542,294.329834 697.648499,295.971588 694.976929,297.282471 
	C680.632996,287.778229 678.084045,264.384399 689.812195,249.899490 
	C699.607300,237.801987 717.399048,234.291855 731.964539,241.979004 
	C737.076294,244.676819 741.768860,248.206451 746.511658,251.556198 
	C752.205688,255.577866 758.051941,258.831360 765.405273,257.827118 
	C773.279785,256.751678 777.277100,252.689819 778.004883,244.826935 
	C778.142517,243.339935 778.254028,241.850525 778.417297,239.884460 
	C780.012207,239.702438 781.583374,239.523132 784.084106,239.237747 
	C783.608521,245.549179 783.621826,251.505447 782.643005,257.293976 
	C778.514282,281.710663 766.480225,294.149078 742.396851,299.378357 
	C736.285828,300.705231 730.156372,301.946991 724.455505,303.139923 
	C732.439270,307.007263 740.448120,310.886749 748.894043,315.294403 
	C751.394653,318.723846 762.700317,320.544373 765.447937,318.293640 
	C765.928772,317.899750 765.800659,316.762360 765.953796,315.968353 
	C766.146179,315.700165 766.338501,315.431946 767.171021,315.086426 
	C768.513245,313.298737 769.215210,311.588348 769.917175,309.877960 
z"/>
<path fill="#040101" opacity="1.000000" stroke="none" 
	d="
M815.000000,356.036865 
	C807.372253,356.036896 800.244385,356.036896 792.938110,356.036896 
	C792.938110,322.597778 792.938110,289.603851 792.938110,255.713120 
	C802.006409,263.545319 812.695496,264.419830 823.145752,266.058105 
	C836.201477,268.104919 839.840515,272.357208 839.857605,285.690857 
	C839.885010,307.171112 839.877686,328.651428 839.884949,350.131714 
	C839.885559,351.915497 839.885071,353.699280 839.885071,356.036865 
	C831.388550,356.036865 823.444275,356.036865 815.000000,356.036865 
z"/>
<path fill="#060202" opacity="1.000000" stroke="none" 
	d="
M815.196411,259.782593 
	C803.095215,258.748291 793.506775,254.273788 790.065063,242.247971 
	C784.893616,224.178238 797.542480,204.692444 822.211731,208.917313 
	C831.740662,210.549240 838.868042,215.434845 842.127991,224.837128 
	C845.558838,234.731979 844.165283,243.967422 836.932129,251.751556 
	C831.262634,257.852936 823.709717,259.701508 815.196411,259.782593 
z"/>
<path fill="#180908" opacity="1.000000" stroke="none" 
	d="
M715.763184,415.149872 
	C711.517822,411.727600 709.238953,407.496765 710.023804,401.860199 
	C711.235229,393.160187 718.868042,390.076233 729.338623,394.618073 
	C728.281860,389.428864 731.885132,383.526276 723.816589,379.343109 
	C728.360901,379.101624 731.446594,378.937653 734.968933,378.750488 
	C734.968933,388.600952 734.814819,398.019043 735.066406,407.426300 
	C735.138367,410.118225 736.385010,412.778748 737.245422,416.029053 
	C735.172302,415.895966 732.176514,415.703674 729.081360,414.778503 
	C727.989685,413.143158 726.997314,412.240753 726.374756,411.168579 
	C730.244019,406.432953 730.527832,400.206482 726.809875,398.039246 
	C724.827026,396.883392 721.434937,396.271545 719.609497,397.214935 
	C717.540649,398.284058 715.325012,401.364197 715.317017,403.577759 
	C715.305542,406.746704 715.302673,411.057098 720.278198,412.362427 
	C721.917053,413.011841 723.309265,413.403259 724.701416,413.794647 
	C724.626343,414.380096 724.551208,414.965546 724.476074,415.550995 
	C721.571777,415.417297 718.667480,415.283569 715.763184,415.149872 
z"/>
<path fill="#1C0B07" opacity="1.000000" stroke="none" 
	d="
M638.342163,405.026489 
	C635.033508,403.405426 632.025330,402.056213 629.011902,400.718719 
	C623.854797,398.429810 621.357117,394.475281 622.192383,389.905487 
	C623.023926,385.356110 626.085571,382.866180 632.002319,382.497711 
	C634.612122,382.335114 637.292725,382.764160 639.897583,383.190948 
	C644.145935,383.887054 643.061829,387.019135 642.445923,389.683777 
	C642.395752,389.900696 640.126343,390.012970 639.229858,389.534088 
	C637.736694,388.736481 636.432312,386.423309 635.205688,386.531464 
	C632.678040,386.754395 629.052185,387.466797 628.050781,389.219299 
	C626.254517,392.362732 629.364319,394.065857 632.118958,395.222534 
	C634.867188,396.376526 637.627747,397.518066 640.297485,398.837860 
	C644.170471,400.752350 645.728760,403.968201 645.241394,408.251495 
	C644.757080,412.507446 641.855225,415.263763 638.236572,415.625610 
	C633.452515,416.104034 628.433716,415.475647 623.675232,414.525024 
	C620.598450,413.910370 620.762268,409.968231 624.051514,405.934479 
	C626.703735,411.484436 630.533447,414.900848 636.890747,412.094055 
	C640.060425,410.694611 639.760681,408.011322 638.342163,405.026489 
z"/>
<path fill="#1A0908" opacity="1.000000" stroke="none" 
	d="
M772.965454,392.544800 
	C784.483704,391.037354 791.221558,397.266296 789.286499,407.137573 
	C788.249451,412.427612 784.210144,415.987091 778.587158,416.565796 
	C772.821838,417.159149 768.034485,414.380646 765.817383,409.154449 
	C763.694336,404.149841 765.116760,397.924530 769.194031,394.745850 
	C770.229614,393.938477 771.450012,393.368195 772.965454,392.544800 
M773.667969,396.988464 
	C770.045227,401.000885 770.046692,405.465179 772.558838,409.869873 
	C774.072632,412.524078 776.594482,413.896790 779.759888,412.268097 
	C783.021912,410.589661 784.584717,405.035736 782.868591,400.670135 
	C781.344360,396.792542 778.791992,394.573853 773.667969,396.988464 
z"/>
<path fill="#190904" opacity="1.000000" stroke="none" 
	d="
M655.499512,386.567017 
	C657.336548,385.669128 659.084778,385.168671 661.165771,384.572906 
	C661.165771,387.372101 661.165771,389.328583 661.165771,390.966064 
	C663.196655,391.972046 665.039978,392.885162 666.883362,393.798279 
	C665.265503,394.785309 663.647644,395.772369 661.058472,397.351990 
	C661.058472,400.819122 660.650513,405.642212 661.298462,410.319031 
	C661.501892,411.787628 664.543518,412.863007 666.575500,414.326935 
	C664.817261,416.641174 661.715210,417.503693 658.906921,415.989197 
	C657.193970,415.065430 655.903503,412.334198 655.521301,410.216614 
	C654.999634,407.326599 655.763123,404.228485 655.522888,401.256195 
	C655.335327,398.934601 654.458252,396.668671 653.878601,394.341949 
	C654.360352,392.021942 654.885498,389.493164 655.499512,386.567017 
z"/>
<path fill="#1D0904" opacity="1.000000" stroke="none" 
	d="
M692.095276,413.077545 
	C689.393372,416.494232 685.848877,417.336639 681.860596,416.084229 
	C677.739502,414.790100 676.577209,411.326202 676.292358,407.474915 
	C676.132996,405.319672 676.486023,403.095825 676.100708,400.996002 
	C675.659058,398.589233 674.655334,396.285675 673.666565,393.228516 
	C675.623352,393.094482 678.544495,392.894348 681.934631,392.662109 
	C681.934631,397.105499 681.872681,401.220490 681.948181,405.332977 
	C682.083435,412.694550 684.683472,414.282898 691.541382,411.255676 
	C691.916138,411.962402 692.005676,412.519958 692.095276,413.077545 
z"/>
<path fill="#200A04" opacity="1.000000" stroke="none" 
	d="
M748.187012,408.692078 
	C748.191772,405.913635 748.488464,403.544006 748.108215,401.288483 
	C747.674316,398.715668 746.637146,396.244629 745.685303,393.155365 
	C747.549866,393.044800 750.496643,392.870087 753.387085,392.698730 
	C755.842651,400.067505 750.514099,408.592285 757.372253,415.484436 
	C753.232117,415.484436 748.972351,415.484436 745.407532,415.484436 
	C746.325806,413.386780 747.252869,411.269012 748.187012,408.692078 
z"/>
<path fill="#170805" opacity="1.000000" stroke="none" 
	d="
M692.436462,413.272186 
	C692.005676,412.519958 691.916138,411.962402 691.899048,411.160889 
	C694.941101,404.332123 694.010925,397.074158 688.990173,393.396149 
	C692.671082,393.396149 695.611572,393.396149 698.697693,393.396149 
	C700.615845,400.173248 695.959839,408.448090 702.463928,415.842987 
	C699.024658,415.028656 695.228394,418.826813 692.436462,413.272186 
z"/>
<path fill="#1E0806" opacity="1.000000" stroke="none" 
	d="
M671.741577,314.655914 
	C668.734619,311.154388 664.438721,310.288910 659.487732,309.994995 
	C658.719360,306.973785 658.362854,303.955627 657.907898,300.104553 
	C658.218323,299.808289 659.274353,298.800201 660.531189,297.600464 
	C666.281250,301.962677 669.583435,307.727600 671.741577,314.655914 
M664.585144,306.303833 
	C664.369080,306.012543 664.152954,305.721252 663.936890,305.429932 
	C663.751953,305.608032 663.567017,305.786133 663.382080,305.964233 
	C663.662720,306.193329 663.943359,306.422424 664.585144,306.303833 
z"/>
<path fill="#F3865C" opacity="1.000000" stroke="none" 
	d="
M675.257874,23.078594 
	C675.488342,23.733337 675.314758,24.855440 675.127441,24.857744 
	C667.902649,24.946629 660.676575,24.933088 653.220032,24.933088 
	C653.423096,19.922153 656.703430,20.945122 658.978882,21.129513 
	C664.284729,21.559477 669.559814,22.368349 675.257874,23.078594 
z"/>
<path fill="#1E0806" opacity="1.000000" stroke="none" 
	d="
M658.617126,310.986267 
	C658.758789,316.476959 656.432922,318.947021 651.058594,319.003571 
	C648.245361,319.033142 645.362976,319.368256 642.643494,318.860260 
	C640.994446,318.552216 639.597229,316.896637 638.037720,315.477203 
	C640.280823,316.032501 642.504211,317.230621 644.878845,317.827484 
	C650.701660,319.290955 655.146667,316.997681 658.617126,310.986267 
z"/>
<path fill="#220A02" opacity="1.000000" stroke="none" 
	d="
M752.918884,387.073029 
	C751.052795,387.091003 749.458984,386.846100 747.865112,386.601196 
	C748.075439,385.238037 747.873962,383.532074 748.630371,382.623444 
	C749.203552,381.934937 751.824280,381.776611 752.091553,382.230804 
	C752.852783,383.525055 752.876892,385.252899 752.918884,387.073029 
z"/>
<path fill="#280804" opacity="1.000000" stroke="none" 
	d="
M774.032471,302.923889 
	C772.684082,304.853882 771.636353,306.701630 770.336853,308.755249 
	C769.751038,307.069916 769.330322,305.188568 769.114319,303.284027 
	C768.975342,302.058533 768.642090,300.377777 769.267517,299.642303 
	C770.567261,298.114044 771.547974,299.048340 772.415100,300.649323 
	C772.818237,301.393707 774.291443,301.556519 775.270630,302.002686 
	C775.293274,302.012970 775.252991,302.320648 775.165955,302.382263 
	C774.908813,302.564331 774.613586,302.692474 774.032471,302.923889 
z"/>
<path fill="#280804" opacity="1.000000" stroke="none" 
	d="
M765.595337,316.092163 
	C765.800659,316.762360 765.928772,317.899750 765.447937,318.293640 
	C762.700317,320.544373 751.394653,318.723846 749.175537,315.498779 
	C754.291626,317.609528 759.573425,319.884888 765.595337,316.092163 
z"/>
<path fill="#46150A" opacity="1.000000" stroke="none" 
	d="
M715.972534,415.453278 
	C718.667480,415.283569 721.571777,415.417297 724.476074,415.550995 
	C724.551208,414.965546 724.626343,414.380096 724.701416,413.794647 
	C723.309265,413.403259 721.917053,413.011841 720.663208,412.336121 
	C722.536011,411.813965 724.270508,411.576141 726.005005,411.338348 
	C726.997314,412.240753 727.989685,413.143158 728.990112,414.347656 
	C724.726074,415.018738 720.453979,415.387726 715.972534,415.453278 
z"/>
<path fill="#280804" opacity="1.000000" stroke="none" 
	d="
M769.679810,310.103333 
	C769.215210,311.588348 768.513245,313.298737 767.414978,315.012024 
	C767.826660,313.452850 768.634521,311.890747 769.679810,310.103333 
z"/>
<path fill="#F872A3" opacity="1.000000" stroke="none" 
	d="
M496.572266,293.438660 
	C502.134705,293.373566 507.256134,293.373566 513.266113,293.373566 
	C512.781189,297.664429 512.187439,301.013458 512.061890,304.379974 
	C511.653656,315.325897 511.537415,326.283569 511.056610,337.225616 
	C510.853180,341.855743 511.775360,347.379028 505.686432,349.347565 
	C499.732422,351.272491 495.329163,348.197601 491.816498,343.907776 
	C484.168152,334.567139 479.393921,323.795319 478.463654,311.778748 
	C477.694397,301.842499 481.072144,294.474762 496.572266,293.438660 
z"/>
<path fill="#F772A3" opacity="1.000000" stroke="none" 
	d="
M193.709244,270.859192 
	C197.678207,263.208679 201.507233,255.932297 205.336258,248.655899 
	C205.992233,248.767365 206.648224,248.878815 207.304214,248.990280 
	C213.276917,269.510590 219.249603,290.030914 225.455368,311.351959 
	C215.218231,311.351959 205.488022,311.449768 195.767212,311.192261 
	C194.851120,311.167969 193.489090,309.020721 193.188828,307.669189 
	C190.488159,295.513824 189.919693,283.340393 193.709244,270.859192 
z"/>
<path fill="#F872A3" opacity="1.000000" stroke="none" 
	d="
M381.003540,277.018433 
	C383.620026,284.195923 386.424988,290.940582 388.392456,297.921295 
	C389.634064,302.326569 388.993835,306.906036 384.701965,309.949524 
	C380.213867,313.132172 375.182648,313.724884 370.684204,310.781616 
	C366.446655,308.009064 362.332458,304.605896 359.209198,300.654083 
	C349.275116,288.084686 340.637573,274.713562 337.611176,258.547852 
	C336.639130,253.355621 337.021729,248.382874 341.922394,245.265045 
	C347.117249,241.960068 352.520599,242.671707 357.348083,246.150269 
	C368.193756,253.965347 374.438721,265.403290 381.003540,277.018433 
z"/>
<path fill="#080303" opacity="1.000000" stroke="none" 
	d="
M374.000488,374.399567 
	C374.665527,375.065582 375.007385,375.780457 375.349213,376.495300 
	C374.909668,376.578949 374.470093,376.662567 374.030548,376.746216 
	C373.912811,375.980286 373.795044,375.214325 374.000488,374.399567 
z"/>
<path fill="#080303" opacity="1.000000" stroke="none" 
	d="
M384.498596,353.679077 
	C383.570221,352.581360 382.996033,351.626038 382.421844,350.670715 
	C383.884583,350.160583 385.332458,349.352417 386.816895,349.278564 
	C387.462891,349.246460 388.183868,350.722351 388.870758,351.513367 
	C387.531433,352.282745 386.192078,353.052124 384.498596,353.679077 
z"/>
<path fill="#080303" opacity="1.000000" stroke="none" 
	d="
M359.570129,348.997162 
	C356.314056,348.999237 353.491150,348.999237 350.668243,348.999237 
	C350.676483,348.525177 350.684753,348.051147 350.692993,347.577087 
	C354.558594,347.577087 358.424164,347.577087 362.289764,347.577087 
	C362.338135,347.839508 362.386505,348.101898 362.434875,348.364319 
	C361.624359,348.574585 360.813843,348.784851 359.570129,348.997162 
z"/>
<path fill="#080303" opacity="1.000000" stroke="none" 
	d="
M371.487701,351.108704 
	C370.686554,351.923767 369.521820,352.668701 368.357056,353.413635 
	C368.078308,352.794220 367.799561,352.174774 367.520813,351.555359 
	C368.721893,351.383087 369.923004,351.210815 371.487701,351.108704 
z"/>
<path fill="#080303" opacity="1.000000" stroke="none" 
	d="
M407.307281,346.526001 
	C406.550537,346.531860 406.013580,346.326385 405.476562,346.120911 
	C405.611725,345.846039 405.746887,345.571136 405.882080,345.296265 
	C406.430420,345.635742 406.978729,345.975220 407.307281,346.526001 
z"/>
<path fill="#EE8352" opacity="1.000000" stroke="none" 
	d="
M726.374756,411.168579 
	C724.270508,411.576141 722.536011,411.813965 720.416565,412.078094 
	C715.302673,411.057098 715.305542,406.746704 715.317017,403.577759 
	C715.325012,401.364197 717.540649,398.284058 719.609497,397.214935 
	C721.434937,396.271545 724.827026,396.883392 726.809875,398.039246 
	C730.527832,400.206482 730.244019,406.432953 726.374756,411.168579 
z"/>
<path fill="#EF804C" opacity="1.000000" stroke="none" 
	d="
M773.999207,396.757996 
	C778.791992,394.573853 781.344360,396.792542 782.868591,400.670135 
	C784.584717,405.035736 783.021912,410.589661 779.759888,412.268097 
	C776.594482,413.896790 774.072632,412.524078 772.558838,409.869873 
	C770.046692,405.465179 770.045227,401.000885 773.999207,396.757996 
z"/>
<path fill="#060203" opacity="1.000000" stroke="none" 
	d="
M664.404541,306.477661 
	C663.943359,306.422424 663.662720,306.193329 663.382080,305.964233 
	C663.567017,305.786133 663.751953,305.608032 663.936890,305.429932 
	C664.152954,305.721252 664.369080,306.012543 664.404541,306.477661 
z"/>
</svg>