<?xml version="1.0" encoding="UTF-8"?>
<svg version="1.1" xmlns="http://www.w3.org/2000/svg" width="625" height="625">
<path d="M0 0 C206.25 0 412.5 0 625 0 C625 206.25 625 412.5 625 625 C418.75 625 212.5 625 0 625 C0 418.75 0 212.5 0 0 Z M267 152 C260.70732432 165.72947421 254.42927389 179.43206441 248.39379883 193.27099609 C246.47173745 197.67754637 244.54228477 202.0808603 242.61328125 206.484375 C242.22415558 207.37298218 241.83502991 208.26158936 241.43411255 209.17712402 C237.65551955 217.7993849 233.83190997 226.4013337 230 235 C224.29070191 247.8147922 218.63129974 260.65074702 213 273.5 C207.36869831 286.34925744 201.70867851 299.18492931 196 312 C190.35630831 324.67030259 184.75675249 337.35930242 179.1875 350.0625 C172.99972976 364.1758014 166.79342395 378.28069365 160.5625 392.375 C160.17344482 393.25514771 159.78438965 394.13529541 159.38354492 395.04211426 C155.29093654 404.30029476 151.19591279 413.557406 147.10005188 422.81414795 C145.37647308 426.70990909 143.65350669 430.60594091 141.93063354 434.50201416 C140.72659555 437.22411248 139.52164373 439.94580495 138.31665039 442.66748047 C136.20404028 447.44189489 134.09878768 452.21949405 132 457 C131.68484436 457.71669861 131.36968872 458.43339722 131.04498291 459.17181396 C130.17803665 461.14786091 129.31644407 463.12613588 128.45703125 465.10546875 C127.97854736 466.2039917 127.50006348 467.30251465 127.00708008 468.43432617 C125.87820632 470.85091167 125.87820632 470.85091167 126 473 C156.69 473 187.38 473 219 473 C222.81468504 464.69370462 222.81468504 464.69370462 226.33984375 456.296875 C226.74992676 455.2668335 227.16000977 454.23679199 227.58251953 453.17553711 C228.25323486 451.47989624 228.25323486 451.47989624 228.9375 449.75 C229.45133491 448.45763431 229.9655122 447.16540471 230.47998047 445.87329102 C231.34533524 443.69973411 232.21044429 441.5260817 233.074646 439.35206604 C236.79568678 429.9917514 240.54087467 420.64110061 244.28356934 411.28942871 C246.63624352 405.41063351 248.9880783 399.53150253 251.33984375 393.65234375 C251.59319111 393.0190276 251.84653847 392.38571144 252.10756302 391.73320389 C256.12164585 381.69867215 260.13321446 371.66313695 264.14396667 361.62727356 C292.34237022 291.06845088 292.34237022 291.06845088 302.35073853 266.25488281 C303.15135555 264.26954132 303.9511552 262.28386999 304.75009155 260.29785156 C305.81125387 257.66104645 306.87569568 255.02559447 307.94140625 252.390625 C308.39500015 251.26143646 308.39500015 251.26143646 308.85775757 250.10943604 C310.88505835 245.11494165 310.88505835 245.11494165 312 244 C322.26855469 269.67138672 332.53710938 295.34277344 342.80566406 321.01416016 C343.21982574 322.04955933 343.63398743 323.0849585 344.06069946 324.1517334 C344.85382468 326.13455655 345.64693602 328.11738526 346.44003296 330.10021973 C348.35471241 334.88709464 350.26964267 339.67386894 352.18505859 344.46044922 C356.28954848 354.71835903 360.39097316 364.97748077 364.48711967 375.23872471 C367.12235994 381.84017309 369.7588559 388.44111927 372.395998 395.04180813 C374.02113538 399.10970942 375.6456506 403.17785639 377.26849365 407.24667358 C378.80905775 411.10919161 380.35145735 414.97097249 381.89497375 418.83231163 C382.45478428 420.23360891 383.01401963 421.6351362 383.57249451 423.03696632 C390.23300365 439.75301863 397.14817381 456.35985068 404 473 C435.35 473 466.7 473 499 473 C496.77365268 466.13429877 496.77365268 466.13429877 494.125 459.52978516 C493.78537231 458.76658966 493.44574463 458.00339417 493.0958252 457.21707153 C492.73420288 456.41582855 492.37258057 455.61458557 492 454.7890625 C491.61227417 453.92054657 491.22454834 453.05203064 490.82507324 452.15719604 C489.55380325 449.31143495 488.27682737 446.46827136 487 443.625 C485.63947269 440.58234815 484.28048926 437.5390095 482.92150879 434.4956665 C481.99028197 432.41060641 481.05855527 430.3257695 480.12634277 428.2411499 C475.94275818 418.88399582 471.79677472 409.51050321 467.66085815 400.13220215 C460.36542298 383.59007762 453.03090609 367.06561604 445.67941284 350.54833984 C439.21428377 336.01906883 432.80414291 321.46641191 426.42355347 306.89984131 C421.33053271 295.27500454 416.18344521 283.6773307 410.97094727 272.10546875 C405.84730696 260.70858683 400.83753334 249.26242259 395.82473755 237.81646729 C391.07791429 226.97991978 386.29590941 216.16200663 381.4375 205.375 C373.4956213 187.64070775 365.76449646 169.81266835 358 152 C327.97 152 297.94 152 267 152 Z " fill="#000000" transform="translate(0,0)"/>
</svg>
