<?xml version="1.0" encoding="UTF-8"?>
<svg version="1.1" xmlns="http://www.w3.org/2000/svg" width="386" height="157">
<path d="M0 0 C0.53625 0.495 1.0725 0.99 1.625 1.5 C1.01863767 7.26044212 -1.13158279 12.22014369 -3.375 17.5 C-2.58738281 17.77585937 -1.79976563 18.05171875 -0.98828125 18.3359375 C2.26058299 19.78311469 3.06383496 21.37766993 4.625 24.5 C5.285 23.571875 5.945 22.64375 6.625 21.6875 C10.28105978 17.34336156 14.4334846 15.93157387 19.96484375 15.18359375 C24.00788584 14.97505081 26.09576301 15.18025265 29.625 17.3125 C31.625 19.5 31.625 19.5 32.625 22.5 C34.98614071 20.50165336 34.98614071 20.50165336 35.4375 16.6875 C36.45379966 12.39558836 37.94753988 10.11508275 41.625 7.5 C45.17199627 7.01075913 47.42577867 6.80367794 50.5625 8.625 C52.11828953 11.37051094 51.9418479 13.39489054 51.625 16.5 C50.625 18.875 50.625 18.875 49.625 20.5 C50.07875 21.098125 50.5325 21.69625 51 22.3125 C52.25795913 24.00590652 53.45484724 25.74477086 54.625 27.5 C55.40875 27.29375 56.1925 27.0875 57 26.875 C58.299375 26.689375 58.299375 26.689375 59.625 26.5 C61.625 28.5 61.625 28.5 61.6875 31.75 C60.04474235 37.54796818 56.53811015 39.76074939 51.51171875 42.76171875 C45.96782419 45.56813074 40.78987675 46.42263462 34.625 45.5 C31.1875 43.9375 31.1875 43.9375 28.625 42.5 C27.14 42.995 27.14 42.995 25.625 43.5 C25.295 44.49 24.965 45.48 24.625 46.5 C20.18761287 47.34942326 15.95393048 47.66329619 11.4375 47.6875 C9.62185547 47.70876953 9.62185547 47.70876953 7.76953125 47.73046875 C4.625 47.5 4.625 47.5 1.625 45.5 C-4.13444762 44.84798706 -6.80552684 46.07289513 -11.375 49.5 C-14.90494613 50.67664871 -17.66955413 50.69850603 -21.375 50.5 C-22.365 49.84 -23.355 49.18 -24.375 48.5 C-26.64103501 48.79239161 -28.20703145 49.40370769 -30.1875 50.5390625 C-32.77920875 51.67756313 -34.61979764 51.70149871 -37.4375 51.625 C-38.29472656 51.60695312 -39.15195312 51.58890625 -40.03515625 51.5703125 C-41.19337891 51.53550781 -41.19337891 51.53550781 -42.375 51.5 C-45.39995412 51.31980036 -45.39995412 51.31980036 -48.125 52.5625 C-51.96875576 53.6712757 -54.50141973 53.39390314 -58.375 52.5 C-60.9404594 49.9345406 -60.91546087 48.02313332 -61.375 44.5 C-61.64054687 45.13808594 -61.90609375 45.77617188 -62.1796875 46.43359375 C-62.53289062 47.25988281 -62.88609375 48.08617187 -63.25 48.9375 C-63.77207031 50.17306641 -63.77207031 50.17306641 -64.3046875 51.43359375 C-65.375 53.5 -65.375 53.5 -67.375 54.5 C-69.39396864 54.5962762 -71.4162429 54.62981825 -73.4375 54.625 C-75.06365234 54.62886719 -75.06365234 54.62886719 -76.72265625 54.6328125 C-79.375 54.5 -79.375 54.5 -80.375 53.5 C-80.0634155 45.60328039 -77.09115416 38.52843184 -74.375 31.1875 C-73.90547159 29.90067438 -73.43671534 28.61356674 -72.96875 27.32617188 C-72.11327171 24.97733687 -71.2542798 22.62977642 -70.390625 20.28393555 C-69.69089157 18.3658922 -69.02064055 16.43692164 -68.375 14.5 C-69.695 13.18 -71.015 11.86 -72.375 10.5 C-71.30098892 7.58482708 -70.59689824 5.72189824 -68.375 3.5 C-64.09073257 2.68746652 -60.54933295 2.36799237 -56.25 3.0625 C-52.12851822 3.52782859 -50.19946183 2.88331598 -46.375 1.5 C-42.8125 1.0625 -42.8125 1.0625 -39.375 1.5 C-36.5089542 3.74299236 -34.77571927 5.35949132 -33.5625 8.8125 C-33.500625 9.369375 -33.43875 9.92625 -33.375 10.5 C-32.88 10.005 -32.385 9.51 -31.875 9 C-28.42696242 6.93117745 -25.31478529 6.90749323 -21.375 7.5 C-19.125 8.51953125 -19.125 8.51953125 -17.375 9.5 C-16.90320313 8.43458984 -16.90320313 8.43458984 -16.421875 7.34765625 C-15.99390625 6.42855469 -15.5659375 5.50945313 -15.125 4.5625 C-14.70734375 3.64597656 -14.2896875 2.72945312 -13.859375 1.78515625 C-12.375 -0.5 -12.375 -0.5 -10.390625 -1.30078125 C-3.18689778 -2.01277755 -3.18689778 -2.01277755 0 0 Z M-11.375 2.5 C-12.54980001 4.91187672 -13.42217475 7.10980963 -14.25 9.640625 C-14.62680908 10.71941925 -14.62680908 10.71941925 -15.01123047 11.82000732 C-15.81457877 14.1250153 -16.59632041 16.43655255 -17.375 18.75 C-18.15572516 21.04831992 -18.94119533 23.34461586 -19.73876953 25.637146 C-20.23444954 27.06381576 -20.7203318 28.49393968 -21.19482422 29.92779541 C-22.6431198 34.1193982 -24.3195175 37.27257052 -27.375 40.5 C-29.625 41.3125 -29.625 41.3125 -31.375 41.5 C-31.00246094 40.52417969 -30.62992187 39.54835937 -30.24609375 38.54296875 C-29.76774498 37.25799264 -29.28990692 35.97282633 -28.8125 34.6875 C-28.4422168 33.72360352 -28.4422168 33.72360352 -28.06445312 32.74023438 C-26.52711339 28.68485271 -26.52711339 28.68485271 -27.375 24.5 C-29.4647571 23.0587882 -30.8146896 22.50110297 -33.359375 22.49609375 C-35.75545089 23.41155963 -35.75545089 23.41155963 -36.68359375 26.73828125 C-37.27371805 28.77270976 -37.81367561 30.81696053 -38.35351562 32.86523438 C-39.72380739 37.58512822 -41.23977954 39.84585692 -45.375 42.5 C-46.365 42.995 -46.365 42.995 -47.375 43.5 C-47.1584375 42.93152344 -46.941875 42.36304688 -46.71875 41.77734375 C-44.9612908 36.90364903 -43.73146916 32.75550189 -44.375 27.5 C-45.365 26.84 -46.355 26.18 -47.375 25.5 C-46.90449219 25.13648437 -46.43398438 24.77296875 -45.94921875 24.3984375 C-40.94438315 20.35726589 -37.7823011 16.96205934 -37 10.3125 C-37.13974953 7.5320534 -37.13974953 7.5320534 -38.62890625 5.80859375 C-40.28574385 4.31409678 -40.28574385 4.31409678 -42.42578125 4.390625 C-43.54533203 4.56851563 -43.54533203 4.56851563 -44.6875 4.75 C-45.8940625 4.92595703 -45.8940625 4.92595703 -47.125 5.10546875 C-48.81658035 5.40208267 -50.50346184 5.72569237 -52.1875 6.0625 C-57.23439776 6.75521146 -62.28892975 6.57406898 -67.375 6.5 C-67.705 7.82 -68.035 9.14 -68.375 10.5 C-67.055 11.16 -65.735 11.82 -64.375 12.5 C-64.66221924 13.32612793 -64.94943848 14.15225586 -65.24536133 15.00341797 C-66.32613907 18.11530874 -67.4050116 21.2278472 -68.48266602 24.34082031 C-68.94644111 25.67929418 -69.41093963 27.01751764 -69.8762207 28.35546875 C-72.5420345 36.02291168 -75.1408194 43.69360494 -77.375 51.5 C-76.38270386 51.57190552 -76.38270386 51.57190552 -75.37036133 51.64526367 C-73.79248047 51.75960286 -72.21459961 51.87394206 -70.63671875 51.98828125 C-68.20397695 51.70889129 -68.20397695 51.70889129 -66.76171875 49.52734375 C-64.66846715 44.95756913 -63.2254754 40.20202579 -61.80078125 35.38671875 C-61.12005269 33.29356942 -60.48082333 31.40402037 -59.375 29.5 C-56.6796875 28.484375 -56.6796875 28.484375 -54.375 28.5 C-55.12797226 35.90422721 -55.12797226 35.90422721 -56.4375 39.0625 C-57.68111966 42.29591112 -57.57295384 45.06880011 -57.375 48.5 C-56.18103644 49.90855077 -56.18103644 49.90855077 -52.75 49.8125 C-48.00942326 49.78682901 -45.26789229 48.09526153 -41.375 45.5 C-41.045 46.49 -40.715 47.48 -40.375 48.5 C-33.62020726 49.2342166 -29.18975715 46.77591952 -23.375 43.5 C-23.045 44.49 -22.715 45.48 -22.375 46.5 C-16.8005083 47.89362292 -13.99123466 47.27653111 -8.9765625 44.5078125 C-7.39851476 43.59747257 -7.39851476 43.59747257 -6.375 42.5 C-4.69316052 42.26712992 -3.0037584 42.08735834 -1.3125 41.9375 C-0.39339844 41.85371094 0.52570313 41.76992187 1.47265625 41.68359375 C2.18292969 41.62300781 2.89320313 41.56242187 3.625 41.5 C4.285 42.49 4.945 43.48 5.625 44.5 C14.47380824 45.86961827 21.33449972 43.88073924 28.5625 38.8125 C29.573125 38.049375 30.58375 37.28625 31.625 36.5 C31.728125 37.11875 31.83125 37.7375 31.9375 38.375 C32.50025373 40.86526484 32.50025373 40.86526484 35.625 42.5 C43.27031152 43.61204531 49.2454198 40.62073625 55.625 36.5 C58.04357946 33.87265894 58.625 33.12807911 58.625 29.5 C54.68360922 31.16751148 51.8357188 33.72710649 48.625 36.5 C48.975625 35.79875 49.32625 35.0975 49.6875 34.375 C50.81949887 30.90353679 50.59297838 28.99961415 49.625 25.5 C49.08875 24.819375 48.5525 24.13875 48 23.4375 C46.625 21.5 46.625 21.5 46.875 19.0625 C47.1225 18.216875 47.37 17.37125 47.625 16.5 C48.00168344 14.84259285 48.34557545 13.17654729 48.625 11.5 C47.51703039 10.18879347 47.51703039 10.18879347 44.75 10.125 C41.51678187 10.153723 41.51678187 10.153723 39.875 12.5625 C38.52917072 15.50631188 38.52917072 15.50631188 37.8125 18.8125 C36.28574107 23.55348825 33.72492009 26.67353613 30.625 30.5 C30.00625 31.4075 29.3875 32.315 28.75 33.25 C24.40768475 37.84774556 18.8623947 39.87626053 12.625 40.5 C12.625 38.52 12.625 36.54 12.625 34.5 C14.171875 34.3453125 14.171875 34.3453125 15.75 34.1875 C20.50888407 33.34318186 23.99556203 32.07512337 27.5 28.6875 C29.00289893 25.76519653 29.04735006 23.73801713 28.625 20.5 C24.86768388 17.99512258 21.96862434 17.90381627 17.625 18.5 C13.56951991 19.59270621 10.55825616 20.95402856 8.33984375 24.62890625 C7.35746625 26.89621858 6.48867087 29.18553225 5.625 31.5 C3.34802158 35.29496403 3.34802158 35.29496403 0.53125 36.09375 C-0.41234375 36.29484375 -0.41234375 36.29484375 -1.375 36.5 C-1.14103516 35.62988281 -1.14103516 35.62988281 -0.90234375 34.7421875 C0.28556198 29.97483073 0.87417875 26.37179712 -0.375 21.5 C-3.66196233 20.70046862 -5.08523192 20.40341064 -8.375 21.5 C-7.85808594 20.30761719 -7.34117187 19.11523438 -6.80859375 17.88671875 C-6.14272728 16.32052578 -5.4773901 14.75410771 -4.8125 13.1875 C-4.47025391 12.40181641 -4.12800781 11.61613281 -3.77539062 10.80664062 C-3.45634766 10.04931641 -3.13730469 9.29199219 -2.80859375 8.51171875 C-2.51009521 7.81522217 -2.21159668 7.11872559 -1.90405273 6.40112305 C-1.12969512 4.30426411 -1.12969512 4.30426411 -2.375 1.5 C-7.01644375 1.27394469 -7.01644375 1.27394469 -11.375 2.5 Z M-32.375 13.5 C-32.045 14.82 -31.715 16.14 -31.375 17.5 C-26.94835436 17.80495485 -26.94835436 17.80495485 -23 16 C-22.195625 15.2575 -22.195625 15.2575 -21.375 14.5 C-21.705 13.18 -22.035 11.86 -22.375 10.5 C-26.82349969 10.1966932 -29.05652292 10.43679039 -32.375 13.5 Z M-28.375 20.5 C-25.9 23.47 -25.9 23.47 -23.375 26.5 C-20.6894406 23.8144406 -20.31450026 21.12378672 -19.375 17.5 C-22.67855546 17.5 -25.39608249 19.17603666 -28.375 20.5 Z M-40.5 22.1875 C-42.70977231 24.36333117 -42.70977231 24.36333117 -42.125 27.25 C-41.8775 27.9925 -41.63 28.735 -41.375 29.5 C-40.715 29.5 -40.055 29.5 -39.375 29.5 C-38.715 26.53 -38.055 23.56 -37.375 20.5 C-38.69673764 20.39635298 -38.69673764 20.39635298 -40.5 22.1875 Z M-25.375 30.5 C-24.375 32.5 -24.375 32.5 -24.375 32.5 Z M-26.375 32.5 C-25.375 34.5 -25.375 34.5 -25.375 34.5 Z " fill="#000" transform="translate(320.375,56.5)"/>
<path d="M0 0 C2.0625 1.9375 2.0625 1.9375 3 5 C2.5546563 10.21565989 1.21520279 15.25313689 -1 20 C-0.44183594 19.68546875 0.11632812 19.3709375 0.69140625 19.046875 C5.42205344 16.90167458 10.94838501 16.43253202 15.9375 17.8125 C17.66565959 18.80750097 19.34078187 19.89385458 21 21 C21.78890625 20.18402344 22.5778125 19.36804688 23.390625 18.52734375 C27.54732769 15.06790229 31.54864877 15.36062107 36.75 15.5625 C38.04357422 15.57120117 38.04357422 15.57120117 39.36328125 15.58007812 C45.70411637 15.70411637 45.70411637 15.70411637 48 18 C48.474375 17.154375 48.94875 16.30875 49.4375 15.4375 C52 13 52 13 54.1640625 12.92578125 C55.74253742 13.13915815 57.31570214 13.39733802 58.87890625 13.703125 C61.18331519 14.1859361 61.18331519 14.1859361 64 13 C70.88172043 12.27852931 70.88172043 12.27852931 73.9375 14.25 C75.21021936 16.34624365 75.79435958 17.53231491 76 20 C75.411438 22.354248 74.75407101 24.69342986 74 27 C74.99 26.34 75.98 25.68 77 25 C79.96076291 25.35888035 80.84658021 25.84658021 83 28 C83.25009383 31.50131364 82.50645429 33.40595494 80.23828125 36.06640625 C75.41357956 40.63850576 70.68905884 44.05287662 64 45 C61.28473826 44.84836235 58.69314784 44.41790225 56 44 C55.01 44.66 54.02 45.32 53 46 C49.9609375 46.16015625 49.9609375 46.16015625 46.375 46.0625 C40.00296557 45.97081605 33.98337706 46.37780868 27.69921875 47.359375 C23.68723891 47.92577215 21.33328856 48.10343438 17.375 46.875 C12.92714725 45.72185299 11.03039717 46.98480142 7 49 C2.1698317 50.32829628 -2.93249375 50.95811265 -7.5625 48.8125 C-10.1026841 47.65533168 -10.1026841 47.65533168 -12.8125 49.3125 C-13.864375 49.869375 -14.91625 50.42625 -16 51 C-20.59313772 51.96307726 -23.59864374 52.26509837 -28.0625 50.875 C-32.454769 49.57454388 -34.94702872 50.93527878 -39 53 C-44.28552545 54.49078923 -49.82752536 54.9917819 -54.875 52.6875 C-57 51 -57 51 -59 48 C-60.15874416 36.58154195 -53.36147382 19.27714932 -47 10 C-42.11730985 4.48628422 -37.41231091 1.45867042 -29.92578125 0.82421875 C-26.12762603 0.69082698 -23.20183696 0.86544202 -20 3 C-20 3.66 -20 4.32 -20 5 C-19.48050781 4.65066406 -18.96101563 4.30132812 -18.42578125 3.94140625 C-12.06296127 -0.21030439 -7.68247356 -1.9917524 0 0 Z M-24 14 C-25.093125 14.33 -26.18625 14.66 -27.3125 15 C-31 16 -31 16 -34 16 C-35.50801568 19.93447709 -37.00502914 23.87304977 -38.5 27.8125 C-39.14388672 29.49182617 -39.14388672 29.49182617 -39.80078125 31.20507812 C-40.20683594 32.27822266 -40.61289063 33.35136719 -41.03125 34.45703125 C-41.40830078 35.44678955 -41.78535156 36.43654785 -42.17382812 37.45629883 C-43.15445325 40.02979542 -43.15445325 40.02979542 -43 43 C-41.57738516 42.62610764 -40.16198858 42.22470957 -38.75 41.8125 C-37.96109375 41.59207031 -37.1721875 41.37164062 -36.359375 41.14453125 C-30.09656821 38.10644782 -28.37115562 31.43873893 -26.1875 25.3125 C-25.86330078 24.44560547 -25.53910156 23.57871094 -25.20507812 22.68554688 C-23.98109983 19.3798113 -23.98109983 19.3798113 -23 16 C-23.33 15.34 -23.66 14.68 -24 14 Z M-17 7 C-18.62042828 10.04337968 -19.80883949 13.20593396 -21 16.4375 C-21.34538818 17.32824219 -21.69077637 18.21898437 -22.04663086 19.13671875 C-23.57139744 23.08762341 -25.03541536 27.05019354 -26.37890625 31.06640625 C-29.58540729 40.36843403 -29.58540729 40.36843403 -33.25 42.75 C-37.55171846 44.18390615 -41.49851827 44.74689052 -46 45 C-44.64322117 38.11065671 -42.60409891 31.7882049 -40.0625 25.25 C-39.71509766 24.33089844 -39.36769531 23.41179687 -39.00976562 22.46484375 C-35.51687679 13.37412365 -35.51687679 13.37412365 -33 10 C-32.01 9.67 -31.02 9.34 -30 9 C-30 10.32 -30 11.64 -30 13 C-26.62537285 12.45276317 -24.91765 11.9451 -22 10 C-22.34444881 7.52733235 -22.34444881 7.52733235 -23 5 C-26.94712125 3.02643937 -31.78110352 4.25196871 -36 5 C-42.53717781 7.96023146 -46.31202153 14.13893702 -49.12475586 20.57275391 C-50.09175932 23.21801764 -50.96990268 25.87513995 -51.8125 28.5625 C-52.11091797 29.45646484 -52.40933594 30.35042969 -52.71679688 31.27148438 C-54.41946667 36.5255467 -55.62093258 41.48177268 -56 47 C-55.14780077 49.10242444 -55.14780077 49.10242444 -53 50 C-45.83111131 51.86391106 -39.29227092 50.48245581 -32.9375 46.875 C-31.4834375 45.946875 -31.4834375 45.946875 -30 45 C-29.60039063 45.4846875 -29.20078125 45.969375 -28.7890625 46.46875 C-25.93626476 48.91044589 -23.34610526 48.52284954 -19.71875 48.4375 C-15.22649602 47.71460855 -11.72587036 45.51991232 -8 43 C-7.525625 43.680625 -7.05125 44.36125 -6.5625 45.0625 C-4.01182341 47.38734199 -4.01182341 47.38734199 -0.0625 47.0625 C6.26063642 46.06856217 12.12842027 43.45934793 18 41 C18.33 41.99 18.66 42.98 19 44 C19.60328125 44 20.2065625 44 20.828125 44 C24.55208333 44 28.27604167 44 32 44 C36.57813453 43.50237668 39.96573138 42.20924234 44 40 C44 40.99 44 41.98 44 43 C49.08303686 43.11320856 49.08303686 43.11320856 54 42 C55.01900288 40.03121947 55.01900288 40.03121947 55.71875 37.59765625 C56.01136719 36.70755859 56.30398437 35.81746094 56.60546875 34.90039062 C56.90066406 33.96388672 57.19585937 33.02738281 57.5 32.0625 C58.08413768 30.21698204 58.67749451 28.37434974 59.28125 26.53515625 C59.66893555 25.30357788 59.66893555 25.30357788 60.06445312 24.04711914 C61 22 61 22 64 20 C63.81300537 20.52956299 63.62601074 21.05912598 63.43334961 21.60473633 C62.59199166 24.00414506 61.76462574 26.40815002 60.9375 28.8125 C60.64294922 29.64587891 60.34839844 30.47925781 60.04492188 31.33789062 C59.77099609 32.14033203 59.49707031 32.94277344 59.21484375 33.76953125 C58.95823975 34.50792236 58.70163574 35.24631348 58.43725586 36.00708008 C57.77951574 38.19219749 57.77951574 38.19219749 59 41 C65.97712617 41.6342842 70.31543687 40.09065621 76 36 C78.63841993 33.58703489 78.63841993 33.58703489 80 31 C79.67 30.01 79.34 29.02 79 28 C78.16855469 28.63228516 78.16855469 28.63228516 77.3203125 29.27734375 C76.59585938 29.82519531 75.87140625 30.37304688 75.125 30.9375 C74.40570313 31.48277344 73.68640625 32.02804688 72.9453125 32.58984375 C71 34 71 34 69 35 C69.2165625 34.20335938 69.433125 33.40671875 69.65625 32.5859375 C69.9346875 31.52632812 70.213125 30.46671875 70.5 29.375 C70.7784375 28.33085938 71.056875 27.28671875 71.34375 26.2109375 C71.9943876 23.02746068 72.18995997 20.23881741 72 17 C71.505 16.505 71.505 16.505 71 16 C67.46171457 16.18309368 63.94615877 16.52200832 60.41796875 16.84375 C57.49571409 16.97733878 55.73515071 16.78051041 53 16 C52.54109375 17.19238281 52.0821875 18.38476562 51.609375 19.61328125 C50.99021718 21.17993815 50.37039039 22.74633078 49.75 24.3125 C49.44964844 25.09818359 49.14929688 25.88386719 48.83984375 26.69335938 C45.93982242 33.9434127 45.93982242 33.9434127 42 36 C40.515 36.495 40.515 36.495 39 37 C39.3609375 35.86820313 39.721875 34.73640625 40.09375 33.5703125 C40.56264982 32.08858907 41.03139164 30.60681563 41.5 29.125 C41.85771484 28.00544922 41.85771484 28.00544922 42.22265625 26.86328125 C43.52770415 23.00757933 43.52770415 23.00757933 44 19 C41.43571485 18.86440325 38.87864784 18.76566812 36.3125 18.6875 C35.2306543 18.6246582 35.2306543 18.6246582 34.12695312 18.56054688 C30.05314117 18.46753747 28.4718817 18.63676681 25.1328125 21.20703125 C23.16859248 23.77922414 21.82645312 26.03688646 20.5625 29 C17.83852191 34.75633105 14.1460368 38.76507753 8 41 C5.67504723 41.38749213 3.34148732 41.72982839 1 42 C1.33 40.35 1.66 38.7 2 37 C2.67546875 36.82984375 3.3509375 36.6596875 4.046875 36.484375 C10.90060473 34.71154403 10.90060473 34.71154403 16 30 C17.36623674 27.26752652 17.128426 25.01801098 17 22 C15.21430839 20.21430839 12.66346262 20.78531897 10.25 20.75 C9.20328125 20.72421875 8.1565625 20.6984375 7.078125 20.671875 C3.59373298 21.04330765 1.80032285 21.93274596 -1 24 C-3.47442567 27.22425162 -5.25054285 30.51668124 -6.9375 34.1875 C-8.6843398 37.76306273 -10.2254479 39.43494181 -14 41 C-15.66240753 41.35396342 -17.32877897 41.69030796 -19 42 C-17.94914998 35.54670309 -16.25716053 31.78724328 -11.125 27.625 C-4.565192 22.23350817 -2.12742995 15.89340016 -0.25390625 7.76171875 C-0.17011719 6.85035156 -0.08632812 5.93898438 0 5 C-2.48018753 2.51981247 -3.38515951 2.67638442 -6.8125 2.625 C-8.09060547 2.58246094 -8.09060547 2.58246094 -9.39453125 2.5390625 C-13.05131788 3.18599027 -14.437474 4.28892177 -17 7 Z M-9 29 C-13.21422242 31.88341534 -14.76075855 34.04303419 -16 39 C-12.72518425 38.02640613 -11.23794891 37.30933359 -9.125 34.5625 C-7.64063469 31.95990704 -7.64063469 31.95990704 -9 29 Z " fill="#000" transform="translate(155,69)"/>
<path d="M0 0 C2.46526373 2.41401085 2.96600114 3.46735124 3.1875 6.9375 C1.65723306 10.88397789 -0.24102769 12.11913549 -3.85546875 14.1640625 C-6.85050575 15.33152683 -8.98705717 14.97920642 -12 14 C-12 15.32 -12 16.64 -12 18 C-11.34 18.45375 -10.68 18.9075 -10 19.375 C-9.34 19.91125 -8.68 20.4475 -8 21 C-7.75 24.1875 -7.75 24.1875 -8 27 C-8.5775 27.2475 -9.155 27.495 -9.75 27.75 C-12.13266887 28.9318612 -12.13266887 28.9318612 -14.0625 31.125 C-16 33 -16 33 -19 33 C-20.07525194 35.65228812 -21.09456151 38.28368454 -22 41 C-19.03 40.34 -16.06 39.68 -13 39 C-12.67 37.68 -12.34 36.36 -12 35 C-10.51773245 32.74819286 -8.853548 30.98917347 -7 29 C-6.34 29 -5.68 29 -5 29 C-4.7525 28.2575 -4.505 27.515 -4.25 26.75 C-2.10526949 22.03159288 0.4753905 20.00365955 5.25 18.1875 C9.92708499 16.78050914 13.27039451 16.75536698 18 18 C19.22265625 20.05859375 19.22265625 20.05859375 20 22 C20.46148437 21.60167969 20.92296875 21.20335938 21.3984375 20.79296875 C27.45471184 15.87374196 33.51183651 12.91839703 41.4375 13.0625 C44 14 44 14 45.4375 16 C46.97159925 18.40991487 46.97159925 18.40991487 50.6875 18.75 C51.780625 18.8325 52.87375 18.915 54 19 C54.75 21.25 54.75 21.25 55 24 C52.95156913 26.78586598 51.22486313 27.90549231 48.03515625 29.24609375 C44.32890396 31.38780196 43.62090101 33.0347949 42 36.9375 C39.21433757 42.97553271 37.28938061 45.28424776 31.125 47.75 C26.3898475 48.30707677 21.94308679 48.14146302 17.25 47.4375 C14.3407947 47.04587621 12.71271049 47.02342422 10 48 C10 48.66 10 49.32 10 50 C7.79229195 50.08165496 5.58369575 50.13948488 3.375 50.1875 C1.53035156 50.23970703 1.53035156 50.23970703 -0.3515625 50.29296875 C-4 50 -4 50 -7.203125 48.37890625 C-9.83389144 46.70763432 -9.83389144 46.70763432 -12.1953125 47.546875 C-12.83210938 47.94390625 -13.46890625 48.3409375 -14.125 48.75 C-19.24893278 51.8367065 -23.98926068 52.66914181 -30 52 C-35.625 49.75 -35.625 49.75 -37 47 C-37.82954218 40.44525686 -36.68220154 35.47036331 -33 30 C-32.0925 29.0925 -31.185 28.185 -30.25 27.25 C-27.26864133 22.94359303 -27.73777105 19.94777395 -27.93359375 14.84375 C-28.01424643 11.38991768 -27.67295578 9.04173778 -26 6 C-18.68683746 -0.12264771 -9.29101751 -1.48154063 0 0 Z M-23.5625 9.1875 C-25.57290755 13.12090608 -25.86838867 16.66640655 -25 21 C-23.17728073 23.12355567 -23.17728073 23.12355567 -21 24 C-21.70125 24.350625 -22.4025 24.70125 -23.125 25.0625 C-27.8840718 28.26970056 -31.7932674 32.6525224 -34 38 C-34.3554485 40.77040743 -34.18195905 43.17963465 -34 46 C-31.58009861 48.41990139 -29.69601832 48.68854901 -26.3515625 49.03515625 C-19.85513628 48.9380336 -13.59968944 46.09456522 -8 43 C-7.54625 43.474375 -7.0925 43.94875 -6.625 44.4375 C-4.29525295 46.67764139 -3.21498632 46.9824501 0.0625 47.25 C6.68819568 46.82932091 12.49052224 44.73222687 18 41 C18.33 41.99 18.66 42.98 19 44 C23.20874211 46.10437105 27.36678002 45.2039183 31.6875 43.8125 C36.8881702 40.96685027 38.73598043 37.74952123 40.8125 32.375 C42.49208839 28.33328133 42.49208839 28.33328133 44.73828125 26.859375 C46.47179039 26.18463438 48.2352632 25.5882456 50 25 C50.99 23.515 50.99 23.515 52 22 C49.36 22 46.72 22 44 22 C43.67 20.35 43.34 18.7 43 17 C37.19245213 16.62930546 32.25853684 17.39057511 27 20 C23.36675157 23.38552695 21.65066701 26.6522385 19.5625 31.125 C17.39908091 35.58579602 15.63041706 37.86288443 11 40 C8.0228701 40.83945302 5.04920805 41.48502264 2 42 C2.49752109 36.15412716 4.08583875 31.12452507 7 26 C7.66 25.67 8.32 25.34 9 25 C9 25.99 9 26.98 9 28 C12.34373475 27.44271087 15.03312999 26.64826111 18 25 C17.505 23.02 17.505 23.02 17 21 C11.39881743 19.42017928 7.1052876 20.49145177 2 23 C-0.32272662 25.0897153 -0.32272662 25.0897153 -2 28 C-10.20322561 41.0022308 -10.20322561 41.0022308 -16.82421875 42.7421875 C-19.54593146 43.25098399 -22.25112701 43.67228738 -25 44 C-24.57779474 38.37059649 -22.53252111 34.30418835 -19 30 C-16.93023002 28.25986005 -14.82845322 26.71827404 -12.57421875 25.2265625 C-12.05472656 24.82179688 -11.53523438 24.41703125 -11 24 C-11 23.34 -11 22.68 -11 22 C-12.32 21.34 -13.64 20.68 -15 20 C-15.28999491 15.07008655 -15.19703098 11.90748231 -12 8 C-11.01 8 -10.02 8 -9 8 C-8.67 8.99 -8.34 9.98 -8 11 C-3.65860092 9.97395129 -3.65860092 9.97395129 -0.5625 7 C0.2557558 4.95095094 0.2557558 4.95095094 -1 3 C-9.89584998 2.40140075 -16.63680141 3.27531828 -23.5625 9.1875 Z " fill="#000" transform="translate(41,78)"/>
<path d="M0 0 C3.69230769 0.69230769 3.69230769 0.69230769 5 2 C4.86369127 7.56768737 4.05123536 12.80353709 2 18 C2.99 18 3.98 18 5 18 C5.33 15.03 5.66 12.06 6 9 C6.99 9.33 7.98 9.66 9 10 C9.495 13.465 9.495 13.465 10 17 C10.66 14.36 11.32 11.72 12 9 C13.99954746 8.95745644 16.00041636 8.95919217 18 9 C19 10 19 10 19.0625 13.5625 C19.041875 14.696875 19.02125 15.83125 19 17 C19.66 17 20.32 17 21 17 C21.144375 15.700625 21.28875 14.40125 21.4375 13.0625 C21.875 9.125 21.875 9.125 23 8 C24.66617115 7.95936168 26.33388095 7.957279 28 8 C28.66 10.31 29.32 12.62 30 15 C30.66 14.67 31.32 14.34 32 14 C31.67 15.65 31.34 17.3 31 19 C30.34 19 29.68 19 29 19 C28.67 20.98 28.34 22.96 28 25 C27.01 25.33 26.02 25.66 25 26 C24.34 25.67 23.68 25.34 23 25 C23 23.02 23 21.04 23 19 C21.14375 19.2475 21.14375 19.2475 19.25 19.5 C16.42179168 19.87709444 13.88435938 20 11 20 C9.66431979 20.32380126 8.33076989 20.65657551 7 21 C4 21 4 21 1.0625 20.4375 C-1.93698162 20.00900263 -3.16998228 20.27121724 -6 21 C-11.44353659 21.34210766 -16.61320916 20.79804309 -22 20 C-23.258125 20 -24.51625 20 -25.8125 20 C-29 20 -29 20 -31 19 C-31.09765625 12.84765625 -31.09765625 12.84765625 -31 11 C-30 10 -30 10 -27.4375 9.9375 C-26.633125 9.958125 -25.82875 9.97875 -25 10 C-24.67 11.65 -24.34 13.3 -24 15 C-25.32 15.33 -26.64 15.66 -28 16 C-28 16.66 -28 17.32 -28 18 C-26.68 17.67 -25.36 17.34 -24 17 C-23.34 12.05 -22.68 7.1 -22 2 C-21.01 2 -20.02 2 -19 2 C-18.67 6.95 -18.34 11.9 -18 17 C-17.34 14.69 -16.68 12.38 -16 10 C-14.02 10 -12.04 10 -10 10 C-9.67 12.31 -9.34 14.62 -9 17 C-7.03177114 15.03177114 -7.33751619 11.65191291 -7 9 C-6.01 9.33 -5.02 9.66 -4 10 C-3.67 12.31 -3.34 14.62 -3 17 C-1.01912963 15.01912963 -1.63501301 11.22526252 -1.5 8.5 C-1.13513514 1.13513514 -1.13513514 1.13513514 0 0 Z M2 3 C2 4.98 2 6.96 2 9 C2.33 9 2.66 9 3 9 C3 7.02 3 5.04 3 3 C2.67 3 2.34 3 2 3 Z M-28 12 C-27 14 -27 14 -27 14 Z M-14 12 C-14 14.31 -14 16.62 -14 19 C-13.67 19 -13.34 19 -13 19 C-13 16.69 -13 14.38 -13 12 C-13.33 12 -13.66 12 -14 12 Z " fill="#000000" transform="translate(179,121)"/>
<path d="M0 0 C0.99 0 1.98 0 3 0 C3.495 6.93 3.495 6.93 4 14 C4.20625 12.88625 4.4125 11.7725 4.625 10.625 C6 7 6 7 8.6875 5.4375 C12.70627838 4.90671795 15.26467487 5.46192495 19 7 C19.495 8.485 19.495 8.485 20 10 C20.66 9.67 21.32 9.34 22 9 C21.67 10.32 21.34 11.64 21 13 C19.68 13.33 18.36 13.66 17 14 C16.34 13.01 15.68 12.02 15 11 C14.01 12.65 13.02 14.3 12 16 C9.69 15.67 7.38 15.34 5 15 C5 15.66 5 16.32 5 17 C3.5225254 17.36116046 2.04295325 17.71375048 0.5625 18.0625 C-0.67306641 18.35833984 -0.67306641 18.35833984 -1.93359375 18.66015625 C-2.95646484 18.82837891 -2.95646484 18.82837891 -4 19 C-4.33 18.67 -4.66 18.34 -5 18 C-5.33 18.66 -5.66 19.32 -6 20 C-8.546875 20.34375 -8.546875 20.34375 -11.75 20.5 C-15.06993154 20.66354343 -17.61243272 20.84318087 -20.703125 22.09375 C-23 23 -23 23 -26 22 C-27.0712828 15.97403427 -27.09945415 10.11090483 -27 4 C-25.02 3.34 -23.04 2.68 -21 2 C-21 3.32 -21 4.64 -21 6 C-21.66 6 -22.32 6 -23 6 C-23 10.62 -23 15.24 -23 20 C-21.68 20 -20.36 20 -19 20 C-18.34 16.7 -17.68 13.4 -17 10 C-15.35 10 -13.7 10 -12 10 C-11.3125 12.3125 -11.3125 12.3125 -11 15 C-12.4375 16.8125 -12.4375 16.8125 -14 18 C-13.01 17.67 -12.02 17.34 -11 17 C-10.67 14.36 -10.34 11.72 -10 9 C-8.02 8.67 -6.04 8.34 -4 8 C-3.34 10.31 -2.68 12.62 -2 15 C-0.66248366 13.89306374 -0.66248366 13.89306374 -0.9375 11.09375 C-0.9684375 9.31484375 -0.9684375 9.31484375 -1 7.5 C-1.03767546 5.33366092 -1.04658421 3.16616582 -1 1 C-0.67 0.67 -0.34 0.34 0 0 Z M8 8 C9 11 9 11 9 11 Z M11 10 C10.01 10.66 9.02 11.32 8 12 C8 12.66 8 13.32 8 14 C9.32 13.67 10.64 13.34 12 13 C11.67 12.01 11.34 11.02 11 10 Z M-15 12 C-14 15 -14 15 -14 15 Z " fill="#000000" transform="translate(272,113)"/>
<path d="M0 0 C2.475 0.99 2.475 0.99 5 2 C4.67 2.66 4.34 3.32 4 4 C3.34 4 2.68 4 2 4 C2 8.95 2 13.9 2 19 C2.99 18.67 3.98 18.34 5 18 C5.80563638 15.89415562 5.80563638 15.89415562 6.1875 13.4375 C6.42533203 12.19806641 6.42533203 12.19806641 6.66796875 10.93359375 C6.77753906 10.29550781 6.88710937 9.65742187 7 9 C8.98 9 10.96 9 13 9 C13 11.64 13 14.28 13 17 C13.66 17 14.32 17 15 17 C15 14.03 15 11.06 15 8 C17.875 8.6875 17.875 8.6875 21 10 C22.375 12.625 22.375 12.625 23 15 C23.66 14.67 24.32 14.34 25 14 C24.67 15.32 24.34 16.64 24 18 C22.35 18.33 20.7 18.66 19 19 C18.67 17.68 18.34 16.36 18 15 C17.773125 15.804375 17.54625 16.60875 17.3125 17.4375 C16 20 16 20 13.625 20.875 C11 21 11 21 8.875 20.4375 C7.946875 20.2209375 7.946875 20.2209375 7 20 C6.01 20.66 5.02 21.32 4 22 C-0.54054054 21.45945946 -0.54054054 21.45945946 -2 20 C-2.31832872 17.19988624 -2.56180646 14.43413283 -2.75 11.625 C-2.81832031 10.84382812 -2.88664063 10.06265625 -2.95703125 9.2578125 C-3.34796816 3.40378288 -3.34796816 3.40378288 -1.49316406 1.25146484 C-0.75404785 0.63198975 -0.75404785 0.63198975 0 0 Z M9 11 C9 13.31 9 15.62 9 18 C9.33 18 9.66 18 10 18 C10 15.69 10 13.38 10 11 C9.67 11 9.34 11 9 11 Z " fill="#000000" transform="translate(217,118)"/>
<path d="M0 0 C2.97 0 5.94 0 9 0 C11 2 11 2 11.046875 4.71484375 C10.94890625 5.77832031 10.8509375 6.84179688 10.75 7.9375 C10.66234375 8.99839844 10.5746875 10.05929688 10.484375 11.15234375 C10 14 10 14 8 17 C4.04 17.495 4.04 17.495 0 18 C0 12.06 0 6.12 0 0 Z M5 2 C3.79431947 6.67201205 3.90617574 11.21496292 4 16 C4.66 15.67 5.32 15.34 6 15 C7.00496852 11.98509443 7.10335303 9.95818308 7.0625 6.8125 C7.05347656 5.91144531 7.04445312 5.01039063 7.03515625 4.08203125 C7.02355469 3.39496094 7.01195312 2.70789063 7 2 C6.34 2 5.68 2 5 2 Z " fill="#000000" transform="translate(136,123)"/>
<path d="M0 0 C1.32 0 2.64 0 4 0 C4.66964286 7.76785714 4.66964286 7.76785714 1.8125 11.375 C-0.82037346 13.83234857 -2.57804402 15.02229829 -6 16 C-5.39108739 10.03265638 -4.37539576 4.37539576 0 0 Z " fill="#000000" transform="translate(269,66)"/>
<path d="M0 0 C0.99 0.33 1.98 0.66 3 1 C0.27768102 5.71170593 -1.88484204 8.04100334 -7 10 C-7.99 10 -8.98 10 -10 10 C-9.34 7.36 -8.68 4.72 -8 2 C-7.05125 1.855625 -6.1025 1.71125 -5.125 1.5625 C-2.1065506 1.17064601 -2.1065506 1.17064601 0 0 Z " fill="transparent" transform="translate(56,107)"/>
<path d="M0 0 C0.66 0 1.32 0 2 0 C3.38550197 2.77100394 3.1877467 4.9334706 3 8 C2.01 9.485 2.01 9.485 1 11 C-1.625 11.1875 -1.625 11.1875 -4 11 C-4.35858439 7.14521782 -4.2754818 5.42240542 -2.125 2.125 C-1.42375 1.42375 -0.7225 0.7225 0 0 Z " fill="#000000" transform="translate(359,82)"/>
<path d="M0 0 C2 3 2 3 1.64453125 5.55859375 C1.36996094 6.50863281 1.09539062 7.45867187 0.8125 8.4375 C0.55082031 9.38496094 0.28914063 10.33242187 0.01953125 11.30859375 C-1.00278441 14.00735041 -2.05600564 15.87516895 -4 18 C-4.66 18 -5.32 18 -6 18 C-3.10933941 5.33029613 -3.10933941 5.33029613 0 0 Z " fill="#000000" transform="translate(73,101)"/>
<path d="M0 0 C0.66 0.66 1.32 1.32 2 2 C-0.97 9.92 -0.97 9.92 -4 18 C-4.99 18 -5.98 18 -7 18 C-5.79662881 11.10796502 -3.67864914 5.93919307 0 0 Z " fill="#000000" transform="translate(312,81)"/>
<path d="M0 0 C0.99 0 1.98 0 3 0 C1.33846988 5.85659906 -0.47041916 11.4590134 -3 17 C-3.66 17 -4.32 17 -5 17 C-4.53444296 10.59859065 -2.85288164 5.73230171 0 0 Z " fill="#000000" transform="translate(186,92)"/>
<path d="M0 0 C0.66 0 1.32 0 2 0 C1.53262113 5.92013241 -0.96208261 10.97466002 -4 16 C-4.66 16.33 -5.32 16.66 -6 17 C-4.49829538 11.01448228 -3.05773837 5.38744379 0 0 Z " fill="#000000" transform="translate(147,77)"/>
<path d="M0 0 C1.32 0 2.64 0 4 0 C3.43768609 3.93619738 2.38314183 6.79192446 0 10 C-0.99 10 -1.98 10 -3 10 C-2.69201674 8.51988629 -2.378482 7.04092675 -2.0625 5.5625 C-1.88847656 4.73878906 -1.71445313 3.91507812 -1.53515625 3.06640625 C-1 1 -1 1 0 0 Z " fill="#000000" transform="translate(123,88)"/>
<path d="M0 0 C0.66 0.33 1.32 0.66 2 1 C0.52307692 6.66153846 0.52307692 6.66153846 -2.125 8.375 C-2.74375 8.58125 -3.3625 8.7875 -4 9 C-3.38461538 3.46153846 -3.38461538 3.46153846 -1.4375 1.125 C-0.963125 0.75375 -0.48875 0.3825 0 0 Z " fill="#000000" transform="translate(339,79)"/>
<path d="M0 0 C0.99 0 1.98 0 3 0 C1.52307692 5.66153846 1.52307692 5.66153846 -1.125 7.375 C-2.053125 7.684375 -2.053125 7.684375 -3 8 C-1.125 1.125 -1.125 1.125 0 0 Z " fill="#000000" transform="translate(161,94)"/>
<path d="M0 0 C0.99 0 1.98 0 3 0 C2.67 1.32 2.34 2.64 2 4 C1.34 3.67 0.68 3.34 0 3 C0 2.01 0 1.02 0 0 Z " fill="#000000" transform="translate(185,124)"/>
<path d="M0 0 C0.99 0 1.98 0 3 0 C3 0.99 3 1.98 3 3 C2.01 3 1.02 3 0 3 C0 2.01 0 1.02 0 0 Z " fill="#000000" transform="translate(172,125)"/>
<path d="M0 0 C0.66 0 1.32 0 2 0 C2 0.99 2 1.98 2 3 C1.34 3 0.68 3 0 3 C0 2.01 0 1.02 0 0 Z " fill="#000000" transform="translate(79,98)"/>
<path d="M0 0 C0.66 0 1.32 0 2 0 C2 0.99 2 1.98 2 3 C1.34 3 0.68 3 0 3 C0 2.01 0 1.02 0 0 Z " fill="#000000" transform="translate(363,70)"/>
<path d="M0 0 C0.66 0.66 1.32 1.32 2 2 C1.01 2.495 1.01 2.495 0 3 C0 2.01 0 1.02 0 0 Z " fill="transparent" transform="translate(290,40)"/>
<path d="" fill="transparent" transform="translate(0,0)"/>
<path d="" fill="transparent" transform="translate(0,0)"/>
<path d="" fill="transparent" transform="translate(0,0)"/>
<path d="" fill="#000000" transform="translate(0,0)"/>
<path d="" fill="transparent" transform="translate(0,0)"/>
</svg>
