<?xml version="1.0" encoding="UTF-8"?>
<svg version="1.1" xmlns="http://www.w3.org/2000/svg" width="1080" height="1080">
<path d="M0 0 C4.40650022 4.93336437 6.61849461 8.70718275 7.16796875 15.359375 C7.22652542 16.01050262 7.28508209 16.66163025 7.34541321 17.33248901 C7.52762379 19.40034353 7.68611346 21.46920511 7.84375 23.5390625 C7.96001698 24.90378063 8.07784395 26.2683668 8.19726562 27.6328125 C8.53647173 31.55839253 8.84683204 35.48601918 9.15625 39.4140625 C9.34898615 41.74489739 9.54286578 44.07563822 9.73828125 46.40625 C9.81925049 47.37675293 9.90021973 48.34725586 9.98364258 49.34716797 C10.04060303 50.02924316 10.09756348 50.71131836 10.15625 51.4140625 C6.06061222 49.83094764 2.43959349 47.90282998 -1.34375 45.6640625 C-18.88009844 35.49126093 -32.80069119 30.72797322 -52.71313477 35.99072266 C-54.42579016 36.45624656 -56.13515364 36.93385474 -57.84375 37.4140625 C-57.12944824 37.38787842 -56.41514648 37.36169434 -55.67919922 37.3347168 C-29.42250904 36.49925743 -29.42250904 36.49925743 -17.84375 42.4140625 C-17.10044434 42.77886719 -16.35713867 43.14367187 -15.59130859 43.51953125 C-10.62561696 45.96138319 -5.76672211 48.54592784 -0.94775391 51.26513672 C0.83409348 52.23814366 2.67262745 53.10620691 4.51953125 53.94921875 C7.57313823 55.53568026 9.18829035 56.57347409 11.15625 59.4140625 C13.55827373 67.76814503 13.22574984 76.79608208 13.15625 85.4140625 C12.59421875 85.01316406 12.0321875 84.61226562 11.453125 84.19921875 C4.45053415 79.46280378 -2.76435943 76.05656913 -10.58496094 72.87524414 C-17.94576442 69.75578241 -24.00872086 65.56249609 -28.34375 58.7265625 C-32.14861224 53.05108237 -38.23314049 51.35791886 -44.64331055 49.80883789 C-48.37820077 49.13877049 -52.0616996 49.20385166 -55.84375 49.2890625 C-57.00583984 49.30259766 -57.00583984 49.30259766 -58.19140625 49.31640625 C-60.07565843 49.33966862 -61.95974832 49.3755261 -63.84375 49.4140625 C-63.84375 50.0740625 -63.84375 50.7340625 -63.84375 51.4140625 C-63.26931152 51.63545898 -62.69487305 51.85685547 -62.10302734 52.08496094 C-59.4719792 53.10387581 -56.84539826 54.13386109 -54.21875 55.1640625 C-53.31511719 55.51210938 -52.41148437 55.86015625 -51.48046875 56.21875 C-44.57186948 58.94184752 -38.61506178 61.47108335 -34.53125 67.9765625 C-34.04011719 68.74097656 -33.54898438 69.50539063 -33.04296875 70.29296875 C-31.84375 72.4140625 -31.84375 72.4140625 -30.84375 75.4140625 C-29.07292695 76.50383712 -29.07292695 76.50383712 -26.84375 77.4140625 C-25.9878125 77.85363281 -25.131875 78.29320312 -24.25 78.74609375 C-19.26302794 81.28650021 -14.32016299 83.65774822 -9.09375 85.6640625 C3.34599379 90.78343281 15.95803326 98.54100385 24.15625 109.4140625 C24.15625 110.7340625 24.15625 112.0540625 24.15625 113.4140625 C16.54137985 111.97698288 11.73397466 108.90673289 5.9921875 103.765625 C-1.2179339 97.78698439 -9.06653603 94.47734021 -17.78125 91.1640625 C-18.90982422 90.71804688 -20.03839844 90.27203125 -21.20117188 89.8125 C-27.50742566 87.39125073 -33.09042917 85.78646195 -39.84375 85.4140625 C-39.14926758 85.74615723 -38.45478516 86.07825195 -37.73925781 86.42041016 C-34.52357068 87.95888112 -31.30865835 89.49896484 -28.09375 91.0390625 C-27.00191406 91.56113281 -25.91007812 92.08320312 -24.78515625 92.62109375 C-22.57320971 93.68125747 -20.36317998 94.7454292 -18.1550293 95.81347656 C-15.95523075 96.87680173 -13.75095817 97.93092241 -11.54223633 98.97558594 C-5.99975376 101.64651757 -1.47008457 104.15932706 2.96875 108.4140625 C7.47625086 112.39964221 11.30285831 114.49148216 16.96875 116.4140625 C24.30061147 118.97626227 27.74512607 122.46814852 31.15625 129.4140625 C31.57261719 130.22101563 31.98898437 131.02796875 32.41796875 131.859375 C35.33222628 138.21961424 35.91783959 144.47631957 36.15625 151.4140625 C30.84890461 151.0175367 27.76541449 148.0497222 23.78125 144.8515625 C16.28318866 139.06573739 8.69203113 134.50386842 0.15625 130.4140625 C-1.29612061 129.70950928 -1.29612061 129.70950928 -2.77783203 128.99072266 C-24.92449293 118.30119615 -44.38694552 111.3581588 -69.21875 111.1640625 C-70.12189941 111.15463623 -71.02504883 111.14520996 -71.95556641 111.13549805 C-86.81990988 111.20776095 -98.92796683 115.72506448 -109.7734375 126.1171875 C-113.67568144 130.44646945 -116.02265133 134.5128725 -116.09375 140.4140625 C-116.01125 141.4040625 -115.92875 142.3940625 -115.84375 143.4140625 C-115.58722656 142.785 -115.33070313 142.1559375 -115.06640625 141.5078125 C-110.38523962 131.04217397 -102.13186981 124.31670443 -91.84375 119.4140625 C-90.85375 119.4140625 -89.86375 119.4140625 -88.84375 119.4140625 C-89.99375474 122.48074179 -91.33195986 125.30171679 -92.90625 128.1640625 C-95.12643683 132.48888741 -95.6210128 136.60293905 -95.84375 141.4140625 C-95.0084375 140.23650391 -95.0084375 140.23650391 -94.15625 139.03515625 C-83.11790003 123.83877918 -83.11790003 123.83877918 -75.84375 121.4140625 C-56.39501957 119.89123126 -38.91808853 124.7192029 -21.53222656 133.13769531 C-18.3843042 134.6321866 -15.20656665 136.0508186 -12.0234375 137.46875 C-0.41589087 142.66702227 10.87435802 147.83708446 21.17578125 155.390625 C24.43475769 157.60314112 27.50220996 158.97445325 31.15625 160.4140625 C31.15625 161.0740625 31.15625 161.7340625 31.15625 162.4140625 C29.58037109 163.0328125 29.58037109 163.0328125 27.97265625 163.6640625 C14.51841124 168.91890469 14.51841124 168.91890469 5.15625 179.4140625 C6.06503906 178.89457031 6.97382813 178.37507812 7.91015625 177.83984375 C29.1310874 165.95018319 56.72967252 158.12392182 81.05859375 163.76953125 C83.94980306 164.65789165 86.54334157 165.90132604 89.15625 167.4140625 C86.84851083 169.96079084 84.47265237 171.4557824 81.46875 173.1015625 C74.03201844 177.47928966 68.74324595 183.62071689 63.18359375 190.11328125 C61.17441641 192.3934459 59.09314243 194.5939564 56.99853516 196.79541016 C47.3341866 207.02117315 39.05279895 218.15689485 31.53125 230.0390625 C31.1172998 230.68979736 30.70334961 231.34053223 30.27685547 232.01098633 C27.9954292 235.70881808 26.36158342 239.20187583 25.15625 243.4140625 C35.92625479 236.89537539 45.22296195 227.15986583 53.39453125 217.66796875 C57.94523301 212.43365641 62.89431827 207.62658579 67.83984375 202.76953125 C73.25854463 197.40962279 78.65918261 191.99319242 83.03125 185.7265625 C87.87102564 180.45974783 93.20871105 178.09042458 100.34375 177.6640625 C108.24503534 178.07403485 115.27226819 180.0080512 121.15625 185.4140625 C122.88079393 190.09646056 123.13480832 194.34392077 123.13818359 199.29882812 C123.1663875 202.60097152 123.50040656 205.87514897 123.78125 209.1640625 C124.81674072 227.18160098 123.45557876 243.46849975 117.15625 260.4140625 C116.79789063 261.39375 116.43953125 262.3734375 116.0703125 263.3828125 C114.96900537 265.85099017 114.12448281 267.56104332 112.15625 269.4140625 C108.77610023 270.4229072 105.6663684 270.5844566 102.15625 270.4140625 C99.03300507 249.49947592 99.03300507 249.49947592 101.15625 239.4140625 C97.94543156 245.536023 97.68807986 250.88540185 97.59375 257.7265625 C97.55940577 259.70199169 97.51685366 261.67730071 97.46484375 263.65234375 C97.45251709 264.51899658 97.44019043 265.38564941 97.42749023 266.27856445 C97.15625 268.4140625 97.15625 268.4140625 95.15625 270.4140625 C92.08349609 270.64111328 92.08349609 270.64111328 88.1796875 270.609375 C87.15181625 270.60513016 87.15181625 270.60513016 86.10317993 270.60079956 C83.91235973 270.58959531 81.72194684 270.56449109 79.53125 270.5390625 C78.0468809 270.52903298 76.5625054 270.51990708 75.078125 270.51171875 C71.43736739 270.48965544 67.79684844 270.45512426 64.15625 270.4140625 C63.82625 269.7540625 63.49625 269.0940625 63.15625 268.4140625 C68.05305754 258.20450239 76.51651759 249.3021501 84.28515625 241.19140625 C91.54426771 233.56858149 96.70818071 224.36543686 102.15625 215.4140625 C98.77950629 217.96834034 96.13879527 220.47524965 93.59375 223.8515625 C90.31757913 228.04086574 86.88921701 232.01235052 83.28125 235.9140625 C82.76908936 236.46819824 82.25692871 237.02233398 81.72924805 237.59326172 C78.55252907 240.99771146 75.26870118 244.25378237 71.90625 247.4765625 C64.83439414 254.47998104 59.76910355 261.79368876 57.15625 271.4140625 C50.85798457 271.61733272 44.56056747 271.75717309 38.25976562 271.85351562 C36.11784256 271.89368478 33.97613802 271.94823356 31.83496094 272.01757812 C28.751405 272.11492344 25.67075236 272.16005281 22.5859375 272.1953125 C21.15590897 272.25724792 21.15590897 272.25724792 19.69699097 272.32043457 C13.16631852 272.32481684 13.16631852 272.32481684 10.31695557 269.75561523 C8.77773894 267.70877758 7.46581209 265.61290974 6.15625 263.4140625 C5.03440308 262.11710449 5.03440308 262.11710449 3.88989258 260.79394531 C0.57045315 256.23713703 0.00189544 250.5919622 -1.15625 245.1640625 C-1.43275391 243.97425781 -1.70925781 242.78445313 -1.99414062 241.55859375 C-3.46275667 234.86288836 -4.31899115 229.14154141 -2.84375 222.4140625 C-2.68495361 221.68300293 -2.52615723 220.95194336 -2.36254883 220.19873047 C-1.82591504 217.93991654 -1.22619631 215.71035027 -0.59375 213.4765625 C-0.37630127 212.69748535 -0.15885254 211.9184082 0.06518555 211.11572266 C1.78520266 205.18909502 4.00994503 199.74269815 7.15625 194.4140625 C0.43556893 200.38800122 -2.29035847 208.03249393 -5.09375 216.4140625 C-5.361875 217.16945313 -5.63 217.92484375 -5.90625 218.703125 C-9.14089559 228.30804199 -7.5106666 236.6493136 -5.65625 246.4140625 C-5.45966797 247.55101562 -5.26308594 248.68796875 -5.06054688 249.859375 C-3.65285788 257.32662368 -1.79481427 263.63240441 3.81323242 269 C5.15625 270.4140625 5.15625 270.4140625 5.15625 272.4140625 C-2.43375 272.4140625 -10.02375 272.4140625 -17.84375 272.4140625 C-19.16375 269.1140625 -20.48375 265.8140625 -21.84375 262.4140625 C-22.75485687 260.20342952 -23.6704831 257.99464454 -24.59375 255.7890625 C-25.02171875 254.76554687 -25.4496875 253.74203125 -25.890625 252.6875 C-26.20515625 251.93726563 -26.5196875 251.18703125 -26.84375 250.4140625 C-26.55331145 252.03928245 -26.26131108 253.66422329 -25.96875 255.2890625 C-25.78957031 256.28421875 -25.61039062 257.279375 -25.42578125 258.3046875 C-24.72341168 262.05694375 -23.93077742 265.78690148 -23.11328125 269.515625 C-23.02433594 270.14210938 -22.93539062 270.76859375 -22.84375 271.4140625 C-24.39271938 272.96303188 -25.86168053 272.55642832 -28.01782227 272.57519531 C-28.90707901 272.58480286 -29.79633575 272.5944104 -30.71253967 272.60430908 C-31.68525314 272.60855896 -32.65796661 272.61280884 -33.66015625 272.6171875 C-34.66400864 272.62288757 -35.66786102 272.62858765 -36.70213318 272.63446045 C-38.84169455 272.64393811 -40.9812707 272.65045533 -43.12084961 272.65429688 C-46.34060868 272.66386739 -49.55969161 272.69480559 -52.77929688 272.7265625 C-83.31839674 272.88809642 -83.31839674 272.88809642 -88.6550293 267.62915039 C-89.85368139 265.55565009 -90.36614633 263.75679083 -90.84375 261.4140625 C-91.03453125 260.73214844 -91.2253125 260.05023437 -91.421875 259.34765625 C-92.509719 255.1283756 -93.06069176 250.85002996 -93.65625 246.5390625 C-94.49102278 240.84257306 -95.83387085 235.39633185 -97.34375 229.8515625 C-103.69983272 206.24490498 -101.57255335 183.52075396 -99.84375 159.4140625 C-100.50375 159.4140625 -101.16375 159.4140625 -101.84375 159.4140625 C-101.88113281 160.07148437 -101.91851562 160.72890625 -101.95703125 161.40625 C-102.33239069 166.83792188 -102.93674039 172.13426995 -103.93701172 177.48144531 C-106.1592213 189.40614738 -106.56471612 201.30615042 -106.84375 213.4140625 C-108.51363277 210.32151807 -109.56549314 207.27082674 -110.54296875 203.8984375 C-111.0212915 202.27977783 -111.0212915 202.27977783 -111.50927734 200.62841797 C-111.84652832 199.48518066 -112.1837793 198.34194336 -112.53125 197.1640625 C-115.26593405 188.04383458 -118.28709623 179.36726037 -122.3984375 170.78125 C-129.81735854 153.49716909 -123.45873294 136.61758294 -116.96533203 120.07324219 C-115.93674479 117.51514151 -114.89072509 114.96467752 -113.84375 112.4140625 C-113.57224121 111.71941895 -113.30073242 111.02477539 -113.02099609 110.30908203 C-109.27227254 100.8179408 -104.1618711 95.48299953 -96.36328125 89.31640625 C-92.01607782 85.84783023 -88.52837703 81.8311148 -84.9296875 77.59375 C-81.07850854 73.56948434 -77.53427003 73.0507353 -72.09375 72.2890625 C-70.92328125 72.12148438 -69.7528125 71.95390625 -68.546875 71.78125 C-67.20882812 71.59949219 -67.20882812 71.59949219 -65.84375 71.4140625 C-73.78424273 70.01743683 -79.60573762 69.45364063 -86.84375 73.4140625 C-89.5733085 75.89313219 -89.5733085 75.89313219 -91.84375 78.4140625 C-92.83375 79.0740625 -93.82375 79.7340625 -94.84375 80.4140625 C-93.12160113 74.38654145 -90.74589936 68.88999247 -87.96875 63.2890625 C-87.64132813 62.62068359 -87.31390625 61.95230469 -86.9765625 61.26367188 C-85.32086636 57.98138362 -83.61149788 55.0464032 -81.3359375 52.15625 C-77.90712312 47.49469209 -76.50027099 42.14701352 -74.84375 36.6640625 C-74.50053711 35.56167236 -74.15732422 34.45928223 -73.80371094 33.32348633 C-71.74207245 26.62219152 -69.84825059 19.88911258 -68.09375 13.1015625 C-67.78920898 11.95143677 -67.78920898 11.95143677 -67.47851562 10.77807617 C-66.59649182 7.4305614 -65.78464175 4.1166348 -65.109375 0.71875 C-64.34950466 -2.4990683 -63.6987925 -4.84821575 -61.84375 -7.5859375 C-57.67209135 -9.97650501 -53.56115779 -10.83568615 -48.84375 -11.5859375 C-47.52503906 -11.83923828 -47.52503906 -11.83923828 -46.1796875 -12.09765625 C-30.19934585 -14.39823175 -11.8269656 -11.15677088 0 0 Z M-46.53125 161.6015625 C-58.7931289 170.35290493 -68.83773132 184.24515545 -72.484375 199.078125 C-73.94439511 208.56825571 -72.26440191 218.01492797 -70.84375 227.4140625 C-70.18375 227.4140625 -69.52375 227.4140625 -68.84375 227.4140625 C-68.80411133 226.70910645 -68.76447266 226.00415039 -68.72363281 225.27783203 C-68.53106704 222.03027939 -68.3125737 218.78494745 -68.09375 215.5390625 C-68.031875 214.43046875 -67.97 213.321875 -67.90625 212.1796875 C-67.17318768 201.79463801 -63.98774436 193.66143591 -58.59375 184.8515625 C-58.20026367 184.20880371 -57.80677734 183.56604492 -57.40136719 182.90380859 C-49.16486078 169.74726517 -37.88599337 162.34170063 -24.84375 154.4140625 C-32.38056411 151.80315692 -40.47312326 157.4732245 -46.53125 161.6015625 Z " fill="#000" transform="translate(274.84375,628.5859375)"/>
<path d="M0 0 C10.56 0 21.12 0 32 0 C32.06058594 5.01960937 32.12117187 10.03921875 32.18359375 15.2109375 C32.22429342 18.47396295 32.26516787 21.7369845 32.30664062 25 C32.37183354 30.13051537 32.4365278 35.26103185 32.49731445 40.39160156 C32.76926648 63.2701918 33.23962573 86.13220933 34 109 C34.19822861 108.41562164 34.39645721 107.83124329 34.60069275 107.22915649 C36.65907823 101.16195204 38.71945576 95.09542676 40.78100586 89.02929688 C41.55072616 86.7635211 42.31993364 84.49757104 43.08862305 82.23144531 C44.19185646 78.97936074 45.29691609 75.72790177 46.40234375 72.4765625 C46.74716293 71.45881744 47.09198212 70.44107239 47.44725037 69.39248657 C47.76750687 68.45166229 48.08776337 67.51083801 48.41772461 66.54150391 C48.69974228 65.71099518 48.98175995 64.88048645 49.27232361 64.02481079 C50 62 50 62 51 60 C71.13 60 91.26 60 112 60 C114.66500755 81.77908347 114.66500755 81.77908347 115.8125 91.16210938 C116.59124723 97.52989398 117.37007404 103.89766877 118.14941406 110.26538086 C118.77870181 115.40711388 119.40759991 120.54889443 120.03624344 125.69070625 C120.27448673 127.63880627 120.5128634 129.58688998 120.75138474 131.53495598 C121.08901954 134.29270892 121.42611643 137.05052724 121.76318359 139.80834961 C121.86929144 140.67338073 121.97539928 141.53841185 122.08472252 142.42965603 C122.5979477 146.6298852 123.09794399 150.83097501 123.57110596 155.03591919 C123.66075937 155.8257573 123.75041279 156.61559542 123.84278297 157.42936802 C124.00969822 158.90827113 124.17347227 160.38753344 124.33353233 161.86719418 C124.72453993 165.5529037 124.72453993 165.5529037 126 169 C126.06607673 168.4443187 126.13215345 167.88863741 126.20023251 167.31611729 C127.80624904 153.81263682 129.41708564 140.30973894 131.03315639 126.80745792 C131.81451997 120.27791557 132.59426165 113.74818786 133.37036133 107.21801758 C134.1187233 100.92173494 134.87126108 94.62596449 135.62675667 88.33053398 C135.91494096 85.92283506 136.20159339 83.51495231 136.48672295 81.10688972 C136.88485816 77.74662983 137.28832574 74.38705171 137.69311523 71.02758789 C137.87006172 69.51816116 137.87006172 69.51816116 138.05058289 67.97824097 C138.16134155 67.06813766 138.27210022 66.15803436 138.38621521 65.22035217 C138.48115989 64.42484483 138.57610456 63.62933748 138.67392635 62.80972385 C139 61 139 61 140 60 C142.29151417 59.91209025 144.58572524 59.89305962 146.87890625 59.90234375 C147.90889992 59.90446617 147.90889992 59.90446617 148.95970154 59.90663147 C151.16067801 59.91224521 153.36155409 59.92479993 155.5625 59.9375 C157.05143083 59.94251324 158.54036324 59.94707645 160.02929688 59.95117188 C163.68623075 59.96221907 167.34310558 59.97949287 171 60 C170.34734057 69.67932719 168.77243883 79.18930041 167.19604492 88.74951172 C166.90651552 90.5230717 166.61730414 92.29668362 166.3283844 94.07034302 C165.5469557 98.86030902 164.76043569 103.64942498 163.97245955 108.43831778 C163.479277 111.43693348 162.98716507 114.43572292 162.49541664 117.43457413 C160.77672423 127.91523807 159.05372351 138.39518381 157.3269043 148.87451172 C155.72223376 158.61332097 154.12729149 168.35368989 152.5368225 178.09482753 C151.16656859 186.48436053 149.78929151 194.87272145 148.4066723 203.26022542 C147.58293078 208.25815489 146.76199597 213.25650448 145.94823265 218.25606918 C145.18224938 222.96065025 144.40747531 227.6637029 143.62618065 232.36576462 C143.34250241 234.08200528 143.061854 235.79875023 142.78462601 237.51604462 C139.55338169 257.50547792 134.75409266 276.89959756 118 290 C109.14629746 295.40506934 102.00869135 297.17382454 91.8125 297.125 C90.99330078 297.12886719 90.17410156 297.13273437 89.33007812 297.13671875 C83.25343208 297.12671604 83.25343208 297.12671604 81 296 C81 286.76 81 277.52 81 268 C83.145 267.814375 85.29 267.62875 87.5 267.4375 C94.52371267 266.42296373 98.64421392 264.63948122 103 259 C111.16176087 245.93160869 107.87133558 231.14862998 105.4296875 216.80517578 C105.152863 215.12841439 104.87703327 213.45148852 104.60211182 211.77441406 C103.86010852 207.26541138 103.10437912 202.75880989 102.34598541 198.25253916 C101.55310426 193.52670893 100.77311425 188.7987515 99.99169922 184.0710144 C98.51324931 175.13805721 97.02337402 166.20704591 95.52928734 157.27669227 C93.82751355 147.10150105 92.13863552 136.92418262 90.45078659 126.74667382 C86.98143894 105.82873354 83.49607042 84.91348949 80 64 C79.59476294 64.89068302 79.18952587 65.78136604 78.7720089 66.69903946 C78.23682451 67.86845959 77.70164013 69.03787971 77.15023804 70.24273682 C76.62125097 71.40154484 76.09226391 72.56035286 75.54724693 73.75427628 C74.02511222 76.94732105 72.34489215 79.91924157 70.4727478 82.91229248 C59.16616816 101.28706164 56.53166555 117.59835656 61.49284935 138.53446198 C64.27087491 149.78112904 67.57742585 160.89803735 70.9764843 171.97016144 C74.48847257 183.41581716 77.4068169 194.98839544 80.23327637 206.62109375 C80.98397556 209.6846062 81.75769018 212.7413073 82.54003906 215.796875 C82.77732727 216.73090149 83.01461548 217.66492798 83.25909424 218.6272583 C83.69535654 220.34400836 84.13513287 222.05987131 84.57928467 223.77459717 C84.76839417 224.52799377 84.95750366 225.28139038 85.15234375 226.05761719 C85.31726318 226.70317566 85.48218262 227.34873413 85.65209961 228.01385498 C86 230 86 230 86 235 C76.1 235 66.2 235 56 235 C54.22698689 229.68096068 52.61055552 224.81291412 51.37426758 219.42626953 C50.95417168 217.60991501 50.95417168 217.60991501 50.52558899 215.75686646 C50.08946541 213.83920975 50.08946541 213.83920975 49.64453125 211.8828125 C49.33522898 210.53516007 49.02562791 209.18757618 48.71574402 207.84005737 C48.07175918 205.03528321 47.4308349 202.22983342 46.79223633 199.42382812 C45.97372453 195.82808748 45.14828206 192.23398048 44.32068348 188.64032173 C43.68254772 185.86654363 43.04762935 183.09203705 42.41373253 180.31728745 C42.11041538 178.99100092 41.80619371 177.66492092 41.50104713 176.33905411 C41.07667109 174.49255863 40.65699859 172.64498404 40.23754883 170.79736328 C39.99788895 169.74751251 39.75822906 168.69766174 39.51130676 167.61599731 C39 165 39 165 39 162 C38.34 162 37.68 162 37 162 C34.43993903 169.18038768 33.54874947 175.60624348 33.5234375 183.203125 C33.50006821 184.76350494 33.50006821 184.76350494 33.47622681 186.35540771 C33.42911157 189.65359753 33.40112033 192.95158326 33.375 196.25 C33.33816121 199.53398382 33.29717506 202.8178612 33.25234985 206.10174561 C33.22574587 208.13427461 33.20414093 210.16687861 33.18881226 212.19952393 C33.10578412 219.86695608 32.54949005 227.30713926 32 235 C21.44 235 10.88 235 0 235 C0 157.45 0 79.9 0 0 Z " fill="#000" transform="translate(533,231)"/>
<path d="M0 0 C10.23 0 20.46 0 31 0 C37.5981362 22.23181534 43.70924528 44.59253534 49.83654785 66.95776367 C50.97490252 71.11110075 52.11510518 75.26392946 53.25537395 79.41674137 C54.63322516 84.43517771 56.01001403 89.4539053 57.38671875 94.47265625 C57.64227728 95.40395922 57.89783581 96.33526218 58.16113853 97.29478645 C59.56781033 102.42243632 60.97071138 107.55108622 62.36758041 112.68141556 C62.78659421 114.21760909 63.20705011 115.75341006 63.62900162 117.28879929 C64.20641555 119.39008998 64.77920118 121.49258846 65.35083008 123.59545898 C65.67142899 124.76761459 65.99202789 125.9397702 66.32234192 127.14744568 C67 130 67 130 67 133 C67.66 133 68.32 133 69 133 C69 89.11 69 45.22 69 0 C79.56 0 90.12 0 101 0 C101 77.55 101 155.1 101 235 C90.77 235 80.54 235 70 235 C68.1412104 229.4236312 66.35380398 223.9264015 64.81445312 218.26928711 C64.61710571 217.55193893 64.4197583 216.83459076 64.21643066 216.09550476 C63.56905211 213.74008051 62.92514078 211.38372359 62.28125 209.02734375 C61.81886149 207.34235267 61.35625072 205.65742257 60.89343262 203.97254944 C59.67239872 199.52515722 58.45428 195.07697178 57.23681641 190.62860107 C55.80208761 185.38848945 54.3638917 180.14932862 52.92614746 174.91004372 C51.73440936 170.5666113 50.54375635 166.22288731 49.35546875 161.87850952 C47.12646883 153.73217932 44.88955944 145.58828584 42.62311554 137.452281 C41.58803642 133.73619017 40.55643639 130.01913687 39.52488708 126.3020649 C39.03274386 124.53295341 38.53876252 122.76435214 38.04286194 120.99629021 C37.35799609 118.55419058 36.67934031 116.11044253 36.00195312 113.66625977 C35.79787842 112.94519358 35.59380371 112.22412739 35.38354492 111.48121071 C34.46616357 108.14869196 34 105.49239432 34 102 C33.34 102 32.68 102 32 102 C32 145.89 32 189.78 32 235 C21.44 235 10.88 235 0 235 C0 157.45 0 79.9 0 0 Z " fill="#000" transform="translate(371,231)"/>
<path d="M0 0 C12.48667171 11.43639092 19.30143379 32.28292293 20.109375 48.75390625 C19.91055455 54.65461327 18.24496057 59.13255914 15 64 C12.42780731 64.78294019 9.98172451 65.38427137 7.35546875 65.91015625 C6.57171371 66.07819763 5.78795868 66.24623901 4.98045349 66.41937256 C3.27916526 66.78407327 1.57682431 67.14388926 -0.12640381 67.49942017 C-4.71522134 68.46136286 -9.29335954 69.47117892 -13.87109375 70.484375 C-14.80886658 70.69177811 -15.7466394 70.89918121 -16.71282959 71.11286926 C-25.66511063 73.11280889 -34.52835391 75.39123411 -43.375 77.8125 C-44.13088409 78.0189917 -44.88676819 78.2254834 -45.66555786 78.43823242 C-54.25240278 80.7918293 -62.81541594 83.22538035 -71.3671875 85.703125 C-99.36349677 93.8105132 -127.51726781 101.24480638 -155.73043823 108.5521698 C-165.75447409 111.14978052 -175.77047043 113.77701235 -185.78320885 116.41781235 C-190.54253853 117.67240109 -195.30280036 118.92344912 -200.06304264 120.17457008 C-203.89185744 121.18119723 -207.72007992 122.18997001 -211.54702759 123.20367432 C-215.13244472 124.15329206 -218.71940704 125.09683875 -222.30758095 126.03598404 C-224.24617921 126.54508336 -226.18308305 127.06062146 -228.11991882 127.5763855 C-235.0463733 129.38310058 -241.79692216 131 -249 131 C-249.04487549 130.44763672 -249.08975098 129.89527344 -249.13598633 129.32617188 C-250.6143937 111.54846136 -252.6813937 95.83699687 -260.0625 79.47265625 C-262.03023051 75.07928955 -263.56520746 70.59174373 -265 66 C-252.39905133 62.18373817 -239.60631504 59.11156987 -226.82983398 55.94830322 C-219.68141455 54.17806267 -212.53566919 52.39709044 -205.390625 50.61328125 C-204.64258606 50.42654594 -203.89454712 50.23981064 -203.12384033 50.04741669 C-185.56023791 45.65997977 -168.02965338 41.14579254 -150.5 36.625 C-131.46746186 31.71687635 -112.42932616 26.83524114 -93.359375 22.07421875 C-92.14859787 21.7719059 -92.14859787 21.7719059 -90.9133606 21.46348572 C-83.15177247 19.52627369 -75.38896539 17.59402765 -67.62409973 15.66999435 C-64.1083672 14.79856094 -60.59309976 13.92526588 -57.078125 13.05078125 C-56.40585876 12.88358078 -55.73359253 12.71638031 -55.04095459 12.54411316 C-43.46372532 9.65995547 -31.92985318 6.62489974 -20.41290283 3.5091095 C-19.24765076 3.19439194 -18.08239868 2.87967438 -16.88183594 2.55541992 C-15.86281189 2.27840744 -14.84378784 2.00139496 -13.79388428 1.71598816 C-9.17072578 0.53121226 -4.7823872 -0.5731223 0 0 Z M5.9375 53.5 C5.01839844 54.1496875 4.09929687 54.799375 3.15234375 55.46875 C2.44207031 55.9740625 1.73179687 56.479375 1 57 C1.33 57.99 1.66 58.98 2 60 C6.07655174 60.47401764 7.58343751 60.31020611 10.9375 57.8125 C13.31648345 55.20115473 13.31648345 55.20115473 12.8125 52.1875 C12.544375 51.465625 12.27625 50.74375 12 50 C9.84926498 50 7.59410293 52.32569919 5.9375 53.5 Z M-36 64 C-37.28059314 66.02222003 -37.28059314 66.02222003 -38 68 C-30.87399867 68.35368021 -25.52940894 67.95671348 -19 65 C-19 64.01 -19 63.02 -19 62 C-25.15598382 60.76880324 -30.40561894 60.78497188 -36 64 Z M-92.5625 78.6875 C-93.69816406 79.02136719 -94.83382812 79.35523438 -96.00390625 79.69921875 C-99.1471668 81.0638938 -100.28137514 82.09485122 -102 85 C-100.8654902 86.35066528 -100.8654902 86.35066528 -97.875 86.25 C-90.8520394 85.79690577 -86.62941648 83.19055787 -82 78 C-85.88922797 76.51884439 -88.67379756 77.49744203 -92.5625 78.6875 Z M-121 89 C-121.99 89.66 -122.98 90.32 -124 91 C-124 92.32 -124 93.64 -124 95 C-122.02 95 -120.04 95 -118 95 C-117.34 93.68 -116.68 92.36 -116 91 C-118.32854463 89.80161791 -118.32854463 89.80161791 -121 89 Z M-180.9375 103.3125 C-182.71447266 103.67794922 -182.71447266 103.67794922 -184.52734375 104.05078125 C-188.00729683 105.00199452 -190.88248205 106.19267588 -194 108 C-194.33 108.66 -194.66 109.32 -195 110 C-186.49077736 111.56002415 -178.93711012 110.45506569 -171.140625 106.578125 C-170.43421875 106.05734375 -169.7278125 105.5365625 -169 105 C-169 104.01 -169 103.02 -169 102 C-173.15453877 101.83507502 -176.87578931 102.45252868 -180.9375 103.3125 Z M-221 113 C-221.33 114.32 -221.66 115.64 -222 117 C-220.68 117.33 -219.36 117.66 -218 118 C-217.67 116.68 -217.34 115.36 -217 114 C-218.32 113.67 -219.64 113.34 -221 113 Z " fill="#000" transform="translate(331,182)"/>
<path d="M0 0 C61.66972173 0 61.66972173 0 77.875 15.3125 C91.89347268 30.36844088 95.36472913 50.41320159 95.3125 70.3125 C95.32861328 71.52873047 95.34472656 72.74496094 95.36132812 73.99804688 C95.37154672 93.23966884 90.08530782 110.46334262 77.26953125 124.95703125 C65.78414258 136.18887933 50.50309072 140 35 140 C35 171.02 35 202.04 35 234 C23.45 234 11.9 234 0 234 C0 156.78 0 79.56 0 0 Z M35 35 C35 58.1 35 81.2 35 105 C45.00429612 105.12299699 45.00429612 105.12299699 53.609375 100.640625 C60.9381629 92.27718469 60.20614525 81.84532108 60.25 71.375 C60.270625 70.16714844 60.29125 68.95929688 60.3125 67.71484375 C60.35468456 57.9174803 60.07886064 46.74043515 52.80078125 39.3359375 C47.19905937 35.18021324 41.85754803 35 35 35 Z " fill="#000" transform="translate(371,538)"/>
<path d="M0 0 C8.01385598 4.39418533 11.21344782 11.69340294 13.98046875 20.0859375 C14.90280933 23.90814764 15.10401019 27.4539197 15.10072327 31.38179016 C15.10278526 33.28528481 15.10278526 33.28528481 15.10488892 35.22723389 C15.10135023 36.62585473 15.09771543 38.02447533 15.09399414 39.4230957 C15.09371195 40.90164691 15.09387063 42.38019826 15.09443665 43.85874939 C15.09472337 47.86660225 15.08884679 51.87442515 15.08186269 55.88227105 C15.0756084 60.07297631 15.07502371 64.26368227 15.07383728 68.45439148 C15.07073009 76.38740826 15.06252494 84.32041125 15.05248779 92.25342196 C15.04130766 101.28601229 15.03581141 110.31860327 15.03079236 119.35119879 C15.02034183 137.92945443 15.00200394 156.50769117 14.98046875 175.0859375 C4.42046875 175.0859375 -6.13953125 175.0859375 -17.01953125 175.0859375 C-18.07908664 160.36151117 -18.23292936 145.67809756 -18.32285428 130.91917491 C-18.3450382 127.43319932 -18.37226507 123.9472628 -18.39891052 120.46131897 C-18.44840701 113.88870318 -18.49350156 107.3160652 -18.53693289 100.74340683 C-18.58667831 93.2485707 -18.64145548 85.75377382 -18.69661248 78.25897586 C-18.80976987 62.86799954 -18.91674759 47.47698682 -19.01953125 32.0859375 C-23.24028805 30.41534405 -23.24028805 30.41534405 -27.64453125 30.6484375 C-30.59543991 32.43451379 -32.08196117 34.23185173 -34.01953125 37.0859375 C-34.61787684 39.8902058 -34.61787684 39.8902058 -34.53851318 42.92622375 C-34.5593824 44.67826363 -34.5593824 44.67826363 -34.58067322 46.46569824 C-34.57312767 48.37433655 -34.57312767 48.37433655 -34.56542969 50.3215332 C-34.57416852 51.68187134 -34.58465539 53.04219921 -34.59675598 54.4025116 C-34.62459934 58.0881303 -34.62802105 61.77341334 -34.62703609 65.45912194 C-34.63016666 69.31357849 -34.65578782 73.16788418 -34.67901611 77.02226257 C-34.71956875 84.31778333 -34.73991505 91.61321472 -34.75299001 98.90883082 C-34.76886258 107.21600307 -34.80727925 115.52302329 -34.84758329 123.83010733 C-34.92997224 140.91536211 -34.98109461 158.00051872 -35.01953125 175.0859375 C-45.90953125 175.0859375 -56.79953125 175.0859375 -68.01953125 175.0859375 C-68.04207624 152.41642516 -68.06050924 129.74692185 -68.07134342 107.07740116 C-68.07650689 96.55232912 -68.08355056 86.02726453 -68.0949707 75.50219727 C-68.10491598 66.33205153 -68.1113843 57.16191118 -68.11361974 47.99176019 C-68.11492712 43.13308606 -68.11801464 38.27442734 -68.12526131 33.41575813 C-68.13201907 28.84813176 -68.13414871 24.28052724 -68.13263893 19.71289635 C-68.13291537 18.03141791 -68.13492194 16.34993879 -68.13873672 14.66846466 C-68.14367017 12.38291736 -68.14253085 10.09745392 -68.13978577 7.81190491 C-68.14070756 6.52969087 -68.14162935 5.24747683 -68.14257908 3.92640781 C-68.01953125 1.0859375 -68.01953125 1.0859375 -67.01953125 0.0859375 C-64.74005333 -0.0142718 -62.4574599 -0.04487553 -60.17578125 -0.046875 C-59.49149048 -0.04783173 -58.80719971 -0.04878845 -58.10217285 -0.04977417 C-56.65291248 -0.0504558 -55.20364907 -0.04860273 -53.75439453 -0.04443359 C-51.52890197 -0.03908502 -49.30361124 -0.0443791 -47.078125 -0.05078125 C-45.67317664 -0.05012047 -44.2682284 -0.0488393 -42.86328125 -0.046875 C-41.57615234 -0.04574707 -40.28902344 -0.04461914 -38.96289062 -0.04345703 C-36.01953125 0.0859375 -36.01953125 0.0859375 -35.01953125 1.0859375 C-34.78525347 3.10188332 -34.60617001 5.1244115 -34.45703125 7.1484375 C-34.37324219 8.25316406 -34.28945313 9.35789062 -34.203125 10.49609375 C-34.14253906 11.35074219 -34.08195313 12.20539062 -34.01953125 13.0859375 C-33.00246094 12.09013672 -33.00246094 12.09013672 -31.96484375 11.07421875 C-22.68754111 2.27234575 -13.2758425 -5.59793746 0 0 Z " fill="#000" transform="translate(587.01953125,596.9140625)"/>
<path d="M0 0 C0.68429077 -0.00095673 1.36858154 -0.00191345 2.0736084 -0.00289917 C3.52286877 -0.0035808 4.97213218 -0.00172773 6.42138672 0.00244141 C8.64687928 0.00778998 10.87217001 0.0024959 13.09765625 -0.00390625 C14.50260461 -0.00324547 15.90755285 -0.0019643 17.3125 0 C18.59962891 0.00112793 19.88675781 0.00225586 21.21289062 0.00341797 C24.15625 0.1328125 24.15625 0.1328125 25.15625 1.1328125 C25.25834107 2.94818382 25.28979044 4.76755075 25.29428101 6.58578491 C25.29973434 7.76921982 25.30518768 8.95265472 25.31080627 10.17195129 C25.3118486 11.48209702 25.31289093 12.79224274 25.31396484 14.14208984 C25.31863063 15.52651634 25.3237738 16.9109413 25.32936096 18.29536438 C25.34066057 21.28339876 25.34908571 24.27142306 25.35548019 27.25947189 C25.36613639 31.98190811 25.38637454 36.70427208 25.40859985 41.42666626 C25.47060507 54.85765273 25.52455865 68.28863539 25.55761719 81.71972656 C25.57594281 89.13241094 25.60485294 96.54497482 25.6456219 103.95757067 C25.66672734 107.88293205 25.68215412 111.80814135 25.68442917 115.73356247 C25.68657137 119.4255724 25.70239634 123.11726573 25.72881889 126.80917931 C25.73947437 128.81363017 25.73525013 130.8181427 25.7306366 132.82261658 C25.74172958 134.01169113 25.75282257 135.20076569 25.76425171 136.4258728 C25.76756186 137.46159109 25.770872 138.49730938 25.77428246 139.56441307 C25.95472027 142.15889642 25.95472027 142.15889642 27.50496864 143.95824623 C30.18365647 145.86361284 31.95505075 145.6349614 35.15625 145.1328125 C38.08038196 143.30523002 40.59006139 141.26518973 42.15625 138.1328125 C42.26159208 136.30858269 42.30286165 134.48052175 42.31446838 132.65328979 C42.32915161 130.90743591 42.32915161 130.90743591 42.34413147 129.12631226 C42.34988693 127.84310089 42.3556424 126.55988953 42.36157227 125.23779297 C42.37114864 123.8779063 42.38115858 122.51802262 42.39157104 121.15814209 C42.41865227 117.46005046 42.43964437 113.76194603 42.45957303 110.06380987 C42.48141277 106.2013804 42.50881129 102.33899055 42.53562927 98.47659302 C42.58558342 91.15974243 42.63051213 83.84286989 42.67365164 76.5259763 C42.72300078 68.19716264 42.77792751 59.86838872 42.83333123 51.53961349 C42.94719305 34.40404844 43.05328655 17.26844702 43.15625 0.1328125 C53.71625 0.1328125 64.27625 0.1328125 75.15625 0.1328125 C75.15625 57.8828125 75.15625 115.6328125 75.15625 175.1328125 C64.59625 175.1328125 54.03625 175.1328125 43.15625 175.1328125 C43.15625 170.5128125 43.15625 165.8928125 43.15625 161.1328125 C41.980625 162.1640625 40.805 163.1953125 39.59375 164.2578125 C38.49160156 165.21494141 38.49160156 165.21494141 37.3671875 166.19140625 C36.02191445 167.37267959 34.68979878 168.56946838 33.3828125 169.79296875 C28.63208338 174.15337975 23.45626177 177.76654233 16.86328125 178.328125 C11.08064526 177.98972634 6.48107736 175.96493801 2.15625 172.1328125 C-5.27706254 163.45500872 -7.96679264 153.09714542 -7.97073364 141.83732605 C-7.97355347 140.59364258 -7.97637329 139.34995911 -7.97927856 138.06858826 C-7.97733462 136.70352158 -7.97528648 135.33845505 -7.97314453 133.97338867 C-7.97450054 132.52586829 -7.9762816 131.07834825 -7.97845459 129.63082886 C-7.9830031 125.71181187 -7.98125053 121.79282129 -7.9780755 117.87380385 C-7.97554099 113.77299031 -7.97789226 109.67217899 -7.97946167 105.57136536 C-7.98127914 98.69088332 -7.97888704 91.81041204 -7.97412109 84.92993164 C-7.96866847 76.96593563 -7.97045007 69.00196517 -7.9759475 61.03796977 C-7.98047777 54.20221874 -7.98112993 47.36647543 -7.97850883 40.53072339 C-7.97694697 36.44679521 -7.97675004 32.36287906 -7.98004532 28.27895164 C-7.98292314 24.44501286 -7.98095002 20.61110727 -7.97515106 16.77717209 C-7.97382345 15.36659996 -7.97421761 13.95602507 -7.97641373 12.54545403 C-7.97912486 10.62809724 -7.97513074 8.71073439 -7.97073364 6.79338074 C-7.97035662 5.71806689 -7.96997959 4.64275305 -7.96959114 3.53485394 C-7.71147077 -1.39211838 -4.18721378 0.00366932 0 0 Z " fill="#000" transform="translate(689.84375,596.8671875)"/>
<path d="M0 0 C9.06847334 7.17042078 14.01496601 15.66588114 15.43457603 27.29901314 C15.58161309 30.49789787 15.61165607 33.67501588 15.5925293 36.87719727 C15.60126068 38.07737991 15.60999207 39.27756256 15.61898804 40.51411438 C15.63904164 43.7709442 15.64189467 47.02722377 15.63707328 50.28409314 C15.63647322 53.72388893 15.65927797 57.16353205 15.67964172 60.60325623 C15.71491934 67.12155963 15.73104016 73.63975213 15.7394169 80.15814012 C15.75234819 89.66833811 15.79108193 99.17843725 15.83351612 108.68854427 C15.83665481 109.39359822 15.83979349 110.09865217 15.84302729 110.82507139 C15.8493138 112.23411795 15.85565756 113.64316424 15.86205989 115.05221027 C15.88268937 119.76630882 15.8927224 124.48033408 15.89933777 129.19447327 C15.93047576 142.58737234 16.21221098 155.88267556 17.0625 169.25 C6.5025 169.25 -4.0575 169.25 -14.9375 169.25 C-16.60807063 165.07357344 -17.18618781 163.58104148 -17.0625 159.4375 C-17.04445313 158.64730469 -17.02640625 157.85710937 -17.0078125 157.04296875 C-16.98460937 156.45128906 -16.96140625 155.85960937 -16.9375 155.25 C-17.618125 155.930625 -18.29875 156.61125 -19 157.3125 C-19.46019531 157.76625 -19.92039062 158.22 -20.39453125 158.6875 C-21.45987624 159.76633037 -22.49771855 160.87277398 -23.51171875 162 C-29.65202196 168.64126034 -36.46027076 171.80340462 -45.52734375 172.3359375 C-51.74938625 172.11408185 -55.69606621 169.77218333 -60.1875 165.5625 C-70.88250949 154.0093782 -71.67319222 138.81175881 -71.28515625 123.7734375 C-70.39162837 105.26876326 -63.53484649 89.87320824 -49.9375 77.25 C-41.37842926 69.76233499 -31.63894834 64.52198905 -21.62646484 59.25219727 C-19.76354547 58.24089154 -19.76354547 58.24089154 -17.9375 56.25 C-17.62589972 53.64708204 -17.62589972 53.64708204 -17.671875 50.61328125 C-17.66929687 49.47826172 -17.66671875 48.34324219 -17.6640625 47.17382812 C-17.67566406 45.3862207 -17.67566406 45.3862207 -17.6875 43.5625 C-17.67976562 42.39009766 -17.67203125 41.21769531 -17.6640625 40.00976562 C-17.65694706 31.42489097 -17.65694706 31.42489097 -19.9375 23.25 C-23.16347954 21.45778914 -24.99193306 21.0960705 -28.625 21.6875 C-31.80599341 23.53308585 -31.80599341 23.53308585 -33.9375 30.25 C-34.2675 35.53 -34.5975 40.81 -34.9375 46.25 C-45.8275 46.25 -56.7175 46.25 -67.9375 46.25 C-67.9375 29.22140801 -65.03034674 15.85824115 -53.125 3.25390625 C-38.14727451 -10.46676014 -16.55438406 -11.42612378 0 0 Z M-28.7265625 92.92578125 C-36.41574389 101.50217588 -39.06844492 110.96271386 -39.25 122.3125 C-39.26772461 122.98539063 -39.28544922 123.65828125 -39.30371094 124.3515625 C-39.2952523 130.11471501 -38.01061966 134.7929693 -34.25 139.25 C-30.688612 140.79005968 -27.53618621 140.39660635 -23.9375 139.25 C-20.47523731 137.18008811 -18.2423153 135.16444589 -16.9375 131.25 C-16.85080471 129.73092376 -16.819806 128.20830999 -16.82397461 126.68676758 C-16.82408791 125.30567558 -16.82408791 125.30567558 -16.82420349 123.89668274 C-16.83194542 122.41061775 -16.83194542 122.41061775 -16.83984375 120.89453125 C-16.8412587 119.87775803 -16.84267365 118.8609848 -16.84413147 117.81340027 C-16.84973293 114.56307036 -16.86228568 111.31280912 -16.875 108.0625 C-16.88001481 105.86002704 -16.88457775 103.65755299 -16.88867188 101.45507812 C-16.89970283 96.05336196 -16.91644238 90.65168588 -16.9375 85.25 C-20.80441589 85.25 -26.04128239 90.41052979 -28.7265625 92.92578125 Z " fill="#000" transform="translate(912.9375,602.75)"/>
<path d="M0 0 C8.04575709 8.03271697 11.08670183 16.575056 12.5 27.8125 C12.5 31.4425 12.5 35.0725 12.5 38.8125 C2.6 38.8125 -7.3 38.8125 -17.5 38.8125 C-18.49 32.3775 -18.49 32.3775 -19.5 25.8125 C-21.07099595 21.9514156 -21.07099595 21.9514156 -23.1875 20.5 C-26.8321965 19.41644158 -28.88530233 19.58608472 -32.5 20.8125 C-37.10544913 26.26384795 -37.17764226 33.59036094 -36.9296875 40.39453125 C-35.37002549 52.80093363 -25.25576081 61.15673804 -16.765625 69.48828125 C-2.00951062 83.96927533 12.48536173 100.13759168 12.88037109 121.96728516 C12.84820085 137.13701738 9.75803294 150.12797573 -0.75 161.625 C-8.62371604 168.96226505 -19.47900192 172.42683597 -30.1796875 172.05859375 C-43.36701922 170.65993736 -53.57772715 166.73485992 -62.75 157.0078125 C-71.74480066 145.72415632 -73.5 131.75292615 -73.5 117.8125 C-63.6 117.8125 -53.7 117.8125 -43.5 117.8125 C-43.0875 120.1225 -42.675 122.4325 -42.25 124.8125 C-41.08832535 130.72208219 -40.0273138 135.85519412 -36.5 140.8125 C-32.70229732 143.33345895 -29.68223251 143.99095019 -25.1875 143.3125 C-21.97078436 141.51712383 -20.97964297 140.16116567 -19.5 136.8125 C-17.40641241 128.14118686 -17.16547772 119.24746883 -21.71484375 111.390625 C-27.59708296 102.8954874 -34.42890673 95.7364159 -42.0625 88.8125 C-57.14264534 75.09015644 -67.33531417 59.55098066 -68.46484375 38.7265625 C-68.5959526 24.12977739 -64.67920892 11.41344639 -54.5 0.8125 C-40.3726478 -12.0221533 -14.36692462 -12.15662853 0 0 Z " fill="#000" transform="translate(1005.5,603.1875)"/>
<path d="M0 0 C10.89 0 21.78 0 33 0 C33 13.86 33 27.72 33 42 C40.26 42 47.52 42 55 42 C55 51.9 55 61.8 55 72 C47.74 72 40.48 72 33 72 C33.06304969 84.84855233 33.13857206 97.69686824 33.23571491 110.54520893 C33.28033653 116.51197761 33.31961076 122.4786793 33.34643555 128.44555664 C33.37255035 134.20989429 33.41301056 139.973973 33.46318626 145.73814964 C33.47979976 147.93119256 33.49134823 150.1242802 33.49761391 152.31737709 C33.50731513 155.40236833 33.53544613 158.4867053 33.56762695 161.5715332 C33.56619186 162.46705902 33.56475677 163.36258484 33.5632782 164.2852478 C33.65694553 170.68408053 34.38930229 177.09727023 37 183 C42.03333333 187.4 42.03333333 187.4 55 186 C55 196.23 55 206.46 55 217 C44.94740363 222.02629818 32.30892134 220.7645492 21.875 217.29296875 C13.76118739 213.82241218 8.62489468 207.02798799 5.125 199.125 C-1.08483968 182.66267332 -0.14144879 164.70093882 -0.09765625 147.390625 C-0.09578812 145.21059197 -0.09436608 143.03055851 -0.09336853 140.8505249 C-0.08957446 135.14932062 -0.07977116 129.44814234 -0.06866455 123.74694824 C-0.05838313 117.91463574 -0.05385657 112.08231898 -0.04882812 106.25 C-0.03814573 94.83332199 -0.02110722 83.41666317 0 72 C-5.28 72 -10.56 72 -16 72 C-16.02291394 67.88822073 -16.04283951 63.77660342 -16.05493164 59.66479492 C-16.0599708 58.26504772 -16.06680216 56.8653058 -16.07543945 55.46557617 C-16.0875232 53.45754223 -16.09269807 51.44947043 -16.09765625 49.44140625 C-16.10289307 48.23170166 -16.10812988 47.02199707 -16.11352539 45.77563477 C-16 43 -16 43 -15 42 C-10.05 42 -5.1 42 0 42 C0 28.14 0 14.28 0 0 Z " fill="#000" transform="translate(622,555)"/>
<path d="M0 0 C1.31371987 0.47581198 2.62594546 0.95575149 3.9375 1.4375 C4.66839844 1.70433594 5.39929688 1.97117187 6.15234375 2.24609375 C8 3 8 3 9 4 C9.01415744 5.60715212 8.96377062 7.21494607 8.88671875 8.8203125 C8.44081544 21.89314839 9.14763154 31.26283999 15 43 C19.04687806 55.16416255 14.57811733 67.95488739 9.21264648 78.89428711 C6.96578186 83.3724986 4.69062488 87.81206619 2.171875 92.14453125 C-6.57258213 107.80183624 -9.62977481 126.81474324 -12.39453125 144.38671875 C-12.59433594 145.24910156 -12.79414063 146.11148438 -13 147 C-15.8947296 148.4473648 -17.54185159 147.47579285 -20.625 146.625 C-29.50615492 144.18211163 -37.78802823 143.88498464 -46.9375 144 C-49.00906398 144.02537127 -51.08068658 144.04645101 -53.15234375 144.0625 C-54.05976318 144.07410156 -54.96718262 144.08570313 -55.90209961 144.09765625 C-58 144 -58 144 -59 143 C-59.42196828 136.67047581 -59.2431584 130.61935729 -57.8125 124.4375 C-54.09099263 103.60249157 -64.72031127 78.50044461 -72.91699219 59.78076172 C-74.94532415 54.96912077 -75.39376151 51.23140295 -75 46 C-73.625 44 -73.625 44 -72 43 C-71.34 43 -70.68 43 -70 43 C-69.91363281 42.03320312 -69.82726562 41.06640625 -69.73828125 40.0703125 C-68.73304844 30.7557699 -67.61270318 22.18361452 -60.3125 15.5625 C-55.51047297 13.29739291 -50.30312473 10.89562617 -44.8984375 11.06640625 C-41.94018944 12.52118256 -41.20605213 14.85203217 -39.75 17.75 C-36.61379376 23.41670741 -33.87141806 26.36410806 -28 29 C-27.175 29.433125 -26.35 29.86625 -25.5 30.3125 C-21.91597314 31.29810739 -18.67651505 31.70845625 -15 31 C-9.54396189 27.12015068 -7.63719535 21.61762521 -6.515625 15.25 C-6.36609375 14.30125 -6.2165625 13.3525 -6.0625 12.375 C-5.21263008 7.18935302 -3.76559161 3.76559161 0 0 Z " fill="#000" transform="translate(283,463)"/>
<path d="M0 0 C0 11.88 0 23.76 0 36 C-5.28 36 -10.56 36 -16 36 C-22.50558356 38.59077054 -22.50558356 38.59077054 -26.875 42.9375 C-27.44992187 43.60652344 -28.02484375 44.27554688 -28.6171875 44.96484375 C-31.05497664 48.55266336 -31.12852982 52.00627659 -31.15821838 56.26446533 C-31.17290161 57.86298843 -31.17290161 57.86298843 -31.18788147 59.49380493 C-31.19363693 60.65761688 -31.1993924 61.82142883 -31.20532227 63.02050781 C-31.21522186 64.25004181 -31.22512146 65.47957581 -31.23532104 66.74636841 C-31.2614878 70.11378754 -31.28335849 73.48118323 -31.30332303 76.8486414 C-31.32521097 80.36939591 -31.35258591 83.89010765 -31.37937927 87.41082764 C-31.42926822 94.07595605 -31.47422112 100.74110826 -31.51740164 107.40628314 C-31.56680649 114.99513517 -31.62171256 122.58394427 -31.67708123 130.17275476 C-31.79084297 145.78179835 -31.89696842 161.39088134 -32 177 C-42.89 177 -53.78 177 -65 177 C-65.02262017 156.24999654 -65.04102175 135.50000315 -65.05181217 114.74999046 C-65.05695671 105.11424695 -65.06396412 95.47851167 -65.07543945 85.84277344 C-65.08544277 77.43903047 -65.09186681 69.03529347 -65.09408849 60.63154471 C-65.09538605 56.18661041 -65.09841092 51.74169318 -65.10573006 47.29676437 C-65.1125796 43.10254995 -65.11459901 38.90835942 -65.11310768 34.71413994 C-65.11338003 33.18486463 -65.11533166 31.65558841 -65.11920547 30.12631798 C-65.12428314 28.0160992 -65.12294796 25.90596722 -65.12025452 23.79574585 C-65.12117631 22.62138159 -65.1220981 21.44701733 -65.12304783 20.23706627 C-64.94624824 14.14909544 -64.43393283 8.07505961 -64 2 C-53.44 2 -42.88 2 -32 2 C-31.505 9.425 -31.505 9.425 -31 17 C-30.05125 15.63875 -29.1025 14.2775 -28.125 12.875 C-22.63109881 5.84147731 -15.84540324 1.89912032 -7.10546875 0.2265625 C-4.74937702 -0.02696871 -2.36969329 0 0 0 Z " fill="#000" transform="translate(844,595)"/>
<path d="M0 0 C10.56 0 21.12 0 32 0 C32 57.75 32 115.5 32 175 C21.11 175 10.22 175 -1 175 C-1.02254499 152.33048766 -1.04097799 129.66098435 -1.05181217 106.99146366 C-1.05697564 96.46639162 -1.06401931 85.94132703 -1.07543945 75.41625977 C-1.08538473 66.24611403 -1.09185305 57.07597368 -1.09408849 47.90582269 C-1.09539587 43.04714856 -1.09848339 38.18848984 -1.10573006 33.32982063 C-1.11248782 28.76219426 -1.11461746 24.19458974 -1.11310768 19.62695885 C-1.11338412 17.94548041 -1.11539069 16.26400129 -1.11920547 14.58252716 C-1.12413892 12.29697986 -1.1229996 10.01151642 -1.12025452 7.72596741 C-1.12117631 6.44375337 -1.1220981 5.16153933 -1.12304783 3.84047031 C-1 1 -1 1 0 0 Z " fill="#000" transform="translate(473,597)"/>
<path d="M0 0 C10.89 0 21.78 0 33 0 C33.02254499 22.66951234 33.04097799 45.33901565 33.05181217 68.00853634 C33.05697564 78.53360838 33.06401931 89.05867297 33.07543945 99.58374023 C33.08538473 108.75388597 33.09185305 117.92402632 33.09408849 127.09417731 C33.09539587 131.95285144 33.09848339 136.81151016 33.10573006 141.67017937 C33.11248782 146.23780574 33.11461746 150.80541026 33.11310768 155.37304115 C33.11338412 157.05451959 33.11539069 158.73599871 33.11920547 160.41747284 C33.12413892 162.70302014 33.1229996 164.98848358 33.12025452 167.27403259 C33.12117631 168.55624663 33.1220981 169.83846067 33.12304783 171.15952969 C33 174 33 174 32 175 C21.44 175 10.88 175 0 175 C0 117.25 0 59.5 0 0 Z " fill="#000" transform="translate(486,291)"/>
<path d="M0 0 C0.53469802 1.72492978 1.05219175 3.455198 1.5625 5.1875 C1.85253906 6.15042969 2.14257812 7.11335938 2.44140625 8.10546875 C3.02461026 11.12752588 2.81178385 13.05929955 2 16 C0.741875 16.268125 -0.51625 16.53625 -1.8125 16.8125 C-4.98960977 17.60958408 -7.08610587 18.18544981 -9 21 C-15.45386031 40.36158094 -4.09028886 70.16560632 4 88 C4.44601563 88.98742187 4.89203125 89.97484375 5.3515625 90.9921875 C8.32114151 96.71567777 11.48633505 99.48562626 17.33984375 102.16015625 C28.93680028 105.82145677 41.80849051 103.82594101 53.3515625 100.84375 C54.21292313 100.62447845 55.07428375 100.40520691 55.96174622 100.17929077 C64.48463677 97.95907902 72.83272173 95.2655375 81.17974854 92.46520996 C93.58887375 88.30759277 106.01432244 84.25707176 118.625 80.75 C119.61201904 80.47494629 120.59903809 80.19989258 121.6159668 79.91650391 C132.34009298 76.99739772 142.59821863 74.96074577 153 80 C162.54858313 86.04555263 164.97022985 96.4353609 168.0390625 106.71484375 C168.58945694 108.53031456 168.58945694 108.53031456 169.15097046 110.38246155 C169.92243581 112.93232003 170.69116159 115.48280228 171.45507812 118.03491211 C172.42729104 121.28243474 173.40870508 124.52708147 174.39341164 127.77083492 C175.34161319 130.89685393 176.28402174 134.02461409 177.2265625 137.15234375 C177.57554596 138.30572739 177.92452942 139.45911102 178.28408813 140.64744568 C180.10301368 146.73104335 181.71458938 152.78115877 183 159 C180.25 160.625 180.25 160.625 177 162 C174.88354492 161.38061523 174.88354492 161.38061523 173 160 C172.13793945 157.90649414 172.13793945 157.90649414 171.61328125 155.28515625 C171.401875 154.30184326 171.19046875 153.31853027 170.97265625 152.30541992 C170.75480469 151.23525635 170.53695312 150.16509277 170.3125 149.0625 C168.17572478 139.42803355 165.61675251 130.05217784 162.5 120.6875 C162.14462158 119.59896729 161.78924316 118.51043457 161.4230957 117.38891602 C157.70808521 104.88883357 157.70808521 104.88883357 150.33081055 94.60229492 C141.30201922 90.30572987 128.87997708 92.45654789 119.55078125 94.92578125 C118.30090927 95.2473394 118.30090927 95.2473394 117.02578735 95.57539368 C101.80362329 99.55385459 86.70134745 104.00558219 71.57952881 108.34643555 C67.0761037 109.63903994 62.57178992 110.92845329 58.06619644 112.21348 C55.98827921 112.80746982 53.91171822 113.40603586 51.83517456 114.00480652 C21.48626022 122.6994046 21.48626022 122.6994046 9.3125 117.5625 C0.59548106 111.84800981 -1.83272758 101.31936244 -4.94140625 91.98828125 C-7.06137622 85.68817905 -9.48227813 79.51457784 -11.89352417 73.32147217 C-28.7915036 29.79942861 -28.7915036 29.79942861 -21 11 C-17.51302014 5.34901368 -13.24524939 2.12112834 -7.2109375 -0.50390625 C-4.52731032 -1.10606288 -2.63526972 -0.69811531 0 0 Z " fill="#000" transform="translate(71,275)"/>
<path d="M0 0 C5.259375 -0.020625 10.51875 -0.04125 15.9375 -0.0625 C17.599021 -0.071604 19.26054199 -0.08070801 20.97241211 -0.09008789 C22.26928955 -0.09258545 23.56616699 -0.09508301 24.90234375 -0.09765625 C25.93107605 -0.1053302 25.93107605 -0.1053302 26.98059082 -0.11315918 C28.65415231 -0.11347054 30.3275958 -0.06222837 32 0 C33.90849948 1.90849948 33.13059633 5.31478774 33.1328125 7.84375 C33.13376923 8.52804077 33.13472595 9.21233154 33.13571167 9.9173584 C33.1363933 11.36661877 33.13454023 12.81588218 33.13037109 14.26513672 C33.12502252 16.49062928 33.1303166 18.71592001 33.13671875 20.94140625 C33.13605797 22.34635461 33.1347768 23.75130285 33.1328125 25.15625 C33.13168457 26.44337891 33.13055664 27.73050781 33.12939453 29.05664062 C33 32 33 32 32 33 C29.62458949 33.08838648 27.2776642 33.11537523 24.90234375 33.09765625 C23.60546631 33.09515869 22.30858887 33.09266113 20.97241211 33.09008789 C19.31089111 33.08098389 17.64937012 33.07187988 15.9375 33.0625 C10.678125 33.041875 5.41875 33.02125 0 33 C0 22.11 0 11.22 0 0 Z " fill="#000" transform="translate(486,231)"/>
<path d="M0 0 C10.89 0 21.78 0 33 0 C33 10.56 33 21.12 33 32 C22.11 32 11.22 32 0 32 C0 21.44 0 10.88 0 0 Z " fill="#000" transform="translate(472,538)"/>
<path d="M0 0 C6 0 6 0 7.77587891 1.3984375 C8.25460449 2.05070313 8.73333008 2.70296875 9.2265625 3.375 C9.77812012 4.10605957 10.32967773 4.83711914 10.89794922 5.59033203 C11.46787598 6.38552246 12.03780273 7.18071289 12.625 8 C13.2245752 8.80421387 13.82415039 9.60842773 14.44189453 10.43701172 C15.68734917 12.11062212 16.92473185 13.79026731 18.15429688 15.47558594 C20.44713159 18.611553 22.78623518 21.7110129 25.12988281 24.80908203 C27.43174518 27.86384789 29.71396695 30.9333703 32 34 C32.33 22.78 32.66 11.56 33 0 C34.98 0 36.96 0 39 0 C39 15.18 39 30.36 39 46 C32 46 32 46 30.31005859 44.81689453 C29.92672363 44.26114746 29.54338867 43.70540039 29.1484375 43.1328125 C28.4692627 42.18728516 28.4692627 42.18728516 27.77636719 41.22265625 C27.31391602 40.53042969 26.85146484 39.83820312 26.375 39.125 C25.87645508 38.41988281 25.37791016 37.71476563 24.86425781 36.98828125 C23.7940131 35.47282005 22.73311366 33.95072466 21.68066406 32.42285156 C19.39495001 29.12775768 17.03488879 25.88892373 14.67333984 22.64794922 C12.10227344 19.10824545 9.55335837 15.5524986 7 12 C6.67 23.22 6.34 34.44 6 46 C4.02 46 2.04 46 0 46 C0 30.82 0 15.64 0 0 Z " fill="#000" transform="translate(409,837)"/>
<path d="M0 0 C4.11787147 5.35243641 8.12496935 12.39226742 7.5 19.33203125 C7.335 20.21246094 7.17 21.09289062 7 22 C6.87625 22.66177246 6.7525 23.32354492 6.625 24.00537109 C6.1755379 26.32341167 5.69090902 28.63058802 5.1875 30.9375 C5.0227417 31.69643555 4.8579834 32.45537109 4.68823242 33.23730469 C3.36132952 38.75911365 3.36132952 38.75911365 0 41 C-7.04233781 37.54060599 -9.82974626 33.65212232 -13.45703125 26.7421875 C-14.78136454 24.04188469 -14.78136454 24.04188469 -16.578125 22.59301758 C-18.41049091 20.54010076 -18.35076541 19.48597447 -18.29296875 16.76953125 C-18.28330078 15.96708984 -18.27363281 15.16464844 -18.26367188 14.33789062 C-18.23853516 13.50451172 -18.21339844 12.67113281 -18.1875 11.8125 C-18.17396484 10.96751953 -18.16042969 10.12253906 -18.14648438 9.25195312 C-18.11115799 7.16769616 -18.05735139 5.08376723 -18 3 C-15.94237091 2.29805625 -13.87863969 1.61398303 -11.8125 0.9375 C-10.66394531 0.55464844 -9.51539063 0.17179687 -8.33203125 -0.22265625 C-4.90023847 -1.02327379 -3.22697001 -1.38999553 0 0 Z " fill="#000" transform="translate(262,443)"/>
<path d="M0 0 C2.625 1.625 2.625 1.625 4.625 3.625 C4.955 1.975 5.285 0.325 5.625 -1.375 C7.275 -1.375 8.925 -1.375 10.625 -1.375 C10.69931132 3.80278402 10.75367808 8.98025569 10.78979492 14.15844727 C10.80485553 15.91891896 10.82530826 17.6793533 10.85131836 19.43969727 C10.88782229 21.97421503 10.90475354 24.50823552 10.91796875 27.04296875 C10.93345261 27.82649216 10.94893646 28.61001556 10.96488953 29.4172821 C10.96657455 34.9230906 9.95010304 38.22723749 6.125 42.171875 C0.35618591 46.79894463 -4.18838898 47.23007656 -11.375 46.625 C-15.80194544 45.56399655 -18.76241373 44.5438794 -21.375 40.625 C-20.715 39.635 -20.055 38.645 -19.375 37.625 C-18.611875 37.934375 -17.84875 38.24375 -17.0625 38.5625 C-11.07406922 40.93001914 -6.12057754 41.54019251 0 39.5 C3.2888391 37.15082921 3.82674275 35.53646053 4.625 31.625 C4.625 30.305 4.625 28.985 4.625 27.625 C4.00625 28.264375 3.3875 28.90375 2.75 29.5625 C-1.55057948 32.40088246 -5.26200352 32.94407588 -10.375 32.625 C-15.05032346 31.33828705 -17.76044807 29.3813716 -20.8125 25.625 C-23.32627937 20.79854361 -23.83213695 17.11064339 -23.375 11.625 C-21.56162342 6.35241048 -19.14236416 2.68100267 -14.375 -0.375 C-9.22536498 -2.09154501 -4.95344794 -2.01807138 0 0 Z M-14.375 6.625 C-17.73606957 10.4205493 -17.95981768 13.20313727 -17.77734375 18.14453125 C-17.07740869 22.45966489 -15.82673235 23.87770282 -12.375 26.625 C-8.08685918 27.98976091 -4.67455146 28.16177126 -0.5 26.4375 C2.64669244 23.75355645 4.26042295 21.79685481 5.5 17.8125 C5.68122333 13.19130518 4.19907244 9.57187907 1.2890625 5.97265625 C-3.34656925 2.21844744 -10.02955513 2.91859114 -14.375 6.625 Z " fill="#000" transform="translate(656.375,849.375)"/>
<path d="M0 0 C4.54308721 2.23024281 6.77445433 4.50770226 9 9 C9.34057617 11.9543457 9.34057617 11.9543457 9.29296875 15.17578125 C9.28330078 16.33271484 9.27363281 17.48964844 9.26367188 18.68164062 C9.23853516 19.87982422 9.21339844 21.07800781 9.1875 22.3125 C9.16719727 24.1387793 9.16719727 24.1387793 9.14648438 26.00195312 C9.11119261 29.00175345 9.06188481 32.00064975 9 35 C7.02 35 5.04 35 3 35 C2.67 34.01 2.34 33.02 2 32 C1.505 32.474375 1.01 32.94875 0.5 33.4375 C-3.54834575 35.96771609 -7.57824088 36.48348845 -12.19140625 35.5625 C-15.63870016 34.44514507 -17.60319862 33.4588016 -20 30.6875 C-21.59789857 26.3931476 -21.65500945 23.44102079 -19.75 19.25 C-17.78428538 16.72265263 -16.99197389 16.06445225 -14 15 C-11.07847452 14.7618726 -8.17864262 14.81186177 -5.25 14.875 C-4.06083984 14.88853516 -4.06083984 14.88853516 -2.84765625 14.90234375 C-0.89830719 14.92582988 1.05088575 14.96169863 3 15 C1.90213575 9.59212615 1.90213575 9.59212615 -2 6 C-7.79532324 5.43183105 -11.75478851 6.7914899 -17 9 C-17.66 7.35 -18.32 5.7 -19 4 C-12.72416167 0.60437733 -7.16830664 -1.20690877 0 0 Z M-15 21 C-16.16977494 23.34872531 -16.16977494 23.34872531 -16 26 C-14.8775114 28.22091205 -14.8775114 28.22091205 -13 30 C-8.44919482 30.9795801 -4.15596263 30.51900363 0.0625 28.625 C2.0970615 27.13747501 2.0970615 27.13747501 3 25 C3.039992 23.00039988 3.04346799 20.99952758 3 19 C0.9377952 18.945652 -1.12482816 18.90705039 -3.1875 18.875 C-4.33605469 18.85179687 -5.48460937 18.82859375 -6.66796875 18.8046875 C-9.95195521 18.99718378 -12.11040414 19.45747351 -15 21 Z " fill="#000" transform="translate(818,848)"/>
<path d="M0 0 C4.54308721 2.23024281 6.77445433 4.50770226 9 9 C9.34057617 11.9543457 9.34057617 11.9543457 9.29296875 15.17578125 C9.28330078 16.33271484 9.27363281 17.48964844 9.26367188 18.68164062 C9.23853516 19.87982422 9.21339844 21.07800781 9.1875 22.3125 C9.16719727 24.1387793 9.16719727 24.1387793 9.14648438 26.00195312 C9.11119261 29.00175345 9.06188481 32.00064975 9 35 C7.02 35 5.04 35 3 35 C2.67 34.01 2.34 33.02 2 32 C1.505 32.474375 1.01 32.94875 0.5 33.4375 C-3.54834575 35.96771609 -7.57824088 36.48348845 -12.19140625 35.5625 C-15.63870016 34.44514507 -17.60319862 33.4588016 -20 30.6875 C-21.59789857 26.3931476 -21.65500945 23.44102079 -19.75 19.25 C-17.78428538 16.72265263 -16.99197389 16.06445225 -14 15 C-11.07847452 14.7618726 -8.17864262 14.81186177 -5.25 14.875 C-4.06083984 14.88853516 -4.06083984 14.88853516 -2.84765625 14.90234375 C-0.89830719 14.92582988 1.05088575 14.96169863 3 15 C1.90213575 9.59212615 1.90213575 9.59212615 -2 6 C-7.79532324 5.43183105 -11.75478851 6.7914899 -17 9 C-17.66 7.35 -18.32 5.7 -19 4 C-12.72416167 0.60437733 -7.16830664 -1.20690877 0 0 Z M-15 21 C-16.16977494 23.34872531 -16.16977494 23.34872531 -16 26 C-14.8775114 28.22091205 -14.8775114 28.22091205 -13 30 C-8.44919482 30.9795801 -4.15596263 30.51900363 0.0625 28.625 C2.0970615 27.13747501 2.0970615 27.13747501 3 25 C3.039992 23.00039988 3.04346799 20.99952758 3 19 C0.9377952 18.945652 -1.12482816 18.90705039 -3.1875 18.875 C-4.33605469 18.85179687 -5.48460937 18.82859375 -6.66796875 18.8046875 C-9.95195521 18.99718378 -12.11040414 19.45747351 -15 21 Z " fill="#000" transform="translate(599,848)"/>
<path d="M0 0 C3.02347852 2.22133115 3.83554427 2.88225833 5.0625 6.25 C5.28955078 9.18261719 5.28955078 9.18261719 5.2578125 12.546875 C5.25136719 13.75214844 5.24492188 14.95742188 5.23828125 16.19921875 C5.22152344 17.45347656 5.20476563 18.70773437 5.1875 20 C5.17847656 21.26972656 5.16945313 22.53945313 5.16015625 23.84765625 C5.13659005 26.98196093 5.10368832 30.11588541 5.0625 33.25 C3.4125 33.25 1.7625 33.25 0.0625 33.25 C-0.2675 32.26 -0.5975 31.27 -0.9375 30.25 C-1.5975 30.724375 -2.2575 31.19875 -2.9375 31.6875 C-7.14710184 33.88000096 -11.26486222 34.94074138 -15.90234375 33.7421875 C-19.07882647 32.46622192 -22.11410069 31.18769888 -23.9375 28.25 C-25.67807407 21.61406134 -25.67807407 21.61406134 -23.94921875 18.4296875 C-22.16565758 16.25153315 -20.4697451 14.51612255 -17.9375 13.25 C-15.05379667 13.17805131 -12.19510336 13.15708292 -9.3125 13.1875 C-8.51070312 13.19201172 -7.70890625 13.19652344 -6.8828125 13.20117188 C-4.90100994 13.21296832 -2.91924567 13.23090395 -0.9375 13.25 C-1.2675 10.61 -1.5975 7.97 -1.9375 5.25 C-8.91145738 3.01833364 -14.4494289 4.51818059 -20.9375 7.25 C-21.5975 5.93 -22.2575 4.61 -22.9375 3.25 C-15.98215591 -1.65035607 -8.0454673 -4.29203799 0 0 Z M-18.9375 20.25 C-19.60430368 23.29279372 -19.60430368 23.29279372 -18.9375 26.25 C-14.69530331 29.07813113 -10.9173445 29.02040656 -5.9375 28.25 C-2.33732205 25.75191734 -1.15710233 24.37425346 -0.31640625 20.0703125 C-0.12884766 18.67425781 -0.12884766 18.67425781 0.0625 17.25 C-2.16605574 17.1685778 -4.39547655 17.11061921 -6.625 17.0625 C-7.86636719 17.02769531 -9.10773437 16.99289062 -10.38671875 16.95703125 C-14.15947639 17.26831488 -16.01305572 17.88180595 -18.9375 20.25 Z " fill="#000" transform="translate(765.9375,849.75)"/>
<path d="M0 0 C3.15404142 2.48415651 4.8058184 5.52614052 5.765625 9.390625 C5.765625 12.030625 5.765625 14.670625 5.765625 17.390625 C-3.474375 17.390625 -12.714375 17.390625 -22.234375 17.390625 C-18.44319093 25.00348787 -18.44319093 25.00348787 -15.234375 26.390625 C-6.67945417 27.11636063 -6.67945417 27.11636063 0.765625 23.390625 C1.755625 24.710625 2.745625 26.030625 3.765625 27.390625 C-1.94687453 32.17677325 -5.89998878 32.75245334 -13.21875 32.6640625 C-17.72729253 32.25525683 -19.70640357 31.25710179 -23.234375 28.390625 C-26.81384515 24.05353693 -28.48494105 19.03880126 -28.234375 13.390625 C-27.4009258 8.60630602 -26.06833547 4.71164324 -22.359375 1.453125 C-14.98931868 -3.41111217 -7.84807772 -4.38750801 0 0 Z M-19.234375 5.390625 C-21.450827 8.34589434 -22.234375 9.67809336 -22.234375 13.390625 C-14.644375 13.390625 -7.054375 13.390625 0.765625 13.390625 C0.24179807 7.78801187 0.24179807 7.78801187 -1.734375 5.078125 C-7.36480289 1.27758617 -13.71639785 1.44921275 -19.234375 5.390625 Z " fill="#000" transform="translate(970.234375,850.609375)"/>
<path d="M0 0 C0.66 0 1.32 0 2 0 C2.08636719 0.6290625 2.17273438 1.258125 2.26171875 1.90625 C3.28040578 8.11182972 4.82789048 13.17990617 9 18 C10.051875 18.61875 11.10375 19.2375 12.1875 19.875 C16.01451606 22.76652325 16.09607767 25.3577034 16.7734375 29.953125 C16.84820312 30.62859375 16.92296875 31.3040625 17 32 C15.60201172 32.34611328 15.60201172 32.34611328 14.17578125 32.69921875 C5.49770622 34.91919143 -2.70333448 37.58619496 -11 41 C-10.11695535 32.7937747 -8.32503276 25.04663567 -6.0625 17.125 C-5.80968262 16.23401611 -5.55686523 15.34303223 -5.29638672 14.42504883 C-3.83930184 9.43927635 -2.15690905 4.72588431 0 0 Z " fill="#000" transform="translate(292,567)"/>
<path d="M0 0 C4.40514914 2.52855561 7.03179306 5.71924829 8.75 10.5 C9.66242892 16.68521526 9.4752363 22.28466918 5.75 27.5 C-0.06445426 33.19041257 -4.05902075 33.85167071 -12.04296875 33.78125 C-17.52252057 33.30070465 -20.01046216 30.87354193 -23.5625 26.9375 C-27.06353845 21.88044446 -26.83988529 16.44039412 -26.25 10.5 C-24.53468354 5.13841084 -21.1026612 2.18445087 -16.25 -0.5 C-10.77421337 -2.32526221 -5.34259653 -2.30127023 0 0 Z M-19.0625 8.25 C-21.04006106 11.99695781 -21.6753484 15.43402204 -20.8125 19.625 C-19.73183496 22.9652374 -18.70170014 25.07487046 -16.125 27.5 C-12.05197393 28.91670472 -8.50743651 29.27953063 -4.25 28.5 C-0.2312646 26.16182668 1.88870186 24.02567451 3.25 19.625 C4.01074524 15.46835074 3.47522256 12.40050319 1.75 8.5 C-1.48066065 4.88926163 -4.55574742 3.77105398 -9.2578125 3.3984375 C-13.37403825 3.6082843 -16.17093063 5.45813992 -19.0625 8.25 Z " fill="#000" transform="translate(701.25,849.5)"/>
<path d="M0 0 C5.14046698 5.53588752 5.34650479 9.39470723 5.28125 16.79296875 C4.79873953 22.29492837 2.3721814 24.79117353 -1.625 28.3125 C-6.97840758 32.11623697 -12.61036924 31.53766405 -19 31 C-24.44916794 28.66464231 -27.8138204 24.45610636 -30 19 C-30.96643855 13.09196054 -30.50755511 7.97846531 -27 3 C-19.07309937 -5.13751877 -9.6214665 -6.63475849 0 0 Z M-21 4 C-24.45624174 7.67922507 -24.55996404 11.70550505 -24.4296875 16.5546875 C-23.72732772 20.55175316 -21.94179178 22.26833621 -19 25 C-15.52553607 26.73723196 -11.79877343 26.45968351 -8 26 C-4.56860505 24.31549703 -2.65672285 22.99936086 -0.5625 19.8125 C0.50713333 14.46433335 0.05408204 9.76935199 -2.75 5.0625 C-8.65134175 -0.34706327 -14.189524 0.40902174 -21 4 Z " fill="#000" transform="translate(1029,852)"/>
<path d="M0 0 C1.65 0 3.3 0 5 0 C5.66 1.32 6.32 2.64 7 4 C7.969375 3.34 8.93875 2.68 9.9375 2 C14.26298863 -0.45169396 18.12172195 -0.87968949 23 0 C27.51220275 2.25610137 29.78439754 4.51487291 32 9 C32.34057617 11.9543457 32.34057617 11.9543457 32.29296875 15.17578125 C32.2784668 16.91118164 32.2784668 16.91118164 32.26367188 18.68164062 C32.23853516 19.87982422 32.21339844 21.07800781 32.1875 22.3125 C32.16719727 24.1387793 32.16719727 24.1387793 32.14648438 26.00195312 C32.11119261 29.00175345 32.06188481 32.00064975 32 35 C30.02 35 28.04 35 26 35 C25.98598145 33.94087402 25.98598145 33.94087402 25.97167969 32.86035156 C25.91794341 29.65619455 25.83430243 26.45349243 25.75 23.25 C25.73582031 22.13882813 25.72164062 21.02765625 25.70703125 19.8828125 C25.67480469 18.81289063 25.64257812 17.74296875 25.609375 16.640625 C25.58842773 15.65610352 25.56748047 14.67158203 25.54589844 13.65722656 C24.86011379 10.31908698 23.62403693 9.1077021 21 7 C17.48405447 6.18968443 14.03820836 6.67214473 10.625 7.75 C8.57766431 9.32487361 7.98219442 10.61222465 7 13 C6.63745194 15.50965963 6.63745194 15.50965963 6.5859375 18.203125 C6.52792969 19.67265625 6.52792969 19.67265625 6.46875 21.171875 C6.42234375 22.69554687 6.42234375 22.69554687 6.375 24.25 C6.33632813 25.28125 6.29765625 26.3125 6.2578125 27.375 C6.16368326 29.9164894 6.07805021 32.45797433 6 35 C4.02 35 2.04 35 0 35 C0 23.45 0 11.9 0 0 Z " fill="#000" transform="translate(538,848)"/>
<path d="M0 0 C1.98 0 3.96 0 6 0 C6.01458252 0.70608398 6.02916504 1.41216797 6.04418945 2.13964844 C6.11873167 5.34364674 6.21537205 8.54661016 6.3125 11.75 C6.33505859 12.86117187 6.35761719 13.97234375 6.38085938 15.1171875 C6.41630859 16.18710937 6.45175781 17.25703125 6.48828125 18.359375 C6.51446533 19.34389648 6.54064941 20.32841797 6.56762695 21.34277344 C7.06820898 24.41919061 7.80164569 25.80698074 10 28 C14.39810175 29.06405688 16.69924137 29.53726987 20.875 27.8125 C23.76090754 25.35099063 24.8327069 23.29786655 25.31884766 19.52636719 C25.35026855 18.62563477 25.38168945 17.72490234 25.4140625 16.796875 C25.45273437 15.8171875 25.49140625 14.8375 25.53125 13.828125 C25.5621875 12.81234375 25.593125 11.7965625 25.625 10.75 C25.66367187 9.71875 25.70234375 8.6875 25.7421875 7.625 C25.83631674 5.0835106 25.92194979 2.54202567 26 0 C27.98 0 29.96 0 32 0 C32 11.55 32 23.1 32 35 C30.02 35 28.04 35 26 35 C25.67 33.68 25.34 32.36 25 31 C24.236875 31.66 23.47375 32.32 22.6875 33 C18.16430729 35.99755526 13.21636286 35.89910563 8 35 C4.58990993 33.35235252 2.55425256 31.11978006 0.85986328 27.6965332 C-0.10794298 24.66149058 -0.22794444 22.22458326 -0.1953125 19.04296875 C-0.18886719 17.93115234 -0.18242188 16.81933594 -0.17578125 15.67382812 C-0.15902344 14.52333984 -0.14226563 13.37285156 -0.125 12.1875 C-0.11597656 11.01767578 -0.10695313 9.84785156 -0.09765625 8.64257812 C-0.07413732 5.76150947 -0.04126852 2.88086011 0 0 Z " fill="#000" transform="translate(902,848)"/>
<path d="M0 0 C1.2065625 0.0309375 1.2065625 0.0309375 2.4375 0.0625 C2.45208252 0.7330542 2.46666504 1.4036084 2.48168945 2.09448242 C2.556383 5.14688822 2.65297299 8.19822585 2.75 11.25 C2.77255859 12.30509766 2.79511719 13.36019531 2.81835938 14.44726562 C2.85380859 15.46884766 2.88925781 16.49042969 2.92578125 17.54296875 C2.95196533 18.48035889 2.97814941 19.41774902 3.00512695 20.38354492 C3.51443128 23.53916118 4.5815774 25.4791907 6.4375 28.0625 C9.06263139 29.20481659 11.59592979 29.26229791 14.4375 29.0625 C18.05840756 27.48819236 19.23005284 26.37367074 21.4375 23.0625 C21.78776976 20.6612924 21.78776976 20.6612924 21.81640625 17.9921875 C21.85056641 17.01378906 21.88472656 16.03539062 21.91992188 15.02734375 C21.94634766 14.00769531 21.97277344 12.98804688 22 11.9375 C22.05966593 9.91393631 22.12325032 7.89048303 22.19140625 5.8671875 C22.21533447 4.96983887 22.2392627 4.07249023 22.26391602 3.14794922 C22.4375 1.0625 22.4375 1.0625 23.4375 0.0625 C25.0875 0.0625 26.7375 0.0625 28.4375 0.0625 C28.4375 11.6125 28.4375 23.1625 28.4375 35.0625 C26.4575 35.0625 24.4775 35.0625 22.4375 35.0625 C22.1075 33.7425 21.7775 32.4225 21.4375 31.0625 C20.57125 32.0525 20.57125 32.0525 19.6875 33.0625 C14.75322672 36.09897587 10.08310652 35.92576595 4.4375 35.0625 C1.35858753 33.78501624 0.61608021 32.8143908 -1.5625 30.0625 C-3.63060141 23.68763072 -3.83775973 17.79012091 -3.75 11.125 C-3.74935547 10.16787109 -3.74871094 9.21074219 -3.74804688 8.22460938 C-3.69608793 0.09014849 -3.69608793 0.09014849 0 0 Z " fill="#000" transform="translate(497.5625,847.9375)"/>
<path d="M0 0 C0.804375 0.495 1.60875 0.99 2.4375 1.5 C2.1075 3.15 1.7775 4.8 1.4375 6.5 C0.591875 6.17 -0.25375 5.84 -1.125 5.5 C-5.30516888 4.28395087 -9.54001725 3.48875862 -13.5625 5.5 C-14.21805119 8.02733235 -14.21805119 8.02733235 -14.5625 10.5 C-14.005625 10.67015625 -13.44875 10.8403125 -12.875 11.015625 C1.12424762 15.46133201 1.12424762 15.46133201 3.66796875 19.41015625 C4.88382033 22.7120882 4.27802621 25.13789517 3.4375 28.5 C1.54638889 30.8181362 0.09921969 32.16914015 -2.5625 33.5 C-14.91584612 34.5408206 -14.91584612 34.5408206 -19.375 31.5 C-20.096875 30.84 -20.81875 30.18 -21.5625 29.5 C-21.2325 27.85 -20.9025 26.2 -20.5625 24.5 C-19.716875 24.974375 -18.87125 25.44875 -18 25.9375 C-13.35322568 28.04967014 -9.58036223 29.14399858 -4.625 27.5625 C-3.944375 27.211875 -3.26375 26.86125 -2.5625 26.5 C-2.6062693 24.0691161 -2.6062693 24.0691161 -3.5625 21.5 C-6.17347529 19.90582491 -6.17347529 19.90582491 -9.375 18.875 C-16.68827728 16.22048523 -16.68827728 16.22048523 -19.5625 13.5 C-21.36605971 7.02840338 -21.36605971 7.02840338 -19.60546875 3.6796875 C-14.50835098 -2.6955595 -7.17776382 -3.02221635 0 0 Z " fill="#000" transform="translate(891.5625,849.5)"/>
<path d="M0 0 C1.66611905 -0.042721 3.33382885 -0.04063832 5 0 C6 1 6 1 6.09765625 2.84765625 C6.04882812 5.92382812 6.04882812 5.92382812 6 9 C9.3 9 12.6 9 16 9 C16 10.65 16 12.3 16 14 C12.7 14 9.4 14 6 14 C6 21.59 6 29.18 6 37 C9.3 37 12.6 37 16 37 C16.33 38.32 16.66 39.64 17 41 C12.81670521 43.21970744 11.01738517 44.15260778 6.25 43.4375 C2.79796706 41.91063928 1.85127835 41.1850098 0 38 C-0.34057617 35.34277344 -0.34057617 35.34277344 -0.29296875 32.359375 C-0.28330078 31.28945313 -0.27363281 30.21953125 -0.26367188 29.1171875 C-0.23853516 28.00601563 -0.21339844 26.89484375 -0.1875 25.75 C-0.17396484 24.62335937 -0.16042969 23.49671875 -0.14648438 22.3359375 C-0.11115645 19.55680736 -0.0618252 16.77864637 0 14 C-1.65 14 -3.3 14 -5 14 C-5 12.35 -5 10.7 -5 9 C-3.35 9 -1.7 9 0 9 C0 6.03 0 3.06 0 0 Z " fill="#000" transform="translate(720,840)"/>
<path d="M0 0 C1.98 0 3.96 0 6 0 C6 16.17 6 32.34 6 49 C4.02 49 2.04 49 0 49 C0 32.83 0 16.66 0 0 Z " fill="#000" transform="translate(838,834)"/>
<path d="M0 0 C1.65 0 3.3 0 5 0 C5 16.17 5 32.34 5 49 C3.35 49 1.7 49 0 49 C0 32.83 0 16.66 0 0 Z " fill="#000" transform="translate(985,834)"/>
<path d="M0 0 C0.33 1.65 0.66 3.3 1 5 C-4.31507358 9.42922798 -9.69215119 11.82931431 -16.3125 13.5625 C-17.00601562 13.75489258 -17.69953125 13.94728516 -18.4140625 14.14550781 C-21.62097696 14.91610134 -23.47304121 15.25974504 -26.48046875 13.77734375 C-28 12 -28 12 -28 9 C-7.8852916 -0.60656089 -7.8852916 -0.60656089 0 0 Z " fill="#000" transform="translate(311,610)"/>
<path d="M0 0 C3.93179568 2.01630548 5.71561126 5.26060345 7.4375 9.25 C7.91163183 12.86525521 8.1550697 15.01418552 6.3125 18.1875 C3.35790844 19.86176855 1.78422433 19.90622046 -1.5625 19.25 C-4.80429252 16.77363071 -7.10257422 13.97847922 -8.16015625 10.00390625 C-8.4375 7.8125 -8.4375 7.8125 -8.5625 4.25 C-3.46512489 0.33806097 -3.46512489 0.33806097 0 0 Z " fill="#000" transform="translate(310.5625,561.75)"/>
<path d="M0 0 C1.98 0 3.96 0 6 0 C6 11.55 6 23.1 6 35 C4.02 35 2.04 35 0 35 C0 23.45 0 11.9 0 0 Z " fill="#000" transform="translate(460,848)"/>
<path d="M0 0 C3 2 3 2 4 5 C4.37419667 9.04132399 4.39088454 11.30843504 2.375 14.875 C-0.4761928 17.42606724 -2.20253283 17.91744637 -6 18 C-6.66 17.34 -7.32 16.68 -8 16 C-7.63141179 12.19772162 -6.27057892 9.13574694 -4.5625 5.75 C-3.91474609 4.44289063 -3.91474609 4.44289063 -3.25390625 3.109375 C-2 1 -2 1 0 0 Z " fill="#000" transform="translate(304,541)"/>
<path d="M0 0 C1.65 0.33 3.3 0.66 5 1 C5.33 1.99 5.66 2.98 6 4 C5.01 5.485 5.01 5.485 4 7 C2.35 6.67 0.7 6.34 -1 6 C-1.33 5.01 -1.66 4.02 -2 3 C-1.34 2.01 -0.68 1.02 0 0 Z " fill="#000" transform="translate(461,835)"/>
<path d="M0 0 C0.66 0.33 1.32 0.66 2 1 C-2.29 5.29 -6.58 9.58 -11 14 C-11.66 13.67 -12.32 13.34 -13 13 C-8.66666667 8.66666667 -4.33333333 4.33333333 0 0 Z " fill="#000" transform="translate(363,810)"/>
<path d="M0 0 C0.33 0 0.66 0 1 0 C1 6.27 1 12.54 1 19 C-0.64350079 15.71299843 -1.41321669 13.52069985 -2 10 C-1.34 10 -0.68 10 0 10 C0 6.7 0 3.4 0 0 Z " fill="#000" transform="translate(167,823)"/>
<path d="" fill="#000" transform="translate(0,0)"/>
</svg>
