<?xml version="1.0" encoding="UTF-8"?>
<svg version="1.1" xmlns="http://www.w3.org/2000/svg" width="287" height="326">
<path d="M0 0 C0 3.96 0 7.92 0 12 C0.44013428 11.14970215 0.88026855 10.2994043 1.33374023 9.42333984 C6.50864831 0.9462885 6.50864831 0.9462885 10.90997314 -0.72546387 C15.45752794 -1.65716584 19.99786496 -1.6231887 24.62036133 -1.45458984 C27.06712738 -1.37484919 29.49231011 -1.4132007 31.93945312 -1.46484375 C43.15615991 -1.44906799 43.15615991 -1.44906799 47.86669922 2.25292969 C50.36928366 5.34478385 52.22828518 8.45657036 54 12 C54 8.37 54 4.74 54 1 C58 0 58 0 61.3359375 1.6328125 C62.68981526 2.45122285 64.03565813 3.28301197 65.375 4.125 C66.88373625 5.04489163 68.39287238 5.96412763 69.90234375 6.8828125 C71.12026611 7.63159668 71.12026611 7.63159668 72.36279297 8.39550781 C75.20518592 10.12483631 78.06951634 11.81232417 80.94140625 13.4921875 C81.93672363 14.07468262 82.93204102 14.65717773 83.95751953 15.25732422 C85.92548294 16.40817812 87.8938989 17.55825855 89.86279297 18.70751953 C91.21268311 19.50198486 91.21268311 19.50198486 92.58984375 20.3125 C93.79435181 21.01826172 93.79435181 21.01826172 95.02319336 21.73828125 C97 23 97 23 99 25 C99.45847689 27.36030696 99.82143131 29.7398174 100.125 32.125 C100.29257813 33.40632813 100.46015625 34.68765625 100.6328125 36.0078125 C100.75398437 36.99523437 100.87515625 37.98265625 101 39 C102.65 35.7 104.3 32.4 106 29 C110.37699678 31.18849839 110.94211741 32.07318354 113.171875 36.20703125 C113.7505835 37.262854 114.32929199 38.31867676 114.92553711 39.40649414 C115.52760986 40.53047607 116.12968262 41.65445801 116.75 42.8125 C120.60169685 49.89996355 124.44957301 56.85841083 128.9375 63.5625 C132.53084874 69.32570815 132.53084874 69.32570815 132.25 73.25 C130.78092684 77.65721948 129.06925304 81.84224506 127 86 C127.53109375 85.55527344 128.0621875 85.11054687 128.609375 84.65234375 C129.31578125 84.08644531 130.0221875 83.52054687 130.75 82.9375 C131.44609375 82.36902344 132.1421875 81.80054687 132.859375 81.21484375 C135 80 135 80 137.13378906 80.42407227 C137.74963867 80.61412842 138.36548828 80.80418457 139 81 C139.10138675 87.76256512 139.17145971 94.52493439 139.21972656 101.28808594 C139.23984688 103.58894169 139.26714634 105.88974629 139.30175781 108.19042969 C139.35025612 111.49687317 139.37296478 114.80264085 139.390625 118.109375 C139.41127014 119.13867126 139.43191528 120.16796753 139.45318604 121.22845459 C139.45543364 128.37537822 139.45543364 128.37537822 137.12304688 131.57421875 C136.42244141 132.04472656 135.72183594 132.51523438 135 133 C134.22140625 133.56203125 133.4428125 134.1240625 132.640625 134.703125 C130.42708333 136.13541667 128.21354167 137.56770833 126 139 C130.29 139 134.58 139 139 139 C138.12063998 143.39680009 137.35715206 145.49877642 135.15625 149.2109375 C134.57431885 150.20206543 133.9923877 151.19319336 133.39282227 152.21435547 C132.11573929 154.34683531 130.83755614 156.47865662 129.55834961 158.60986328 C125.35998617 165.60762102 125.35998617 165.60762102 121.59765625 172.84375 C117.00342927 182.12609585 117.00342927 182.12609585 113.16308594 183.80126953 C108.79338272 184.96826187 104.52037327 185.13698101 100 185 C104.455 187.475 104.455 187.475 109 190 C107.09689664 193.80620672 105.22992819 196.15036368 102.375 199.25 C101.14910156 200.58804688 101.14910156 200.58804688 99.8984375 201.953125 C99.27195313 202.62859375 98.64546875 203.3040625 98 204 C97.01 203.67 96.02 203.34 95 203 C93.93436312 200.68664263 93.03946909 198.4529148 92.1875 196.0625 C85.50577657 178.50403511 73.85645507 164.6123007 56.75 156.1875 C39.2156695 148.9423247 20.97745466 147.33625012 3 154 C-15.45154878 161.72147325 -29.03127358 174.58705524 -37 193 C-38.42671677 196.63768468 -39.76002585 200.29466548 -41 204 C-46.38161163 203.19571518 -48.82581511 199.07890425 -52 195 C-53.9375 192 -53.9375 192 -55 190 C-52.03 188.35 -49.06 186.7 -46 185 C-46.98492432 185.0093457 -47.96984863 185.01869141 -48.98461914 185.02832031 C-59.47211896 184.50185874 -59.47211896 184.50185874 -63.60888672 180.43554688 C-65.81888109 176.95905773 -67.66605313 173.46124064 -69.4375 169.75 C-70.06718485 168.52601863 -70.7019347 167.30462934 -71.34179688 166.0859375 C-72.61453227 163.65016499 -73.8548919 161.2014331 -75.07763672 158.74023438 C-77.37875839 154.17201926 -79.97351476 149.77407095 -82.62828064 145.40350342 C-83.47759932 143.96886002 -84.24709785 142.48750874 -85 141 C-84.505 140.01 -84.505 140.01 -84 139 C-80.04 139 -76.08 139 -72 139 C-72.78246094 138.43410156 -73.56492187 137.86820313 -74.37109375 137.28515625 C-75.38300781 136.55167969 -76.39492187 135.81820312 -77.4375 135.0625 C-78.95150391 133.96615234 -78.95150391 133.96615234 -80.49609375 132.84765625 C-83 131 -83 131 -84 130 C-84.09326716 128.43452952 -84.11745582 126.86487228 -84.11352539 125.29663086 C-84.11344986 124.29566879 -84.11337433 123.29470673 -84.11329651 122.26341248 C-84.10813522 121.1748848 -84.10297394 120.08635712 -84.09765625 118.96484375 C-84.0962413 117.85645645 -84.09482635 116.74806915 -84.09336853 115.60609436 C-84.08775033 112.04986931 -84.07519475 108.49370617 -84.0625 104.9375 C-84.05748734 102.53320403 -84.05292403 100.12890708 -84.04882812 97.72460938 C-84.03777499 91.81638496 -84.02101917 85.9081969 -84 80 C-80.85635166 80.71160767 -78.84004598 81.61996552 -76.25 83.5625 C-75.63640625 84.01753906 -75.0228125 84.47257812 -74.390625 84.94140625 C-73.70226562 85.46541016 -73.70226562 85.46541016 -73 86 C-73.37253906 85.20335938 -73.74507812 84.40671875 -74.12890625 83.5859375 C-74.60199219 82.52632813 -75.07507813 81.46671875 -75.5625 80.375 C-76.03816406 79.33085938 -76.51382813 78.28671875 -77.00390625 77.2109375 C-78.43127335 72.60977768 -77.69471776 69.45797437 -75.63647461 65.13842773 C-74.77807983 63.67578491 -74.77807983 63.67578491 -73.90234375 62.18359375 C-72.95210327 60.55043213 -72.95210327 60.55043213 -71.98266602 58.88427734 C-71.30125294 57.73516832 -70.61952594 56.58624538 -69.9375 55.4375 C-69.25055908 54.26552427 -68.56428065 53.09315998 -67.87866211 51.92041016 C-63.36166622 44.21422271 -58.78101356 36.54575303 -54 29 C-51 30 -51 30 -49.83203125 31.84765625 C-49.49558594 32.57855469 -49.15914062 33.30945312 -48.8125 34.0625 C-48.46832031 34.79597656 -48.12414062 35.52945313 -47.76953125 36.28515625 C-47.51558594 36.85105469 -47.26164062 37.41695312 -47 38 C-45.69328166 36.92196309 -45.69328166 36.92196309 -45.921875 34.33984375 C-45.73092612 30.55992392 -45.24901615 27.58261216 -44 24 C-41.49951172 21.87133789 -41.49951172 21.87133789 -38.3046875 20.09765625 C-37.72997711 19.76967041 -37.15526672 19.44168457 -36.56314087 19.10375977 C-35.34100361 18.40790201 -34.11363752 17.72115914 -32.8815918 17.04299927 C-31.0223101 16.01236688 -29.18802228 14.9475899 -27.35742188 13.86694336 C-24.32416917 12.07647181 -21.27695466 10.31228946 -18.22119141 8.56054688 C-16.33791819 7.47869831 -14.46008042 6.38776144 -12.58203125 5.296875 C-11.37532161 4.60360656 -10.16830241 3.91087661 -8.9609375 3.21875 C-7.88634277 2.59935547 -6.81174805 1.97996094 -5.70458984 1.34179688 C-3 0 -3 0 0 0 Z M4.890625 20.96875 C4.13652344 21.37480469 3.38242188 21.78085937 2.60546875 22.19921875 C1.82816406 22.62847656 1.05085938 23.05773437 0.25 23.5 C-0.54277344 23.92925781 -1.33554688 24.35851562 -2.15234375 24.80078125 C-4.10571989 25.8598406 -6.05458609 26.92640563 -8 28 C-4.44051423 29.02805607 -2.64430357 28.79590079 0.875 27.5625 C5.08125316 26.09228926 7.21625457 26 12 26 C16.29 33.59 20.58 41.18 25 49 C26.32 49 27.64 49 29 49 C33.29 41.41 37.58 33.82 42 26 C50.90066225 26 50.90066225 26 54.25 27.0625 C57.78720743 27.94680186 58.74811124 28.02880551 62 27 C59.27512547 25.82232545 56.54584655 24.65770524 53.8125 23.5 C53.04357422 23.16613281 52.27464844 22.83226562 51.48242188 22.48828125 C45.9196942 19.96793511 45.9196942 19.96793511 40 20 C37.50497897 22.06956061 37.50497897 22.06956061 35.3125 24.8125 C34.16201172 26.15248047 34.16201172 26.15248047 32.98828125 27.51953125 C30.9180528 30.02803653 30.9180528 30.02803653 29 33 C25.41227847 32.73965207 24.17755914 32.18104639 21.61328125 29.56640625 C20.85402344 28.57511719 20.09476563 27.58382812 19.3125 26.5625 C18.54550781 25.57378906 17.77851563 24.58507812 16.98828125 23.56640625 C16.33214844 22.71949219 15.67601562 21.87257813 15 21 C14.34 20.34 13.68 19.68 13 19 C9.11728647 19 8.10340379 19.21632521 4.890625 20.96875 Z M-7.9375 41.375 C-9.11763672 41.67277344 -10.29777344 41.97054687 -11.51367188 42.27734375 C-17.96262054 44.05208148 -17.96262054 44.05208148 -22.84667969 48.34912109 C-24.10924588 50.86725478 -25.07878685 53.34096718 -26 56 C-26.77259036 57.63415582 -27.56159735 59.26077039 -28.375 60.875 C-29.90631205 64.04282874 -30.15750747 65.64773811 -29 69 C-25.26043165 69.89318448 -21.98205275 70.04840674 -18.1484375 69.84375 C-16.50101563 69.76447266 -16.50101563 69.76447266 -14.8203125 69.68359375 C-13.68335937 69.62300781 -12.54640625 69.56242187 -11.375 69.5 C-9.11224736 69.38023719 -6.84922592 69.26542038 -4.5859375 69.15625 C-3.08619385 69.07600586 -3.08619385 69.07600586 -1.55615234 68.99414062 C1 69 1 69 4 70 C5.0625 72.25 5.0625 72.25 6 75 C6.52013672 76.14275391 6.52013672 76.14275391 7.05078125 77.30859375 C8.11341256 80.32156895 8.20168779 82.62995664 8.125 85.8125 C8.10695312 86.78832031 8.08890625 87.76414063 8.0703125 88.76953125 C8.04710937 89.50558594 8.02390625 90.24164063 8 91 C7.55011719 90.4225 7.10023437 89.845 6.63671875 89.25 C2.74312984 84.61897472 2.74312984 84.61897472 -2.734375 82.57421875 C-4.62144826 82.64980594 -6.50746453 82.75928598 -8.390625 82.90234375 C-14.46105132 83.12953036 -19.22594314 79.37677193 -24 76 C-27.14989193 77.04546734 -27.93289256 77.87354819 -29.51953125 80.86328125 C-29.94621094 82.00152344 -30.37289062 83.13976562 -30.8125 84.3125 C-31.25207031 85.44300781 -31.69164062 86.57351562 -32.14453125 87.73828125 C-33.05138659 91.19592606 -33.06046031 92.64562232 -32 96 C-30.33261594 97.90428638 -30.33261594 97.90428638 -28.140625 99.48046875 C-27.35429688 100.08697266 -26.56796875 100.69347656 -25.7578125 101.31835938 C-24.51644531 102.24358398 -24.51644531 102.24358398 -23.25 103.1875 C-22.43789062 103.81591797 -21.62578125 104.44433594 -20.7890625 105.09179688 C-16.94751865 108.01675086 -13.56841806 110.34272065 -9 112 C-9.6861636 119.50381475 -11.75301815 126.31850002 -14.00390625 133.48632812 C-14.27332031 134.38158203 -14.54273437 135.27683594 -14.8203125 136.19921875 C-15.07055176 137.00190186 -15.32079102 137.80458496 -15.57861328 138.6315918 C-16.07818531 141.43944129 -15.88637465 143.2928333 -15 146 C-9.81653637 149.45564242 -3.06382788 148.61878882 3 148 C10.22174018 146.45367832 17.20335421 143.66907907 23 139 C24.58691028 135.82617944 24.39262863 133.50430227 24 130 C22.12051007 127.73681835 20.54705968 126.13315531 18.3125 124.3125 C17.51682617 123.62317383 17.51682617 123.62317383 16.70507812 122.91992188 C14.23703629 120.79710307 11.75109691 118.82096444 9.10546875 116.91796875 C8.41066406 116.28503906 7.71585938 115.65210938 7 115 C7 113.68 7 112.36 7 111 C20.2 111 33.4 111 47 111 C45.9112534 116.44373301 45.32341363 117.09462041 41.3125 120.5 C40.41273438 121.27730469 39.51296875 122.05460937 38.5859375 122.85546875 C36.55698374 124.53809052 34.50762599 126.18164465 32.4375 127.8125 C29.98837283 129.76736664 29.98837283 129.76736664 28.9375 131.9375 C29.03828662 135.26345832 30.2061585 137.22243897 32 140 C39.18566824 145.98805686 48.81634454 148.12893077 58 148.1875 C59.5159375 148.20876953 59.5159375 148.20876953 61.0625 148.23046875 C64.16996153 147.98666525 66.28552712 147.53658554 69 146 C70.49322575 142.45942371 69.64182569 139.8996864 68.56640625 136.31640625 C68.0878418 134.67768555 68.0878418 134.67768555 67.59960938 133.00585938 C67.25736328 131.86955078 66.91511719 130.73324219 66.5625 129.5625 C65.89111336 127.31559272 65.22552074 125.06694406 64.56640625 122.81640625 C64.26677979 121.82068604 63.96715332 120.82496582 63.65844727 119.79907227 C63.02007189 117.08532602 62.87285038 114.77477891 63 112 C63.77730469 111.65388672 63.77730469 111.65388672 64.5703125 111.30078125 C67.86725123 109.5356999 70.84731115 107.36987869 73.875 105.1875 C74.47441406 104.76146484 75.07382813 104.33542969 75.69140625 103.89648438 C77.47620719 102.61692535 79.24237842 101.31661566 81 100 C81.58668457 99.56212158 82.17336914 99.12424316 82.77783203 98.6730957 C84.2471974 97.52384362 85.6318399 96.26805082 87 95 C87.22215379 89.33507832 84.83527131 82.92347113 82 78 C79.96827532 76.6827438 79.96827532 76.6827438 78 76 C77.40832031 76.42152344 76.81664062 76.84304687 76.20703125 77.27734375 C75.02173828 78.09912109 75.02173828 78.09912109 73.8125 78.9375 C73.03519531 79.48277344 72.25789063 80.02804688 71.45703125 80.58984375 C67.25675702 83.00049398 63.89628232 83.05696018 59.1875 82.5625 C55.79454604 82.49149648 54.40533057 82.70020326 51.64453125 84.7421875 C50.24971439 86.17003281 48.89584239 87.63946182 47.59375 89.15234375 C46 91 46 91 44 92 C44.495 91.01 44.495 91.01 45 90 C45.12928908 88.29338411 45.22916898 86.58447636 45.3125 84.875 C45.74723074 79.62372864 46.87300031 75.30232026 50 71 C53.68114701 68.54590199 55.27039848 68.83276849 59.63671875 69.0234375 C60.93544922 69.075 62.23417969 69.1265625 63.57226562 69.1796875 C64.94402118 69.24456451 66.31576587 69.30967163 67.6875 69.375 C69.07092326 69.43325621 70.45438702 69.49055915 71.83789062 69.546875 C75.22577631 69.68852876 78.61294104 69.83996154 82 70 C83.41356119 67.73265299 84.0897541 66.5495867 83.65136719 63.86523438 C79.8561262 52.3138444 79.8561262 52.3138444 71.625 44.125 C69.76013114 43.70249065 67.88229759 43.33646069 66 43 C64.49536179 42.56926986 62.99567309 42.12105385 61.5 41.66015625 C56.74973257 40.21854068 56.74973257 40.21854068 51.9765625 38.85546875 C50.97230225 38.57159302 50.97230225 38.57159302 49.94775391 38.28198242 C47.54884817 37.93468534 46.23016966 38.01912007 44 39 C42.40627775 41.08439666 42.40627775 41.08439666 41.125 43.734375 C40.35929687 45.18457031 40.35929687 45.18457031 39.578125 46.6640625 C38.79695313 48.19160156 38.79695313 48.19160156 38 49.75 C29.88860104 65.37046632 29.88860104 65.37046632 25 67 C24.72671875 66.45037598 24.4534375 65.90075195 24.171875 65.33447266 C21.82483143 60.65896627 19.40746551 56.01959147 17 51.375 C16.4534375 50.3128125 15.906875 49.250625 15.34375 48.15625 C14.8178125 47.14304687 14.291875 46.12984375 13.75 45.0859375 C13.27046875 44.1582959 12.7909375 43.2306543 12.296875 42.27490234 C11.07513946 39.89907342 11.07513946 39.89907342 9 38 C3.05682557 38 -2.24805031 39.75829192 -7.9375 41.375 Z M-43 76 C-44.84888075 79.88863966 -46.67632403 83.78698421 -48.5 87.6875 C-49.02464844 88.79029297 -49.54929687 89.89308594 -50.08984375 91.02929688 C-50.83427734 92.6293457 -50.83427734 92.6293457 -51.59375 94.26171875 C-52.05458984 95.24100342 -52.51542969 96.22028809 -52.99023438 97.22924805 C-54.0390755 100.10722142 -54.42795759 101.97218415 -54 105 C-52.8534518 106.66682672 -52.8534518 106.66682672 -51.1484375 107.9375 C-50.54386719 108.44023437 -49.93929687 108.94296875 -49.31640625 109.4609375 C-48.35541016 110.22277344 -48.35541016 110.22277344 -47.375 111 C-46.75753906 111.50789063 -46.14007813 112.01578125 -45.50390625 112.5390625 C-43.67848666 114.03782806 -41.84118835 115.52066946 -40 117 C-34.1493987 121.70120259 -34.1493987 121.70120259 -33 124 C-32.84558791 126.10374996 -32.75007361 128.21195119 -32.68359375 130.3203125 C-32.64169922 131.57714844 -32.59980469 132.83398438 -32.55664062 134.12890625 C-32.51732422 135.44761719 -32.47800781 136.76632813 -32.4375 138.125 C-32.39430488 139.46485751 -32.35069027 140.80470156 -32.30664062 142.14453125 C-32.20029019 145.42957815 -32.09826192 148.71470281 -32 152 C-29.18547861 146.86418456 -28.13415956 141.21128078 -26.75 135.5625 C-26.45609375 134.43005859 -26.1621875 133.29761719 -25.859375 132.13085938 C-25.59125 131.03708984 -25.323125 129.94332031 -25.046875 128.81640625 C-24.79776367 127.82068604 -24.54865234 126.82496582 -24.29199219 125.79907227 C-23.95176102 122.53757537 -24.4873851 120.88024382 -26 118 C-28.0612735 115.71720613 -28.0612735 115.71720613 -30.5625 113.625 C-31.449375 112.84898437 -32.33625 112.07296875 -33.25 111.2734375 C-36.48945983 108.59536133 -39.83570948 106.10379445 -43.28515625 103.703125 C-45.60202209 101.40209196 -45.85277093 100.27473146 -46 97 C-45.50941793 93.91232746 -44.76819337 90.90401564 -44 87.875 C-43.59684872 86.27004966 -43.20069889 84.66331989 -42.8125 83.0546875 C-42.63332031 82.34812012 -42.45414063 81.64155273 -42.26953125 80.91357422 C-41.82464021 78.78365456 -41.82464021 78.78365456 -43 76 Z M94 76 C94.40638473 79.98257038 94.95111762 83.78491754 95.83984375 87.6953125 C96.06256958 88.67939087 96.06256958 88.67939087 96.28979492 89.68334961 C96.73665149 91.62936848 97.20395798 93.57065618 97.671875 95.51171875 C98 99 98 99 97.0078125 101.61328125 C94.37254091 104.74587063 91.40164549 107.06806145 88.125 109.5 C81.6293943 114.27945037 81.6293943 114.27945037 76 120 C75.64199278 122.43422962 75.64199278 122.43422962 76.375 125 C76.59671875 126.02609375 76.8184375 127.0521875 77.046875 128.109375 C77.36375089 129.40645365 77.68157613 130.7033005 78 132 C78.42337016 133.81736067 78.84512072 135.63509908 79.265625 137.453125 C80.47650233 142.64385185 81.72713217 147.82415571 83 153 C83.33 153 83.66 153 84 153 C83.99830811 151.73724243 83.99830811 151.73724243 83.99658203 150.44897461 C84.00656372 147.29671392 84.04330864 144.14616892 84.09765625 140.99438477 C84.11571749 139.63576023 84.12340274 138.2769535 84.12011719 136.91821289 C84.10141086 124.18388211 84.10141086 124.18388211 87.703125 119.859375 C89.34228516 118.32788086 89.34228516 118.32788086 91 117 C91.94101563 116.17113281 92.88203125 115.34226563 93.8515625 114.48828125 C94.76679688 113.77027344 95.68203125 113.05226562 96.625 112.3125 C98.42876162 110.89020618 100.22133749 109.45355955 102 108 C102.79148438 107.37480469 103.58296875 106.74960938 104.3984375 106.10546875 C106.32352801 104.06682376 106.32352801 104.06682376 105.74291992 101.20581055 C105.0207738 98.08964207 104.06027179 95.4967874 102.71484375 92.6015625 C102.26689453 91.62832031 101.81894531 90.65507813 101.35742188 89.65234375 C100.88884766 88.65332031 100.42027344 87.65429688 99.9375 86.625 C99.46505859 85.60277344 98.99261719 84.58054687 98.50585938 83.52734375 C97.34367781 81.01515329 96.17490756 78.50625747 95 76 C94.67 76 94.34 76 94 76 Z M-55 126 C-52.37589493 134.64411081 -48.68616238 142.76925385 -45 151 C-44.67 151 -44.34 151 -44 151 C-44.37561165 138.15049134 -44.37561165 138.15049134 -50.5625 127.4375 C-52.81548733 125.83067166 -52.81548733 125.83067166 -55 126 Z M105 126 C99.86998711 129.42704565 98.21574805 131.96685576 97.00195312 137.99804688 C96.85693359 138.84431641 96.71191406 139.69058594 96.5625 140.5625 C96.39041016 141.41263672 96.21832031 142.26277344 96.04101562 143.13867188 C95.23353359 147.37546031 94.92506048 149.70024194 96 154 C99.63 145.09 103.26 136.18 107 127 C106.34 126.67 105.68 126.34 105 126 Z " fill="#000" transform="translate(116,30)"/>
<path d="M0 0 C0.65661621 0.25265625 1.31323242 0.5053125 1.98974609 0.765625 C35.8198266 14.09832034 62.23152526 39.78753806 77 73 C89.99115285 104.96334682 91.1846621 142.24095508 78.02197266 174.38867188 C73.63141095 184.57493609 68.62328274 194.07993373 62 203 C61.4225 203.79921875 60.845 204.5984375 60.25 205.421875 C50.06093699 218.86089776 37.3857587 230.83948325 22.75 239.30078125 C20.1158439 241.85849978 19.57696392 244.98821361 18.6875 248.4375 C15.15121933 260.74231334 8.92521556 269.85216002 0 279 C-2 277 -2 277 -3 274 C-4.50058062 275.50058062 -4.40255614 277.11326018 -4.75 279.1875 C-5.99563803 284.80176857 -8.25597383 288.15627318 -12.98828125 291.3359375 C-20.46978847 295.48534486 -28.72136207 297.16144393 -37 299 C-33.90226756 299.84062397 -31.21667249 300.08935201 -28 300 C-31.44922253 304.90850899 -34.57201006 307.30801445 -40.515625 308.5078125 C-47.71967739 309.45359591 -53.77659927 308.86213933 -59.890625 304.71875 C-61.5625 303.375 -61.5625 303.375 -64 301 C-64 300.67 -64 300.34 -64 300 C-62.700625 300.020625 -61.40125 300.04125 -60.0625 300.0625 C-58.70834367 300.08399454 -57.35243917 300.07148199 -56 300 C-55.67 299.67 -55.34 299.34 -55 299 C-56.11117187 298.78085937 -57.22234375 298.56171875 -58.3671875 298.3359375 C-68.92672892 296.13212452 -78.71000052 293.56921715 -86 285 C-87.046875 282.203125 -87.046875 282.203125 -87.75 279.25 C-87.99234375 278.26515625 -88.2346875 277.2803125 -88.484375 276.265625 C-88.65453125 275.51796875 -88.8246875 274.7703125 -89 274 C-89.66 275.65 -90.32 277.3 -91 279 C-98.84353818 275.96550898 -103.94336003 265.60718123 -107.375 258.375 C-109.08642564 254.4870874 -110.37569484 250.7471338 -111.375 246.625 C-113.50975935 239.01838622 -120.12728805 235.62083772 -126.25 231.25 C-141.96949112 219.91633375 -153.49655829 205.84333393 -163 189 C-163.60585937 187.93652344 -164.21171875 186.87304688 -164.8359375 185.77734375 C-181.34422593 154.95946906 -183.19567603 117.58354078 -173.25244141 84.42382812 C-168.90428492 71.01309928 -162.40068751 58.30796769 -154 47 C-153.41089844 46.18917969 -152.82179688 45.37835938 -152.21484375 44.54296875 C-134.50614097 21.2697479 -110.82545038 5.50521912 -83 -3 C-81.96488281 -3.31710938 -80.92976563 -3.63421875 -79.86328125 -3.9609375 C-54.06752831 -11.06972617 -24.93533139 -9.59885805 0 0 Z M-106 19 C-106.94230469 19.515625 -107.88460937 20.03125 -108.85546875 20.5625 C-124.07019776 29.24315159 -139.00912146 42.88394873 -148 58 C-148.52086182 58.85150635 -148.52086182 58.85150635 -149.05224609 59.72021484 C-167.1912752 89.53494084 -172.03447777 122.64944627 -163.96875 156.5703125 C-161.31826411 166.71591153 -157.05677388 175.84705804 -152 185 C-151.48308594 185.94746094 -150.96617187 186.89492187 -150.43359375 187.87109375 C-145.04538274 197.28211079 -138.09373266 205.07746888 -130.5 212.75 C-129.88326416 213.37608154 -129.26652832 214.00216309 -128.63110352 214.6472168 C-121.74872575 222.22545807 -121.74872575 222.22545807 -113 226 C-112.85304687 225.24976563 -112.70609375 224.49953125 -112.5546875 223.7265625 C-109.94108133 211.80010678 -105.01555612 203.19104716 -95 196 C-92.96606868 194.94330912 -90.9240422 193.9020824 -88.875 192.875 C-81.42244686 188.80563914 -78.98762555 182.58478176 -76 175 C-76.00644531 175.93199219 -76.01289062 176.86398438 -76.01953125 177.82421875 C-75.49760727 187.56351708 -73.01822399 192.24786184 -65.87426758 198.8737793 C-63.02688557 201.39923032 -60.09120429 203.77676933 -57 206 C-55.02037774 205.45492218 -55.02037774 205.45492218 -53 204 C-51.53419449 200.95076414 -51.53419449 200.95076414 -50.4375 197.4375 C-49.24609375 193.87109375 -49.24609375 193.87109375 -48 191 C-47.01 190.67 -46.02 190.34 -45 190 C-42.69 194.95 -40.38 199.9 -38 205 C-33.58933882 205 -33.32326319 204.8294891 -30.36328125 201.97265625 C-29.70392578 201.34552734 -29.04457031 200.71839844 -28.36523438 200.07226562 C-27.68783203 199.40904297 -27.01042969 198.74582031 -26.3125 198.0625 C-25.62349609 197.40314453 -24.93449219 196.74378906 -24.22460938 196.06445312 C-18.81046394 191.11679136 -18.81046394 191.11679136 -17.5 184.125 C-17.27652749 180.81281812 -17.05207935 178.15623804 -16 175 C-15.66871094 175.90621094 -15.33742187 176.81242188 -14.99609375 177.74609375 C-10.77391186 188.11754123 -5.34286524 191.9222057 4.33105469 197.0546875 C12.31170488 201.57503237 16.30468568 209.62129191 18.97265625 218.0859375 C19.69915545 220.7148509 20.37901463 223.34440402 21 226 C25.16509933 224.61163356 27.75127978 222.68244634 30.9375 219.6875 C33.59638913 217.21292914 36.19027323 214.85244117 39.0625 212.625 C62.93170685 191.29507047 74.29053263 159.29633375 76.2421875 128.1328125 C76.6951014 105.94003147 71.10337804 84.18179731 60 65 C59.65066406 64.39075684 59.30132812 63.78151367 58.94140625 63.15380859 C53.64573466 54.06824017 47.32946815 46.50502428 40 39 C39.01773438 37.92492188 39.01773438 37.92492188 38.015625 36.828125 C17.39252612 14.7948997 -13.77555953 4.59034354 -43.15625 2.80859375 C-65.42024476 2.34985759 -86.67051035 8.14221193 -106 19 Z M-81.4453125 226.65625 C-82.52167969 226.79160156 -83.59804687 226.92695313 -84.70703125 227.06640625 C-85.83496094 227.20949219 -86.96289062 227.35257813 -88.125 227.5 C-89.82849609 227.71462891 -89.82849609 227.71462891 -91.56640625 227.93359375 C-94.37774467 228.28796414 -97.18893342 228.64348065 -100 229 C-100 230.65 -100 232.3 -100 234 C-74.91273334 248.17189343 -42.71084634 250.74162145 -15.13818359 243.21923828 C-2.87511484 240.02588263 -2.87511484 240.02588263 8 234 C8.41780879 231.37305578 8.41780879 231.37305578 8 229 C-1.00688475 227.60913174 -9.90340216 226.60643986 -19 226 C-17.68 229.63 -16.36 233.26 -15 237 C-32.8290574 241.71342897 -59.6857226 245.6571387 -77 237 C-76.690625 236.113125 -76.38125 235.22625 -76.0625 234.3125 C-75.1709329 231.53290845 -74.50622993 228.86863625 -74 226 C-76.52309788 226 -78.94107613 226.33992541 -81.4453125 226.65625 Z M-97 248 C-94.34062632 256.6148725 -89.80012263 263.40324625 -83.72265625 269.98828125 C-81.88643708 272.13261882 -80.43238598 274.35740182 -78.9375 276.75 C-76.36250087 280.70837632 -74.30232356 282.98614642 -70 285 C-66.13014041 285.19845434 -64.2785287 283.50496475 -61.5 281.0625 C-60.9534375 280.53785156 -60.406875 280.01320313 -59.84375 279.47265625 C-53.83049775 274.66969841 -46.2933797 275.33171521 -39 276 C-34.39544782 277.32273626 -31.63225224 279.32258688 -28.375 282.8125 C-26.18234782 285.2792291 -26.18234782 285.2792291 -23.125 285.25 C-16.19743674 282.47897469 -12.40103301 276.35293078 -8.53515625 270.25 C-6.98936103 267.98440701 -5.30715284 266.06541103 -3.4375 264.0625 C0.31140036 259.92204782 5 253.81333848 5 248 C4.45214844 248.17015625 3.90429688 248.3403125 3.33984375 248.515625 C-31.53804525 259.17748375 -62.33355616 259.28759868 -97 248 Z " fill="#000" transform="translate(189,17)"/>
</svg>
