<?xml version="1.0" encoding="UTF-8"?>
<svg version="1.1" xmlns="http://www.w3.org/2000/svg" width="846" height="700">
<path d="M0 0 C3.31212097 1.57016255 5.47577092 3.25215686 8.046875 5.88671875 C8.81 6.66080078 9.573125 7.43488281 10.359375 8.23242188 C11.14828125 9.04259766 11.9371875 9.85277344 12.75 10.6875 C14.30474872 12.27723056 15.86201896 13.86449923 17.421875 15.44921875 C18.10862305 16.15393311 18.79537109 16.85864746 19.50292969 17.5847168 C21.49881441 19.51522985 23.5195246 21.32133078 25.62530518 23.126297 C30.10367574 27.03479198 34.30502319 31.17829649 38.4921875 35.39453125 C39.2998053 36.20360931 40.1074231 37.01268738 40.93951416 37.84628296 C42.68005535 39.5906082 44.4194411 41.336087 46.15777588 43.08261108 C48.9138214 45.85150234 51.67305047 48.61718583 54.43310547 51.38208008 C60.78859459 57.74954908 67.13903107 64.1220493 73.4894104 70.49461365 C79.78019779 76.80726421 86.07299509 83.11789457 92.36920166 89.42514038 C95.0787678 92.14115772 97.78528828 94.86018485 100.49169922 97.5793457 C102.16358772 99.254869 103.83561806 100.93025079 105.5078125 102.60546875 C106.25194397 103.35476654 106.99607544 104.10406433 107.76275635 104.87606812 C111.75400197 108.86771214 115.84602522 112.66153721 120.12049866 116.34732246 C123.00401462 118.88284715 125.71099364 121.5791973 128.41601562 124.30249023 C129.00239807 124.88872665 129.58878052 125.47496307 130.19293213 126.07896423 C132.09975609 127.98647596 134.00302929 129.89748748 135.90625 131.80859375 C137.2398113 133.14402327 138.57359588 134.47922985 139.90759277 135.81422424 C143.39496648 139.30539128 146.8793249 142.79955234 150.36303711 146.29437256 C153.92768783 149.86930632 157.49521917 153.44136294 161.0625 157.01367188 C168.04446878 164.00632174 175.02325147 171.00214201 182 178 C182.01030746 177.1127272 182.02061493 176.22545441 182.03123474 175.31129456 C182.12903425 166.96748429 182.23152315 158.62374785 182.33933926 150.28006077 C182.39460736 145.9900379 182.44803343 141.70000826 182.49731445 137.40991211 C182.54490086 133.27314564 182.59724132 129.13646464 182.65294075 124.99979973 C182.67339034 123.41810153 182.69209903 121.83637988 182.70907402 120.25464058 C182.7330607 118.04670822 182.76312256 115.8389388 182.79467773 113.63110352 C182.81799416 111.74247337 182.81799416 111.74247337 182.84178162 109.81568909 C183 107 183 107 184 106 C185.98887494 105.90069467 187.98130417 105.87200538 189.97265625 105.87060547 C191.8896936 105.86587723 191.8896936 105.86587723 193.84545898 105.86105347 C195.25113967 105.86284325 196.65682005 105.8648942 198.0625 105.8671875 C199.49357113 105.86651442 200.92464215 105.86554436 202.35571289 105.86428833 C205.35857224 105.86281156 208.3614019 105.86496524 211.36425781 105.86962891 C215.22152571 105.87532619 219.07872404 105.87204708 222.93598938 105.86605644 C225.89213591 105.86245026 228.84826583 105.86358968 231.80441284 105.86618423 C233.22704069 105.86685335 234.64967003 105.86602563 236.07229614 105.86370468 C238.05731174 105.86117726 240.04233259 105.86570958 242.02734375 105.87060547 C243.72491821 105.87179886 243.72491821 105.87179886 245.45678711 105.87301636 C248 106 248 106 249 107 C248.94667554 108.62351445 248.81771805 110.24457214 248.66026306 111.86131287 C248.51425077 113.44447438 248.51425077 113.44447438 248.36528873 115.05961895 C248.25497539 116.23031335 248.14466204 117.40100775 248.03100586 118.60717773 C246.49525829 136.1964073 245.51779944 153.79139742 244.9375 171.4375 C244.91108728 172.22597085 244.88467456 173.01444169 244.85746145 173.82680559 C243.62303691 212.2704919 243.57764385 246.00893693 271.11775208 275.75526428 C276.03881883 280.83085609 281.22103635 285.55991171 286.5625 290.1875 C287.43031475 290.94007458 288.2981295 291.69264915 289.19224167 292.46802902 C298.57996151 300.51939533 308.28434259 308.02063264 318.43766022 315.07790375 C323.25216726 318.42799389 327.76899034 321.92419684 332 326 C332.56002213 326.53459335 333.12004425 327.06918671 333.69703674 327.61997986 C335.37767148 329.24855719 337.03575005 330.89685068 338.6875 332.5546875 C339.27547363 333.14170441 339.86344727 333.72872131 340.46923828 334.33352661 C341.6937726 335.55738762 342.91707411 336.78248333 344.13916016 338.00878906 C346.02001047 339.89506822 347.90623592 341.77585667 349.79296875 343.65625 C350.98730054 344.85124139 352.18132273 346.04654231 353.375 347.2421875 C353.94049561 347.80565887 354.50599121 348.36913025 355.08862305 348.94967651 C359 352.88500598 359 352.88500598 359 354 C123.05 354 -112.9 354 -356 354 C-349.24974114 346.124698 -349.24974114 346.124698 -346.75076294 343.6237793 C-346.18191376 343.05211029 -345.61306458 342.48044128 -345.02697754 341.89144897 C-344.42526733 341.291763 -343.82355713 340.69207703 -343.20361328 340.07421875 C-342.55234467 339.42119781 -341.90107605 338.76817688 -341.23007202 338.09536743 C-339.0959781 335.95690513 -336.95828579 333.82208329 -334.8203125 331.6875 C-333.3233302 330.18984314 -331.8264963 328.69203794 -330.32980347 327.1940918 C-327.19951888 324.06233696 -324.06744337 320.93238736 -320.93408203 317.80371094 C-316.93409924 313.80942005 -312.93861647 309.81066276 -308.94447517 305.81053162 C-305.8560719 302.71850035 -302.7652729 299.62887267 -299.67376328 296.53994751 C-298.20035445 295.06720202 -296.72767772 293.5937237 -295.25577164 292.11947632 C-293.19132841 290.05247025 -291.12366634 287.98873607 -289.05517578 285.92578125 C-288.45751404 285.32609528 -287.85985229 284.7264093 -287.24407959 284.10855103 C-284.37086848 281.2494428 -281.45463721 278.50418681 -278.37094116 275.8729248 C-272.28418638 270.60159703 -266.6875788 264.81002239 -261.00976562 259.10742188 C-259.71146126 257.80719545 -258.41292689 256.50719865 -257.11418152 255.20741272 C-254.33055472 252.42063855 -251.54848589 249.63232179 -248.7676239 246.8427887 C-244.36530876 242.42688808 -239.95912554 238.01486053 -235.55236816 233.60339355 C-226.19860824 224.23855946 -216.84908403 214.86950178 -207.5 205.5 C-197.40503053 195.38298382 -187.30932858 185.26670517 -177.20872831 175.15531015 C-172.83322353 170.77483973 -168.46016485 166.3919466 -164.08899689 162.00714874 C-161.36421669 159.27488032 -158.63734031 156.54471123 -155.90990639 153.81509209 C-154.6513486 152.55467108 -153.39365108 151.29339036 -152.13690758 150.03116035 C-146.53176984 144.40233608 -140.93896647 138.82766539 -134.89273834 133.66689301 C-131.01323152 130.25029672 -127.41580919 126.53644358 -123.7734375 122.87109375 C-122.88779114 121.98398712 -122.00214478 121.09688049 -121.08966064 120.18289185 C-119.178864 118.26830796 -117.26899097 116.35285475 -115.36065674 114.43582153 C-112.33617324 111.39769493 -109.30777113 108.36349417 -106.27880859 105.32983398 C-99.84955517 98.88952994 -93.42455133 92.44499412 -87 86 C-80.06159606 79.0395182 -73.12244224 72.07979372 -66.17837715 65.12495899 C-63.17437505 62.11600842 -60.17281991 59.10464534 -57.17318726 56.09133911 C-54.85965429 53.76852368 -52.54283077 51.44899361 -50.2265625 49.12890625 C-49.40762512 48.30480255 -48.58868774 47.48069885 -47.74493408 46.63162231 C-43.52624061 42.41254438 -39.22480485 38.36762641 -34.70248413 34.47566032 C-32.7463578 32.78015082 -30.88921236 31.00987335 -29.0625 29.17602539 C-28.40241943 28.51586929 -27.74233887 27.8557132 -27.06225586 27.17555237 C-26.38171143 26.48984665 -25.70116699 25.80414093 -25 25.09765625 C-24.2788501 24.3750914 -23.5577002 23.65252655 -22.81469727 22.9080658 C-20.54074585 20.62857396 -18.27032046 18.3456076 -16 16.0625 C-14.44684765 14.50432494 -12.89346433 12.94638007 -11.33984375 11.38867188 C-7.55722414 7.59510241 -3.7774831 3.79868385 0 0 Z " fill="#000" transform="translate(425,6)"/>
<path d="M0 0 C119.13 0 238.26 0 361 0 C361 41.91 361 83.82 361 127 C241.87 127 122.74 127 0 127 C0 85.09 0 43.18 0 0 Z " fill="#000" transform="translate(461,375)"/>
<path d="M0 0 C1.27685165 0.00222061 2.55370331 0.00444122 3.86924744 0.00672913 C4.57165054 0.0065831 5.27405365 0.00643707 5.9977417 0.00628662 C8.32985983 0.00698579 10.66189904 0.01477835 12.9940033 0.02259827 C14.60683142 0.02446243 16.21966012 0.02588634 17.83248901 0.02688599 C22.08550062 0.03071129 26.33847828 0.04054167 30.59147644 0.05158997 C34.92812135 0.06180383 39.26477171 0.06638355 43.60142517 0.07142639 C52.11641474 0.08216393 60.63137667 0.09924049 69.14634705 0.12025452 C70.33922116 3.99709539 71.14634705 7.03647375 71.14634705 11.12025452 C69.49634705 11.12025452 67.84634705 11.12025452 66.14634705 11.12025452 C66.14634705 22.34025452 66.14634705 33.56025452 66.14634705 45.12025452 C78.52134705 46.60525452 78.52134705 46.60525452 91.14634705 48.12025452 C91.13474548 45.53310608 91.12314392 42.94595764 91.1111908 40.28041077 C91.10340043 37.78505069 91.09732355 35.28969194 91.09141541 32.79432678 C91.086375 31.05506284 91.07954274 29.31580316 91.07090759 27.57655334 C91.05882913 25.08199515 91.05311596 22.58749278 91.0486908 20.09291077 C91.04352951 19.310616 91.03836823 18.52832123 91.03305054 17.72232056 C91.03285479 15.85458337 91.0843501 13.98696248 91.14634705 12.12025452 C92.14634705 11.12025452 92.14634705 11.12025452 95.64634705 10.99525452 C99.14634705 11.12025452 99.14634705 11.12025452 100.14634705 12.12025452 C100.23496697 14.93188831 100.2615706 17.71883707 100.2440033 20.53041077 C100.24188087 21.79346291 100.24188087 21.79346291 100.23971558 23.08203125 C100.23409968 25.78230786 100.22154453 28.48250279 100.20884705 31.18275452 C100.20383409 33.0089252 100.19927083 34.83509717 100.19517517 36.66127014 C100.18412509 41.14762994 100.16684984 45.63392836 100.14634705 50.12025452 C101.32825623 50.25157776 102.51016541 50.382901 103.72789001 50.51820374 C106.12071228 50.78407288 106.12071228 50.78407288 108.51353455 51.04994202 C109.33860504 51.14161652 110.16367554 51.23329102 111.01374817 51.32774353 C112.65409851 51.51000468 114.29444885 51.69226583 115.93479919 51.87452698 C116.66460999 51.95561707 117.39442078 52.03670715 118.14634705 52.12025452 C124.14634705 52.78692118 130.14634705 53.45358785 136.14634705 54.12025452 C135.62612976 53.62622131 135.10591248 53.13218811 134.56993103 52.6231842 C132.2283217 50.38527884 129.90608831 48.12824404 127.58384705 45.87025452 C126.76464783 45.09294983 125.94544861 44.31564514 125.10142517 43.51478577 C124.33121033 42.7606842 123.56099548 42.00658264 122.7674408 41.22962952 C122.04999695 40.53836975 121.3325531 39.84710999 120.59336853 39.13490295 C119.14634705 37.12025452 119.14634705 37.12025452 119.32237244 34.97279358 C120.26581223 32.85166139 121.40450878 31.63489648 123.14634705 30.12025452 C126.8038511 31.65747396 129.10949071 33.85265985 131.88316345 36.66175842 C132.33895279 37.12046829 132.79474213 37.57917816 133.26434326 38.05178833 C134.24924978 39.04428278 135.23183972 40.03908038 136.21234512 41.035923 C137.76271673 42.61186845 139.31929264 44.18143956 140.87763977 45.74949646 C144.18117732 49.07585727 147.47679603 52.40999604 150.77134705 55.74525452 C154.5958966 59.61695054 158.42359462 63.48541928 162.25979233 67.34557724 C163.79613731 68.894924 165.32635743 70.45015314 166.85646057 72.00566101 C167.78437408 72.94018097 168.7122876 73.87470093 169.6683197 74.83753967 C170.48676361 75.66645721 171.30520752 76.49537476 172.14845276 77.34941101 C173.95084179 79.34135581 173.95084179 79.34135581 176.14634705 79.12025452 C178.45634705 74.50025452 180.76634705 69.88025452 183.14634705 65.12025452 C184.79634705 65.12025452 186.44634705 65.12025452 188.14634705 65.12025452 C190.15734833 68.13675645 190.6679184 69.84989944 191.36729431 73.33851624 C191.58414383 74.40327179 191.80099335 75.46802734 192.02441406 76.56504822 C192.25156601 77.71506317 192.47871796 78.86507812 192.7127533 80.04994202 C192.95170822 81.23242523 193.19066315 82.41490845 193.43685913 83.63322449 C194.20044641 87.41934019 194.95474905 91.20723856 195.70884705 94.99525452 C196.22060725 97.54095006 196.73296976 100.08652459 197.24595642 102.63197327 C198.37684567 108.24992128 199.50193093 113.86899539 200.62194824 119.48912048 C200.79499985 120.35739471 200.96805145 121.22566895 201.14634705 122.12025452 C201.29873337 123.03783539 201.45111969 123.95541626 201.60812378 124.90080261 C201.78573746 125.63322174 201.96335114 126.36564087 202.14634705 127.12025452 C203.91093702 128.18618928 203.91093702 128.18618928 206.14634705 129.12025452 C208.14887393 130.80674015 210.02290126 132.4908563 211.89634705 134.30775452 C212.40294861 134.76472717 212.90955017 135.22169983 213.4315033 135.69252014 C216.33927318 138.51799466 217.12649109 139.88647424 217.47447205 143.98353577 C217.3661908 145.01865295 217.25790955 146.05377014 217.14634705 147.12025452 C211.34864223 147.25829511 205.98009306 146.78326561 200.27134705 145.80775452 C199.46141296 145.67457825 198.65147888 145.54140198 197.81700134 145.40419006 C195.2590815 144.98219633 192.70274125 144.55138382 190.14634705 144.12025452 C188.40035056 143.83060507 186.65425754 143.54153698 184.9080658 143.25306702 C180.65301435 142.54884239 176.39935525 141.8367111 172.14634705 141.12025452 C171.81634705 137.16025452 171.48634705 133.20025452 171.14634705 129.12025452 C169.47424667 129.1188295 167.8021463 129.11740448 166.07937622 129.11593628 C150.34860306 129.09929242 134.61812189 129.05689729 118.88749218 128.98816395 C110.79951133 128.95348852 102.71170137 128.92815511 94.62364197 128.92469788 C87.57529694 128.9216615 80.52725604 128.90121547 73.47902852 128.85972995 C69.74582565 128.83836804 66.01305547 128.82581536 62.27979088 128.83410072 C58.11533383 128.84301722 53.95203709 128.81307063 49.78770447 128.77967834 C48.54549133 128.78830399 47.3032782 128.79692963 46.02342224 128.80581665 C44.89180161 128.79052917 43.76018097 128.7752417 42.5942688 128.75949097 C41.6088721 128.75672559 40.6234754 128.75396021 39.60821819 128.75111103 C37.14634705 128.12025452 37.14634705 128.12025452 35.26288319 125.78342724 C34.14634705 123.12025452 34.14634705 123.12025452 34.83384705 119.87025452 C36.14634705 117.12025452 36.14634705 117.12025452 38.14634705 116.12025452 C40.0327701 116.03085426 41.92236315 116.00554976 43.81089783 116.01014709 C45.00039032 116.00956802 46.18988281 116.00898895 47.41542053 116.00839233 C49.35890884 116.01155708 49.35890884 116.01155708 51.34165955 116.01478577 C54.08777755 116.00389363 56.83385154 115.98638331 59.5799408 115.96986389 C63.90673834 115.94571018 68.23306633 115.92963079 72.55992126 115.94520569 C95.00765788 116.08025113 95.00765788 116.08025113 116.14634705 109.12025452 C116.80634705 109.12025452 117.46634705 109.12025452 118.14634705 109.12025452 C118.14634705 108.46025452 118.14634705 107.80025452 118.14634705 107.12025452 C112.08377374 105.55571947 105.81231542 104.84842155 100.20884705 107.99525452 C97.19834113 109.9496991 97.19834113 109.9496991 95.14634705 112.12025452 C92.85820007 112.37854004 92.85820007 112.37854004 89.96568298 112.39149475 C88.88405884 112.40168137 87.80243469 112.41186798 86.68803406 112.42236328 C84.92716461 112.42557335 84.92716461 112.42557335 83.13072205 112.42884827 C80.6580635 112.45401425 78.1854073 112.47941218 75.7127533 112.50502014 C71.80439391 112.53374725 67.89607551 112.55775582 63.98765564 112.57655334 C60.22262368 112.59821883 56.45808376 112.63766921 52.69322205 112.67884827 C51.52740601 112.67896408 50.36158997 112.6790799 49.16044617 112.67919922 C41.23653089 112.76397202 41.23653089 112.76397202 34.14634705 116.12025452 C31.95765559 118.78474846 32.14846859 120.18071853 32.27134705 123.68275452 C32.8373333 127.13050739 32.8373333 127.13050739 35.02134705 128.99525452 C38.62549646 130.90333362 41.42676033 131.24427855 45.4405365 131.24623108 C46.52208511 131.25003784 47.60363373 131.2538446 48.71795654 131.25776672 C49.88670822 131.25879395 51.0554599 131.25982117 52.2596283 131.26087952 C54.72903857 131.27920584 57.19843988 131.29877599 59.66783142 131.31947327 C63.56536504 131.34845852 67.46232162 131.37025495 71.35997009 131.3707428 C75.11871177 131.37407565 78.87611824 131.40861806 82.6346283 131.44837952 C84.37864677 131.43777496 84.37864677 131.43777496 86.15789795 131.42695618 C95.17695612 131.5626581 95.17695612 131.5626581 98.74082947 134.5997467 C99.53465027 135.43151428 100.32847107 136.26328186 101.14634705 137.12025452 C106.40613014 138.87351555 111.35321959 138.81758186 116.52134705 136.80775452 C119.10356597 135.3307122 119.10356597 135.3307122 120.4861908 133.52650452 C122.79697214 131.56913679 124.35526836 131.816706 127.33384705 131.93275452 C128.23490173 131.95982483 129.13595642 131.98689514 130.0643158 132.01478577 C130.75138611 132.04959045 131.43845642 132.08439514 132.14634705 132.12025452 C129.40634965 139.14149783 124.4921474 143.56675156 117.75300598 146.6958313 C112.24583714 148.69610738 106.81319409 148.54772015 101.01402283 148.52430725 C99.81947479 148.5311705 98.62492676 148.53803375 97.3941803 148.54510498 C94.13777425 148.56020706 90.88172971 148.5618842 87.62530375 148.5561626 C84.89693506 148.55305766 82.1686174 148.55917775 79.440256 148.56520134 C72.99800433 148.57921734 66.55588534 148.57771031 60.1136322 148.56629944 C53.49019723 148.55482614 46.86716755 148.56888694 40.24378598 148.59569591 C34.53648044 148.61792327 28.82930146 148.62447439 23.12195575 148.6186195 C19.72234502 148.61526482 16.32299386 148.61756447 12.92341995 148.63487053 C9.12779677 148.64980846 5.33305658 148.6390809 1.53746033 148.6219635 C-0.12899536 148.63646545 -0.12899536 148.63646545 -1.82911682 148.65126038 C-10.38852326 148.57075237 -16.95886553 146.6187974 -24.16615295 141.99525452 C-29.25924586 136.54682954 -32.53515416 129.92232263 -32.98646545 122.40931702 C-32.56876521 115.21013038 -29.95104181 108.28350111 -24.85365295 103.12025452 C-16.51148719 96.51677172 -8.34836089 95.82121583 1.96568298 95.82972717 C3.13897156 95.82300995 4.31226013 95.81629272 5.52110291 95.80937195 C9.39101932 95.79041014 13.2607621 95.78646852 17.13072205 95.78431702 C18.46993841 95.78146782 19.80915409 95.7782755 21.14836884 95.77474594 C28.16366283 95.75626953 35.17888109 95.74807211 42.19419861 95.74964905 C48.70794742 95.75084903 55.22136413 95.72976904 61.73502898 95.69816172 C67.34805012 95.67190662 72.96096343 95.66128563 78.57404542 95.66255987 C81.91733699 95.66306691 85.26009934 95.65565524 88.60337067 95.63620377 C92.33900122 95.61650563 96.07378747 95.62239813 99.80943298 95.63441467 C101.44480011 95.61755615 101.44480011 95.61755615 103.11320496 95.60035706 C112.55811358 95.67716817 120.38381352 97.29781274 127.14634705 104.12025452 C129.36492958 103.98384075 129.36492958 103.98384075 131.14634705 103.12025452 C129.77375389 99.82883215 128.44374396 98.32605499 125.39634705 96.49525452 C124.7415033 96.09048889 124.08665955 95.68572327 123.41197205 95.26869202 C116.58399544 91.80761422 110.38712942 91.8238547 102.87388611 91.82972717 C101.64061584 91.82300995 100.40734558 91.81629272 99.13670349 91.80937195 C95.76451848 91.7936574 92.39257982 91.78701852 89.02037525 91.78574038 C86.90929685 91.78431521 84.79824398 91.78003865 82.68717194 91.77474594 C75.3099403 91.7562594 67.93278077 91.74807336 60.55552673 91.74964905 C53.6992594 91.75084919 46.84330749 91.72976856 39.98711991 91.69816172 C34.0845411 91.67192924 28.18206484 91.6612847 22.27942824 91.66255987 C18.76128393 91.66306758 15.24341997 91.65749145 11.72533417 91.63620377 C7.79556191 91.61307306 3.86621514 91.62238484 -0.06361389 91.63441467 C-1.21512939 91.62317566 -2.3666449 91.61193665 -3.55305481 91.60035706 C-14.20837702 91.68296337 -22.16404198 94.54791905 -29.93959045 101.89759827 C-35.27548623 108.09377112 -37.00305495 115.37527044 -36.91615295 123.37025452 C-36.90712952 124.44791077 -36.89810608 125.52556702 -36.8888092 126.63587952 C-36.87720764 127.45572327 -36.86560608 128.27556702 -36.85365295 129.12025452 C-40.30460712 127.88267095 -42.85882846 126.54930274 -45.60365295 124.12025452 C-46.1966217 123.60462952 -46.78959045 123.08900452 -47.40052795 122.55775452 C-49.49934791 120.48150252 -49.83993681 119.40536919 -49.98304749 116.43055725 C-49.98417542 115.31624329 -49.98530334 114.20192932 -49.98646545 113.05384827 C-49.98775452 111.84664124 -49.98904358 110.6394342 -49.9903717 109.39564514 C-49.98457092 107.49588928 -49.98457092 107.49588928 -49.97865295 105.55775452 C-49.98252014 104.28738342 -49.98638733 103.01701233 -49.9903717 101.70814514 C-49.98908264 100.50222717 -49.98779358 99.2963092 -49.98646545 98.05384827 C-49.98533752 96.94066223 -49.98420959 95.8274762 -49.98304749 94.68055725 C-49.85365295 92.12025452 -49.85365295 92.12025452 -48.85365295 91.12025452 C-47.33895847 90.88832587 -45.81610734 90.70810213 -44.29115295 90.55775452 C-43.46486389 90.47396545 -42.63857483 90.39017639 -41.7872467 90.30384827 C-41.14916077 90.24326233 -40.51107483 90.18267639 -39.85365295 90.12025452 C-39.88587952 88.8041217 -39.91810608 87.48798889 -39.9513092 86.13197327 C-39.99234492 70.17059798 -39.99234492 70.17059798 -35.04115295 64.24525452 C-33.319641 62.52920768 -31.58975712 60.82153711 -29.85365295 59.12025452 C-28.86492814 57.88921493 -27.89441663 56.6433938 -26.93959045 55.38587952 C-26.43790344 54.74118713 -25.93621643 54.09649475 -25.41932678 53.43226624 C-24.44424314 52.17575924 -23.48462468 50.90703718 -22.5438385 49.62464905 C-20.28241935 46.83864352 -18.81068023 45.34655551 -15.24769592 44.50404358 C-12.76769808 44.25163316 -10.34544905 44.1134758 -7.85365295 44.12025452 C-7.61654602 43.19164612 -7.37943909 42.26303772 -7.13514709 41.30628967 C-6.25593345 37.86543218 -5.37373036 34.42534708 -4.49061584 30.98548889 C-4.10861254 29.49578966 -3.72742336 28.00588142 -3.34706116 26.51576233 C-2.80061146 24.37556038 -2.25125096 22.23612393 -1.7013092 20.09681702 C-1.53148026 19.42905243 -1.36165131 18.76128784 -1.18667603 18.07328796 C0.03247534 13.34799793 0.03247534 13.34799793 1.14634705 11.12025452 C-1.32865295 10.62525452 -1.32865295 10.62525452 -3.85365295 10.12025452 C-3.88054512 8.6411856 -3.89999917 7.16197969 -3.91615295 5.68275452 C-3.92775452 4.85904358 -3.93935608 4.03533264 -3.9513092 3.18666077 C-3.79742884 -0.06944773 -3.30103508 0.13910745 0 0 Z M8.14634705 13.12025452 C6.67426908 17.48616096 5.60792587 21.97230223 4.45884705 26.43275452 C3.95901306 28.28803772 3.95901306 28.28803772 3.44908142 30.18080139 C3.13906189 31.37382874 2.82904236 32.56685608 2.5096283 33.79603577 C2.08097473 35.43439392 2.08097473 35.43439392 1.6436615 37.10585022 C0.90815077 40.45945259 0.90815077 40.45945259 2.14634705 45.12025452 C9.07634705 45.12025452 16.00634705 45.12025452 23.14634705 45.12025452 C25.29971175 40.8135251 24.33220183 35.04700447 24.33164978 30.26185608 C24.33383857 28.12851586 24.35200624 25.99569086 24.37095642 23.86244202 C24.37388998 22.51088129 24.37587503 21.1593181 24.3768158 19.80775452 C24.38297913 17.9573053 24.38297913 17.9573053 24.38926697 16.06947327 C24.45639545 12.9991868 24.45639545 12.9991868 22.14634705 11.12025452 C19.31764455 10.80033746 19.31764455 10.80033746 16.14634705 10.87025452 C15.07384705 10.86509827 14.00134705 10.85994202 12.89634705 10.85462952 C10.00272526 10.83997802 10.00272526 10.83997802 8.14634705 13.12025452 Z M32.14634705 12.12025452 C32.05275515 13.8389086 32.02890094 15.56141195 32.03282166 17.28260803 C32.03289719 18.38367386 32.03297272 19.48473969 32.03305054 20.61917114 C32.03821182 21.81706772 32.04337311 23.01496429 32.0486908 24.24916077 C32.05010574 25.46852829 32.05152069 26.68789581 32.05297852 27.94421387 C32.05859738 31.85708521 32.07115308 35.76990033 32.08384705 39.68275452 C32.08885962 42.32793598 32.09342294 44.97311835 32.09751892 47.61830139 C32.10857293 54.11897178 32.12532941 60.61960913 32.14634705 67.12025452 C35.72328527 68.31256726 38.98817258 68.26637471 42.70884705 68.24525452 C43.39398376 68.2491217 44.07912048 68.25298889 44.78501892 68.25697327 C48.59196892 68.30748069 48.59196892 68.30748069 52.14634705 67.12025452 C58.31486875 54.89507548 58.69019482 42.39260478 58.58384705 28.99525452 C58.57457184 27.76045853 58.57457184 27.76045853 58.56510925 26.50071716 C58.54038808 24.14172425 58.50254104 21.78357762 58.4549408 19.42494202 C58.44102798 18.70284042 58.42711517 17.98073883 58.41278076 17.23675537 C58.59551298 13.89154982 58.59551298 13.89154982 57.14634705 11.12025452 C55.37775512 11.02078999 53.60523254 10.98945234 51.83384705 10.98744202 C50.75876892 10.98615295 49.6836908 10.98486389 48.57603455 10.98353577 C47.44423767 10.98740295 46.3124408 10.99127014 45.14634705 10.99525452 C44.01455017 10.99138733 42.8827533 10.98752014 41.71665955 10.98353577 C40.64158142 10.98482483 39.5665033 10.98611389 38.45884705 10.98744202 C37.46497986 10.98856995 36.47111267 10.98969788 35.4471283 10.99085999 C33.18259479 10.86191122 33.18259479 10.86191122 32.14634705 12.12025452 Z M152.14634705 70.12025452 C152.14634705 78.37025452 152.14634705 86.62025452 152.14634705 95.12025452 C156.4217902 94.26516588 159.93013481 93.14482297 163.95884705 91.55775452 C165.12029236 91.10271545 166.28173767 90.64767639 167.4783783 90.17884827 C168.35880798 89.82951233 169.23923767 89.48017639 170.14634705 89.12025452 C168.75617293 85.9844714 167.13301009 83.86013587 164.7049408 81.44837952 C164.03914001 80.78451233 163.37333923 80.12064514 162.68736267 79.43666077 C161.64612244 78.41378967 161.64612244 78.41378967 160.58384705 77.37025452 C159.8858197 76.6728717 159.18779236 75.97548889 158.46861267 75.25697327 C155.69872837 71.90931838 155.69872837 71.90931838 152.14634705 70.12025452 Z M160.45884705 101.05775452 C159.42534119 101.47444397 159.42534119 101.47444397 158.37095642 101.89955139 C155.0111439 103.10322 155.0111439 103.10322 152.14634705 105.12025452 C152.10541767 107.45322885 152.10392981 109.78730676 152.14634705 112.12025452 C151.02357361 112.00166077 149.90080017 111.88306702 148.7440033 111.76087952 C136.92895594 110.62638493 136.92895594 110.62638493 126.14634705 115.12025452 C126.14634705 115.45025452 126.14634705 115.78025452 126.14634705 116.12025452 C132.53671936 116.14552514 138.92707887 116.16308769 145.31748962 116.17518616 C147.49327577 116.18022759 149.66905851 116.18706059 151.84483337 116.19569397 C154.96487771 116.2077679 158.08487743 116.21348456 161.2049408 116.21791077 C162.18409958 116.22307205 163.16325836 116.22823334 164.17208862 116.23355103 C165.07294693 116.23362656 165.97380524 116.23370209 166.90196228 116.23377991 C167.69916183 116.23600052 168.49636139 116.23822113 169.31771851 116.24050903 C171.16556986 116.32075907 171.16556986 116.32075907 172.14634705 115.12025452 C172.21959873 112.25757885 172.2387291 109.41953552 172.20884705 106.55775452 C172.20433533 105.75144592 172.19982361 104.94513733 172.19517517 104.11439514 C172.18335222 102.11631695 172.16541619 100.11827669 172.14634705 98.12025452 C167.68375689 98.12025452 164.49349645 99.38016956 160.45884705 101.05775452 Z M-21.65052795 113.03041077 C-24.58999012 118.13629472 -24.32996731 123.33407566 -22.85365295 128.87025452 C-19.88591775 133.69282422 -16.28180922 137.3108691 -10.85365295 139.12025452 C-4.50152475 139.65857047 -0.15140613 138.76172566 5.14634705 135.12025452 C9.7163474 130.31589517 10.57645443 126.20761045 10.48228455 119.75697327 C9.92179787 115.35780457 8.1839292 112.31229 5.14634705 109.12025452 C-4.09132499 102.1476833 -14.51389551 104.14718143 -21.65052795 113.03041077 Z " fill="#000" transform="translate(55.85365295410156,387.87974548339844)"/>
<path d="M0 0 C2.56616632 3.84924948 2.55097676 6.4349304 3 11 C4.0725 11.226875 5.145 11.45375 6.25 11.6875 C10.99264244 13.34742485 12.6997452 15.49177678 15.00097656 19.9309082 C16.05687877 22.20450409 17.04068346 24.49649896 18 26.8125 C18.34812744 27.64692627 18.69625488 28.48135254 19.05493164 29.34106445 C22.2870024 37.31643175 25.77881494 46.3746809 26.06860352 55.05493164 C26.18949454 57.9317339 26.3374639 60.28728082 28.35375977 62.45629883 C30.19893942 63.79620459 32.07821734 64.93924963 34.0625 66.0625 C35.43246134 66.90042963 36.79967434 67.74286967 38.1640625 68.58984375 C38.82438477 68.99444824 39.48470703 69.39905273 40.16503906 69.81591797 C43.77843065 72.1476036 46.91342689 75.0219007 50 78 C49.67 79.32 49.34 80.64 49 82 C27.11279336 82.0233268 5.22558876 82.0409781 -16.66162777 82.05181217 C-26.823495 82.0569756 -36.98535452 82.06401917 -47.1472168 82.07543945 C-56.00093626 82.08538488 -64.85465014 82.09185309 -73.70837504 82.09408849 C-78.39937535 82.09539584 -83.09035969 82.09848321 -87.7813549 82.10573006 C-92.19139252 82.11248805 -96.60140751 82.11461742 -101.01144981 82.11310768 C-102.63487623 82.11338411 -104.25830336 82.11539054 -105.88172531 82.11920547 C-108.0884505 82.12413928 -110.29508883 82.12299947 -112.5018158 82.12025452 C-113.73978377 82.12117631 -114.97775175 82.1220981 -116.25323391 82.12304783 C-119 82 -119 82 -120 81 C-119.82902006 76.64001156 -119.5228572 74.56301395 -116.5078125 71.31640625 C-113.22338025 67.54536965 -113.21084844 63.96566744 -113 59.125 C-111.32248786 37.14725218 -101.51600346 18.62985207 -84.75 4.1640625 C-61.23821891 -14.33810614 -25.41825763 -18.18032328 0 0 Z " fill="#transparent" transform="translate(474,120)"/>
<path d="M0 0 C0.83749283 -0.00315216 1.67498566 -0.00630432 2.53785706 -0.009552 C3.44309616 -0.00752777 4.34833527 -0.00550354 5.28100586 -0.00341797 C6.20803818 -0.00437469 7.1350705 -0.00533142 8.0901947 -0.00631714 C10.05134143 -0.00699823 12.01249041 -0.00514886 13.97363281 -0.00097656 C16.98694888 0.00437871 20.00011629 -0.00092705 23.01342773 -0.00732422 C24.91512077 -0.00666354 26.81681372 -0.0053826 28.71850586 -0.00341797 C29.6257692 -0.0054422 30.53303253 -0.00746643 31.4677887 -0.009552 C37.81839583 0.01444076 37.81839583 0.01444076 38.93334961 1.12939453 C39.02760556 3.27683002 39.05077609 5.42740479 39.046875 7.5769043 C39.04702103 8.25004669 39.04716705 8.92318909 39.0473175 9.61672974 C39.04661839 11.85145237 39.03882613 14.08609263 39.03100586 16.32080078 C39.02914167 17.86636815 39.02771777 19.4119361 39.02671814 20.95750427 C39.02289301 25.0329653 39.01306278 29.1083909 39.00201416 33.18383789 C38.99179993 37.33951335 38.98722049 41.49519452 38.98217773 45.65087891 C38.9714405 53.8104004 38.95436415 61.96989307 38.93334961 70.12939453 C40.58334961 70.12939453 42.23334961 70.12939453 43.93334961 70.12939453 C43.93334961 47.02939453 43.93334961 23.92939453 43.93334961 0.12939453 C55.48334961 0.12939453 67.03334961 0.12939453 78.93334961 0.12939453 C78.93334961 23.22939453 78.93334961 46.32939453 78.93334961 70.12939453 C82.89334961 70.12939453 86.85334961 70.12939453 90.93334961 70.12939453 C90.02584961 71.07814453 89.11834961 72.02689453 88.18334961 73.00439453 C82.76250759 79.33511784 81.09744417 85.98073263 79.93334961 94.12939453 C51.22334961 94.12939453 22.51334961 94.12939453 -7.06665039 94.12939453 C-8.05665039 88.18939453 -8.05665039 88.18939453 -9.06665039 82.12939453 C-13.35241996 73.87144828 -18.30427107 70.05018764 -27.06665039 67.12939453 C-34.58505174 66.28788539 -40.32212278 67.88728828 -47.06665039 71.12939453 C-47.78079102 71.42072266 -48.49493164 71.71205078 -49.23071289 72.01220703 C-51.55162128 73.42450448 -52.04450755 74.63990886 -53.06665039 77.12939453 C-53.40825195 77.81517578 -53.74985352 78.50095703 -54.10180664 79.20751953 C-54.6103418 80.28259766 -54.6103418 80.28259766 -55.12915039 81.37939453 C-55.47075195 82.08580078 -55.81235352 82.79220703 -56.16430664 83.52001953 C-57.38369105 87.04620475 -57.68696057 90.41861154 -58.06665039 94.12939453 C-60.85857244 94.18320031 -63.64946449 94.22297122 -66.44165039 94.25439453 C-67.63274414 94.27953125 -67.63274414 94.27953125 -68.84790039 94.30517578 C-70.92157054 94.32274926 -72.99548281 94.23274621 -75.06665039 94.12939453 C-77.67533408 91.52071084 -77.32393952 90.3840709 -77.33227539 86.75439453 C-77.33485352 85.68705078 -77.33743164 84.61970703 -77.34008789 83.52001953 C-77.32848633 81.84166016 -77.32848633 81.84166016 -77.31665039 80.12939453 C-77.32438477 79.01048828 -77.33211914 77.89158203 -77.34008789 76.73876953 C-77.33750977 75.67142578 -77.33493164 74.60408203 -77.33227539 73.50439453 C-77.33001953 72.52212891 -77.32776367 71.53986328 -77.32543945 70.52783203 C-77.06665039 68.12939453 -77.06665039 68.12939453 -75.06665039 66.12939453 C-74.07665039 66.12939453 -73.08665039 66.12939453 -72.06665039 66.12939453 C-72.09283447 65.50895264 -72.11901855 64.88851074 -72.14599609 64.24926758 C-72.24991454 61.43873405 -72.31495611 58.62860396 -72.37915039 55.81689453 C-72.44199219 54.35219727 -72.44199219 54.35219727 -72.50610352 52.85791016 C-72.53027344 51.4512207 -72.53027344 51.4512207 -72.55493164 50.01611328 C-72.58111572 49.15203857 -72.6072998 48.28796387 -72.63427734 47.39770508 C-72.06665039 45.12939453 -72.06665039 45.12939453 -70.15551758 43.46948242 C-65.92644781 41.63472397 -61.65372599 40.75796198 -57.15649414 39.80126953 C-34.55898259 35.82738338 -34.55898259 35.82738338 -16.56665039 23.33251953 C-13.89217927 18.60526962 -12.16640472 13.7266881 -10.78881836 8.48486328 C-9.84394949 5.40301918 -8.35433635 3.37497584 -6.06665039 1.12939453 C-3.788544 -0.00965866 -2.52968669 0.00272464 0 0 Z M-2.06665039 10.12939453 C-3.24589024 12.41487366 -4.30741084 14.64786917 -5.31665039 17.00439453 C-5.59766602 17.61669922 -5.87868164 18.22900391 -6.16821289 18.85986328 C-7.87000528 22.79420508 -8.08834559 25.02947012 -7.06665039 29.12939453 C-2.54599611 29.17877153 1.97450178 29.21510276 6.49536133 29.23925781 C8.03380059 29.24932571 9.57222068 29.26298099 11.1105957 29.28027344 C13.31979094 29.3044877 15.52873356 29.31586944 17.73803711 29.32470703 C18.77249466 29.34019089 18.77249466 29.34019089 19.82785034 29.35598755 C21.53135867 29.35638931 23.23420904 29.25130479 24.93334961 29.12939453 C27.54377173 26.51897241 27.22181748 24.61818269 27.25561523 21.05712891 C27.25239258 20.27660156 27.24916992 19.49607422 27.24584961 18.69189453 C27.26196289 17.91523438 27.27807617 17.13857422 27.29467773 16.33837891 C27.3869367 12.14087959 27.3869367 12.14087959 25.73681641 8.40795898 C23.30723007 6.68550824 21.67812558 6.74175406 18.71459961 6.73095703 C17.19286133 6.72515625 17.19286133 6.72515625 15.64038086 6.71923828 C14.58206055 6.73083984 13.52374023 6.74244141 12.43334961 6.75439453 C11.3750293 6.74279297 10.31670898 6.73119141 9.22631836 6.71923828 C8.21182617 6.72310547 7.19733398 6.72697266 6.15209961 6.73095703 C4.75894531 6.73603271 4.75894531 6.73603271 3.33764648 6.74121094 C0.47772172 7.20295752 -0.33206885 7.85466403 -2.06665039 10.12939453 Z " fill="#000" transform="translate(365.066650390625,435.87060546875)"/>
<path d="M0 0 C0.20238281 1.28648437 0.40476562 2.57296875 0.61328125 3.8984375 C2.09561128 10.58396834 6.0202403 15.56591416 9.91992188 21.0703125 C12.55518315 24.97722212 13.97416525 27.13195238 14.1171875 31.9375 C13 35 13 35 11.15234375 36.4609375 C10.42144531 36.76257813 9.69054687 37.06421875 8.9375 37.375 C6.72023166 38.45687085 6.72023166 38.45687085 5 40 C4.5273024 42.4685319 4.66019367 44.4322107 5.01171875 46.9140625 C5 49 5 49 3.64453125 50.7734375 C2 52 2 52 0 52 C0 52.66 0 53.32 0 54 C0.66 54 1.32 54 2 54 C2.6875 56.6875 2.6875 56.6875 3 60 C2.51789063 60.73863281 2.03578125 61.47726562 1.5390625 62.23828125 C-0.44821636 65.80428672 -0.30032589 68.44196431 -0.3125 72.5 C-0.514692 79.22409724 -0.514692 79.22409724 -2.28515625 82.0546875 C-7.73594427 86.58138615 -13.89116505 86.24237043 -20.57617188 86.25390625 C-26.37726209 86.4474457 -28.95448388 87.81286003 -33 92 C-35.87346439 97.33643386 -36.63857609 101.87359242 -38 108 C-63.08 108 -88.16 108 -114 108 C-111.69 104.37 -109.38 100.74 -107 97 C-101.1302879 84.35754317 -101.68601983 72.52370012 -106.2890625 59.484375 C-108.70425 53.01416788 -111.34883173 46.62750948 -114.05249023 40.27319336 C-114.43348877 39.37221924 -114.8144873 38.47124512 -115.20703125 37.54296875 C-115.5522583 36.73883545 -115.89748535 35.93470215 -116.25317383 35.10620117 C-117 33 -117 33 -117 30 C-106.19338789 26.4921928 -95.38234412 23.05328716 -84.4375 20 C-76.42464129 17.76142264 -68.55111686 15.2223664 -60.67700195 12.53955078 C-54.30135813 10.38543118 -47.88877221 8.49790007 -41.3815918 6.78417969 C-37.93091229 5.86420326 -34.57673673 4.88606261 -31.25 3.58203125 C-20.66201508 -0.49114829 -11.23156516 -0.51311719 0 0 Z " fill="#transparent" transform="translate(493,206)"/>
<path d="M0 0 C9.9 0 19.8 0 30 0 C31.61891177 4.83349733 33.23679373 9.66731775 34.85229492 14.50195312 C35.39958371 16.13886014 35.94741543 17.77558576 36.49584961 19.41210938 C37.29431716 21.79507028 38.09067965 24.17872691 38.88671875 26.5625 C39.12339767 27.26737549 39.3600766 27.97225098 39.60392761 28.69848633 C42.1825859 36.43364921 44.56629585 44.21214671 47 52 C47.33 34.84 47.66 17.68 48 0 C57.57 0 67.14 0 77 0 C77 43.23 77 86.46 77 131 C66.77 131 56.54 131 46 131 C41.05 114.5 36.1 98 31 81 C30.67 97.5 30.34 114 30 131 C20.1 131 10.2 131 0 131 C0 87.77 0 44.54 0 0 Z " fill="#000" transform="translate(584,557)"/>
<path d="M0 0 C60.57004831 0 60.57004831 0 70 8 C78.47349318 17.36543983 77.73021998 31.92016845 77.1640625 43.77880859 C76.71999168 49.790946 75.70731163 54.85466139 71.125 59 C68.43117773 60.72404625 66.03366053 62.01852159 63 63 C63.59167969 63.24492188 64.18335938 63.48984375 64.79296875 63.7421875 C65.97826172 64.30292969 65.97826172 64.30292969 67.1875 64.875 C67.96480469 65.22304688 68.74210937 65.57109375 69.54296875 65.9296875 C74.06735455 69.74196806 76.57109667 75.11357832 77.43733215 80.94314575 C77.57458656 84.16379401 77.56336049 87.34766243 77.48828125 90.5703125 C77.48120651 91.73255341 77.47413177 92.89479431 77.46684265 94.09225464 C77.43906215 97.77051709 77.37635061 101.44720488 77.3125 105.125 C77.28739618 107.63279037 77.26458669 110.14060483 77.24414062 112.6484375 C77.1935597 118.76670593 77.09566628 124.88161004 77 131 C66.44 131 55.88 131 45 131 C44.95101562 127.555625 44.90203125 124.11125 44.8515625 120.5625 C44.79748222 117.20975572 44.74020238 113.85708022 44.68261719 110.50439453 C44.64444208 108.182507 44.60956962 105.86056265 44.578125 103.53857422 C44.53222499 100.19217685 44.47427171 96.84616685 44.4140625 93.5 C44.40251129 92.4694751 44.39096008 91.4389502 44.37905884 90.37719727 C44.26189556 84.59611302 43.64718554 79.54841447 42 74 C39.69 73.34 37.38 72.68 35 72 C35 91.47 35 110.94 35 131 C23.45 131 11.9 131 0 131 C0 87.77 0 44.54 0 0 Z M35 23 C35 32.24 35 41.48 35 51 C41.63333333 50.76666667 41.63333333 50.76666667 44 48 C45.0578162 44.17299616 45.16439208 40.45607528 45.1875 36.5 C45.20167969 35.3965625 45.21585937 34.293125 45.23046875 33.15625 C44.9969644 29.95842769 44.49660692 27.8241619 43 25 C39.90754997 22.53774984 39.90754997 22.53774984 35 23 Z " fill="#000" transform="translate(313,557)"/>
<path d="M0 0 C60.57004831 0 60.57004831 0 70 8 C78.47349318 17.36543983 77.73021998 31.92016845 77.1640625 43.77880859 C76.71999168 49.790946 75.70731163 54.85466139 71.125 59 C68.43117773 60.72404625 66.03366053 62.01852159 63 63 C63.59167969 63.24492188 64.18335937 63.48984375 64.79296875 63.7421875 C65.97826172 64.30292969 65.97826172 64.30292969 67.1875 64.875 C67.96480469 65.22304688 68.74210937 65.57109375 69.54296875 65.9296875 C74.06735455 69.74196806 76.57109667 75.11357832 77.43733215 80.94314575 C77.57458656 84.16379401 77.56336049 87.34766243 77.48828125 90.5703125 C77.48120651 91.73255341 77.47413177 92.89479431 77.46684265 94.09225464 C77.43906215 97.77051709 77.37635061 101.44720488 77.3125 105.125 C77.28739618 107.63279037 77.26458669 110.14060483 77.24414062 112.6484375 C77.1935597 118.76670593 77.09566628 124.88161004 77 131 C66.44 131 55.88 131 45 131 C44.95101562 127.555625 44.90203125 124.11125 44.8515625 120.5625 C44.79748222 117.20975572 44.74020238 113.85708022 44.68261719 110.50439453 C44.64444208 108.182507 44.60956962 105.86056265 44.578125 103.53857422 C44.53222499 100.19217685 44.47427171 96.84616685 44.4140625 93.5 C44.40251129 92.4694751 44.39096008 91.4389502 44.37905884 90.37719727 C44.26189556 84.59611302 43.64718554 79.54841447 42 74 C39.69 73.34 37.38 72.68 35 72 C35 91.47 35 110.94 35 131 C23.45 131 11.9 131 0 131 C0 87.77 0 44.54 0 0 Z M35 23 C35 32.24 35 41.48 35 51 C41.63333333 50.76666667 41.63333333 50.76666667 44 48 C45.0578162 44.17299616 45.16439208 40.45607528 45.1875 36.5 C45.20167969 35.3965625 45.21585938 34.293125 45.23046875 33.15625 C44.9969644 29.95842769 44.49660692 27.8241619 43 25 C39.90754997 22.53774984 39.90754997 22.53774984 35 23 Z " fill="#000" transform="translate(21,557)"/>
<path d="M0 0 C7.64119167 6.4160217 12.21149231 14.16964751 13.1262207 24.11401367 C13.69263612 30.94545763 13.72449983 37.76185709 13.73046875 44.61328125 C13.73369401 45.97649671 13.73705896 47.33971184 13.74055481 48.70292664 C13.74649911 51.54439088 13.74839956 54.38582492 13.74780273 57.22729492 C13.7477013 60.82746306 13.76135513 64.42743315 13.77857494 68.02755451 C13.78981668 70.83923696 13.79171827 73.65087332 13.79119301 76.46257591 C13.7929106 78.42194974 13.80366848 80.38130919 13.81474304 82.34065247 C13.75504395 106.10567676 13.75504395 106.10567676 7.5625 115.25 C7.17578125 115.85199219 6.7890625 116.45398438 6.390625 117.07421875 C1.07010686 124.28821541 -8.27351884 128.47801777 -16.97265625 130.00390625 C-29.93530563 131.29811689 -42.8585734 130.53023461 -53.4375 122.25 C-60.78103853 115.93114127 -64.74409221 108.30306157 -65.84716797 98.67382812 C-66.44889371 87.38686904 -66.59133104 76.1230826 -66.56787109 64.82080078 C-66.56250731 61.75418151 -66.56785343 58.68770864 -66.57421875 55.62109375 C-66.59072097 13.57681196 -66.59072097 13.57681196 -55.4375 2.25 C-41.01049957 -10.21710603 -15.59479081 -10.74895186 0 0 Z M-28.4375 16.25 C-31.91463084 19.72713084 -31.55282717 23.94892586 -31.58413696 28.69197083 C-31.58368378 29.38457504 -31.58323059 30.07717926 -31.58276367 30.79077148 C-31.58612228 31.53288879 -31.5894809 32.2750061 -31.59294128 33.03961182 C-31.60241043 35.48345633 -31.60439225 37.92723205 -31.60546875 40.37109375 C-31.60868373 42.0759331 -31.61204798 43.78077218 -31.61555481 45.48561096 C-31.62153568 49.05559936 -31.62339574 52.62556359 -31.62280273 56.19555664 C-31.62270108 60.76297267 -31.63636154 65.33023336 -31.65357494 69.89761257 C-31.664709 73.41755379 -31.66672152 76.9374576 -31.66619301 80.45741463 C-31.66737068 82.14106851 -31.67178051 83.82472343 -31.67952538 85.50835991 C-31.68935533 87.86562787 -31.68643565 90.22256028 -31.68041992 92.57983398 C-31.68603943 93.27041397 -31.69165894 93.96099396 -31.69744873 94.67250061 C-31.67018551 98.89028153 -31.10104025 102.36441232 -29.4375 106.25 C-27.55792756 107.4076585 -27.55792756 107.4076585 -25.4375 107.25 C-22.18900023 105.52773504 -22.18900023 105.52773504 -21.4375 102.25 C-21.33115207 99.63988864 -21.28025973 97.05608318 -21.27636719 94.44555664 C-21.27140228 93.65175095 -21.26643738 92.85794525 -21.26132202 92.04008484 C-21.24671349 89.41343318 -21.23990129 86.78684187 -21.234375 84.16015625 C-21.22862335 82.33556618 -21.22286562 80.51097614 -21.21710205 78.68638611 C-21.2065964 74.86066404 -21.20075059 71.03496298 -21.19726562 67.20922852 C-21.1917757 62.30519977 -21.16773525 57.40144794 -21.13929367 52.49750614 C-21.12068004 48.72886846 -21.11546242 44.96029774 -21.11392975 41.19161797 C-21.11090082 39.38349325 -21.10286419 37.57536977 -21.08974457 35.76729012 C-21.07270733 33.23925735 -21.07455823 30.71190463 -21.08105469 28.18383789 C-21.0718399 27.43617157 -21.06262512 26.68850525 -21.0531311 25.91818237 C-21.07820175 22.80695114 -21.2864751 20.54626999 -22.70977783 17.75413513 C-24.55852706 15.8122546 -24.55852706 15.8122546 -28.4375 16.25 Z " fill="#000" transform="translate(558.4375,560.75)"/>
<path d="M0 0 C5.10863896 -0.0246501 10.21724359 -0.04283607 15.32592773 -0.05493164 C17.06519168 -0.05997204 18.80445136 -0.0668043 20.54370117 -0.07543945 C23.03825937 -0.08751792 25.53276173 -0.09323108 28.02734375 -0.09765625 C28.80963852 -0.10281754 29.59193329 -0.10797882 30.39793396 -0.11329651 C32.26567114 -0.11349226 34.13329204 -0.06199694 36 0 C37.68333666 1.68333666 37.40043969 3.87076471 37.63256836 6.18383789 C37.74616196 7.29332291 37.85975555 8.40280792 37.97679138 9.5459137 C38.1565023 11.36590126 38.1565023 11.36590126 38.33984375 13.22265625 C38.46686172 14.47066513 38.5938797 15.71867401 38.7247467 17.00450134 C39.06407996 20.34358581 39.39978325 23.68299238 39.73345947 27.02264404 C40.19819723 31.66877046 40.66807316 36.31437553 41.13954163 40.95982361 C41.38992397 43.42962894 41.63830852 45.899638 41.88426208 48.36988831 C42.78209177 57.26597284 43.85994038 66.13239357 45 75 C45.07294785 74.1636351 45.14589569 73.3272702 45.22105408 72.46556091 C45.91048566 64.56500146 46.60176544 56.66460633 47.2950964 48.76438808 C47.65143796 44.70328329 48.00707678 40.64211955 48.36108398 36.58081055 C48.70305426 32.65789767 49.04690396 28.73515356 49.39203072 24.81251717 C49.52305945 23.31954818 49.65342281 21.82652063 49.78309441 20.33343315 C49.96550684 18.234416 50.15033237 16.13562378 50.33569336 14.03686523 C50.4400621 12.84439682 50.54443085 11.65192841 50.65196228 10.42332458 C51.00631214 6.9379133 51.50454757 3.46816703 52 0 C64.21 0 76.42 0 89 0 C87.52785891 14.65165187 85.71879638 29.23591799 83.77734375 43.83203125 C83.46852399 46.16702296 83.15989832 48.50204035 82.85145569 50.83708191 C82.21004668 55.68887533 81.5669987 60.54044748 80.92260742 65.3918457 C80.09749613 71.60410485 79.27552173 77.81677397 78.45462704 84.02959156 C77.8198005 88.83293448 77.18386971 93.63613065 76.54754829 98.43927574 C76.24392569 100.73135188 75.94052153 103.02345697 75.63734245 105.31559181 C75.21491931 108.50716486 74.79113761 111.69855451 74.36694336 114.88989258 C74.24277039 115.82964935 74.11859741 116.76940613 73.99066162 117.73764038 C73.87437912 118.61033066 73.75809662 119.48302094 73.63829041 120.38215637 C73.48870833 121.50936458 73.48870833 121.50936458 73.33610439 122.65934467 C72.93589639 125.44642216 72.46289242 128.22264551 72 131 C54.51 131 37.02 131 19 131 C14.4644662 102.41757945 10.02787787 73.82421674 5.75015259 45.20233154 C5.25057806 41.85979715 4.74900011 38.5175731 4.24569702 35.17559814 C3.64603397 31.1922922 3.05087493 27.20833837 2.45915794 23.22384453 C2.23877049 21.7442691 2.01693103 20.26490912 1.79354286 18.78578377 C1.48583432 16.74604408 1.18364509 14.70555843 0.8828125 12.66479492 C0.62588623 10.94361702 0.62588623 10.94361702 0.36376953 9.18766785 C0.01059648 6.09285568 -0.06645709 3.11166581 0 0 Z " fill="#000" transform="translate(151,557)"/>
<path d="M0 0 C16.5 0 33 0 50 0 C54.12893606 24.12624972 57.79787149 48.30605494 61.35864258 72.52197266 C62.16177955 77.9827876 62.97155774 83.44259617 63.78294086 88.90219116 C64.41304549 93.14821544 65.03917487 97.39481872 65.66414452 101.64160156 C65.96141499 103.65759268 66.26004134 105.67338436 66.56008339 107.68896484 C66.97558744 110.48345916 67.38558663 113.2787082 67.79418945 116.07421875 C67.91724457 116.89383591 68.04029968 117.71345306 68.16708374 118.5579071 C68.2776561 119.32214493 68.38822845 120.08638275 68.50215149 120.8737793 C68.59889821 121.52984665 68.69564493 122.185914 68.79532337 122.86186218 C69.05390215 125.56308439 69 128.28642958 69 131 C57.45 131 45.9 131 34 131 C33.0699111 128.2097333 32.81301231 126.23470458 32.68359375 123.33203125 C32.62075195 121.99301758 32.62075195 121.99301758 32.55664062 120.62695312 C32.51732422 119.69818359 32.47800781 118.76941406 32.4375 117.8125 C32.39431641 116.87212891 32.35113281 115.93175781 32.30664062 114.96289062 C32.20061457 112.64209812 32.09980806 110.32106823 32 108 C28.37 108 24.74 108 21 108 C20.34 115.59 19.68 123.18 19 131 C7.12 131 -4.76 131 -17 131 C-16.39001609 121.8502414 -15.73780396 112.91854365 -14.52539062 103.86401367 C-14.38054733 102.75312881 -14.23570404 101.64224396 -14.08647156 100.49769592 C-13.61443682 96.88715112 -13.13557041 93.27755295 -12.65625 89.66796875 C-12.32345752 87.13833165 -11.99098399 84.60865256 -11.65881348 82.07893372 C-10.9658476 76.80962144 -10.26967926 71.54074699 -9.57080078 66.2722168 C-8.7630606 60.1826811 -7.96139198 54.09236889 -7.16288805 48.0016157 C-6.39151269 42.11877395 -5.6160317 36.23647925 -4.83866882 30.35442543 C-4.50912811 27.85819006 -4.18060381 25.36182029 -3.85310364 22.86531639 C-3.39714974 19.39434968 -2.93654251 15.92403273 -2.47460938 12.45385742 C-2.33951462 11.41862946 -2.20441986 10.38340149 -2.06523132 9.31680298 C-1.93908951 8.37651749 -1.81294769 7.43623199 -1.6829834 6.467453 C-1.57458885 5.64810367 -1.46619431 4.82875433 -1.35451508 3.98457623 C-1 2 -1 2 0 0 Z M26 37 C24.56389303 42.96057229 23.5388086 48.84253693 22.89453125 54.9375 C22.76204231 56.14672119 22.76204231 56.14672119 22.62687683 57.38037109 C22.44381598 59.06402003 22.26328067 60.74794539 22.08520508 62.43212891 C21.81015503 65.0220809 21.52370728 67.61060892 21.23632812 70.19921875 C21.05921702 71.84107275 20.88276039 73.48299751 20.70703125 75.125 C20.62064896 75.90093506 20.53426666 76.67687012 20.44526672 77.47631836 C20.25497454 79.31369031 20.12148126 81.15679922 20 83 C21.03406673 84.25949049 21.03406673 84.25949049 23.28515625 84.09765625 C24.20167969 84.08605469 25.11820313 84.07445312 26.0625 84.0625 C28.53125 84.03125 28.53125 84.03125 31 84 C30.30009384 73.52539843 29.40435455 63.07760587 28.4375 52.625 C28.29739747 51.09897013 28.15742285 49.57292851 28.01757812 48.046875 C27.67985336 44.36444731 27.34042067 40.68217956 27 37 C26.67 37 26.34 37 26 37 Z " fill="#000" transform="translate(769,557)"/>
<path d="M0 0 C8.71040333 7.58420976 10.74941232 16.68058891 11.62109375 27.87109375 C11.93836737 35.80293429 11.93359375 43.74541027 11.93359375 51.68359375 C0.38359375 51.68359375 -11.16640625 51.68359375 -23.06640625 51.68359375 C-23.44140625 37.05859375 -23.44140625 37.05859375 -23.54443359 32.47802734 C-23.58004395 31.27484863 -23.6156543 30.07166992 -23.65234375 28.83203125 C-23.68376465 27.60661621 -23.71518555 26.38120117 -23.74755859 25.11865234 C-24.06589394 21.68911302 -24.84257441 18.89132142 -26.06640625 15.68359375 C-28.04640625 15.68359375 -30.02640625 15.68359375 -32.06640625 15.68359375 C-33.69931264 20.70597882 -34.31865987 24.93359867 -34.32519531 30.26782227 C-34.32869995 30.99072449 -34.33220459 31.71362671 -34.33581543 32.45843506 C-34.34455337 34.826557 -34.33881256 37.1943755 -34.33203125 39.5625 C-34.33338004 41.21964067 -34.33532235 42.87678096 -34.33782959 44.53392029 C-34.34076997 47.99783109 -34.33651771 51.46163838 -34.32714844 54.92553711 C-34.31574559 59.3561529 -34.32232549 63.78652657 -34.33429337 68.21713352 C-34.34153373 71.63585726 -34.3392142 75.05452395 -34.33403778 78.47324944 C-34.33270777 80.10665859 -34.3343262 81.74007301 -34.33899689 83.37347603 C-34.34409901 85.65870948 -34.33630093 87.94355506 -34.32519531 90.22875977 C-34.32360413 91.52668961 -34.32201294 92.82461945 -34.32037354 94.16188049 C-34.06579754 97.69203456 -33.4497242 100.4327813 -32.06640625 103.68359375 C-30.18683381 104.84125225 -30.18683381 104.84125225 -28.06640625 104.68359375 C-24.81387984 103.00512608 -24.81387984 103.00512608 -24.39868164 99.92333984 C-24.087672 96.89093873 -23.86462886 93.89350874 -23.75 90.84765625 C-23.71189209 89.88811035 -23.67378418 88.92856445 -23.63452148 87.93994141 C-23.59141846 86.74159668 -23.54831543 85.54325195 -23.50390625 84.30859375 C-23.35953125 80.47234375 -23.21515625 76.63609375 -23.06640625 72.68359375 C-11.51640625 72.68359375 0.03359375 72.68359375 11.93359375 72.68359375 C11.83046875 76.74671875 11.72734375 80.80984375 11.62109375 84.99609375 C11.59619873 86.25333252 11.57130371 87.51057129 11.5456543 88.8059082 C11.15982257 100.78734446 9.28659859 110.68635615 0.43359375 119.24609375 C-10.16107172 128.19402283 -22.76810976 129.22908928 -36.06640625 128.68359375 C-45.70802566 127.83613153 -55.40620041 123.97673853 -62.12890625 116.87109375 C-73.43853705 102.50703712 -70.22728753 78.76326483 -70.19677734 61.69750977 C-70.19141327 58.12577073 -70.19675084 54.55415712 -70.203125 50.98242188 C-70.20246418 48.67317681 -70.20118295 46.36393182 -70.19921875 44.0546875 C-70.20124298 43.00639267 -70.20326721 41.95809784 -70.20535278 40.8780365 C-70.11513473 11.82969819 -70.11513473 11.82969819 -60.1796875 1.46875 C-43.97298207 -12.22157233 -16.99190426 -12.5023002 0 0 Z " fill="#000" transform="translate(471.06640625,562.31640625)"/>
<path d="M0 0 C5.46660127 5.1100838 7.73520578 10.9032494 8.12011719 18.31201172 C8.24987556 23.88630382 8.11791875 29.41851227 8 35 C-2.56 35 -13.12 35 -24 35 C-24.495 27.575 -24.495 27.575 -25 20 C-25.66 18.68 -26.32 17.36 -27 16 C-28.98 16 -30.96 16 -33 16 C-34.50841036 22.03364145 -35.0890741 28.56227568 -32.2734375 34.296875 C-29.3826409 38.16309376 -25.02625358 40.46059895 -21 43 C6.20140389 60.46198171 6.20140389 60.46198171 10.3125 76.375 C12.3252823 88.60652318 13.07151165 104.75985945 6.96875 115.87890625 C1.40659272 123.37654394 -8.03652632 126.8284581 -16.86328125 128.5625 C-30.13380744 130.41343267 -43.55756901 129.0718225 -54.91015625 121.6015625 C-61.39623882 116.63091978 -64.69938188 110.0344516 -66 102 C-66.07831674 100.08856637 -66.10788625 98.17472879 -66.09765625 96.26171875 C-66.09515869 95.29967529 -66.09266113 94.33763184 -66.09008789 93.34643555 C-66.08098389 92.13898682 -66.07187988 90.93153809 -66.0625 89.6875 C-66.041875 85.830625 -66.02125 81.97375 -66 78 C-55.44 78 -44.88 78 -34 78 C-33.5625 89.3125 -33.5625 89.3125 -33.43188477 92.8684082 C-33.3747229 94.25805786 -33.3747229 94.25805786 -33.31640625 95.67578125 C-33.26141968 97.0975769 -33.26141968 97.0975769 -33.20532227 98.5480957 C-33.08569813 101.136171 -33.08569813 101.136171 -32 104 C-29.64632287 104.6878236 -29.64632287 104.6878236 -27 105 C-23.75150023 103.27773504 -23.75150023 103.27773504 -23 100 C-22.21502886 89.54687629 -22.21502886 89.54687629 -26.38671875 80.37109375 C-31.23488621 75.83842526 -36.88883325 72.33108132 -42.41845703 68.69873047 C-54.2844628 60.90005016 -63.18585188 54.18903642 -67 40 C-67.49857414 35.93729901 -67.518223 31.96322937 -67.4375 27.875 C-67.44813477 26.34552734 -67.44813477 26.34552734 -67.45898438 24.78515625 C-67.38287082 15.66323996 -65.68035552 6.68035552 -59 0 C-42.74298468 -12.06165653 -16.33221175 -11.5247462 0 0 Z " fill="#000" transform="translate(738,562)"/>
<path d="M0 0 C19.14 0 38.28 0 58 0 C58 8.58 58 17.16 58 26 C57 27 57 27 54.86694336 27.11352539 C53.95050049 27.10828857 53.03405762 27.10305176 52.08984375 27.09765625 C51.199021 27.09515869 50.30819824 27.09266113 49.39038086 27.09008789 C48.25093018 27.08098389 47.11147949 27.07187988 45.9375 27.0625 C42.328125 27.041875 38.71875 27.02125 35 27 C35.495 38.385 35.495 38.385 36 50 C42.6 50.33 49.2 50.66 56 51 C56 59.25 56 67.5 56 76 C49.07 76 42.14 76 35 76 C35 85.24 35 94.48 35 104 C43.25 104 51.5 104 60 104 C60 112.91 60 121.82 60 131 C40.2 131 20.4 131 0 131 C0 87.77 0 44.54 0 0 Z " fill="#000" transform="translate(244,557)"/>
<path d="M0 0 C11.55 0 23.1 0 35 0 C35 43.23 35 86.46 35 131 C23.45 131 11.9 131 0 131 C0 87.77 0 44.54 0 0 Z " fill="#000" transform="translate(110,557)"/>
<path d="M0 0 C1.59638977 1.28559875 1.59638977 1.28559875 3 3 C3.26167679 5.94184741 3.34873921 8.6673721 3.29296875 11.60546875 C3.28872391 12.44467361 3.28447906 13.28387848 3.28010559 14.14851379 C3.26331464 16.82850245 3.2256623 19.5077387 3.1875 22.1875 C3.17245367 24.00454643 3.15876518 25.82160465 3.14648438 27.63867188 C3.11340982 32.09273776 3.06162513 36.54624132 3 41 C-8.30884557 41.02313452 -19.61768553 41.04092077 -30.92654991 41.05181217 C-36.17727873 41.05703856 -41.42799141 41.06413181 -46.67871094 41.07543945 C-51.74261255 41.08627696 -56.8064986 41.09227868 -61.87041092 41.09487724 C-63.80577464 41.09672993 -65.74113748 41.10034756 -67.6764946 41.10573006 C-70.37988907 41.11295192 -73.08321859 41.11399045 -75.78662109 41.11352539 C-76.59294479 41.11712067 -77.39926849 41.12071594 -78.23002625 41.12442017 C-83.77189568 41.11405216 -83.77189568 41.11405216 -86 40 C-85.87960487 33.98024364 -85.87960487 33.98024364 -83.63647461 31.48046875 C-63.91652977 15.35581161 -26.73520207 -5.65765687 0 0 Z " fill="#000" transform="translate(441,391)"/>
<path d="M0 0 C23.76 0 47.52 0 72 0 C68.68192011 2.21205326 65.426878 3.2504595 61.65795898 4.3984375 C60.91280533 4.62960266 60.16765167 4.86076782 59.3999176 5.09893799 C56.93347749 5.86258549 54.46488957 6.61900596 51.99609375 7.375 C50.2754698 7.9051485 48.5549358 8.43558901 46.83448792 8.96630859 C43.2232361 10.07905188 39.61091192 11.18822493 35.99780273 12.29492188 C31.38833505 13.70711366 26.78161961 15.12804844 22.17568874 16.55172729 C18.61895208 17.6500206 15.06077177 18.74357516 11.5021534 19.83575439 C9.80461355 20.35736029 8.10751543 20.88040615 6.41088676 21.40496826 C-2.00916217 24.00551505 -10.29721145 26.51019039 -19 28 C-20.974667 25.03799949 -21.71955354 22.90228368 -22.625 19.5 C-22.88539063 18.5409375 -23.14578125 17.581875 -23.4140625 16.59375 C-24 14 -24 14 -24 11 C-20.91677396 10.18709249 -17.83340049 9.37474556 -14.75 8.5625 C-13.87730469 8.33240234 -13.00460937 8.10230469 -12.10546875 7.86523438 C-11.26113281 7.64287109 -10.41679687 7.42050781 -9.546875 7.19140625 C-8.38430176 6.88505249 -8.38430176 6.88505249 -7.19824219 6.57250977 C-5.1352485 6.03522409 -3.06911271 5.51315644 -1 5 C-0.67 3.35 -0.34 1.7 0 0 Z " fill="transparent" transform="translate(387,206)"/>
<path d="M0 0 C4.50503185 3.30626801 8.5369245 7.81736909 9.8203125 13.3359375 C10.5814943 20.18657369 9.96102577 25.69391299 5.8203125 31.3359375 C0.86874985 36.61603985 -3.69962371 39.35520268 -10.9921875 39.7109375 C-17.07032773 39.5574035 -21.4898755 37.85838342 -25.9375 33.6875 C-30.97740283 28.11195533 -32.67830814 23.41736032 -32.48828125 15.89453125 C-31.77686297 9.99606326 -29.09548315 5.89601261 -24.7421875 1.9609375 C-17.28934929 -3.82523225 -8.35089852 -4.76711211 0 0 Z M-20.1796875 13.3359375 C-21.35654162 17.21263344 -21.57981949 19.30030175 -20.1171875 23.0859375 C-17.64237211 25.95991667 -15.79476054 27.1540867 -12.1796875 28.3359375 C-8.75674166 27.75577719 -6.23708282 27.0056212 -3.3046875 25.1484375 C-1.49445849 22.23195743 -1.29686973 19.73422211 -1.1796875 16.3359375 C-2.75717027 12.6828195 -4.66750795 10.24254926 -8.1796875 8.3359375 C-13.7714575 7.36345576 -16.43509422 9.24300997 -20.1796875 13.3359375 Z " fill="#000" transform="translate(482.1796875,509.6640625)"/>
<path d="M0 0 C4.56657381 3.39662515 8.96303657 7.619865 9.890625 13.40625 C10.60092537 20.25307979 10.02955028 25.76666175 5.890625 31.40625 C0.93906235 36.68635235 -3.62931121 39.42551518 -10.921875 39.78125 C-17.00383444 39.62761952 -21.3796338 37.91154581 -25.8671875 33.79296875 C-30.62482417 28.61013267 -32.6068387 23.64208912 -32.34765625 16.48046875 C-31.52791176 9.34466017 -28.66515532 5.25971478 -23.078125 0.81640625 C-16.17060471 -4.13124221 -7.37200175 -4.19544815 0 0 Z M-20.109375 13.40625 C-21.64718945 16.8437176 -21.12061579 18.36550213 -20.109375 22.03125 C-18.33287272 25.62014692 -18.33287272 25.62014692 -14.796875 27.46875 C-10.60373784 28.53480182 -8.93758228 28.32035364 -5.109375 26.40625 C-3.17282552 25.38654682 -3.17282552 25.38654682 -2.109375 23.40625 C-0.85368897 17.85401449 -0.85368897 17.85401449 -2.296875 12.53125 C-5.01627723 9.34298532 -6.86865752 8.59505483 -10.984375 7.96875 C-15.29615876 8.57239973 -17.13556344 10.29412162 -20.109375 13.40625 Z " fill="#transparent" transform="translate(730.109375,509.59375)"/>
<path d="M0 0 C5.24694119 3.77123898 8.48250109 8.98702841 9.75 15.2578125 C10.13198304 22.31326393 8.39386932 27.91320587 3.75 33.2578125 C-1.61590321 38.08352412 -6.55841664 39.70434592 -13.7421875 39.59765625 C-19.16534688 38.86274213 -24.1659408 36.43725198 -27.95703125 32.47265625 C-32.72888112 25.99559202 -32.81684474 20.02873855 -32.25 12.2578125 C-30.14055325 6.15151928 -25.63722546 1.73344183 -20.25 -1.7421875 C-13.32855238 -3.86160294 -6.30965037 -3.63822582 0 0 Z M-20.25 12.2578125 C-21.82455739 15.40692729 -21.59799118 17.77790066 -21.25 21.2578125 C-19.49456893 24.53558836 -17.31536902 26.78120004 -13.875 28.3203125 C-10.13346562 28.23122835 -7.53453388 26.99303795 -4.25 25.2578125 C-1.79334803 21.57283454 -1.54913509 18.53809464 -2.25 14.2578125 C-4.04363911 11.4477779 -5.26880935 9.74840782 -8.25 8.2578125 C-13.51883876 7.65908082 -16.1346468 9.00381229 -20.25 12.2578125 Z " fill="#000" transform="translate(529.25,509.7421875)"/>
<path d="M0 0 C5.02938115 3.68029822 8.55999156 8.15645862 9.8203125 14.33203125 C10.46222435 20.85813506 9.33995555 25.74808143 5.8203125 31.33203125 C1.59163139 36.13409285 -2.85210118 38.81530453 -9.2734375 39.58203125 C-15.07298492 39.89981467 -19.45047822 38.73706193 -24.1796875 35.33203125 C-29.46328599 30.38817635 -32.19921681 25.80668038 -32.5546875 18.51953125 C-32.4011535 12.44139102 -30.70213342 8.02184325 -26.53125 3.57421875 C-18.83639276 -3.38139456 -9.32355182 -5.34122503 0 0 Z M-20.5546875 13.01953125 C-21.52321208 16.60307218 -21.31185036 19.79765104 -20.1796875 23.33203125 C-17.58074928 26.07145261 -15.03987137 28.21849643 -11.1796875 28.33203125 C-6.57589415 27.03973838 -4.6713849 26.12172708 -2.1171875 22.01953125 C-1.03886003 17.77810986 -1.13452301 16.16671467 -3.1796875 12.33203125 C-5.83267399 9.53165662 -7.34872363 8.45321348 -11.1796875 7.89453125 C-15.29130966 8.49414281 -17.91312155 9.77760941 -20.5546875 13.01953125 Z " fill="#000" transform="translate(777.1796875,509.66796875)"/>
<path d="M0 0 C5.69906288 4.08348032 8.46616752 9.52215853 9.75 16.25390625 C10.2123636 22.47968595 8.33676743 27.23869883 4.6796875 32.234375 C0.26793498 36.851533 -5.37931141 39.4391596 -11.75 39.87890625 C-17.85201081 39.47859703 -23.43870289 36.84187602 -27.921875 32.71484375 C-31.54242966 28.2210965 -33.06259886 22.97815931 -33.25 17.25390625 C-32.09192033 9.73731369 -29.37381737 4.59676928 -23.25 0.00390625 C-16.03667183 -4.20386851 -7.23387436 -4.18572972 0 0 Z M-19.25 11.25390625 C-21.76250583 15.022665 -21.78016086 16.78540759 -21.25 21.25390625 C-19.48501756 24.52860508 -17.31910208 26.77562374 -13.875 28.31640625 C-10.13346562 28.2273221 -7.53453388 26.9891317 -4.25 25.25390625 C-1.77746529 21.54510418 -1.5962305 18.55369794 -2.25 14.25390625 C-3.78547827 11.24692796 -4.86886352 9.71812958 -8.12109375 8.625 C-12.71745926 7.79956574 -15.5305634 8.19084081 -19.25 11.25390625 Z " fill="#000" transform="translate(344.25,509.74609375)"/>
<path d="M0 0 C8.58 0 17.16 0 26 0 C27.93039047 8.68675713 29 15.14970704 29 24 C22.73 24 16.46 24 10 24 C9.79375 22.205625 9.5875 20.41125 9.375 18.5625 C8.35172905 12.30423419 6.17064234 7.7713055 2 3 C1.34 2.67 0.68 2.34 0 2 C0 1.34 0 0.68 0 0 Z " fill="#000" transform="translate(533,506)"/>
<path d="M0 0 C5.61 0 11.22 0 17 0 C10.97321429 7.09821429 10.97321429 7.09821429 8 10 C6.66370254 8.52351062 5.33103329 7.0437367 4 5.5625 C3.2575 4.73878906 2.515 3.91507812 1.75 3.06640625 C0 1 0 1 0 0 Z " fill="#000" transform="translate(486,506)"/>
<path d="M0 0 C4.29 0 8.58 0 13 0 C13 0.66 13 1.32 13 2 C11.58603098 2.50757862 10.16868271 3.00574925 8.75 3.5 C7.56664062 3.91765625 7.56664062 3.91765625 6.359375 4.34375 C4 5 4 5 0 5 C0 3.35 0 1.7 0 0 Z " fill="traansparent" transform="translate(370,206)"/>
</svg>
