<?xml version="1.0" encoding="UTF-8"?>
<!DOCTYPE svg PUBLIC "-//W3C//DTD SVG 1.1//EN" "http://www.w3.org/Graphics/SVG/1.1/DTD/svg11.dtd">
<svg xmlns="http://www.w3.org/2000/svg" version="1.1" width="1619px" height="755px" style="shape-rendering:geometricPrecision; text-rendering:geometricPrecision; image-rendering:optimizeQuality; fill-rule:evenodd; clip-rule:evenodd" xmlns:xlink="http://www.w3.org/1999/xlink">
<g><path style="opacity:0.93" fill="#000" d="M 825.5,-0.5 C 828.833,-0.5 832.167,-0.5 835.5,-0.5C 847.308,3.41131 852.308,11.7446 850.5,24.5C 846.167,24.5 841.833,24.5 837.5,24.5C 837.837,20.6924 837.337,17.0257 836,13.5C 833.121,10.5584 829.954,10.0584 826.5,12C 824.996,13.4907 824.163,15.324 824,17.5C 823.333,31.5 823.333,45.5 824,59.5C 827.522,64.3977 831.522,64.731 836,60.5C 836.684,55.1778 837.184,49.8444 837.5,44.5C 834.833,44.5 832.167,44.5 829.5,44.5C 829.5,40.8333 829.5,37.1667 829.5,33.5C 836.5,33.5 843.5,33.5 850.5,33.5C 849.834,43.4838 849.334,53.4838 849,63.5C 843.422,73.5927 834.922,77.0927 823.5,74C 816.257,72.3485 812.091,67.8485 811,60.5C 810.388,44.1509 810.721,27.8176 812,11.5C 814.391,5.06488 818.891,1.06488 825.5,-0.5 Z"/></g>
<g><path style="opacity:0.934" fill="#000" d="M 749.5,1.5 C 753.5,1.5 757.5,1.5 761.5,1.5C 762.832,25.8077 763.832,50.141 764.5,74.5C 759.833,74.5 755.167,74.5 750.5,74.5C 745.632,60.4227 740.465,46.4227 735,32.5C 735.345,46.8082 735.845,61.1416 736.5,75.5C 732.167,75.5 727.833,75.5 723.5,75.5C 722.978,51.4503 721.978,27.4503 720.5,3.5C 725.5,2.16667 730.5,2.16667 735.5,3.5C 740.432,17.1289 745.265,30.7955 750,44.5C 750.137,30.1694 749.97,15.8361 749.5,1.5 Z"/></g>
<g><path style="opacity:0.929" fill="#000" d="M 658.5,6.5 C 662.833,6.5 667.167,6.5 671.5,6.5C 673.116,30.8367 674.782,55.17 676.5,79.5C 672.167,79.5 667.833,79.5 663.5,79.5C 661.884,55.1629 660.218,30.8295 658.5,6.5 Z"/></g>
<g><path style="opacity:0.932" fill="#000" d="M 968.5,7.5 C 974.172,7.75991 979.839,8.09324 985.5,8.5C 987.44,33.1716 989.44,57.8383 991.5,82.5C 987.143,82.4135 982.81,82.0802 978.5,81.5C 978.313,76.1554 977.98,70.8221 977.5,65.5C 973.519,64.9791 969.519,64.6458 965.5,64.5C 964.709,69.497 963.376,74.3303 961.5,79C 957.044,79.8673 952.711,79.5339 948.5,78C 955.27,54.523 961.937,31.023 968.5,7.5 Z M 974.5,27.5 C 975.645,35.9808 976.311,44.6475 976.5,53.5C 973.753,53.8134 971.086,53.48 968.5,52.5C 970.974,44.2714 972.974,35.9381 974.5,27.5 Z"/></g>
<g><path style="opacity:0.931" fill="#000" d="M 606.5,11.5 C 608.164,12.9488 608.998,14.9488 609,17.5C 611.653,39.5446 614.486,61.5446 617.5,83.5C 613.295,85.5229 608.961,85.8562 604.5,84.5C 603.11,74.4963 601.61,64.4963 600,54.5C 595.914,55.4495 591.747,56.1162 587.5,56.5C 588.833,66.8333 590.167,77.1667 591.5,87.5C 587.469,88.0037 583.469,88.6704 579.5,89.5C 575.595,65.2589 572.261,40.9256 569.5,16.5C 573.798,15.8005 578.131,15.4672 582.5,15.5C 583.675,25.5736 585.175,35.5736 587,45.5C 591.133,44.7095 595.3,43.8761 599.5,43C 597.915,33.2395 596.581,23.4061 595.5,13.5C 599.337,13.0691 603.003,12.4025 606.5,11.5 Z"/></g>
<g><path style="opacity:0.923" fill="#000" d="M 1054.5,16.5 C 1074.38,15.0389 1082.71,24.0389 1079.5,43.5C 1075.16,43.2605 1070.82,42.9272 1066.5,42.5C 1066.4,39.7814 1066.73,37.1147 1067.5,34.5C 1066.76,30.2579 1064.26,27.9245 1060,27.5C 1058.11,28.13 1056.44,29.13 1055,30.5C 1052.01,45.7287 1050.01,61.0621 1049,76.5C 1052.6,80.9183 1056.44,81.2516 1060.5,77.5C 1061.69,72.869 1062.69,68.2023 1063.5,63.5C 1061.39,62.0562 1059.06,61.3896 1056.5,61.5C 1056.72,57.8212 1057.06,54.1545 1057.5,50.5C 1064.18,51.0729 1070.84,51.7395 1077.5,52.5C 1076.66,61.2023 1075.49,69.869 1074,78.5C 1072.5,85.3333 1068.33,89.5 1061.5,91C 1052.19,92.8857 1044.36,90.3857 1038,83.5C 1036.24,80.4001 1035.41,77.0668 1035.5,73.5C 1037.43,58.132 1039.6,42.7987 1042,27.5C 1044.5,21.8218 1048.67,18.1552 1054.5,16.5 Z"/></g>
<g><path style="opacity:0.924" fill="#000" d="M 518.5,23.5 C 520.467,23.2606 522.301,23.5939 524,24.5C 524.61,27.8273 525.11,31.1606 525.5,34.5C 521.137,35.1164 516.803,35.9497 512.5,37C 516.043,55.9209 519.376,74.9209 522.5,94C 522.167,95.1667 521.833,96.3333 521.5,97.5C 517.657,98.8985 513.824,99.2318 510,98.5C 506.968,78.2989 503.301,58.2989 499,38.5C 494.961,39.7564 490.794,40.423 486.5,40.5C 486.276,36.8212 485.942,33.1545 485.5,29.5C 496.682,27.8048 507.682,25.8048 518.5,23.5 Z"/></g>
<g><path style="opacity:0.923" fill="#000" d="M 1130.5,28.5 C 1141.79,30.7158 1153.13,32.7158 1164.5,34.5C 1164.37,38.6538 1163.54,42.6538 1162,46.5C 1155.91,45.0102 1149.74,43.6769 1143.5,42.5C 1142.56,42.6082 1141.72,42.9415 1141,43.5C 1139.95,49.0663 1138.79,54.5663 1137.5,60C 1142.96,61.8592 1148.63,63.0258 1154.5,63.5C 1154.2,67.6225 1153.37,71.6225 1152,75.5C 1146.57,73.7097 1141.07,73.0431 1135.5,73.5C 1134.35,79.3995 1133.02,85.2328 1131.5,91C 1138.86,92.7265 1146.19,94.5598 1153.5,96.5C 1152.45,99.757 1151.78,103.09 1151.5,106.5C 1140.79,104.992 1130.13,103.159 1119.5,101C 1118.38,100.161 1117.71,98.9945 1117.5,97.5C 1121.73,74.4668 1126.06,51.4668 1130.5,28.5 Z"/></g>
<g><path style="opacity:0.931" fill="#000" d="M 425.5,40.5 C 433.221,40.6084 439.054,43.9417 443,50.5C 446.66,66.1394 450.16,81.806 453.5,97.5C 450.198,111.831 441.198,117.665 426.5,115C 422.532,114.036 419.365,111.869 417,108.5C 412.704,94.0272 409.037,79.3605 406,64.5C 404.588,50.0779 411.088,42.0779 425.5,40.5 Z M 422.5,52.5 C 426.355,51.8454 429.188,53.1788 431,56.5C 434.167,70.3358 437.334,84.1691 440.5,98C 438.538,103.539 434.871,105.206 429.5,103C 428.107,101.829 427.273,100.329 427,98.5C 423.361,84.6244 420.694,70.6244 419,56.5C 419.69,54.6498 420.856,53.3164 422.5,52.5 Z"/></g>
<g><path style="opacity:0.93" fill="#000" d="M 1210.5,45.5 C 1215.72,45.6774 1220.55,47.0107 1225,49.5C 1225.92,64.8388 1226.92,80.1722 1228,95.5C 1231.21,80.6394 1235.05,65.9728 1239.5,51.5C 1242.83,52.5 1246.17,53.5 1249.5,54.5C 1250.63,56.0745 1250.8,57.7412 1250,59.5C 1244.82,81.2037 1239.49,102.87 1234,124.5C 1229.57,125.152 1225.24,124.485 1221,122.5C 1219.57,108.094 1217.9,93.7603 1216,79.5C 1212.98,92.9129 1209.65,106.246 1206,119.5C 1202.28,118.112 1198.45,117.112 1194.5,116.5C 1199.67,92.8017 1205.01,69.135 1210.5,45.5 Z"/></g>
<g><path style="opacity:0.921" fill="#000" d="M 333.5,63.5 C 335.144,63.2865 336.644,63.6198 338,64.5C 343.171,83.8524 348.338,103.186 353.5,122.5C 360.459,120.677 367.459,119.01 374.5,117.5C 375.058,120.344 375.725,123.178 376.5,126C 376.167,126.833 375.833,127.667 375.5,128.5C 364.974,131.798 354.307,134.465 343.5,136.5C 337.816,113.766 331.816,91.0991 325.5,68.5C 325.608,67.5581 325.941,66.7247 326.5,66C 329.104,65.6097 331.438,64.7763 333.5,63.5 Z"/></g>
<g><path style="opacity:0.917" fill="#000" d="M 1306.5,71.5 C 1328.37,71.5904 1335.71,81.9238 1328.5,102.5C 1328.17,102.833 1327.83,103.167 1327.5,103.5C 1323.88,102.292 1320.21,101.292 1316.5,100.5C 1316.99,96.5237 1317.99,92.6904 1319.5,89C 1317.79,84.1446 1314.46,82.4779 1309.5,84C 1308.3,84.9025 1307.47,86.0692 1307,87.5C 1302.63,100.939 1298.46,114.439 1294.5,128C 1296.2,133.329 1299.54,134.996 1304.5,133C 1307.44,129.005 1309.11,124.505 1309.5,119.5C 1314.08,120.025 1318.41,121.359 1322.5,123.5C 1319.25,143.785 1308.25,149.952 1289.5,142C 1284.49,138.481 1281.82,133.648 1281.5,127.5C 1285.69,112.082 1290.19,96.7487 1295,81.5C 1297.19,76.1709 1301.03,72.8375 1306.5,71.5 Z"/></g>
<g><path style="opacity:0.923" fill="#000" d="M 260.5,84.5 C 266.434,83.8887 272.1,84.722 277.5,87C 281.926,91.6826 284.926,97.1826 286.5,103.5C 283.193,105.724 279.527,107.391 275.5,108.5C 273.414,104.768 271.414,100.935 269.5,97C 262.323,94.3949 259.156,96.8949 260,104.5C 263.934,117.637 268.268,130.637 273,143.5C 276.957,147.53 280.623,147.197 284,142.5C 283.784,137.668 282.617,133.001 280.5,128.5C 284.192,126.546 288.026,124.879 292,123.5C 296.936,131.471 297.936,139.805 295,148.5C 288.288,156.515 279.788,159.348 269.5,157C 267.246,155.623 265.08,154.123 263,152.5C 257.086,137.761 251.752,122.761 247,107.5C 244.844,95.8006 249.344,88.1339 260.5,84.5 Z"/></g>
<g><path style="opacity:0.922" fill="#000" d="M 1376.5,93.5 C 1380.96,93.9303 1385.12,95.2637 1389,97.5C 1389.33,106.167 1389.67,114.833 1390,123.5C 1395.29,116.54 1400.96,109.873 1407,103.5C 1410.74,105.135 1414.57,106.469 1418.5,107.5C 1418.65,108.552 1418.48,109.552 1418,110.5C 1408.67,121.167 1399.33,131.833 1390,142.5C 1386.16,152.175 1382.33,161.842 1378.5,171.5C 1374.33,170.221 1370.33,168.555 1366.5,166.5C 1370.29,157.283 1373.79,147.95 1377,138.5C 1377.59,123.491 1377.42,108.491 1376.5,93.5 Z"/></g>
<g><path style="opacity:0.982" fill="#000" d="M -0.5,527.5 C -0.5,519.5 -0.5,511.5 -0.5,503.5C 18.4935,501.767 37.4935,500.101 56.5,498.5C 55.7235,510.301 57.5569,521.634 62,532.5C 73.2953,547.377 88.1286,552.544 106.5,548C 125.486,542.664 133.653,530.164 131,510.5C 128.105,498.039 122.105,487.372 113,478.5C 91.9661,459.409 70.4661,440.909 48.5,423C 31.1727,408.353 17.6727,390.853 8,370.5C -2.56359,339.104 1.76974,310.104 21,283.5C 36.8806,267.813 56.0473,258.98 78.5,257C 107.661,253.206 133.994,259.873 157.5,277C 176.811,296.423 185.144,319.923 182.5,347.5C 163.205,349.563 143.872,351.229 124.5,352.5C 125.811,340.289 123.978,328.622 119,317.5C 112.681,308.674 104.014,304.34 93,304.5C 76.2297,304.367 65.8964,312.367 62,328.5C 60.2326,340.094 62.566,350.761 69,360.5C 78.7588,373.594 89.9254,385.427 102.5,396C 126.916,415.081 149.416,436.248 170,459.5C 194.507,491.624 196.84,525.291 177,560.5C 159.687,582.744 136.853,594.91 108.5,597C 77.7636,600.662 50.0969,593.328 25.5,575C 11.4437,562.049 2.777,546.216 -0.5,527.5 Z"/></g>
<g><path style="opacity:0.986" fill="#000" d="M 232.5,261.5 C 252.5,261.5 272.5,261.5 292.5,261.5C 292.333,350.167 292.5,438.834 293,527.5C 297.963,542.097 308.297,549.431 324,549.5C 340.613,549.862 351.28,542.195 356,526.5C 356.5,438.167 356.667,349.834 356.5,261.5C 376.167,261.5 395.833,261.5 415.5,261.5C 415.667,350.834 415.5,440.167 415,529.5C 411.196,556.637 397.029,576.137 372.5,588C 343.218,599.486 313.552,600.486 283.5,591C 255.42,580.595 238.586,560.762 233,531.5C 232.5,441.501 232.333,351.501 232.5,261.5 Z"/></g>
<g><path style="opacity:0.983" fill="#000" d="M 471.5,261.5 C 491.5,261.5 511.5,261.5 531.5,261.5C 531.5,371.833 531.5,482.167 531.5,592.5C 511.5,592.5 491.5,592.5 471.5,592.5C 471.5,482.167 471.5,371.833 471.5,261.5 Z"/></g>
<g><path style="opacity:0.985" fill="#000" d="M 571.5,261.5 C 634.5,261.5 697.5,261.5 760.5,261.5C 760.5,277.5 760.5,293.5 760.5,309.5C 738.833,309.5 717.167,309.5 695.5,309.5C 695.5,403.833 695.5,498.167 695.5,592.5C 675.5,592.5 655.5,592.5 635.5,592.5C 635.5,498.167 635.5,403.833 635.5,309.5C 614.167,309.5 592.833,309.5 571.5,309.5C 571.5,293.5 571.5,277.5 571.5,261.5 Z"/></g>
<g><path style="opacity:0.987" fill="#000" d="M 821.5,261.5 C 848.5,261.5 875.5,261.5 902.5,261.5C 923.576,371.881 944.91,482.215 966.5,592.5C 946.156,592.833 925.822,592.5 905.5,591.5C 901.274,567.814 896.941,544.147 892.5,520.5C 871.833,519.167 851.167,519.167 830.5,520.5C 826.059,544.147 821.726,567.814 817.5,591.5C 797.511,592.5 777.511,592.833 757.5,592.5C 779.09,482.215 800.424,371.881 821.5,261.5 Z M 860.5,338.5 C 861.693,338.97 862.36,339.97 862.5,341.5C 869.943,384.493 877.277,427.493 884.5,470.5C 869.167,470.5 853.833,470.5 838.5,470.5C 846.05,426.534 853.383,382.534 860.5,338.5 Z"/></g>
<g><path style="opacity:0.988" fill="#000" d="M 1006.5,261.5 C 1045.53,261.043 1084.53,261.543 1123.5,263C 1154.02,267.477 1175.52,283.644 1188,311.5C 1189.65,316.754 1190.98,322.087 1192,327.5C 1192.91,343.873 1192.57,360.206 1191,376.5C 1185.95,396.769 1174.12,411.602 1155.5,421C 1187.98,437.457 1201.98,463.957 1197.5,500.5C 1200.46,554.386 1175.12,584.886 1121.5,592C 1083.17,592.5 1044.83,592.667 1006.5,592.5C 1006.5,482.167 1006.5,371.833 1006.5,261.5 Z M 1066.5,309.5 C 1079.5,309.333 1092.5,309.5 1105.5,310C 1117.52,311.417 1126.02,317.584 1131,328.5C 1132.12,336.26 1132.62,344.093 1132.5,352C 1132.6,360.226 1132.1,368.392 1131,376.5C 1126.71,388.415 1118.21,395.248 1105.5,397C 1092.53,398.299 1079.53,398.799 1066.5,398.5C 1066.5,368.833 1066.5,339.167 1066.5,309.5 Z M 1066.5,446.5 C 1079.84,446.333 1093.17,446.5 1106.5,447C 1120.97,447.971 1130.81,455.138 1136,468.5C 1137.11,478.11 1137.61,487.777 1137.5,497.5C 1137.33,505.833 1137.17,514.167 1137,522.5C 1132.71,535.115 1123.87,542.281 1110.5,544C 1095.84,544.5 1081.17,544.667 1066.5,544.5C 1066.5,511.833 1066.5,479.167 1066.5,446.5 Z"/></g>
<g><path style="opacity:0.988" fill="#000" d="M 1245.5,261.5 C 1265.5,261.5 1285.5,261.5 1305.5,261.5C 1305.5,355.833 1305.5,450.167 1305.5,544.5C 1340.5,544.5 1375.5,544.5 1410.5,544.5C 1410.5,560.5 1410.5,576.5 1410.5,592.5C 1355.5,592.5 1300.5,592.5 1245.5,592.5C 1245.5,482.167 1245.5,371.833 1245.5,261.5 Z"/></g>
<g><path style="opacity:0.985" fill="#000" d="M 1618.5,261.5 C 1618.5,277.5 1618.5,293.5 1618.5,309.5C 1582.17,309.5 1545.83,309.5 1509.5,309.5C 1509.5,339.833 1509.5,370.167 1509.5,400.5C 1538.17,400.5 1566.83,400.5 1595.5,400.5C 1595.5,416.5 1595.5,432.5 1595.5,448.5C 1566.83,448.5 1538.17,448.5 1509.5,448.5C 1509.5,480.5 1509.5,512.5 1509.5,544.5C 1545.83,544.5 1582.17,544.5 1618.5,544.5C 1618.5,560.5 1618.5,576.5 1618.5,592.5C 1562.17,592.5 1505.83,592.5 1449.5,592.5C 1449.5,482.167 1449.5,371.833 1449.5,261.5C 1505.83,261.5 1562.17,261.5 1618.5,261.5 Z"/></g>
<g><path style="opacity:0.898" fill="#000" d="M 646.5,754.5 C 644.833,754.5 643.167,754.5 641.5,754.5C 631.999,752.672 627.999,747.005 629.5,737.5C 632.421,736.593 635.421,736.26 638.5,736.5C 638.164,744.175 641.331,746.508 648,743.5C 650,740.833 650,738.167 648,735.5C 641.26,729.43 635.26,722.763 630,715.5C 627.453,699.046 634.286,692.546 650.5,696C 656.455,699.409 659.122,704.576 658.5,711.5C 655.119,711.46 651.786,711.793 648.5,712.5C 649.106,708.378 647.606,705.378 644,703.5C 640.02,704.794 638.686,707.461 640,711.5C 644.578,717.082 649.578,722.416 655,727.5C 661.417,736.151 660.917,744.318 653.5,752C 650.996,752.698 648.663,753.531 646.5,754.5 Z"/></g>
<g><path style="opacity:0.925" fill="#000" d="M 889.5,754.5 C 887.5,754.5 885.5,754.5 883.5,754.5C 874.886,752.203 870.886,746.537 871.5,737.5C 874.833,737.5 878.167,737.5 881.5,737.5C 881.706,744.628 884.873,746.294 891,742.5C 891.667,738.167 891.667,733.833 891,729.5C 876.669,735.02 870.169,730.02 871.5,714.5C 869.272,702.257 874.272,695.591 886.5,694.5C 893.211,694.6 898.044,697.6 901,703.5C 901.667,717.5 901.667,731.5 901,745.5C 898.709,750.552 894.876,753.552 889.5,754.5 Z M 883.5,704.5 C 886.365,704.055 888.865,704.722 891,706.5C 891.667,711.167 891.667,715.833 891,720.5C 888.271,723.864 885.271,724.197 882,721.5C 881.333,716.5 881.333,711.5 882,706.5C 882.717,705.956 883.217,705.289 883.5,704.5 Z"/></g>
<g><path style="opacity:0.897" fill="#000" d="M 961.5,754.5 C 959.833,754.5 958.167,754.5 956.5,754.5C 947.354,752.671 943.021,747.004 943.5,737.5C 946.833,737.5 950.167,737.5 953.5,737.5C 953.272,743.802 955.939,745.969 961.5,744C 962,743.5 962.5,743 963,742.5C 963.667,738.167 963.667,733.833 963,729.5C 948.789,735.112 942.289,730.112 943.5,714.5C 941.695,702.647 946.695,695.98 958.5,694.5C 964.775,694.718 969.608,697.384 973,702.5C 974.612,716.097 974.945,729.764 974,743.5C 972.109,749.847 967.943,753.514 961.5,754.5 Z M 958.5,703.5 C 962.959,705.245 964.626,708.578 963.5,713.5C 963.333,715.833 963.167,718.167 963,720.5C 960.679,723.917 958.012,724.25 955,721.5C 953.455,716.953 953.121,712.287 954,707.5C 954.907,705.391 956.407,704.058 958.5,703.5 Z"/></g>
<g><path style="opacity:0.906" fill="#000" d="M 1035.5,754.5 C 1033.83,754.5 1032.17,754.5 1030.5,754.5C 1024.5,753.68 1020.33,750.347 1018,744.5C 1017.33,731.167 1017.33,717.833 1018,704.5C 1021.32,696.757 1027.15,693.59 1035.5,695C 1044.73,696.606 1048.73,702.106 1047.5,711.5C 1044.17,711.5 1040.83,711.5 1037.5,711.5C 1037.78,705.255 1035.11,703.088 1029.5,705C 1027.49,709.609 1026.99,714.442 1028,719.5C 1042.62,713.574 1049.45,718.574 1048.5,734.5C 1050.1,745.343 1045.77,752.01 1035.5,754.5 Z M 1031.5,725.5 C 1033.58,725.472 1035.42,726.139 1037,727.5C 1037.67,732.833 1037.67,738.167 1037,743.5C 1030.01,746.547 1026.85,744.047 1027.5,736C 1027.01,731.621 1028.34,728.121 1031.5,725.5 Z"/></g>
<g><path style="opacity:0.937" fill="#000" d="M 561.5,695.5 C 570.5,695.5 579.5,695.5 588.5,695.5C 588.5,698.5 588.5,701.5 588.5,704.5C 582.833,704.5 577.167,704.5 571.5,704.5C 571.5,709.5 571.5,714.5 571.5,719.5C 576.167,719.5 580.833,719.5 585.5,719.5C 585.5,722.5 585.5,725.5 585.5,728.5C 580.833,728.5 576.167,728.5 571.5,728.5C 571.5,733.833 571.5,739.167 571.5,744.5C 577.167,744.5 582.833,744.5 588.5,744.5C 588.5,747.5 588.5,750.5 588.5,753.5C 579.5,753.5 570.5,753.5 561.5,753.5C 561.5,734.167 561.5,714.833 561.5,695.5 Z"/></g>
<g><path style="opacity:0.89" fill="#000" d="M 698.5,695.5 C 708.833,695.5 719.167,695.5 729.5,695.5C 729.5,698.5 729.5,701.5 729.5,704.5C 726.167,704.5 722.833,704.5 719.5,704.5C 719.5,720.833 719.5,737.167 719.5,753.5C 715.833,753.5 712.167,753.5 708.5,753.5C 708.5,737.167 708.5,720.833 708.5,704.5C 705.167,704.5 701.833,704.5 698.5,704.5C 698.5,701.5 698.5,698.5 698.5,695.5 Z"/></g>
<g><path style="opacity:0.926" fill="#000" d="M 821.5,695.5 C 824.167,695.5 826.833,695.5 829.5,695.5C 829.5,714.833 829.5,734.167 829.5,753.5C 826.167,753.5 822.833,753.5 819.5,753.5C 819.5,738.5 819.5,723.5 819.5,708.5C 815.833,708.5 812.167,708.5 808.5,708.5C 808.5,706.167 808.5,703.833 808.5,701.5C 814.012,701.909 818.345,699.909 821.5,695.5 Z"/></g>
<g><path style="opacity:0.756" fill="#000" d="M 763.5,743.5 C 767.167,743.5 770.833,743.5 774.5,743.5C 774.5,746.833 774.5,750.167 774.5,753.5C 770.833,753.5 767.167,753.5 763.5,753.5C 763.5,750.167 763.5,746.833 763.5,743.5 Z"/></g>
</svg>
