<?xml version="1.0" encoding="UTF-8"?>
<svg version="1.1" xmlns="http://www.w3.org/2000/svg" width="710" height="404">
<path d="M0 0 C2.02899174 -0.01186262 4.05490584 -0.06099314 6.08325195 -0.11157227 C7.36651367 -0.11866211 8.64977539 -0.12575195 9.97192383 -0.13305664 C11.14795166 -0.14651123 12.32397949 -0.15996582 13.53564453 -0.17382812 C17.6593604 0.59903411 19.0620832 2.27435363 21.73364258 5.42553711 C22.44004883 6.18092773 23.14645508 6.93631836 23.87426758 7.71459961 C29.36486671 13.79492976 34.58554206 20.05421271 39.73364258 26.42553711 C41.41829283 28.49038333 43.10733631 30.55158345 44.79614258 32.61303711 C46.10864258 34.21720378 47.42114258 35.82137044 48.73364258 37.42553711 C52.43380653 36.19214913 53.28067292 34.78733267 55.67114258 31.73803711 C59.71831247 26.66426803 63.87947336 21.7162791 68.13183594 16.81347656 C68.59855713 16.27295654 69.06527832 15.73243652 69.54614258 15.17553711 C70.30109009 14.32886475 70.30109009 14.32886475 71.07128906 13.46508789 C72.85400102 11.35576889 72.85400102 11.35576889 74.56982422 8.56958008 C77.64875576 4.0760435 79.82448468 0.93219517 85.2331543 -0.50317383 C88.56174137 -0.71895057 91.79041855 -0.76380164 95.12011719 -0.5690918 C97.19316079 -0.44817865 99.25707018 -0.40506802 101.33325195 -0.37524414 C108.53546369 -0.15494955 108.53546369 -0.15494955 111.73364258 0.42553711 C113.87770253 3.64162704 113.98432416 4.47152913 113.98760986 8.16992188 C113.99606934 9.63366745 113.99606934 9.63366745 114.00469971 11.12698364 C113.99862701 12.7307637 113.99862701 12.7307637 113.99243164 14.36694336 C113.9976886 16.05749344 113.9976886 16.05749344 114.00305176 17.78219604 C114.01187343 21.51753856 114.00601827 25.25269257 113.99926758 28.98803711 C114.0006141 31.57731157 114.00255452 34.16658578 114.00506592 36.75585938 C114.00801778 42.18646887 114.00390755 47.61700715 113.99438477 53.04760742 C113.98350026 59.32730626 113.98702587 65.60687524 113.99803758 71.88657093 C114.00820424 77.92593495 114.00713183 83.96523538 114.00127411 90.00460815 C113.99993714 92.57551084 114.00158696 95.14641683 114.00623322 97.71731567 C114.01129555 101.3063442 114.00359208 104.89512113 113.99243164 108.48413086 C113.9964801 109.55331757 114.00052856 110.62250427 114.00469971 111.72409058 C113.99906006 112.69992096 113.99342041 113.67575134 113.98760986 114.68115234 C113.98647879 115.95429543 113.98647879 115.95429543 113.98532486 117.25315857 C113.73364258 119.42553711 113.73364258 119.42553711 111.73364258 122.42553711 C109.33520508 122.8137207 109.33520508 122.8137207 106.35864258 122.82397461 C105.29129883 122.8278418 104.22395508 122.83170898 103.12426758 122.83569336 C101.4459082 122.81829102 101.4459082 122.81829102 99.73364258 122.80053711 C98.61473633 122.81213867 97.49583008 122.82374023 96.34301758 122.83569336 C94.74200195 122.82989258 94.74200195 122.82989258 93.10864258 122.82397461 C92.12637695 122.82059082 91.14411133 122.81720703 90.13208008 122.8137207 C89.3405957 122.68562012 88.54911133 122.55751953 87.73364258 122.42553711 C85.31729515 118.80101596 85.42739439 116.11593264 85.41479492 111.92480469 C85.4047493 111.1635881 85.39470367 110.40237152 85.38435364 109.61808777 C85.35346374 107.10208898 85.33647054 104.58619687 85.31958008 102.07006836 C85.30087308 100.32556741 85.28130002 98.58107554 85.26089478 96.83659363 C85.20951801 92.24501907 85.16992201 87.65341516 85.13275146 83.06170654 C85.09274654 78.37626857 85.0416382 73.69095329 84.99145508 69.00561523 C84.89463016 59.81234198 84.81024642 50.61899953 84.73364258 41.42553711 C83.28569847 43.0284401 81.83859356 44.6321012 80.3918457 46.23608398 C79.58589966 47.12904175 78.77995361 48.02199951 77.94958496 48.9420166 C75.62903655 51.54277446 73.40672962 54.20055495 71.23364258 56.92553711 C67.56552182 61.45787481 63.7445817 65.81023379 59.81958008 70.12084961 C57.05998161 73.16984417 54.39292924 76.28894258 51.73364258 79.42553711 C47.55714797 79.11004651 45.6177234 77.71252319 42.84057617 74.63012695 C42.39278809 74.1088623 41.945 73.58759766 41.48364258 73.05053711 C41.00620605 72.51251465 40.52876953 71.97449219 40.03686523 71.42016602 C36.21462425 67.07896519 32.55930639 62.60279808 28.93286133 58.09741211 C25.99574913 54.52905555 22.90159958 51.11850302 19.77661133 47.71459961 C17.66817545 45.35218388 15.70284288 42.90443393 13.73364258 40.42553711 C13.72333511 41.43809067 13.71302765 42.45064423 13.70240784 43.49388123 C13.60484522 53.01497715 13.50212786 62.53600521 13.39430332 72.05699062 C13.33903092 76.95235835 13.28560417 81.84773201 13.23632812 86.74316406 C13.18874807 91.46346987 13.13640783 96.18370065 13.08070183 100.90391731 C13.06024936 102.70890508 13.04154117 104.51391345 13.02456856 106.3189373 C13.00058828 108.83818927 12.97052546 111.35729809 12.93896484 113.87646484 C12.93320938 114.63027939 12.92745392 115.38409393 12.92152405 116.16075134 C12.84769474 121.31148495 12.84769474 121.31148495 11.73364258 122.42553711 C7.76088443 122.67810588 3.77598083 122.61076162 -0.20385742 122.61303711 C-1.88898438 122.63140625 -1.88898438 122.63140625 -3.6081543 122.65014648 C-4.68000977 122.65208008 -5.75186523 122.65401367 -6.85620117 122.65600586 C-8.33914673 122.66216919 -8.33914673 122.66216919 -9.85205078 122.66845703 C-12.26635742 122.42553711 -12.26635742 122.42553711 -14.26635742 120.42553711 C-14.5180397 118.34217834 -14.5180397 118.34217834 -14.52032471 115.71875 C-14.52596436 114.72602081 -14.531604 113.73329163 -14.53741455 112.71047974 C-14.53336609 111.61742523 -14.52931763 110.52437073 -14.52514648 109.39819336 C-14.52865112 108.25019257 -14.53215576 107.10219177 -14.5357666 105.91940308 C-14.54459908 102.10888699 -14.53872933 98.29855522 -14.53198242 94.48803711 C-14.53332863 91.85009729 -14.5352688 89.21215772 -14.53778076 86.57421875 C-14.54142198 81.03928617 -14.53661725 75.50440691 -14.52709961 69.96948242 C-14.51621472 63.56538526 -14.51974019 57.16141543 -14.53075242 50.75732136 C-14.54091234 44.6031608 -14.53984923 38.44905681 -14.53398895 32.29489136 C-14.53265089 29.67292259 -14.5343056 27.05095059 -14.53894806 24.4289856 C-14.54400397 20.77019533 -14.53631605 17.1116526 -14.52514648 13.45288086 C-14.52919495 12.35982635 -14.53324341 11.26677185 -14.53741455 10.14059448 C-14.5317749 9.1478653 -14.52613525 8.15513611 -14.52032471 7.13232422 C-14.51957066 6.26659286 -14.5188166 5.40086151 -14.5180397 4.50889587 C-13.73074972 -2.00808048 -4.88452696 0.01353707 0 0 Z " fill="#000000" transform="translate(420.266357421875,77.574462890625)"/>
<path d="M0 0 C2.3984375 -0.38818359 2.3984375 -0.38818359 5.375 -0.3984375 C6.97601563 -0.40423828 6.97601563 -0.40423828 8.609375 -0.41015625 C9.72828125 -0.39855469 10.8471875 -0.38695313 12 -0.375 C13.11890625 -0.38660156 14.2378125 -0.39820312 15.390625 -0.41015625 C16.45796875 -0.40628906 17.5253125 -0.40242188 18.625 -0.3984375 C19.60726562 -0.39505371 20.58953125 -0.39166992 21.6015625 -0.38818359 C22.39304688 -0.26008301 23.18453125 -0.13198242 24 0 C26.50016044 3.75024066 26.2785765 6.67541637 26.25537109 11.01635742 C26.25899155 11.83299866 26.262612 12.64963989 26.26634216 13.49102783 C26.27323778 15.26544769 26.27574129 17.03988877 26.27439499 18.81432152 C26.27343007 21.62711794 26.28636945 24.43953184 26.30337524 27.25227356 C26.34964724 35.24993893 26.37423788 43.24756675 26.38085938 51.24536133 C26.38588675 56.13786032 26.4102033 61.02996261 26.44618607 65.92232704 C26.45595998 67.78292771 26.4583292 69.64358314 26.45301437 71.50420189 C26.44590817 74.11545225 26.46329981 76.72553018 26.48583984 79.33666992 C26.47766739 80.09800735 26.46949493 80.85934479 26.46107483 81.64375305 C26.55673372 87.90847088 28.42537617 93.24147446 32.75 97.875 C39.50424328 101.25212164 45.7051601 101.46875971 53 100 C58.21871268 98.16378628 60.56022884 95.96667701 63 91 C65.52645535 81.09468063 65.32724462 70.94221551 65.37890625 60.80078125 C65.39511296 59.0715392 65.41229618 57.34230606 65.43040466 55.61308289 C65.47571504 51.10092265 65.5107321 46.58875008 65.54260254 42.07647705 C65.5948637 34.81682402 65.65948671 27.5572999 65.73081779 20.29781151 C65.75366977 17.76449664 65.76991489 15.23119865 65.78553772 12.6978302 C65.79893324 11.15963543 65.81254706 9.62144253 65.82641602 8.08325195 C65.82902939 7.37634216 65.83164276 6.66943237 65.83433533 5.94110107 C65.88634251 1.11365749 65.88634251 1.11365749 67 0 C70.9720707 -0.28011184 74.95672416 -0.23179176 78.9375 -0.25 C80.06091797 -0.270625 81.18433594 -0.29125 82.34179688 -0.3125 C83.41365234 -0.31765625 84.48550781 -0.3228125 85.58984375 -0.328125 C86.57847412 -0.3374707 87.56710449 -0.34681641 88.58569336 -0.35644531 C89.78077515 -0.18000488 89.78077515 -0.18000488 91 0 C93.50878335 3.76317502 93.28147147 6.71936246 93.25878906 11.07641602 C93.2622937 11.89959824 93.26579834 12.72278046 93.26940918 13.57090759 C93.27822669 16.2986591 93.27237351 19.02615197 93.265625 21.75390625 C93.26697255 23.65380401 93.26891383 25.55370144 93.27142334 27.45359802 C93.27437537 31.4424873 93.27007775 35.43128713 93.26074219 39.42016602 C93.24940183 44.51188398 93.25587208 49.60338982 93.26788712 54.69509983 C93.27515 58.623546 93.27279661 62.5519428 93.26763153 66.48039055 C93.26630443 68.35610924 93.26790956 70.23183253 93.27259064 72.10754585 C93.30177135 87.10054287 93.17327085 101.20825967 83.02734375 113.36328125 C72.82176705 123.19841959 59.43427142 125.81860402 45.6875 126.3125 C31.82761368 125.98829213 18.17830426 122.80277988 7.8203125 113.13671875 C-3.06187362 100.36299384 -2.30553954 84.19276964 -2.265625 68.4375 C-2.26697435 66.55468699 -2.26891713 64.67187432 -2.27142334 62.7890625 C-2.27435609 58.86568852 -2.27013295 54.94240622 -2.26074219 51.01904297 C-2.24928548 45.98739937 -2.25595786 40.95596771 -2.26788712 35.92433167 C-2.27510211 32.04679759 -2.27282054 28.16931413 -2.26763153 24.29177856 C-2.26629729 22.43539403 -2.26793485 20.57900491 -2.27259064 18.72262573 C-2.2776568 16.1378756 -2.26994732 13.55347408 -2.25878906 10.96875 C-2.26283752 10.20200455 -2.26688599 9.43525909 -2.27105713 8.64527893 C-2.24091175 4.88526216 -2.13970307 3.2095546 0 0 Z " fill="#000000" transform="translate(185,78)"/>
<path d="M0 0 C0.99 0 1.98 0 3 0 C3.32920944 0.95670593 3.32920944 0.95670593 3.66506958 1.93273926 C17.17603463 41.2068519 17.17603463 41.2068519 30.8125 80.4375 C31.08201477 81.21029297 31.35152954 81.98308594 31.62921143 82.77929688 C35.62589795 94.23381341 39.77788073 105.62672015 44 117 C49.28 117.33 54.56 117.66 60 118 C60 119.65 60 121.3 60 123 C40.53 123 21.06 123 1 123 C1 121.35 1 119.7 1 118 C9.25 118 17.5 118 26 118 C22.04 106.12 18.08 94.24 14 82 C2.12 81.67 -9.76 81.34 -22 81 C-22.66 83.97 -23.32 86.94 -24 90 C-24.68403097 92.27328511 -25.40357735 94.53629301 -26.1640625 96.78515625 C-26.76347656 98.56889648 -26.76347656 98.56889648 -27.375 100.38867188 C-27.7875 101.60103516 -28.2 102.81339844 -28.625 104.0625 C-29.04523438 105.30966797 -29.46546875 106.55683594 -29.8984375 107.84179688 C-30.92818034 110.89592053 -31.96352424 113.94815472 -33 117 C-28.05 117.33 -23.1 117.66 -18 118 C-18 119.65 -18 121.3 -18 123 C-30.87 123 -43.74 123 -57 123 C-57 121.35 -57 119.7 -57 118 C-52.05 117.67 -47.1 117.34 -42 117 C-35.90626572 100.28671055 -29.87816948 83.55222531 -24 66.76171875 C-23.56753967 65.52656021 -23.13507935 64.29140167 -22.68951416 63.01881409 C-20.53676933 56.86643691 -18.38850958 50.71252607 -16.24511719 44.55688477 C-11.03529443 29.62444818 -5.62960139 14.77943077 0 0 Z M-4 28 C-6.14264947 34.20914783 -8.27816277 40.42071603 -10.40869141 46.6340332 C-11.13458103 48.74820702 -11.86211302 50.86181767 -12.59130859 52.97485352 C-13.63809802 56.00911866 -14.67899804 59.04534852 -15.71875 62.08203125 C-16.21091003 63.5024749 -16.21091003 63.5024749 -16.7130127 64.95161438 C-17.16347961 66.27264412 -17.16347961 66.27264412 -17.62304688 67.62036133 C-17.88952026 68.39535477 -18.15599365 69.17034821 -18.43054199 69.96882629 C-19.13497527 72.12985539 -19.13497527 72.12985539 -19 75 C-8.77 75 1.46 75 12 75 C10.16107029 68.25725774 8.31356442 61.65212157 6.08203125 55.05078125 C5.81992355 54.26728806 5.55781586 53.48379486 5.2877655 52.67655945 C4.46553814 50.22090243 3.63910919 47.76668503 2.8125 45.3125 C2.2477656 43.6283495 1.6833103 41.94410538 1.11914062 40.25976562 C-0.2506926 36.17209125 -1.62429074 32.08570035 -3 28 C-3.33 28 -3.66 28 -4 28 Z " fill="#000000" transform="translate(337,77)"/>
<path d="M0 0 C13.53 0 27.06 0 41 0 C41 13.53 41 27.06 41 41 C26.6875 47 26.6875 47 22.03710938 48.94580078 C15.94013186 51.49724305 9.84709862 54.05480723 3.78125 56.6796875 C2.90380127 57.05738281 2.02635254 57.43507812 1.12231445 57.82421875 C-0.46788067 58.51049167 -2.0554291 59.20293933 -3.63989258 59.90234375 C-5.4024848 60.66028917 -7.19851004 61.33981326 -9 62 C-9.66 61.67 -10.32 61.34 -11 61 C-9.71720945 53.34125911 -8.43097014 45.68310621 -7.14029789 38.02569008 C-6.54112692 34.47020987 -5.94315567 30.91453648 -5.34790039 27.35839844 C-4.77363962 23.92795315 -4.19626128 20.49804605 -3.61669731 17.06849289 C-3.28827298 15.12005306 -2.96309812 13.17106643 -2.63795471 11.22207642 C-2.43782272 10.04100311 -2.23769073 8.85992981 -2.03149414 7.64306641 C-1.76835167 6.07753525 -1.76835167 6.07753525 -1.49989319 4.4803772 C-1 2 -1 2 0 0 Z " fill="#000000" transform="translate(366,17)"/>
<path d="M0 0 C5.28 0 10.56 0 16 0 C16.85464844 2.14242188 17.70929688 4.28484375 18.58984375 6.4921875 C19.4170287 8.56404784 20.24451056 10.63578936 21.07202148 12.70751953 C21.6475278 14.14880164 22.22272474 15.59020731 22.79760742 17.03173828 C23.62337487 19.102213 24.45024924 21.17224261 25.27734375 23.2421875 C25.53466782 23.88807831 25.79199188 24.53396912 26.05711365 25.19943237 C26.9783215 27.50259685 27.89009622 29.78019245 29 32 C29.35827881 31.10168457 29.71655762 30.20336914 30.08569336 29.27783203 C31.41359649 25.94903269 32.74263595 22.62068804 34.07202148 19.29248047 C34.6475278 17.85119836 35.22272474 16.40979269 35.79760742 14.96826172 C36.62337487 12.897787 37.45024924 10.82775739 38.27734375 8.7578125 C38.53466782 8.11192169 38.79199188 7.46603088 39.05711365 6.80056763 C39.9783215 4.49740315 40.89009622 2.21980755 42 0 C47.28 0 52.56 0 58 0 C58 0.66 58 1.32 58 2 C56.02 2 54.04 2 52 2 C52 15.86 52 29.72 52 44 C53.98 44 55.96 44 58 44 C58 44.66 58 45.32 58 46 C50.74 46 43.48 46 36 46 C36 45.34 36 44.68 36 44 C38.31 44 40.62 44 43 44 C42.67 33.11 42.34 22.22 42 11 C37.38 22.55 32.76 34.1 28 46 C26.68 46 25.36 46 24 46 C19.38 34.12 14.76 22.24 10 10 C9.67 21.22 9.34 32.44 9 44 C11.31 44 13.62 44 16 44 C16 44.66 16 45.32 16 46 C10.72 46 5.44 46 0 46 C0 45.34 0 44.68 0 44 C1.98 44 3.96 44 6 44 C6 30.14 6 16.28 6 2 C4.02 2 2.04 2 0 2 C0 1.34 0 0.68 0 0 Z " fill="#000000" transform="translate(294,328)"/>
<path d="M0 0 C4.62 0 9.24 0 14 0 C14.33 0.66 14.66 1.32 15 2 C15.55816406 1.67773438 16.11632812 1.35546875 16.69140625 1.0234375 C20.66909703 -0.73993811 24.73650397 -0.59234355 29 0 C32.125 2 32.125 2 34 4 C34.61875 3.34 35.2375 2.68 35.875 2 C40.21491444 -0.77754524 43.96884679 -0.85835553 49 0 C52.09799981 2.19126816 52.80352112 3.41056336 54 7 C54.40404658 14.70065251 53.84353109 22.347968 53 30 C54.98 30 56.96 30 59 30 C59 30.99 59 31.98 59 33 C53.06 33 47.12 33 41 33 C41 32.01 41 31.02 41 30 C42.65 30 44.3 30 46 30 C45.505 17.13 45.505 17.13 45 4 C38.38000314 4.21773015 38.38000314 4.21773015 36.13671875 6.91796875 C34.50993019 11.32874597 34.17191272 15.64672936 33.8125 20.3125 C33.73064453 21.24384766 33.64878906 22.17519531 33.56445312 23.13476562 C33.3650129 25.42246232 33.17724178 27.71049448 33 30 C34.98 30 36.96 30 39 30 C39 30.99 39 31.98 39 33 C33.06 33 27.12 33 21 33 C21 32.01 21 31.02 21 30 C22.65 30 24.3 30 26 30 C25.505 17.13 25.505 17.13 25 4 C22.36 4.33 19.72 4.66 17 5 C13.53472879 10.19790682 13.77317751 16.28878147 13.4375 22.375 C13.39431641 23.11105469 13.35113281 23.84710938 13.30664062 24.60546875 C13.20156201 26.40348068 13.10037907 28.20171958 13 30 C14.65 30 16.3 30 18 30 C18 30.99 18 31.98 18 33 C12.06 33 6.12 33 0 33 C0 32.01 0 31.02 0 30 C1.98 30 3.96 30 6 30 C6 21.09 6 12.18 6 3 C4.02 3 2.04 3 0 3 C0 2.01 0 1.02 0 0 Z " fill="#000000" transform="translate(609,266)"/>
<path d="M0 0 C4.62 0 9.24 0 14 0 C14 14.52 14 29.04 14 44 C15.65 44 17.3 44 19 44 C19 44.99 19 45.98 19 47 C15.04 47 11.08 47 7 47 C6.67 46.34 6.34 45.68 6 45 C5.01 45.66 4.02 46.32 3 47 C-1.18614674 47.60362041 -4.93436214 47.41698873 -8.875 45.875 C-13.58121577 41.72245668 -14.6316743 36.62512266 -15.05859375 30.59375 C-14.93184867 24.9831677 -13.42207889 19.95075929 -9.375 15.9375 C-5.15823626 13.51676526 -1.7705424 13.13675899 3 14 C3.99 14.66 4.98 15.32 6 16 C6.33 11.71 6.66 7.42 7 3 C4.69 3 2.38 3 0 3 C0 2.01 0 1.02 0 0 Z M-3.6875 18.375 C-6.6435788 22.03490709 -6.25606037 25.80861784 -6.3125 30.3125 C-6.34150391 31.07240234 -6.37050781 31.83230469 -6.40039062 32.61523438 C-6.44659143 36.70578265 -6.31106994 38.5312892 -3.98046875 42.04296875 C-3.32691406 42.68878906 -2.67335938 43.33460938 -2 44 C0.93443402 43.73343428 0.93443402 43.73343428 4 43 C7.48841249 37.76738126 7.43270625 32.13361108 7 26 C6.09291728 22.23211793 5.27320503 19.26606502 2 17 C-1.8459699 16.5788847 -1.8459699 16.5788847 -3.6875 18.375 Z " fill="#000000" transform="translate(284,252)"/>
<path d="M0 0 C0 14.85 0 29.7 0 45 C1.65 45 3.3 45 5 45 C5 45.66 5 46.32 5 47 C1.04 47 -2.92 47 -7 47 C-7.33 46.34 -7.66 45.68 -8 45 C-8.70125 45.495 -9.4025 45.99 -10.125 46.5 C-13.51524386 48.26882288 -15.22446543 48.53936208 -19 48 C-23.34722411 45.69852841 -26.14464521 43.58956184 -28 39 C-29.46276605 31.89027663 -29.4758412 25.50536816 -26 19 C-22.77242792 15.31134619 -19.73550147 14.4540738 -15.0625 13.78515625 C-13 14 -13 14 -8 17 C-7.67 12.38 -7.34 7.76 -7 3 C-9.31 3 -11.62 3 -14 3 C-14 2.34 -14 1.68 -14 1 C-12.60459859 0.82975495 -11.20865091 0.6639851 -9.8125 0.5 C-9.03519531 0.4071875 -8.25789063 0.314375 -7.45703125 0.21875 C-4.98008214 -0.00177329 -2.48674635 0 0 0 Z M-18.66796875 19.49609375 C-20.57140662 23.0741104 -20.43573298 26.48648233 -20.375 30.4375 C-20.38660156 31.18837891 -20.39820313 31.93925781 -20.41015625 32.71289062 C-20.38625204 37.24273892 -20.01355843 40.37807062 -17 44 C-14 44.75 -14 44.75 -11 44 C-7.10770422 40.37613841 -7.05808895 36.20050502 -6.8125 31.125 C-6.87708854 26.25317873 -7.45453518 21.54546482 -11 18 C-15.20039396 17.41617191 -15.20039396 17.41617191 -18.66796875 19.49609375 Z " fill="#000000" transform="translate(236,327)"/>
<path d="M0 0 C0 14.85 0 29.7 0 45 C1.65 45 3.3 45 5 45 C5 45.66 5 46.32 5 47 C1.04 47 -2.92 47 -7 47 C-7.33 46.34 -7.66 45.68 -8 45 C-8.99 45.7734375 -8.99 45.7734375 -10 46.5625 C-14.01240841 48.48511236 -16.7845499 48.22273705 -21 47 C-24.79820876 44.97428866 -26.33609409 42.78092262 -27.875 38.875 C-29.72650122 32.48942478 -29.03645043 26.71451304 -26.6875 20.5625 C-24.52985994 17.28608362 -22.99210059 15.539876 -19.140625 14.49609375 C-13.85078237 13.55147899 -13.14793813 13.91123712 -8 17 C-7.67 12.38 -7.34 7.76 -7 3 C-9.31 3 -11.62 3 -14 3 C-14 2.34 -14 1.68 -14 1 C-12.60459859 0.82975495 -11.20865091 0.6639851 -9.8125 0.5 C-9.03519531 0.4071875 -8.25789063 0.314375 -7.45703125 0.21875 C-4.98008214 -0.00177329 -2.48674635 0 0 0 Z M-18.66796875 19.49609375 C-20.57140662 23.0741104 -20.43573298 26.48648233 -20.375 30.4375 C-20.38660156 31.18837891 -20.39820313 31.93925781 -20.41015625 32.71289062 C-20.38625204 37.24273892 -20.01355843 40.37807062 -17 44 C-14 44.75 -14 44.75 -11 44 C-7.97762379 41.08184366 -7.15811767 37.98934091 -6.83203125 33.88671875 C-6.78732492 28.85278616 -7.25888254 24.73970863 -9 20 C-10.88138759 17.71069764 -10.88138759 17.71069764 -13.9375 17.625 C-16.98786723 17.70203145 -16.98786723 17.70203145 -18.66796875 19.49609375 Z " fill="#000000" transform="translate(419,327)"/>
<path d="M0 0 C4.62 0 9.24 0 14 0 C14 14.52 14 29.04 14 44 C15.65 44 17.3 44 19 44 C19 44.99 19 45.98 19 47 C15.04 47 11.08 47 7 47 C6.67 46.34 6.34 45.68 6 45 C5.01 45.66 4.02 46.32 3 47 C-0.7411579 47.67697143 -4.43405275 47.82922523 -7.8515625 46.01953125 C-10.7398519 43.70747693 -12.70504667 41.43367715 -14 38 C-14.3359375 34.5390625 -14.3359375 34.5390625 -14.375 30.625 C-14.40335937 29.33851563 -14.43171875 28.05203125 -14.4609375 26.7265625 C-13.83784566 21.68902339 -11.64208971 18.82454412 -8.3125 15.125 C-4.70200412 13.36854254 -0.94292075 13.44087496 3 14 C3.99 14.66 4.98 15.32 6 16 C6.33 11.71 6.66 7.42 7 3 C4.69 3 2.38 3 0 3 C0 2.01 0 1.02 0 0 Z M-2 17 C-5.67189547 20.67189547 -6.51147834 23.23850269 -6.546875 28.23828125 C-6.53140625 28.98464844 -6.5159375 29.73101562 -6.5 30.5 C-6.51546875 31.24636719 -6.5309375 31.99273437 -6.546875 32.76171875 C-6.51147834 37.76149731 -5.67189547 40.32810453 -2 44 C0.91630113 44.05749557 0.91630113 44.05749557 4 43 C7.64724745 37.40755391 7.68876517 31.52413675 7 25 C6.37530161 22.03268267 5.70654192 20.61669761 4 18 C0.91630113 16.94250443 0.91630113 16.94250443 -2 17 Z " fill="#000000" transform="translate(356,252)"/>
<path d="M0 0 C0 14.85 0 29.7 0 45 C1.98 45 3.96 45 6 45 C6 45.66 6 46.32 6 47 C0.66666667 47 -4.66666667 47 -10 47 C-11.258125 47.226875 -12.51625 47.45375 -13.8125 47.6875 C-18.06387934 48.21014663 -20.4553344 47.57793862 -24 45 C-28.59817431 39.55479358 -28.60558913 34.3119789 -28.3828125 27.32421875 C-27.85128281 22.70858849 -26.99951455 20.55205671 -24 17 C-19.95624296 14.27485939 -16.84334402 13.47354956 -12 14 C-10.68 14.66 -9.36 15.32 -8 16 C-7.67 11.71 -7.34 7.42 -7 3 C-8.98 3 -10.96 3 -13 3 C-13 2.34 -13 1.68 -13 1 C-8.54459632 0.39587747 -4.52021205 0 0 0 Z M-18.671875 20.05859375 C-20.32826699 23.72701483 -20.36469007 26.48537942 -20.3125 30.5 C-20.30669922 32.43359375 -20.30669922 32.43359375 -20.30078125 34.40625 C-20.02232668 37.73323966 -19.43926533 40.01825509 -18 43 C-13.3936619 44.19896731 -13.3936619 44.19896731 -9.125 42.8125 C-6.82907449 39.1135089 -6.83944706 35.33630344 -6.8125 31.0625 C-6.79832031 30.04285156 -6.78414063 29.02320313 -6.76953125 27.97265625 C-7.09504613 23.774066 -8.01023466 20.98976534 -11 18 C-15.45281782 17.28253367 -15.45281782 17.28253367 -18.671875 20.05859375 Z " fill="#000000" transform="translate(504,327)"/>
<path d="M0 0 C6.93 0 13.86 0 21 0 C21 0.99 21 1.98 21 3 C18.69 3 16.38 3 14 3 C14.06902205 7.75108144 14.15705753 12.50129493 14.26245117 17.25170898 C14.2956311 18.86651963 14.32368458 20.48144431 14.34643555 22.09643555 C14.38011025 24.42285592 14.43242963 26.74823783 14.48828125 29.07421875 C14.49467117 29.79212082 14.5010611 30.51002289 14.50764465 31.24967957 C14.63543856 35.64197334 15.30282943 38.50008533 18 42 C20.69664208 43.34832104 22.86587521 43.16910682 25.875 43.1875 C26.92429687 43.20167969 27.97359375 43.21585937 29.0546875 43.23046875 C32.06290982 42.99507735 33.62985667 42.85466373 36 41 C37.90120775 36.41627212 38.29560874 32.34963586 38.4140625 27.4140625 C38.43342865 26.71227875 38.4527948 26.010495 38.4727478 25.28744507 C38.53207569 23.06675001 38.57873917 20.84600177 38.625 18.625 C38.66322302 17.11065566 38.70227722 15.59633206 38.7421875 14.08203125 C38.83773734 10.38821169 38.92193937 6.6942353 39 3 C36.69 3 34.38 3 32 3 C32 2.01 32 1.02 32 0 C36.95 0 41.9 0 47 0 C47 0.99 47 1.98 47 3 C45.35 3 43.7 3 42 3 C42.01571045 4.3912207 42.01571045 4.3912207 42.03173828 5.81054688 C42.06602673 9.284531 42.09099877 12.75833265 42.10986328 16.23242188 C42.11985901 17.72984676 42.13346014 19.22725244 42.15087891 20.72460938 C42.17541288 22.88937143 42.18654744 25.05387323 42.1953125 27.21875 C42.21102295 29.1668457 42.21102295 29.1668457 42.22705078 31.15429688 C41.62353259 41.37646741 41.62353259 41.37646741 38.0625 44.9375 C33.41397769 47.33219331 29.28474834 47.21740369 24.1875 47.25 C23.39279297 47.270625 22.59808594 47.29125 21.77929688 47.3125 C16.79181594 47.34550236 13.23909792 46.91477585 9 44 C5.65792604 39.75470302 5.60139779 35.83282009 5.70703125 30.63671875 C5.71127609 29.84473587 5.71552094 29.05275299 5.71989441 28.23677063 C5.73661837 25.71999373 5.77425775 23.20403276 5.8125 20.6875 C5.82755501 18.97592307 5.84124199 17.26433351 5.85351562 15.55273438 C5.88650115 11.36817767 5.93823902 7.18422693 6 3 C4.02 3 2.04 3 0 3 C0 2.01 0 1.02 0 0 Z " fill="#000000" transform="translate(14,252)"/>
<path d="M0 0 C4.29 0 8.58 0 13 0 C13.33 0.99 13.66 1.98 14 3 C14.639375 2.505 15.27875 2.01 15.9375 1.5 C20.02186049 -0.50050309 23.52432668 -0.7696485 28 0 C31.03215675 2.19831364 31.81654398 3.44963194 33 7 C33.08209792 8.77313851 33.10746294 10.54920775 33.09765625 12.32421875 C33.09443359 13.35224609 33.09121094 14.38027344 33.08789062 15.43945312 C33.07532227 17.04723633 33.07532227 17.04723633 33.0625 18.6875 C33.05798828 19.77095703 33.05347656 20.85441406 33.04882812 21.97070312 C33.03703743 24.64719085 33.02058063 27.32356777 33 30 C34.65 30 36.3 30 38 30 C38 30.99 38 31.98 38 33 C32.06 33 26.12 33 20 33 C20 32.01 20 31.02 20 30 C21.65 30 23.3 30 25 30 C24.505 17.13 24.505 17.13 24 4 C17.38339466 4.22510243 17.38339466 4.22510243 15.10546875 6.91796875 C13.51093167 11.36351559 13.42856231 15.62026654 13.3125 20.3125 C13.27833984 21.24384766 13.24417969 22.17519531 13.20898438 23.13476562 C13.12684059 25.42305672 13.05758338 27.71098104 13 30 C14.65 30 16.3 30 18 30 C18 30.99 18 31.98 18 33 C12.06 33 6.12 33 0 33 C0 32.01 0 31.02 0 30 C1.65 30 3.3 30 5 30 C5 21.09 5 12.18 5 3 C3.35 3 1.7 3 0 3 C0 2.01 0 1.02 0 0 Z " fill="#000000" transform="translate(64,266)"/>
<path d="M0 0 C1.89129639 0.25193787 1.89129639 0.25193787 4 1 C5.01251221 2.71473694 5.01251221 2.71473694 5.73925781 4.96899414 C6.01924622 5.80979019 6.29923462 6.65058624 6.58770752 7.51686096 C6.87329529 8.43039841 7.15888306 9.34393585 7.453125 10.28515625 C7.75820984 11.21597519 8.06329468 12.14679413 8.37762451 13.1058197 C9.35065067 16.08658316 10.30048744 19.07417296 11.25 22.0625 C11.90473874 24.08187083 12.56096999 26.1007584 13.21875 28.11914062 C14.82987501 33.07394484 16.42201228 38.03454964 18 43 C20.97 43.495 20.97 43.495 24 44 C24 44.99 24 45.98 24 47 C16.74 47 9.48 47 2 47 C2 46.01 2 45.02 2 44 C3.98 44 5.96 44 8 44 C7.7834375 43.31292969 7.566875 42.62585938 7.34375 41.91796875 C7.0653125 41.01691406 6.786875 40.11585938 6.5 39.1875 C6.2215625 38.29417969 5.943125 37.40085937 5.65625 36.48046875 C5 34 5 34 5 31 C1.37 31.33 -2.26 31.66 -6 32 C-7.32 35.96 -8.64 39.92 -10 44 C-8.02 44 -6.04 44 -4 44 C-4 44.99 -4 45.98 -4 47 C-9.28 47 -14.56 47 -20 47 C-20 46.01 -20 45.02 -20 44 C-18.02 44 -16.04 44 -14 44 C-13.84942139 43.48260254 -13.69884277 42.96520508 -13.54370117 42.43212891 C-10.96330645 33.69411968 -8.12700684 25.03960234 -5.3125 16.375 C-4.79612416 14.78258444 -4.27984733 13.19013677 -3.76367188 11.59765625 C-2.51025555 7.73139976 -1.25550112 3.86557996 0 0 Z M-1 15 C-1.67057887 16.7902061 -2.3363469 18.58221489 -3 20.375 C-3.37125 21.37273437 -3.7425 22.37046875 -4.125 23.3984375 C-5.10626277 25.85848061 -5.10626277 25.85848061 -5 28 C-2.03 28 0.94 28 4 28 C2.68 23.71 1.36 19.42 0 15 C-0.33 15 -0.66 15 -1 15 Z " fill="#000000" transform="translate(414,252)"/>
<path d="M0 0 C4.29 0 8.58 0 13 0 C13.33 0.99 13.66 1.98 14 3 C14.639375 2.505 15.27875 2.01 15.9375 1.5 C19.90013986 -0.44088483 23.6760602 -1.12540899 28 0 C30.76171875 1.73046875 30.76171875 1.73046875 33 5 C33.61475562 9.28657163 33.46977224 13.4935623 33.3125 17.8125 C33.28994141 18.98232422 33.26738281 20.15214844 33.24414062 21.35742188 C33.18532091 24.23958769 33.10317141 27.11913681 33 30 C34.65 30 36.3 30 38 30 C38 30.99 38 31.98 38 33 C32.39 33 26.78 33 21 33 C21 32.01 21 31.02 21 30 C22.65 30 24.3 30 26 30 C25.8902432 26.22856018 25.75958521 22.45812903 25.625 18.6875 C25.5940625 17.61564453 25.563125 16.54378906 25.53125 15.43945312 C25.49257813 14.41142578 25.45390625 13.38339844 25.4140625 12.32421875 C25.3826416 11.37635498 25.3512207 10.42849121 25.31884766 9.4519043 C25.1510949 6.7469731 25.1510949 6.7469731 23 4 C19.90677596 4.3344026 18.41112232 4.5595118 16.25 6.875 C14.40946466 10.00391008 13.86040403 12.66900452 13.68359375 16.23046875 C13.64169922 17.03291016 13.59980469 17.83535156 13.55664062 18.66210938 C13.51732422 19.49548828 13.47800781 20.32886719 13.4375 21.1875 C13.39431641 22.03248047 13.35113281 22.87746094 13.30664062 23.74804688 C13.20068482 25.83184433 13.0998498 27.91590103 13 30 C14.65 30 16.3 30 18 30 C18 30.99 18 31.98 18 33 C12.06 33 6.12 33 0 33 C0 32.01 0 31.02 0 30 C1.98 30 3.96 30 6 30 C6 21.09 6 12.18 6 3 C4.02 3 2.04 3 0 3 C0 2.01 0 1.02 0 0 Z " fill="#000000" transform="translate(533,266)"/>
<path d="M0 0 C3.96 0 7.92 0 12 0 C12.04898437 1.59070313 12.09796875 3.18140625 12.1484375 4.8203125 C12.2234939 6.92189164 12.29904048 9.02345331 12.375 11.125 C12.4059375 12.17171875 12.436875 13.2184375 12.46875 14.296875 C12.66764633 19.5344783 12.91668375 24.10505369 15 29 C18.43230448 28.73606499 18.43230448 28.73606499 22 28 C25.55485817 22.66771274 25.13532611 16.82082164 25.0625 10.625 C25.05798828 9.88894531 25.05347656 9.15289062 25.04882812 8.39453125 C25.03715142 6.59631842 25.01922011 4.79814803 25 3 C23.35 3 21.7 3 20 3 C20 2.01 20 1.02 20 0 C24.29 0 28.58 0 33 0 C33 9.9 33 19.8 33 30 C34.65 30 36.3 30 38 30 C38 30.99 38 31.98 38 33 C34.04 33 30.08 33 26 33 C25.67 32.01 25.34 31.02 25 30 C24.38125 30.495 23.7625 30.99 23.125 31.5 C18.85940249 33.54748681 14.63894662 34.10174982 10 33 C7.20703125 31.26953125 7.20703125 31.26953125 5 28 C4.3882028 23.71285962 4.53021967 19.50665983 4.6875 15.1875 C4.71005859 14.01767578 4.73261719 12.84785156 4.75585938 11.64257812 C4.81467909 8.76041231 4.89682859 5.88086319 5 3 C3.35 3 1.7 3 0 3 C0 2.01 0 1.02 0 0 Z " fill="#000000" transform="translate(437,266)"/>
<path d="M0 0 C3.02422499 2.13908597 3.47152113 3.33230866 4.5625 6.8125 C4.78955078 9.3996582 4.78955078 9.3996582 4.7578125 12.11328125 C4.75136719 13.08974609 4.74492187 14.06621094 4.73828125 15.07226562 C4.72152344 16.07966797 4.70476562 17.08707031 4.6875 18.125 C4.67847656 19.15173828 4.66945313 20.17847656 4.66015625 21.23632812 C4.63666201 23.76195899 4.60381131 26.2871081 4.5625 28.8125 C6.2125 29.1425 7.8625 29.4725 9.5625 29.8125 C9.5625 30.4725 9.5625 31.1325 9.5625 31.8125 C7.93759046 31.83948189 6.31255367 31.85888757 4.6875 31.875 C3.78257812 31.88660156 2.87765625 31.89820313 1.9453125 31.91015625 C-0.4375 31.8125 -0.4375 31.8125 -2.4375 30.8125 C-2.4375 30.1525 -2.4375 29.4925 -2.4375 28.8125 C-3.448125 29.4725 -4.45875 30.1325 -5.5 30.8125 C-9.26179009 32.95991864 -12.07804947 33.3060227 -16.4375 32.8125 C-19.03637253 31.96962242 -20.06927973 31.30959737 -21.6875 29.125 C-23.03683892 24.96453834 -23.02380438 21.31234841 -21.4296875 17.234375 C-18.55835234 13.74373226 -15.55898072 13.36932275 -11.25 12.5 C-10.50041016 12.33177734 -9.75082031 12.16355469 -8.97851562 11.99023438 C-7.13549211 11.57936926 -5.28693764 11.19345436 -3.4375 10.8125 C-3.62214366 6.47065798 -3.62214366 6.47065798 -5.4375 2.8125 C-7.10367115 2.77186168 -8.77138095 2.769779 -10.4375 2.8125 C-11.4275 5.1225 -12.4175 7.4325 -13.4375 9.8125 C-15.4175 9.8125 -17.3975 9.8125 -19.4375 9.8125 C-19.6875 6.5 -19.6875 6.5 -19.4375 2.8125 C-14.31665157 -2.48492941 -6.54014594 -2.25932314 0 0 Z M-12.4375 16.8125 C-14.71325811 19.46755112 -14.43489494 20.8880466 -14.3125 24.4375 C-13.80907672 27.88582749 -13.80907672 27.88582749 -11.375 29.25 C-10.735625 29.435625 -10.09625 29.62125 -9.4375 29.8125 C-5.91368313 27.26645403 -5.91368313 27.26645403 -3.4375 23.8125 C-3.36753986 22.10547265 -3.35309846 20.39581997 -3.375 18.6875 C-3.38402344 17.77742188 -3.39304687 16.86734375 -3.40234375 15.9296875 C-3.41394531 15.23101562 -3.42554688 14.53234375 -3.4375 13.8125 C-6.84811608 13.8125 -9.43188145 15.30969073 -12.4375 16.8125 Z " fill="#000000" transform="translate(377.4375,342.1875)"/>
<path d="M0 0 C1.11503906 0.01289063 2.23007812 0.02578125 3.37890625 0.0390625 C6.33615101 0.36386844 8.03069551 0.66131154 10.4375 2.375 C12.40320985 5.53273475 12.72873823 8.1121469 12.8515625 11.796875 C12.89023437 12.82167969 12.92890625 13.84648437 12.96875 14.90234375 C12.9996875 15.96582031 13.030625 17.02929688 13.0625 18.125 C13.10117187 19.20394531 13.13984375 20.28289062 13.1796875 21.39453125 C13.27384631 24.05451775 13.35947387 26.7144994 13.4375 29.375 C14.7575 29.705 16.0775 30.035 17.4375 30.375 C17.4375 31.365 17.4375 32.355 17.4375 33.375 C12.16092188 33.58192463 8.36449772 33.40376377 3.4375 31.375 C2.4475 32.035 1.4575 32.695 0.4375 33.375 C-2.15625 33.67578125 -2.15625 33.67578125 -5.0625 33.6875 C-6.0215625 33.70425781 -6.980625 33.72101563 -7.96875 33.73828125 C-10.5625 33.375 -10.5625 33.375 -12.3515625 32.12890625 C-14.60450578 28.86577228 -14.65124995 25.25269004 -14.5625 21.375 C-13.56273277 18.30904715 -12.69730132 16.99445577 -9.859375 15.4453125 C-5.17929713 13.51063464 -0.58327801 12.82328375 4.4375 12.375 C4.1075 9.735 3.7775 7.095 3.4375 4.375 C-0.14577753 3.37282936 -0.14577753 3.37282936 -3.5625 4.375 C-4.22022428 7.40434491 -4.22022428 7.40434491 -4.5625 10.375 C-6.5539056 10.75633299 -8.55529077 11.08825582 -10.5625 11.375 C-11.5625 10.375 -11.5625 10.375 -11.9375 7.5625 C-11.5625 4.375 -11.5625 4.375 -9.44921875 2.19921875 C-5.99602299 0.01702333 -4.04959835 -0.10323426 0 0 Z M-3.5625 17.375 C-5.71504366 19.51798293 -5.71504366 19.51798293 -6.5625 22.375 C-6.34002165 26.10593378 -6.34002165 26.10593378 -5.5625 29.375 C-3.322665 30.32520416 -3.322665 30.32520416 -0.5625 30.375 C2.49610827 28.73805491 2.49610827 28.73805491 4.4375 25.375 C4.85321262 21.66996128 4.72999187 18.08639685 4.4375 14.375 C1.64916186 14.375 -1.17073752 16.02760439 -3.5625 17.375 Z " fill="#000000" transform="translate(320.5625,265.625)"/>
<path d="M0 0 C1.1034375 -0.01933594 2.206875 -0.03867187 3.34375 -0.05859375 C7.44289262 0.58570218 8.89639854 1.15449159 11.5 4.4375 C12.23376524 8.30865116 12.24519378 12.13101254 12.25 16.0625 C12.28307443 18.15891029 12.31936948 20.25527303 12.359375 22.3515625 C12.36420898 23.2792041 12.36904297 24.2068457 12.37402344 25.16259766 C12.35078511 27.46996589 12.35078511 27.46996589 13.5 29.4375 C15.52463255 30.08963292 15.52463255 30.08963292 17.5 30.4375 C17.5 31.4275 17.5 32.4175 17.5 33.4375 C12.22342188 33.64442463 8.42699772 33.46626377 3.5 31.4375 C2.51 32.0975 1.52 32.7575 0.5 33.4375 C-4.50721184 34.16373683 -8.99645961 34.52144772 -13.1875 31.5 C-14.90479415 27.49298032 -15.54260736 23.72292289 -14.5 19.4375 C-11.46776697 15.33197656 -8.07887522 14.43943061 -3.25 13.1875 C-1.98671875 12.85234375 -0.7234375 12.5171875 0.578125 12.171875 C2.02445313 11.80835938 2.02445313 11.80835938 3.5 11.4375 C3.5 8.7975 3.5 6.1575 3.5 3.4375 C1.19 3.7675 -1.12 4.0975 -3.5 4.4375 C-4.16 6.4175 -4.82 8.3975 -5.5 10.4375 C-7.875 11.0625 -7.875 11.0625 -10.5 11.4375 C-11.16 10.7775 -11.82 10.1175 -12.5 9.4375 C-12.4375 6.5 -12.4375 6.5 -11.5 3.4375 C-7.70866249 0.50626628 -4.73352089 0.00552981 0 0 Z M-5.5 18.4375 C-6.73964612 21.46289185 -6.94609997 24.20773624 -6.5 27.4375 C-5.51 28.9225 -5.51 28.9225 -4.5 30.4375 C-1.01615511 30.20524367 0.8999146 30.05758825 3.375 27.5 C4.97889802 23.13383318 4.74121951 19.03853879 4.5 14.4375 C0.96197834 14.4375 -2.71808774 16.4268636 -5.5 18.4375 Z " fill="#000000" transform="translate(685.5,265.5625)"/>
<path d="M0 0 C5.15706474 2.48644193 7.73156735 5.54063822 9.6875 10.875 C10.59657279 17.056695 9.97144513 21.46696424 7 27 C1.81326264 32.81926631 1.81326264 32.81926631 -2.390625 33.23828125 C-8.47309728 33.39615963 -12.26995987 33.25703612 -17 29 C-20.96631714 24.48660464 -21.29104797 20.37876716 -21.21484375 14.5703125 C-20.79058517 9.49463713 -19.24042533 6.1496625 -15.4375 2.625 C-10.44098128 -0.70601248 -5.90652057 -0.60066311 0 0 Z M-9.625 4.1875 C-13.79566531 9.12644577 -13.41595081 14.77140324 -13 21 C-12.27440955 24.748884 -11.72089694 27.15037147 -9.25 30.0625 C-6.90807056 31.28395982 -6.90807056 31.28395982 -3.875 30.375 C-0.75251263 29.18266925 -0.75251263 29.18266925 1 26 C1.47499843 22.89112583 1.41627436 19.76639509 1.4375 16.625 C1.47037109 15.77421875 1.50324219 14.9234375 1.53710938 14.046875 C1.5756893 9.54354507 1.45124321 7.59814209 -1.33984375 3.8984375 C-5.04023571 1.25762914 -6.12164018 1.26803348 -9.625 4.1875 Z " fill="#000000" transform="translate(596,266)"/>
<path d="M0 0 C4.46560729 2.15306066 7.06687518 4.42154648 9 9 C10.62974087 15.48106253 10.04195948 21.0317449 7 27 C2.04948837 32.79572093 2.04948837 32.79572093 -2.390625 33.23828125 C-8.47309728 33.39615963 -12.26995987 33.25703612 -17 29 C-21.17405737 24.25021058 -21.28727215 19.82664346 -21.21484375 13.7265625 C-20.82090947 8.72717836 -19.10072211 5.99333459 -15.4375 2.6875 C-10.48002278 -0.74459961 -5.91632795 -0.60166047 0 0 Z M-12 6 C-13.02703346 9.6607757 -13.16333739 13.2113027 -13.1875 17 C-13.20167969 18.010625 -13.21585937 19.02125 -13.23046875 20.0625 C-12.91431872 24.09207322 -11.96659328 26.92984316 -9.25 29.9375 C-6.92636584 31.3081346 -6.92636584 31.3081346 -3.875 30.375 C-0.75251263 29.18266925 -0.75251263 29.18266925 1 26 C1.47499843 22.89112583 1.41627436 19.76639509 1.4375 16.625 C1.47037109 15.77421875 1.50324219 14.9234375 1.53710938 14.046875 C1.5756893 9.54354507 1.45124321 7.59814209 -1.33984375 3.8984375 C-6.02151515 0.5573328 -8.20170468 2.30165982 -12 6 Z " fill="#000000" transform="translate(520,266)"/>
<path d="M0 0 C3.93841959 2.07373261 6.3908053 4.1417704 8.02734375 8.28125 C8.02734375 10.59125 8.02734375 12.90125 8.02734375 15.28125 C1.09734375 15.28125 -5.83265625 15.28125 -12.97265625 15.28125 C-11.77276325 24.36043893 -11.77276325 24.36043893 -9.28515625 27.96875 C-6.90850712 29.56918655 -6.90850712 29.56918655 -3.47265625 29.28125 C0.25674123 28.21570786 1.66084841 27.2848787 4.02734375 24.28125 C4.35734375 23.62125 4.68734375 22.96125 5.02734375 22.28125 C6.01734375 22.28125 7.00734375 22.28125 8.02734375 22.28125 C7.80315436 26.20456434 7.06782283 27.24253088 4.15234375 30.03125 C-0.44203521 33.33920285 -4.42345193 33.86038897 -9.97265625 33.28125 C-15.32006039 31.32739079 -18.42883768 28.36888713 -20.97265625 23.28125 C-21.95285083 9.63392547 -21.95285083 9.63392547 -17.97265625 4.28125 C-12.81195541 -0.49239828 -6.82328945 -2.48610942 0 0 Z M-10.72265625 3.34375 C-12.55171373 6.17878909 -12.66020434 8.96925975 -12.97265625 12.28125 C-8.68265625 12.28125 -4.39265625 12.28125 0.02734375 12.28125 C-0.33935347 7.57402442 -0.33935347 7.57402442 -2.22265625 3.34375 C-5.20402762 1.53363167 -7.74128488 1.53363167 -10.72265625 3.34375 Z " fill="#000000" transform="translate(265.97265625,341.71875)"/>
<path d="M0 0 C3.48940859 1.97571044 6.19805534 4.39611069 8 8 C8 10.31 8 12.62 8 15 C1.07 15 -5.86 15 -13 15 C-11.85637379 24.45741203 -11.85637379 24.45741203 -8 29 C-3.89867442 29.75472103 -3.89867442 29.75472103 0 29 C1.90455795 27.32048828 3.30468628 25.59898915 4.7734375 23.53125 C5.17820313 23.0259375 5.58296875 22.520625 6 22 C6.66 22 7.32 22 8 22 C7.58534283 26.83766699 5.5801385 28.85646376 2 32 C-2.18633435 34.09316718 -7.44109613 33.42311395 -12 33 C-15.74635624 31.29113575 -17.39473666 29.78684234 -19.875 26.5625 C-21.71102974 20.74840581 -22.44092336 13.74357541 -20.203125 7.9296875 C-19.1875 6.375 -19.1875 6.375 -17 4 C-16.484375 3.401875 -15.96875 2.80375 -15.4375 2.1875 C-11.32532962 -1.20951031 -4.98443112 -0.7566894 0 0 Z M-11 4 C-12.49481868 6.91489643 -13 8.70776216 -13 12 C-8.71 12 -4.42 12 0 12 C-0.5364399 6.25077841 -0.5364399 6.25077841 -3 3 C-6.26106967 1.58686981 -8.14731166 1.90802855 -11 4 Z " fill="#000000" transform="translate(180,266)"/>
<path d="M0 0 C0 3.3 0 6.6 0 10 C-0.99 10 -1.98 10 -3 10 C-3.474375 9.030625 -3.94875 8.06125 -4.4375 7.0625 C-5.70193947 4.19522563 -5.70193947 4.19522563 -7 3 C-8.99958364 2.95919217 -11.00045254 2.95745644 -13 3 C-13.33 4.32 -13.66 5.64 -14 7 C-13.09636719 7.47050781 -12.19273437 7.94101562 -11.26171875 8.42578125 C-10.07016014 9.05439878 -8.87876228 9.68332109 -7.6875 10.3125 C-7.09259766 10.62123047 -6.49769531 10.92996094 -5.88476562 11.24804688 C0.17780875 14.46561428 0.17780875 14.46561428 2 17 C2.94200156 21.53179128 2.57366138 25.08214179 0.125 29 C-3.3939104 32.31191567 -5.621873 32.13568118 -10.375 32.125 C-11.51710937 32.12757813 -12.65921875 32.13015625 -13.8359375 32.1328125 C-17 32 -17 32 -21 31 C-21 27.04 -21 23.08 -21 19 C-20.34 19 -19.68 19 -19 19 C-18.608125 20.093125 -18.21625 21.18625 -17.8125 22.3125 C-16.65226606 24.97995374 -15.9273655 26.06478212 -13.6875 28.0625 C-10.14401076 29.2986009 -8.36248484 28.48574912 -5 27 C-5 25.35 -5 23.7 -5 22 C-6.48113281 21.32904297 -6.48113281 21.32904297 -7.9921875 20.64453125 C-9.286866 20.03471892 -10.58111479 19.4239937 -11.875 18.8125 C-12.52597656 18.52052734 -13.17695313 18.22855469 -13.84765625 17.92773438 C-16.88820327 16.47015256 -18.74492686 15.44276847 -20.44921875 12.484375 C-21.23128805 8.95674325 -20.94978885 6.48255911 -20 3 C-15.23351553 -3.19642981 -6.81825469 -1.70456367 0 0 Z " fill="#000000" transform="translate(242,267)"/>
<path d="M0 0 C6.27 0 12.54 0 19 0 C19 0.99 19 1.98 19 3 C17.35 3 15.7 3 14 3 C14.97587255 5.64709159 15.95552145 8.29267447 16.9375 10.9375 C17.35418945 12.06961914 17.35418945 12.06961914 17.77929688 13.22460938 C18.91753451 16.88779139 18.91753451 16.88779139 21 20 C22.98 14.72 24.96 9.44 27 4 C24.525 3.505 24.525 3.505 22 3 C22 2.01 22 1.02 22 0 C26.62 0 31.24 0 36 0 C36 0.99 36 1.98 36 3 C34.35 3 32.7 3 31 3 C30.74802856 3.78201782 30.74802856 3.78201782 30.4909668 4.57983398 C28.45071254 10.81534826 26.16852223 16.94025054 23.8125 23.0625 C23.44447266 24.02349609 23.07644531 24.98449219 22.69726562 25.97460938 C21.79990328 28.31707472 20.90078716 30.65885001 20 33 C18.68 33 17.36 33 16 33 C14.42909098 29.05069826 12.86262833 25.09967146 11.30029297 21.14697266 C10.7679894 19.80208609 10.23446596 18.45768168 9.69970703 17.11376953 C8.93201919 15.18386783 8.1687107 13.25228427 7.40625 11.3203125 C6.94541016 10.15773926 6.48457031 8.99516602 6.00976562 7.79736328 C5 5 5 5 5 3 C3.35 3 1.7 3 0 3 C0 2.01 0 1.02 0 0 Z " fill="#000000" transform="translate(122,266)"/>
<path d="M0 0 C4.29 0 8.58 0 13 0 C13.33 0.99 13.66 1.98 14 3 C14.515625 2.505 15.03125 2.01 15.5625 1.5 C18.91034349 -0.56021138 21.14014247 -0.49125459 25 0 C27 1.5625 27 1.5625 28 4 C27.6875 7.75 27.6875 7.75 27 11 C25.02 11 23.04 11 21 11 C20.67 8.69 20.34 6.38 20 4 C19.01 4 18.02 4 17 4 C13.43998234 12.51308572 13.30301337 20.89915004 13 30 C14.98 30 16.96 30 19 30 C19 30.99 19 31.98 19 33 C12.73 33 6.46 33 0 33 C0 32.01 0 31.02 0 30 C1.98 30 3.96 30 6 30 C6 21.09 6 12.18 6 3 C4.02 3 2.04 3 0 3 C0 2.01 0 1.02 0 0 Z " fill="#000000" transform="translate(190,266)"/>
<path d="M0 0 C2 2 2 2 2.1953125 3.9453125 C2.13020833 5.96354167 2.06510417 7.98177083 2 10 C-0.375 10.625 -0.375 10.625 -3 11 C-5 9 -5 9 -5.125 5.875 C-5.08375 4.92625 -5.0425 3.9775 -5 3 C-9.3165163 7.09515649 -11.03817058 9.52677368 -11.31640625 15.44921875 C-11.35830078 16.29677734 -11.40019531 17.14433594 -11.44335938 18.01757812 C-11.48267578 18.89865234 -11.52199219 19.77972656 -11.5625 20.6875 C-11.60568359 21.58017578 -11.64886719 22.47285156 -11.69335938 23.39257812 C-11.79935353 25.59490108 -11.90142051 27.79733473 -12 30 C-10.35 30 -8.7 30 -7 30 C-7 30.66 -7 31.32 -7 32 C-12.94 32 -18.88 32 -25 32 C-25 31.34 -25 30.68 -25 30 C-23.35 30 -21.7 30 -20 30 C-20 20.76 -20 11.52 -20 2 C-21.65 2 -23.3 2 -25 2 C-25 1.34 -25 0.68 -25 0 C-20.71 0 -16.42 0 -12 0 C-11.67 0.66 -11.34 1.32 -11 2 C-10.29875 1.484375 -9.5975 0.96875 -8.875 0.4375 C-5.35368548 -1.32315726 -3.72954958 -1.07742543 0 0 Z " fill="#000000" transform="translate(451,342)"/>
<path d="M0 0 C2.31 0 4.62 0 7 0 C7 2.64 7 5.28 7 8 C9.31 8 11.62 8 14 8 C14 8.99 14 9.98 14 11 C11.69 11 9.38 11 7 11 C7.33 19.25 7.66 27.5 8 36 C9.65 36.33 11.3 36.66 13 37 C13.33 36.01 13.66 35.02 14 34 C14.66 34 15.32 34 16 34 C15.6875 36.375 15.6875 36.375 15 39 C11.90219052 41.06520632 11.0459519 41.29477024 7.5 41.3125 C6.33984375 41.33763672 6.33984375 41.33763672 5.15625 41.36328125 C2.37783168 40.89517816 1.67448462 40.25687551 0 38 C-0.34057617 35.1809082 -0.34057617 35.1809082 -0.29296875 31.80078125 C-0.28330078 30.59228516 -0.27363281 29.38378906 -0.26367188 28.13867188 C-0.23853516 26.87603516 -0.21339844 25.61339844 -0.1875 24.3125 C-0.17396484 23.03826172 -0.16042969 21.76402344 -0.14648438 20.45117188 C-0.11108199 17.30035943 -0.0616979 14.15038955 0 11 C-1.65 11 -3.3 11 -5 11 C-5 10.01 -5 9.02 -5 8 C-3.35 8 -1.7 8 0 8 C0 5.36 0 2.72 0 0 Z " fill="#000000" transform="translate(482,258)"/>
<path d="M0 0 C4.29 0 8.58 0 13 0 C13 9.9 13 19.8 13 30 C14.65 30 16.3 30 18 30 C18 30.99 18 31.98 18 33 C12.06 33 6.12 33 0 33 C0 32.01 0 31.02 0 30 C1.65 30 3.3 30 5 30 C5 21.09 5 12.18 5 3 C3.35 3 1.7 3 0 3 C0 2.01 0 1.02 0 0 Z " fill="#000000" transform="translate(248,266)"/>
<path d="M0 0 C4.29 0 8.58 0 13 0 C13 9.9 13 19.8 13 30 C14.65 30 16.3 30 18 30 C18 30.99 18 31.98 18 33 C12.06 33 6.12 33 0 33 C0 32.01 0 31.02 0 30 C1.65 30 3.3 30 5 30 C5 21.09 5 12.18 5 3 C3.35 3 1.7 3 0 3 C0 2.01 0 1.02 0 0 Z " fill="#000000" transform="translate(104,266)"/>
<path d="M0 0 C4.29 0 8.58 0 13 0 C13 9.9 13 19.8 13 30 C14.65 30 16.3 30 18 30 C18 30.66 18 31.32 18 32 C12.06 32 6.12 32 0 32 C0 31.34 0 30.68 0 30 C1.98 30 3.96 30 6 30 C6 21.09 6 12.18 6 3 C4.02 3 2.04 3 0 3 C0 2.01 0 1.02 0 0 Z " fill="#000000" transform="translate(454,342)"/>
<path d="M0 0 C2.31 0 4.62 0 7 0 C7.33 0.99 7.66 1.98 8 3 C6.63671875 4.97265625 6.63671875 4.97265625 4.6875 7.0625 C4.05199219 7.75472656 3.41648437 8.44695312 2.76171875 9.16015625 C1.52249988 10.4543294 0.26699399 11.73300601 -1 13 C-1.99 13 -2.98 13 -4 13 C-3.50269348 8.02693484 -2.44697666 4.36200187 0 0 Z " fill="#000000" transform="translate(515,252)"/>
<path d="M0 0 C2.475 0.99 2.475 0.99 5 2 C5.125 4.375 5.125 4.375 5 7 C3 9 3 9 0.375 9.125 C-0.40875 9.08375 -1.1925 9.0425 -2 9 C-2.66 7.35 -3.32 5.7 -4 4 C-2.68 2.68 -1.36 1.36 0 0 Z " fill="#000000" transform="translate(256,252)"/>
<path d="M0 0 C2.6875 0.875 2.6875 0.875 5 2 C5.125 4.375 5.125 4.375 5 7 C3 9 3 9 0.4375 9.1875 C-2 9 -2 9 -3 8 C-3.25 5.0625 -3.25 5.0625 -3 2 C-2.01 1.34 -1.02 0.68 0 0 Z " fill="#000000" transform="translate(112,252)"/>
<path d="M0 0 C0.04254356 1.99954746 0.04080783 4.00041636 0 6 C-1 7 -1 7 -4 7.125 C-7 7 -7 7 -8 6 C-8.04080783 4.00041636 -8.04254356 1.99954746 -8 0 C-5.13822943 -1.43088528 -3.06624227 -0.59991697 0 0 Z " fill="#000000" transform="translate(467,329)"/>
</svg>
