<svg xmlns="http://www.w3.org/2000/svg" viewBox="0 0 1426 922" preserveAspectRatio="xMidYMid" width="1426" height="922" style="shape-rendering: auto; display: block; background: rgb(255, 255, 255);"><g data-idx="1"><linearGradient y2="0" y1="0" x2="1" x1="0" id="lg-nq4q5u6dq7r" data-idx="2">
  <stop offset="0" stop-color="#ee7bb3" data-idx="3"></stop>
  <stop offset="1" stop-color="#dbdee1" data-idx="4"></stop>
</linearGradient><path opacity="0.4" fill="url(#lg-nq4q5u6dq7r)" d="M 0 0 L 0 629.316 Q 142.6 636.796 285.2 605.201 T 570.4 433.389 T 855.6 441.127 T 1140.8 370.018 T 1426 289.44 L 1426 0 Z" data-idx="5">
  
</path><path opacity="0.4" fill="url(#lg-nq4q5u6dq7r)" d="M 0 0 L 0 547.44 Q 142.6 554.218 285.2 529.458 T 570.4 546.334 T 855.6 473.813 T 1140.8 330.841 T 1426 364.044 L 1426 0 Z" data-idx="7">
  
</path><path opacity="0.4" fill="url(#lg-nq4q5u6dq7r)" d="M 0 0 L 0 647.607 Q 142.6 578.44 285.2 546.152 T 570.4 454.281 T 855.6 507.12 T 1140.8 339.19 T 1426 303.363 L 1426 0 Z" data-idx="9">
  
</path><path opacity="0.4" fill="url(#lg-nq4q5u6dq7r)" d="M 0 0 L 0 609.307 Q 142.6 577.354 285.2 532.768 T 570.4 447.576 T 855.6 473.246 T 1140.8 339.272 T 1426 262.268 L 1426 0 Z" data-idx="11">
  
</path><path opacity="0.4" fill="url(#lg-nq4q5u6dq7r)" d="M 0 0 L 0 632.024 Q 142.6 578.056 285.2 542.91 T 570.4 443.087 T 855.6 434.628 T 1140.8 406.16 T 1426 396.33 L 1426 0 Z" data-idx="13">
  
</path><g data-idx="15"></g></g><text data-watermark="true" text-anchor="middle" dominant-baseline="middle" stroke-opacity="0.1" fill="black" fill-opacity="0.1" stroke="white" stroke-width="1" font-size="15.0" x="713.0" y="461.0" data-idx="16" style="opacity: 1; font-size: 15px;">LOADING.IO</text></svg>