<svg xmlns="http://www.w3.org/2000/svg" viewBox="0 0 1717 897" preserveAspectRatio="xMidYMid" width="1717" height="897" style="shape-rendering: auto; display: block; background: rgb(255, 255, 255);"><g style="transform: matrix(-1, 0, 0, 1, 1717, 0);" data-idx="1"><linearGradient y2="1" y1="0" x2="0" x1="0" id="lg-nq4q5u6dq7r" data-idx="2">
  <stop offset="0" stop-color="#ee7bb3" data-idx="3"></stop>
  <stop offset="1" stop-color="#dbdee1" data-idx="4"></stop>
</linearGradient><path opacity="0.4" fill="url(#lg-nq4q5u6dq7r)" d="M 0 0 L 792.391 0 Q 724 89.7 688.148 179.4 T 628.138 358.8 T 545.473 538.2 T 406.962 717.6 T 420.357 897 L 0 897 Z" data-idx="5">
  
</path><path opacity="0.4" fill="url(#lg-nq4q5u6dq7r)" d="M 0 0 L 756.84 0 Q 692.841 89.7 671.811 179.4 T 711.452 358.8 T 613.033 538.2 T 507.353 717.6 T 467.79 897 L 0 897 Z" data-idx="7">
  
</path><path opacity="0.4" fill="url(#lg-nq4q5u6dq7r)" d="M 0 0 L 891.847 0 Q 735.386 89.7 689.397 179.4 T 663.006 358.8 T 631.251 538.2 T 441.452 717.6 T 412.063 897 L 0 897 Z" data-idx="9">
  
</path><path opacity="0.4" fill="url(#lg-nq4q5u6dq7r)" d="M 0 0 L 794.165 0 Q 733.285 89.7 706.565 179.4 T 561.989 358.8 T 554.202 538.2 T 466.867 717.6 T 301.608 897 L 0 897 Z" data-idx="11">
  
</path><path opacity="0.4" fill="url(#lg-nq4q5u6dq7r)" d="M 0 0 L 801.054 0 Q 739.855 89.7 722.026 179.4 T 675.592 358.8 T 511.712 538.2 T 378.714 717.6 T 395.737 897 L 0 897 Z" data-idx="13">
  
</path><g data-idx="15"></g></g><text data-watermark="true" text-anchor="middle" dominant-baseline="middle" stroke-opacity="0.1" fill="black" fill-opacity="0.1" stroke="white" stroke-width="1" font-size="15.0" x="858.5" y="448.5" data-idx="16" style="opacity: 1; font-size: 15px;">LOADING.IO</text></svg>